<?xml version="1.0" encoding="utf-8"?>
<!-- Generator: Adobe Illustrator 17.1.0, SVG Export Plug-In . SVG Version: 6.00 Build 0)  -->
<!DOCTYPE svg PUBLIC "-//W3C//DTD SVG 1.1//EN" "http://www.w3.org/Graphics/SVG/1.1/DTD/svg11.dtd">
<svg version="1.1" xmlns="http://www.w3.org/2000/svg" xmlns:xlink="http://www.w3.org/1999/xlink" x="0px" y="0px" width="245px"
	 height="124.4px" viewBox="0 0 245 124.4" enable-background="new 0 0 245 124.4" xml:space="preserve">
<g id="íconos_BKG">
</g>
<g id="landing">
	<g>
		
			<circle fill="#FFFFFF" stroke="#D2D2D9" stroke-width="2.0307" stroke-linecap="round" stroke-linejoin="round" stroke-miterlimit="10" cx="232.4" cy="37.3" r="2.2"/>
		
			<circle fill="#FFFFFF" stroke="#D2D2D9" stroke-width="2.0307" stroke-linecap="round" stroke-linejoin="round" stroke-miterlimit="10" cx="7.4" cy="90.3" r="2.2"/>
		<g>
			
				<line fill="#FFFFFF" stroke="#D2D2D9" stroke-width="2.0307" stroke-linecap="round" stroke-linejoin="round" stroke-miterlimit="10" x1="182" y1="103.8" x2="186" y2="107.8"/>
			
				<line fill="#FFFFFF" stroke="#D2D2D9" stroke-width="2.0307" stroke-linecap="round" stroke-linejoin="round" stroke-miterlimit="10" x1="182" y1="107.7" x2="186" y2="103.8"/>
		</g>
		<g>
			
				<line fill="#FFFFFF" stroke="#D2D2D9" stroke-width="2.0307" stroke-linecap="round" stroke-linejoin="round" stroke-miterlimit="10" x1="162" y1="11.8" x2="166" y2="15.8"/>
			
				<line fill="#FFFFFF" stroke="#D2D2D9" stroke-width="2.0307" stroke-linecap="round" stroke-linejoin="round" stroke-miterlimit="10" x1="162" y1="15.7" x2="166" y2="11.8"/>
		</g>
		<path fill="#F5F5FC" d="M70.5,100.2c1.2,11.1-6.9,21.1-18,22.3l-17.8,1.9c-11.1,1.2-21.1-6.9-22.3-18l-8.7-82
			C2.5,13.2,10.5,3.2,21.7,2l17.8-1.9c11.1-1.2,21.1,6.9,22.3,18L70.5,100.2z"/>
		<path fill="#F5F5FC" d="M148,85.3c2.6,10.6-3.9,21.3-14.5,23.9l-20.6,5c-10.6,2.6-21.3-3.9-23.9-14.5l-16-65.3
			C70.5,23.9,77,13.2,87.6,10.6l20.6-5c10.6-2.6,21.3,3.9,23.9,14.5L148,85.3z"/>
		<path fill="#F5F5FC" d="M145.9,93.5c-9.6,0.8-18-6.4-18.8-16l-1.5-18.6c-0.8-9.6,6.4-18,16-18.8l59.1-4.8c9.6-0.8,18,6.4,18.8,16
			l1.5,18.6c0.8,9.6-6.4,18-16,18.8L145.9,93.5z"/>
		<g>
			<path fill="#BEBEC5" stroke="#83838A" stroke-miterlimit="10" d="M157.4,101.7c0,3-2.5,5.5-5.5,5.5H22.8c-3,0-5.5-2.5-5.5-5.5
				V14.6c0-3,2.5-5.5,5.5-5.5h129.1c3,0,5.5,2.5,5.5,5.5V101.7z"/>
			<path fill="#FFFFFF" stroke="#83838A" stroke-miterlimit="10" d="M151.5,93.1c0,1.2-1,2.1-2.1,2.1H23.7c-1.2,0-2.1-1-2.1-2.1
				V16.4c0-1.2,1-2.1,2.1-2.1h125.7c1.2,0,2.1,1,2.1,2.1V93.1z"/>
			<path fill="#BEBEC5" stroke="#83838A" stroke-miterlimit="10" d="M9,109.4c0,0-5.7-3.2-1.2-6.8l158.7,0.2c0,0,3.9,2.9-0.9,6.3
				L9,109.4z"/>
			<path fill="none" stroke="#83838A" stroke-miterlimit="10" d="M69,103c0,0,0.2,2.2,1.8,2.2l34.2,0.2c0,0,1.6-1,1.2-2.6"/>
		</g>
		<rect x="28" y="22.8" fill="#ECECF3" width="14" height="57"/>
		<rect x="49.2" y="43.1" fill="#ECECF3" width="14" height="36.7"/>
		<circle fill="#ECECF3" cx="56.3" cy="29.1" r="7.2"/>
		<rect x="68" y="21.8" fill="#C0C0C7" width="76" height="3"/>
		<rect x="68" y="26.8" fill="#C0C0C7" width="76" height="10"/>
		<rect x="68" y="42.8" fill="#C0C0C7" width="76" height="1"/>
		<rect x="68" y="54.8" fill="#C0C0C7" width="76" height="1"/>
		<rect x="68" y="66.8" fill="#C0C0C7" width="76" height="1"/>
		<rect x="68" y="77.8" fill="#C0C0C7" width="76" height="1"/>
		<path fill="#6D6D74" d="M97,87.4c0,0.8-0.6,1.4-1.4,1.4H80.4c-0.8,0-1.4-0.6-1.4-1.4v-0.2c0-0.8,0.6-1.4,1.4-1.4h15.2
			c0.8,0,1.4,0.6,1.4,1.4V87.4z"/>
		<polyline fill="none" stroke="#6D6D74" stroke-width="2" stroke-miterlimit="10" points="73.7,76.9 100,56.9 125.3,68.6 
			171.8,22.6 205.7,18.1 		"/>
		<g>
			
				<path fill="#FFFFFF" stroke="#78787F" stroke-width="3" stroke-linecap="round" stroke-linejoin="round" stroke-miterlimit="10" d="
				M205.1,41.3H146c-3.6,0-6.4,2.9-6.4,6.4v29.1c0,3.6,2.9,6.4,6.4,6.4h15.3l-0.1,13.3l12.9-13.3h31c3.6,0,6.4-2.9,6.4-6.4V47.7
				C211.5,44.2,208.6,41.3,205.1,41.3z"/>
			
				<line fill="#ECECF3" stroke="#ACACB3" stroke-width="2.8032" stroke-linecap="round" stroke-linejoin="round" stroke-miterlimit="10" x1="147.4" y1="49" x2="200" y2="48.9"/>
			
				<line fill="#ECECF3" stroke="#ACACB3" stroke-width="2.8032" stroke-linecap="round" stroke-linejoin="round" stroke-miterlimit="10" x1="147.4" y1="54" x2="200" y2="53.9"/>
			
				<line fill="#ECECF3" stroke="#ACACB3" stroke-width="2.9011" stroke-linecap="round" stroke-linejoin="round" stroke-miterlimit="10" x1="205" y1="72.3" x2="167.8" y2="72.2"/>
			
				<line fill="#ECECF3" stroke="#ACACB3" stroke-width="3" stroke-linecap="round" stroke-linejoin="round" stroke-miterlimit="10" x1="162" y1="72.3" x2="161" y2="72.3"/>
			
				<line fill="#ECECF3" stroke="#ACACB3" stroke-width="2.9011" stroke-linecap="round" stroke-linejoin="round" stroke-miterlimit="10" x1="205" y1="68.3" x2="167.8" y2="68.2"/>
			
				<line fill="#ECECF3" stroke="#ACACB3" stroke-width="3" stroke-linecap="round" stroke-linejoin="round" stroke-miterlimit="10" x1="162" y1="68.3" x2="161" y2="68.3"/>
			
				<line fill="#ECECF3" stroke="#ACACB3" stroke-width="2.9011" stroke-linecap="round" stroke-linejoin="round" stroke-miterlimit="10" x1="205" y1="64.3" x2="167.8" y2="64.2"/>
			
				<line fill="#ECECF3" stroke="#ACACB3" stroke-width="3" stroke-linecap="round" stroke-linejoin="round" stroke-miterlimit="10" x1="162" y1="64.3" x2="161" y2="64.3"/>
			
				<line fill="#ECECF3" stroke="#ACACB3" stroke-width="2.9011" stroke-linecap="round" stroke-linejoin="round" stroke-miterlimit="10" x1="205" y1="60.3" x2="167.8" y2="60.2"/>
			
				<line fill="#ECECF3" stroke="#ACACB3" stroke-width="3" stroke-linecap="round" stroke-linejoin="round" stroke-miterlimit="10" x1="162" y1="60.3" x2="161" y2="60.3"/>
			<path fill="#ECECF3" d="M156.5,63.3c0,2.2-1.8,4-4,4h-0.1c-2.2,0-4-1.8-4-4v-0.1c0-2.2,1.8-4,4-4h0.1
				C154.7,59.3,156.5,61.1,156.5,63.3L156.5,63.3z"/>
		</g>
		<g>
			
				<path fill="#ECECF3" stroke="#78787F" stroke-width="3" stroke-linecap="round" stroke-linejoin="round" stroke-miterlimit="10" d="
				M239.8,58.3h-47c-2.2,0-4.2,1.8-4.2,4v22.3c0,2.2,2,3.7,4.2,3.7h11.1l13.1,13.1l0.3-13.1h22.4c2.2,0,3.7-1.5,3.7-3.7V62.3
				C243.5,60.1,242,58.3,239.8,58.3z"/>
			
				<line fill="#ECECF3" stroke="#ACACB3" stroke-width="2.9011" stroke-linecap="round" stroke-linejoin="round" stroke-miterlimit="10" x1="194.4" y1="79.3" x2="231.6" y2="79.2"/>
			
				<line fill="#ECECF3" stroke="#ACACB3" stroke-width="3" stroke-linecap="round" stroke-linejoin="round" stroke-miterlimit="10" x1="237" y1="79.3" x2="238" y2="79.3"/>
			
				<line fill="#ECECF3" stroke="#ACACB3" stroke-width="2.9011" stroke-linecap="round" stroke-linejoin="round" stroke-miterlimit="10" x1="194.4" y1="75.3" x2="231.6" y2="75.2"/>
			
				<line fill="#ECECF3" stroke="#ACACB3" stroke-width="3" stroke-linecap="round" stroke-linejoin="round" stroke-miterlimit="10" x1="237" y1="75.3" x2="238" y2="75.3"/>
			
				<line fill="#ECECF3" stroke="#ACACB3" stroke-width="2.9011" stroke-linecap="round" stroke-linejoin="round" stroke-miterlimit="10" x1="194.4" y1="71.3" x2="231.6" y2="71.2"/>
			
				<line fill="#ECECF3" stroke="#ACACB3" stroke-width="3" stroke-linecap="round" stroke-linejoin="round" stroke-miterlimit="10" x1="237" y1="71.3" x2="238" y2="71.3"/>
			
				<line fill="#ECECF3" stroke="#ACACB3" stroke-width="2.9011" stroke-linecap="round" stroke-linejoin="round" stroke-miterlimit="10" x1="194.4" y1="67.3" x2="231.6" y2="67.2"/>
			
				<line fill="#ECECF3" stroke="#ACACB3" stroke-width="3" stroke-linecap="round" stroke-linejoin="round" stroke-miterlimit="10" x1="237" y1="67.3" x2="238" y2="67.3"/>
		</g>
		<g>
			
				<line fill="#FFFFFF" stroke="#D2D2D9" stroke-width="2.0307" stroke-linecap="round" stroke-linejoin="round" stroke-miterlimit="10" x1="1" y1="16.8" x2="5" y2="20.8"/>
			
				<line fill="#FFFFFF" stroke="#D2D2D9" stroke-width="2.0307" stroke-linecap="round" stroke-linejoin="round" stroke-miterlimit="10" x1="1" y1="20.7" x2="5" y2="16.8"/>
		</g>
	</g>
</g>
<g id="banners">
</g>
<g id="Grid" display="none">
	<rect x="-40" y="-3052.2" display="inline" opacity="0.16" fill="#FFAA00" width="76" height="3261"/>
	<rect x="48" y="-3052.2" display="inline" opacity="0.16" fill="#FFAA00" width="74" height="3261"/>
	<rect x="133" y="-3052.2" display="inline" opacity="0.16" fill="#FFAA00" width="76" height="3261"/>
	<rect x="221" y="-3052.2" display="inline" opacity="0.16" fill="#FFAA00" width="74" height="3261"/>
</g>
</svg>
