<?xml version="1.0" encoding="utf-8"?>
<!-- Generator: Adobe Illustrator 17.1.0, SVG Export Plug-In . SVG Version: 6.00 Build 0)  -->
<!DOCTYPE svg PUBLIC "-//W3C//DTD SVG 1.1//EN" "http://www.w3.org/Graphics/SVG/1.1/DTD/svg11.dtd">
<svg version="1.1" id="Capa_1" xmlns="http://www.w3.org/2000/svg" xmlns:xlink="http://www.w3.org/1999/xlink" x="0px" y="0px"
	 width="566.1px" height="543px" viewBox="0 0 566.1 543" enable-background="new 0 0 566.1 543" xml:space="preserve">
<g>
	<defs>
		<rect id="SVGID_1_" width="1285" height="543"/>
	</defs>
	<clipPath id="SVGID_2_">
		<use xlink:href="#SVGID_1_"  overflow="visible"/>
	</clipPath>
	<rect clip-path="url(#SVGID_2_)" fill="#163F67" width="569" height="543"/>
	<g clip-path="url(#SVGID_2_)">
		<g>
			<g>
				<path fill="#FBFBFB" d="M258.7,293.9c3.4,4.1,9.4,4.7,13.5,1.3l11.8-9.7c4.1-3.4,4.7-9.4,1.3-13.5l-18-21.9
					c-3.4-4.1-9.4-4.7-13.5-1.3l-11.8,9.7c-4.1,3.4-4.7,9.4-1.3,13.5L258.7,293.9z"/>
				<g>
					<path fill="#F1F2F2" d="M253.8,248.8l-11.8,9.7c-4.1,3.4-4.7,9.4-1.3,13.5l1.2,1.4c-3.4-4.1-2.8-10.1,1.3-13.5l11.8-9.7
						c4.1-3.4,10.1-2.8,13.5,1.3l-1.2-1.4C263.9,246,257.9,245.4,253.8,248.8z"/>
					<path fill="#E6E7E8" d="M284,285.5l-11.8,9.7c-4.1,3.4-10.1,2.8-13.5-1.3l1.2,1.4c3.4,4.1,9.4,4.7,13.5,1.3l11.8-9.7
						c4.1-3.4,4.7-9.4,1.3-13.5l-1.2-1.4C288.7,276.1,288.1,282.1,284,285.5z"/>
				</g>
				<g opacity="0.8">
					<path fill="#FFFFFF" d="M261.9,246.8c-2.7-0.6-5.7,0.1-8,2l-11.8,9.7c-4.1,3.4-4.7,9.4-1.3,13.5l17.1,20.7
						C251.6,275.3,252.8,258,261.9,246.8z"/>
				</g>
				<circle fill="#F1F2F2" cx="252.7" cy="259.4" r="3.3"/>
			</g>
			<g>
				
					<rect x="109.8" y="347.8" transform="matrix(0.4062 0.9138 -0.9138 0.4062 469.5762 147.9538)" fill="#F1F2F2" width="22.2" height="175.1"/>
				<g>
					<g>
						<polygon fill="#D9DADB" points="49.4,467.6 44.7,457 42.3,458.1 47,468.7 						"/>
					</g>
					<g>
						
							<rect x="68.3" y="449" transform="matrix(0.4065 0.9137 -0.9137 0.4065 455.4042 199.5559)" fill="#D9DADB" width="11.6" height="2.6"/>
					</g>
					<g>
						<polygon fill="#D9DADB" points="92.1,448.6 87.4,438 85,439.1 89.8,449.7 						"/>
					</g>
					<g>
						
							<rect x="97.5" y="436" transform="matrix(0.4061 0.9138 -0.9138 0.4061 460.9922 165.319)" fill="#D9DADB" width="11.6" height="2.6"/>
					</g>
					<g>
						
							<rect x="111.6" y="429.9" transform="matrix(0.4064 0.9137 -0.9137 0.4064 463.9445 148.4072)" fill="#D9DADB" width="12.2" height="2.6"/>
					</g>
					<g>
						
							<rect x="125.1" y="423.9" transform="matrix(0.4062 0.9138 -0.9138 0.4062 466.5435 132.5908)" fill="#D9DADB" width="12.2" height="2.6"/>
					</g>
					<g>
						<polygon fill="#D9DADB" points="149.9,423.7 144.9,412.5 142.5,413.6 147.5,424.7 						"/>
					</g>
					<g>
						
							<rect x="54.2" y="455.3" transform="matrix(0.4063 0.9137 -0.9137 0.4063 452.8005 216.2904)" fill="#D9DADB" width="11.6" height="2.6"/>
					</g>
					<g>
						<polygon fill="#D9DADB" points="54.2,459.1 51.9,453.8 49.5,454.9 51.8,460.2 						"/>
					</g>
					<g>
						
							<rect x="63.1" y="449.4" transform="matrix(0.4066 0.9136 -0.9136 0.4066 450.9628 207.1707)" fill="#D9DADB" width="5.8" height="2.6"/>
					</g>
					<g>
						<polygon fill="#D9DADB" points="82.3,446.7 79.9,441.4 77.5,442.4 79.9,447.7 						"/>
					</g>
					<g>
						
							<rect x="91.7" y="436.7" transform="matrix(0.4065 0.9137 -0.9137 0.4065 456.35 173.578)" fill="#D9DADB" width="5.8" height="2.6"/>
					</g>
					<g>
						<polygon fill="#D9DADB" points="111.1,433.9 108.7,428.6 106.3,429.6 108.7,434.9 						"/>
					</g>
					<g>
						
							<rect x="120.1" y="424.1" transform="matrix(0.4059 0.9139 -0.9139 0.4059 461.8465 140.297)" fill="#D9DADB" width="5.8" height="2.6"/>
					</g>
					<g>
						
							<rect x="134.8" y="417.6" transform="matrix(0.406 0.9139 -0.9139 0.406 464.6042 122.9528)" fill="#D9DADB" width="5.8" height="2.6"/>
					</g>
				</g>
				<g>
					<g>
						
							<rect x="150.5" y="412.5" transform="matrix(0.406 0.9139 -0.9139 0.406 470.968 102.9501)" fill="#D9DADB" width="11.6" height="2.6"/>
					</g>
					<g>
						<polygon fill="#D9DADB" points="188.1,406 183.4,395.4 181,396.5 185.7,407 						"/>
					</g>
					<g>
						
							<rect x="164.6" y="406.2" transform="matrix(0.4064 0.9137 -0.9137 0.4064 473.4933 86.2004)" fill="#D9DADB" width="11.6" height="2.6"/>
					</g>
					<g>
						
							<rect x="159.4" y="406.6" transform="matrix(0.4059 0.9139 -0.9139 0.4059 469.2322 94.0117)" fill="#D9DADB" width="5.8" height="2.6"/>
					</g>
					<g>
						<polygon fill="#D9DADB" points="178.8,403.8 176.5,398.5 174.1,399.5 176.4,404.8 						"/>
					</g>
					<g>
						
							<rect x="187.4" y="394.2" transform="matrix(0.4064 0.9137 -0.9137 0.4064 474.3315 60.8583)" fill="#D9DADB" width="5.8" height="2.6"/>
					</g>
				</g>
				
					<rect x="124" y="357" transform="matrix(-0.4053 -0.9142 0.9142 -0.4053 -230.6471 738.9302)" fill="#E6E7E8" width="2.1" height="175"/>
			</g>
			<g>
				<g>
					<path fill="#2E333C" d="M322.3,387.8c0.5-2.4-0.7-4.7-2.7-5.2l-40.1-9.1c-2.1-0.5-4.2,1.1-4.7,3.5l-3.1,13.8l47.6,10.8
						L322.3,387.8z"/>
					<path fill="#272C34" d="M271.6,390.8l-11.7,51.7c-0.5,2.4,0.7,4.7,2.7,5.2l40.1,9.1c2.1,0.5,4.2-1.1,4.7-3.5l11.7-51.7
						L271.6,390.8z"/>
				</g>
				<g>
					<path fill="#373C46" d="M320.6,387.4c0.5-2.4-0.7-4.7-2.7-5.1l-40.1-9.1c-2.1-0.5-4.2,1.1-4.7,3.5l-3.1,13.8l47.6,10.8
						L320.6,387.4z"/>
					<path fill="#535B66" d="M317,388.2c0.4-1.7-0.7-3.4-2.5-3.8l-34.7-7.9c-1.8-0.4-3.5,0.7-3.9,2.4l-2.3,10l41.2,9.3L317,388.2z"
						/>
					<path fill="#2F343D" d="M269.9,390.4l-11.7,51.7c-0.5,2.4,0.7,4.7,2.7,5.2l40.1,9.1c2.1,0.5,4.2-1.1,4.7-3.5l11.7-51.7
						L269.9,390.4z"/>
					<g opacity="0.2">
						<polygon fill="#FFFFFF" points="281.4,390.6 276.6,389.5 282.7,377.1 287.4,378.2 						"/>
						<polygon fill="#FFFFFF" points="284.2,391.2 282.6,390.9 288.6,378.5 290.2,378.9 						"/>
						<polygon fill="#FFFFFF" points="287,391.9 285.4,391.5 291.5,379.1 293.1,379.5 						"/>
					</g>
					<g>
						<path fill="#3B404A" d="M272.4,399.6c-0.1,0.5,0.1,0.9,0.5,1l7.4,1.7c0.4,0.1,0.8-0.2,0.9-0.7l0.9-4.1c0.1-0.5-0.1-0.9-0.5-1
							l-7.4-1.7c-0.4-0.1-0.8,0.2-0.9,0.7L272.4,399.6z"/>
						<path fill="#3B404A" d="M282.3,401.9c-0.1,0.5,0.1,0.9,0.5,1l7.4,1.7c0.4,0.1,0.8-0.2,0.9-0.7l0.9-4.1c0.1-0.5-0.1-0.9-0.5-1
							l-7.4-1.7c-0.4-0.1-0.8,0.2-0.9,0.7L282.3,401.9z"/>
						<path fill="#3B404A" d="M292.2,404.1c-0.1,0.5,0.1,0.9,0.5,1l7.4,1.7c0.4,0.1,0.8-0.2,0.9-0.7l0.9-4.1c0.1-0.5-0.1-0.9-0.5-1
							l-7.4-1.7c-0.4-0.1-0.8,0.2-0.9,0.7L292.2,404.1z"/>
						<path fill="#3B404A" d="M302.4,406.5c-0.1,0.5,0.1,0.9,0.5,1l7.4,1.7c0.4,0.1,0.8-0.2,0.9-0.7l0.9-4.1c0.1-0.5-0.1-0.9-0.5-1
							l-7.4-1.7c-0.4-0.1-0.8,0.2-0.9,0.7L302.4,406.5z"/>
						<path fill="#272C34" d="M270.4,408.2c-0.1,0.5,0.1,0.9,0.5,1l7.4,1.7c0.4,0.1,0.8-0.2,0.9-0.7l0.9-4.1c0.1-0.5-0.1-0.9-0.5-1
							l-7.4-1.7c-0.4-0.1-0.8,0.2-0.9,0.7L270.4,408.2z"/>
						<path fill="#3B404A" d="M280.4,410.5c-0.1,0.5,0.1,0.9,0.5,1l7.4,1.7c0.4,0.1,0.8-0.2,0.9-0.7l0.9-4.1c0.1-0.5-0.1-0.9-0.5-1
							l-7.4-1.7c-0.4-0.1-0.8,0.2-0.9,0.7L280.4,410.5z"/>
						<path fill="#3B404A" d="M290.3,412.8c-0.1,0.5,0.1,0.9,0.5,1l7.4,1.7c0.4,0.1,0.8-0.2,0.9-0.7l0.9-4.1c0.1-0.5-0.1-0.9-0.5-1
							l-7.4-1.7c-0.4-0.1-0.8,0.2-0.9,0.7L290.3,412.8z"/>
						<path fill="#3B404A" d="M300.5,415.1c-0.1,0.5,0.1,0.9,0.5,1l7.4,1.7c0.4,0.1,0.8-0.2,0.9-0.7l0.9-4.1c0.1-0.5-0.1-0.9-0.5-1
							l-7.4-1.7c-0.4-0.1-0.8,0.2-0.9,0.7L300.5,415.1z"/>
						<path fill="#292E36" d="M268.4,416.9c-0.1,0.5,0.1,0.9,0.5,1l7.4,1.7c0.4,0.1,0.8-0.2,0.9-0.7l0.9-4.1c0.1-0.5-0.1-0.9-0.5-1
							l-7.4-1.7c-0.4-0.1-0.8,0.2-0.9,0.7L268.4,416.9z"/>
						<path fill="#292E36" d="M278.4,419.2c-0.1,0.5,0.1,0.9,0.5,1l7.4,1.7c0.4,0.1,0.8-0.2,0.9-0.7l0.9-4.1c0.1-0.5-0.1-0.9-0.5-1
							l-7.4-1.7c-0.4-0.1-0.8,0.2-0.9,0.7L278.4,419.2z"/>
						<path fill="#292E36" d="M288.3,421.4c-0.1,0.5,0.1,0.9,0.5,1l7.4,1.7c0.4,0.1,0.8-0.2,0.9-0.7l0.9-4.1c0.1-0.5-0.1-0.9-0.5-1
							l-7.4-1.7c-0.4-0.1-0.8,0.2-0.9,0.7L288.3,421.4z"/>
						<path fill="#3B404A" d="M298.5,423.8c-0.1,0.5,0.1,0.9,0.5,1l7.4,1.7c0.4,0.1,0.8-0.2,0.9-0.7l0.9-4.1c0.1-0.5-0.1-0.9-0.5-1
							l-7.4-1.7c-0.4-0.1-0.8,0.2-0.9,0.7L298.5,423.8z"/>
						<path fill="#292E36" d="M266.5,425.6c-0.1,0.5,0.1,0.9,0.5,1l7.4,1.7c0.4,0.1,0.8-0.2,0.9-0.7l0.9-4.1c0.1-0.5-0.1-0.9-0.5-1
							l-7.4-1.7c-0.4-0.1-0.8,0.2-0.9,0.7L266.5,425.6z"/>
						<path fill="#292E36" d="M276.4,427.9c-0.1,0.5,0.1,0.9,0.5,1l7.4,1.7c0.4,0.1,0.8-0.2,0.9-0.7l0.9-4.1c0.1-0.5-0.1-0.9-0.5-1
							l-7.4-1.7c-0.4-0.1-0.8,0.2-0.9,0.7L276.4,427.9z"/>
						<path fill="#292E36" d="M286.3,430.1c-0.1,0.5,0.1,0.9,0.5,1l7.4,1.7c0.4,0.1,0.8-0.2,0.9-0.7l0.9-4.1c0.1-0.5-0.1-0.9-0.5-1
							l-7.4-1.7c-0.4-0.1-0.8,0.2-0.9,0.7L286.3,430.1z"/>
						<path fill="#3B404A" d="M296.5,432.4c-0.1,0.5,0.1,0.9,0.5,1l7.4,1.7c0.4,0.1,0.8-0.2,0.9-0.7l0.9-4.1c0.1-0.5-0.1-0.9-0.5-1
							l-7.4-1.7c-0.4-0.1-0.8,0.2-0.9,0.7L296.5,432.4z"/>
						<path fill="#292E36" d="M264.5,434.4c-0.1,0.5,0.1,0.9,0.5,1l7.4,1.7c0.4,0.1,0.8-0.2,0.9-0.7l0.9-4.1c0.1-0.5-0.1-0.9-0.5-1
							l-7.4-1.7c-0.4-0.1-0.8,0.2-0.9,0.7L264.5,434.4z"/>
						<path fill="#292E36" d="M274.4,436.7c-0.1,0.5,0.1,0.9,0.5,1l7.4,1.7c0.4,0.1,0.8-0.2,0.9-0.7l0.9-4.1c0.1-0.5-0.1-0.9-0.5-1
							l-7.4-1.7c-0.4-0.1-0.8,0.2-0.9,0.7L274.4,436.7z"/>
						<path fill="#292E36" d="M284.3,438.9c-0.1,0.5,0.1,0.9,0.5,1l7.4,1.7c0.4,0.1,0.8-0.2,0.9-0.7l0.9-4.1c0.1-0.5-0.1-0.9-0.5-1
							l-7.4-1.7c-0.4-0.1-0.8,0.2-0.9,0.7L284.3,438.9z"/>
						<path fill="#3B404A" d="M262.5,443.2c-0.1,0.5,0.1,0.9,0.5,1l17.4,3.9c0.4,0.1,0.8-0.2,0.9-0.7l0.9-4.1c0.1-0.5-0.1-0.9-0.5-1
							l-17.4-3.9c-0.4-0.1-0.8,0.2-0.9,0.7L262.5,443.2z"/>
						<path fill="#3B404A" d="M282.4,447.7c-0.1,0.5,0.1,0.9,0.5,1l7.4,1.7c0.4,0.1,0.8-0.2,0.9-0.7l0.9-4.1c0.1-0.5-0.1-0.9-0.5-1
							l-7.4-1.7c-0.4-0.1-0.8,0.2-0.9,0.7L282.4,447.7z"/>
						<path fill="#272C34" d="M292.5,450c-0.1,0.5,0.1,0.9,0.5,1l7.4,1.7c0.4,0.1,0.8-0.2,0.9-0.7l2.9-12.9c0.1-0.5-0.1-0.9-0.5-1
							l-7.4-1.7c-0.4-0.1-0.8,0.2-0.9,0.7L292.5,450z"/>
					</g>
				</g>
			</g>
			<g>
				<path fill="#F1F2F2" d="M316.5,217.2l-4.3-8.7c1.5-0.7,2.4-2.1,2.4-3.8c0-2.3-1.9-4.1-4.2-4.1c-2.3,0-4.1,1.9-4.1,4.2
					c0,1.6,1,3.1,2.5,3.7l-4.1,8.8c-0.1,0.2,0,0.4,0.2,0.4c0,0,0.1,0,0.1,0c0.1,0,0.2-0.1,0.3-0.2l4.2-9.1c0,0,0,0,0,0c0,0,0,0,0,0
					c0,0,0-0.1,0-0.1c0,0,0-0.1,0-0.1c0,0-0.1-0.1-0.1-0.1c0,0,0-0.1-0.1-0.1c0,0,0,0,0,0c0,0,0,0,0,0c-1.4-0.5-2.4-1.8-2.4-3.3
					c0-1.9,1.5-3.5,3.4-3.5c1.9,0,3.5,1.5,3.5,3.4c0,1.5-0.9,2.8-2.3,3.3c0,0,0,0,0,0c0,0,0,0,0,0c0,0,0,0.1-0.1,0.1
					c0,0-0.1,0.1-0.1,0.1c0,0,0,0.1,0,0.1c0,0,0,0.1,0,0.1c0,0,0,0,0,0c0,0,0,0,0,0l4.5,9c0.1,0.1,0.2,0.2,0.3,0.2c0,0,0.1,0,0.1,0
					C316.5,217.5,316.5,217.3,316.5,217.2z"/>
				<g>
					<path fill="#333236" d="M319.4,216.1l-3.7,0c-0.5,0-0.9,0.4-0.9,0.9l0,1.5l-1.6,0l0-1.5c0-0.5-0.4-0.9-0.9-0.9l-3.7,0
						c-0.5,0-0.9,0.4-0.9,0.9l0,1.5l-1.6,0l0-1.5c0-0.5-0.4-0.9-0.9-0.9l-3.7,0c-0.5,0-0.9,0.4-0.9,0.9l0,1.5l0.1,7.9l19.5-0.2
						l-0.1-7.9l0-1.5C320.3,216.5,319.9,216.1,319.4,216.1z"/>
					
						<rect x="301" y="226.4" transform="matrix(1 -9.987212e-03 9.987212e-03 1 -2.255 3.1142)" fill="#2C2B2F" width="19.5" height="1.9"/>
				</g>
				<g>
					<g>
						<path fill="#2C2B2F" d="M306.2,223.9c-0.2,0-0.3-0.1-0.3-0.3l0-3.6c0-0.2,0.1-0.3,0.3-0.3c0.2,0,0.3,0.1,0.3,0.3l0,3.6
							C306.5,223.7,306.4,223.8,306.2,223.9z"/>
					</g>
					<g>
						<path fill="#2C2B2F" d="M313.4,224.3c-0.2,0-0.3-0.1-0.3-0.3l0-4.1c0-0.2,0.1-0.3,0.3-0.3c0.2,0,0.3,0.1,0.3,0.3l0,4.1
							C313.7,224.2,313.5,224.3,313.4,224.3z"/>
					</g>
				</g>
			</g>
			<g>
				<path fill="#F1F2F2" d="M342.5,193.4l-7.3-6.3c1.1-1.2,1.4-2.9,0.8-4.4c-0.9-2.1-3.3-3.1-5.4-2.2c-2.1,0.9-3.1,3.3-2.2,5.4
					c0.6,1.5,2.1,2.5,3.7,2.5l-0.4,9.7c0,0.2,0.1,0.3,0.3,0.3c0,0,0.1,0,0.1,0c0.1,0,0.2-0.2,0.2-0.3l0.4-10c0,0,0,0,0,0
					c0,0,0,0,0,0c0,0,0-0.1-0.1-0.1c0,0,0-0.1-0.1-0.1c0,0-0.1,0-0.1-0.1c0,0-0.1,0-0.1,0c0,0,0,0,0,0c0,0,0,0,0,0
					c-1.5,0.1-2.9-0.7-3.5-2.1c-0.8-1.8,0.1-3.8,1.8-4.6c1.8-0.8,3.8,0.1,4.6,1.8c0.6,1.4,0.2,2.9-0.9,3.9c0,0,0,0,0,0c0,0,0,0,0,0
					c0,0,0,0.1,0,0.1c0,0,0,0.1,0,0.1c0,0,0,0.1,0,0.1c0,0,0,0.1,0,0.1c0,0,0,0,0,0c0,0,0,0,0,0l7.6,6.6c0.1,0.1,0.2,0.1,0.3,0.1
					c0,0,0.1,0,0.1-0.1C342.6,193.7,342.6,193.5,342.5,193.4z"/>
				<g>
					<path fill="#333236" d="M344.8,191.3l-3.4,1.5c-0.4,0.2-0.6,0.7-0.5,1.1l0.6,1.4l-1.5,0.6l-0.6-1.4c-0.2-0.4-0.7-0.6-1.1-0.5
						l-3.4,1.5c-0.4,0.2-0.6,0.7-0.5,1.1l0.6,1.4l-1.5,0.6l-0.6-1.4c-0.2-0.4-0.7-0.6-1.1-0.5l-3.4,1.5c-0.4,0.2-0.6,0.7-0.5,1.1
						l0.6,1.4l3.1,7.2l17.9-7.7l-3.1-7.2l-0.6-1.4C345.8,191.3,345.3,191.1,344.8,191.3z"/>
					
						<rect x="331.4" y="204.1" transform="matrix(0.9189 -0.3944 0.3944 0.9189 -53.2139 151.1603)" fill="#2C2B2F" width="19.5" height="1.9"/>
				</g>
				<g>
					<g>
						<path fill="#2C2B2F" d="M335.6,203.5c-0.1,0.1-0.3,0-0.4-0.1l-1.4-3.3c-0.1-0.1,0-0.3,0.1-0.4c0.1-0.1,0.3,0,0.4,0.1l1.4,3.3
							C335.8,203.3,335.8,203.5,335.6,203.5z"/>
					</g>
					<g>
						<path fill="#2C2B2F" d="M342.4,201.2c-0.1,0.1-0.3,0-0.4-0.1l-1.6-3.8c-0.1-0.1,0-0.3,0.1-0.4c0.1-0.1,0.3,0,0.4,0.1l1.6,3.8
							C342.6,201,342.6,201.1,342.4,201.2z"/>
					</g>
				</g>
			</g>
			<g>
				<path fill="#F1F2F2" d="M306.4,173.7l-1.7-9.5c1.6-0.2,2.9-1.4,3.4-2.9c0.6-2.2-0.7-4.5-2.8-5.1c-2.2-0.6-4.5,0.7-5.1,2.8
					c-0.4,1.6,0.1,3.3,1.3,4.3l-6.4,7.2c-0.1,0.1-0.1,0.3,0,0.5c0,0,0.1,0.1,0.1,0.1c0.1,0,0.2,0,0.3-0.1l6.6-7.5c0,0,0,0,0,0
					c0,0,0,0,0,0c0,0,0-0.1,0-0.1c0,0,0-0.1,0-0.1c0,0,0-0.1-0.1-0.1c0,0,0-0.1,0-0.1c0,0,0,0,0,0c0,0,0,0,0,0
					c-1.2-0.8-1.8-2.4-1.4-3.8c0.5-1.8,2.4-2.9,4.3-2.4c1.8,0.5,2.9,2.4,2.4,4.3c-0.4,1.4-1.7,2.4-3.1,2.5c0,0,0,0,0,0c0,0,0,0,0,0
					c0,0-0.1,0-0.1,0.1c0,0-0.1,0-0.1,0.1c0,0,0,0.1,0,0.1c0,0,0,0.1,0,0.1c0,0,0,0,0,0c0,0,0,0,0,0l1.8,9.9c0,0.1,0.1,0.2,0.2,0.3
					c0,0,0.1,0,0.1,0C306.3,174,306.4,173.8,306.4,173.7z"/>
				<g>
					<path fill="#333236" d="M309.5,173.5l-3.6-1c-0.5-0.1-0.9,0.1-1.1,0.6l-0.4,1.4l-1.5-0.4l0.4-1.4c0.1-0.5-0.1-0.9-0.6-1.1
						l-3.6-1c-0.5-0.1-0.9,0.1-1.1,0.6l-0.4,1.4l-1.5-0.4l0.4-1.4c0.1-0.5-0.1-0.9-0.6-1.1l-3.6-1c-0.5-0.1-0.9,0.1-1.1,0.6
						l-0.4,1.4l-2.2,7.6l18.7,5.3l2.2-7.6l0.4-1.4C310.3,174.1,310,173.6,309.5,173.5z"/>
					
						<rect x="288.2" y="180.9" transform="matrix(0.9621 0.2729 -0.2729 0.9621 60.9164 -74.4021)" fill="#2C2B2F" width="19.5" height="1.9"/>
				</g>
				<g>
					<g>
						<path fill="#2C2B2F" d="M294.7,177.2c-0.2,0-0.2-0.2-0.2-0.3l1-3.4c0-0.2,0.2-0.2,0.3-0.2c0.1,0,0.2,0.2,0.2,0.3l-1,3.5
							C295,177.2,294.8,177.2,294.7,177.2z"/>
					</g>
					<g>
						<path fill="#2C2B2F" d="M301.4,179.7c-0.1,0-0.2-0.2-0.2-0.3l1.1-4c0-0.2,0.2-0.2,0.3-0.2c0.2,0,0.2,0.2,0.2,0.3l-1.1,4
							C301.7,179.6,301.6,179.7,301.4,179.7z"/>
					</g>
				</g>
			</g>
			<g>
				<path fill="#515765" d="M384.2,459.5c0.4,2.6,2.9,4.3,5.5,3.9l154.6-25.9c2.6-0.4,4.3-2.9,3.9-5.5L513,222.5
					c-0.4-2.6-2.9-4.3-5.5-3.9L353,244.5c-2.6,0.4-4.3,2.9-3.9,5.5L384.2,459.5z"/>
				<path fill="#3E434F" d="M383.5,455.3c0.4,2.6,2.9,4.3,5.5,3.9l154.6-25.9c2.6-0.4,4.3-2.9,3.9-5.5l-35.1-209.6
					c-0.4-2.6-2.9-4.3-5.5-3.9l-154.6,25.9c-2.6,0.4-4.3,2.9-3.9,5.5L383.5,455.3z"/>
				
					<rect x="372.9" y="234.4" transform="matrix(0.9863 -0.1652 0.1652 0.9863 -49.4768 78.5895)" fill="#FAFAFA" width="149.8" height="204.8"/>
				<g>
					<g>
						<g>
							<path fill="#D1D3D3" d="M382.3,257.9l-9.6,1.6c-0.5,0.1-1-0.3-1.1-0.8c-0.1-0.5,0.3-1,0.8-1.1l9.6-1.6c0.5-0.1,1,0.3,1.1,0.8
								C383.2,257.4,382.8,257.9,382.3,257.9z"/>
						</g>
						<g>
							<path fill="#D1D3D3" d="M398.5,255.2l-10.9,1.8c-0.5,0.1-1-0.3-1.1-0.8c-0.1-0.5,0.3-1,0.8-1.1l10.9-1.8
								c0.5-0.1,1,0.3,1.1,0.8C399.4,254.7,399,255.1,398.5,255.2z"/>
						</g>
						<g>
							<path fill="#D1D3D3" d="M410.9,261l-37,6.2c-0.5,0.1-1-0.3-1.1-0.8c-0.1-0.5,0.3-1,0.8-1.1l37-6.2c0.5-0.1,1,0.3,1.1,0.8
								C411.8,260.4,411.4,260.9,410.9,261z"/>
						</g>
						<g>
							<path fill="#D1D3D3" d="M393.8,272.2l-18.5,3.1c-0.5,0.1-1-0.3-1.1-0.8c-0.1-0.5,0.3-1,0.8-1.1l18.5-3.1
								c0.5-0.1,1,0.3,1.1,0.8C394.7,271.6,394.3,272.1,393.8,272.2z"/>
						</g>
						<g>
							<path fill="#D1D3D3" d="M404.9,270.3l-5.6,0.9c-0.5,0.1-1-0.3-1.1-0.8c-0.1-0.5,0.3-1,0.8-1.1l5.6-0.9c0.5-0.1,1,0.3,1.1,0.8
								C405.8,269.7,405.5,270.2,404.9,270.3z"/>
						</g>
					</g>
					<g>
						<path fill="#D1D3D4" d="M499.9,268.5l-4.9,0.8c-0.4,0.1-0.8-0.2-0.9-0.6c-0.1-0.4,0.2-0.8,0.6-0.9l4.9-0.8
							c0.4-0.1,0.8,0.2,0.9,0.6C500.6,268,500.3,268.4,499.9,268.5z M487.7,270.5l-7.4,1.2c-0.4,0.1-0.8-0.2-0.9-0.6
							c-0.1-0.4,0.2-0.8,0.6-0.9l7.4-1.2c0.4-0.1,0.8,0.2,0.9,0.6C488.4,270.1,488.1,270.5,487.7,270.5z M472.9,273l-7.4,1.2
							c-0.4,0.1-0.8-0.2-0.9-0.6c-0.1-0.4,0.2-0.8,0.6-0.9l7.4-1.2c0.4-0.1,0.8,0.2,0.9,0.6C473.6,272.6,473.3,272.9,472.9,273z
							 M458.1,275.5l-7.4,1.2c-0.4,0.1-0.8-0.2-0.9-0.6c-0.1-0.4,0.2-0.8,0.6-0.9l7.4-1.2c0.4-0.1,0.8,0.2,0.9,0.6
							C458.8,275,458.6,275.4,458.1,275.5z M443.4,278l-7.4,1.2c-0.4,0.1-0.8-0.2-0.9-0.6c-0.1-0.4,0.2-0.8,0.6-0.9l7.4-1.2
							c0.4-0.1,0.8,0.2,0.9,0.6C444.1,277.5,443.8,277.9,443.4,278z M428.6,280.4l-7.4,1.2c-0.4,0.1-0.8-0.2-0.9-0.6
							c-0.1-0.4,0.2-0.8,0.6-0.9l7.4-1.2c0.4-0.1,0.8,0.2,0.9,0.6C429.3,280,429,280.4,428.6,280.4z M413.8,282.9l-7.4,1.2
							c-0.4,0.1-0.8-0.2-0.9-0.6c-0.1-0.4,0.2-0.8,0.6-0.9l7.4-1.2c0.4-0.1,0.8,0.2,0.9,0.6C414.5,282.5,414.2,282.8,413.8,282.9z
							 M399.1,285.4l-7.4,1.2c-0.4,0.1-0.8-0.2-0.9-0.6c-0.1-0.4,0.2-0.8,0.6-0.9l7.4-1.2c0.4-0.1,0.8,0.2,0.9,0.6
							C399.8,284.9,399.5,285.3,399.1,285.4z M384.3,287.9l-7.4,1.2c-0.4,0.1-0.8-0.2-0.9-0.6c-0.1-0.4,0.2-0.8,0.6-0.9l7.4-1.2
							c0.4-0.1,0.8,0.2,0.9,0.6C385,287.4,384.7,287.8,384.3,287.9z"/>
					</g>
					<g>
						<path fill="#D1D3D4" d="M502.9,286.2L498,287c-0.4,0.1-0.8-0.2-0.9-0.6c-0.1-0.4,0.2-0.8,0.6-0.9l4.9-0.8
							c0.4-0.1,0.8,0.2,0.9,0.6C503.6,285.8,503.3,286.1,502.9,286.2z M490.6,288.3l-7.4,1.2c-0.4,0.1-0.8-0.2-0.9-0.6
							c-0.1-0.4,0.2-0.8,0.6-0.9l7.4-1.2c0.4-0.1,0.8,0.2,0.9,0.6C491.3,287.8,491.1,288.2,490.6,288.3z M475.9,290.7l-7.4,1.2
							c-0.4,0.1-0.8-0.2-0.9-0.6c-0.1-0.4,0.2-0.8,0.6-0.9l7.4-1.2c0.4-0.1,0.8,0.2,0.9,0.6C476.6,290.3,476.3,290.7,475.9,290.7z
							 M461.1,293.2l-7.4,1.2c-0.4,0.1-0.8-0.2-0.9-0.6c-0.1-0.4,0.2-0.8,0.6-0.9l7.4-1.2c0.4-0.1,0.8,0.2,0.9,0.6
							C461.8,292.7,461.5,293.1,461.1,293.2z M446.3,295.7l-7.4,1.2c-0.4,0.1-0.8-0.2-0.9-0.6c-0.1-0.4,0.2-0.8,0.6-0.9l7.4-1.2
							c0.4-0.1,0.8,0.2,0.9,0.6C447,295.2,446.8,295.6,446.3,295.7z M431.6,298.2l-7.4,1.2c-0.4,0.1-0.8-0.2-0.9-0.6
							c-0.1-0.4,0.2-0.8,0.6-0.9l7.4-1.2c0.4-0.1,0.8,0.2,0.9,0.6C432.3,297.7,432,298.1,431.6,298.2z M416.8,300.6l-7.4,1.2
							c-0.4,0.1-0.8-0.2-0.9-0.6c-0.1-0.4,0.2-0.8,0.6-0.9l7.4-1.2c0.4-0.1,0.8,0.2,0.9,0.6C417.5,300.2,417.2,300.6,416.8,300.6z
							 M402,303.1l-7.4,1.2c-0.4,0.1-0.8-0.2-0.9-0.6c-0.1-0.4,0.2-0.8,0.6-0.9l7.4-1.2c0.4-0.1,0.8,0.2,0.9,0.6
							C402.7,302.6,402.5,303,402,303.1z M387.3,305.6l-7.4,1.2c-0.4,0.1-0.8-0.2-0.9-0.6c-0.1-0.4,0.2-0.8,0.6-0.9l7.4-1.2
							c0.4-0.1,0.8,0.2,0.9,0.6C388,305.1,387.7,305.5,387.3,305.6z"/>
					</g>
					<g>
						<path fill="#D1D3D4" d="M506.1,305.2l-4.9,0.8c-0.4,0.1-0.8-0.2-0.9-0.6c-0.1-0.4,0.2-0.8,0.6-0.9l4.9-0.8
							c0.4-0.1,0.8,0.2,0.9,0.6C506.7,304.7,506.5,305.1,506.1,305.2z M493.8,307.2l-7.4,1.2c-0.4,0.1-0.8-0.2-0.9-0.6
							c-0.1-0.4,0.2-0.8,0.6-0.9l7.4-1.2c0.4-0.1,0.8,0.2,0.9,0.6C494.5,306.8,494.2,307.1,493.8,307.2z M479.1,309.7l-7.4,1.2
							c-0.4,0.1-0.8-0.2-0.9-0.6c-0.1-0.4,0.2-0.8,0.6-0.9l7.4-1.2c0.4-0.1,0.8,0.2,0.9,0.6C479.7,309.2,479.5,309.6,479.1,309.7z
							 M464.3,312.2l-7.4,1.2c-0.4,0.1-0.8-0.2-0.9-0.6c-0.1-0.4,0.2-0.8,0.6-0.9l7.4-1.2c0.4-0.1,0.8,0.2,0.9,0.6
							C465,311.7,464.7,312.1,464.3,312.2z M449.5,314.6l-7.4,1.2c-0.4,0.1-0.8-0.2-0.9-0.6c-0.1-0.4,0.2-0.8,0.6-0.9l7.4-1.2
							c0.4-0.1,0.8,0.2,0.9,0.6C450.2,314.2,449.9,314.6,449.5,314.6z M434.8,317.1l-7.4,1.2c-0.4,0.1-0.8-0.2-0.9-0.6
							c-0.1-0.4,0.2-0.8,0.6-0.9l7.4-1.2c0.4-0.1,0.8,0.2,0.9,0.6C435.4,316.6,435.2,317,434.8,317.1z M420,319.6l-7.4,1.2
							c-0.4,0.1-0.8-0.2-0.9-0.6c-0.1-0.4,0.2-0.8,0.6-0.9l7.4-1.2c0.4-0.1,0.8,0.2,0.9,0.6C420.7,319.1,420.4,319.5,420,319.6z
							 M405.2,322l-7.4,1.2c-0.4,0.1-0.8-0.2-0.9-0.6c-0.1-0.4,0.2-0.8,0.6-0.9l7.4-1.2c0.4-0.1,0.8,0.2,0.9,0.6
							C405.9,321.6,405.6,322,405.2,322z M390.5,324.5l-7.4,1.2c-0.4,0.1-0.8-0.2-0.9-0.6c-0.1-0.4,0.2-0.8,0.6-0.9l7.4-1.2
							c0.4-0.1,0.8,0.2,0.9,0.6C391.1,324.1,390.9,324.5,390.5,324.5z"/>
					</g>
					<path fill="#D1D3D4" d="M455.4,275.9c-0.1-0.4-0.4-0.6-0.8-0.5c-0.4,0.1-0.7,0.4-0.6,0.8l7.7,45.9l1.5-0.2L455.4,275.9z"/>
					<path fill="#D1D3D4" d="M478.4,422.4c0.1,0.4,0.5,0.7,0.9,0.6c0.4-0.1,0.7-0.5,0.6-0.9l-6-35.7l-1.5,0.2L478.4,422.4z"/>
					<path fill="#D1D3D4" d="M402.6,396.9l-7.4,1.2c-0.4,0.1-0.7,0.5-0.6,0.9c0.1,0.4,0.4,0.7,0.9,0.6l7.4-1.2
						c0.4-0.1,0.7-0.5,0.6-0.9C403.4,397.1,403,396.8,402.6,396.9z"/>
					<path fill="#D1D3D4" d="M505.9,379.6l-7.4,1.2c-0.4,0.1-0.7,0.5-0.6,0.9c0.1,0.4,0.5,0.7,0.9,0.6l7.4-1.2
						c0.4-0.1,0.7-0.5,0.6-0.9C506.7,379.8,506.3,379.5,505.9,379.6z"/>
					<path fill="#D1D3D4" d="M417.3,394.4l-7.4,1.2c-0.4,0.1-0.7,0.5-0.6,0.9c0.1,0.4,0.5,0.7,0.9,0.6l7.4-1.2
						c0.4-0.1,0.7-0.5,0.6-0.9C418.1,394.6,417.7,394.3,417.3,394.4z"/>
					<path fill="#D1D3D4" d="M432.1,391.9l-7.4,1.2c-0.4,0.1-0.7,0.5-0.6,0.9c0.1,0.4,0.5,0.7,0.9,0.6l7.4-1.2
						c0.4-0.1,0.7-0.5,0.6-0.9C432.9,392.1,432.5,391.9,432.1,391.9z"/>
					<path fill="#D1D3D4" d="M491.2,382l-7.4,1.2c-0.4,0.1-0.7,0.5-0.6,0.9c0.1,0.4,0.5,0.7,0.9,0.6l7.4-1.2
						c0.4-0.1,0.7-0.5,0.6-0.9C492,382.2,491.6,382,491.2,382z"/>
					<path fill="#D1D3D4" d="M518.2,377.5l-4.9,0.8c-0.4,0.1-0.7,0.5-0.6,0.9c0.1,0.4,0.5,0.7,0.9,0.6l4.9-0.8
						c0.4-0.1,0.7-0.5,0.6-0.9C519,377.7,518.6,377.5,518.2,377.5z"/>
					<path fill="#D1D3D4" d="M446.9,389.5l-7.4,1.2c-0.4,0.1-0.7,0.5-0.6,0.9c0.1,0.4,0.5,0.7,0.9,0.6l7.4-1.2
						c0.4-0.1,0.7-0.5,0.6-0.9C447.7,389.7,447.3,389.4,446.9,389.5z"/>
					<path fill="#D1D3D4" d="M461.6,387l-7.4,1.2c-0.4,0.1-0.7,0.5-0.6,0.9c0.1,0.4,0.5,0.7,0.9,0.6l7.4-1.2
						c0.4-0.1,0.7-0.5,0.6-0.9C462.4,387.2,462,386.9,461.6,387z"/>
					<g>
						<path fill="#D1D3D4" d="M521.4,396.7l-4.9,0.8c-0.4,0.1-0.8-0.2-0.9-0.6c-0.1-0.4,0.2-0.8,0.6-0.9l4.9-0.8
							c0.4-0.1,0.8,0.2,0.9,0.6C522.1,396.3,521.8,396.6,521.4,396.7z M509.2,398.8l-7.4,1.2c-0.4,0.1-0.8-0.2-0.9-0.6
							c-0.1-0.4,0.2-0.8,0.6-0.9l7.4-1.2c0.4-0.1,0.8,0.2,0.9,0.6C509.8,398.3,509.6,398.7,509.2,398.8z M494.4,401.2l-7.4,1.2
							c-0.4,0.1-0.8-0.2-0.9-0.6c-0.1-0.4,0.2-0.8,0.6-0.9l7.4-1.2c0.4-0.1,0.8,0.2,0.9,0.6C495.1,400.8,494.8,401.2,494.4,401.2z
							 M479.6,403.7l-7.4,1.2c-0.4,0.1-0.8-0.2-0.9-0.6c-0.1-0.4,0.2-0.8,0.6-0.9l7.4-1.2c0.4-0.1,0.8,0.2,0.9,0.6
							C480.3,403.3,480,403.6,479.6,403.7z M464.9,406.2l-7.4,1.2c-0.4,0.1-0.8-0.2-0.9-0.6c-0.1-0.4,0.2-0.8,0.6-0.9l7.4-1.2
							c0.4-0.1,0.8,0.2,0.9,0.6C465.5,405.7,465.3,406.1,464.9,406.2z M450.1,408.7l-7.4,1.2c-0.4,0.1-0.8-0.2-0.9-0.6
							c-0.1-0.4,0.2-0.8,0.6-0.9l7.4-1.2c0.4-0.1,0.8,0.2,0.9,0.6C450.8,408.2,450.5,408.6,450.1,408.7z M435.3,411.1l-7.4,1.2
							c-0.4,0.1-0.8-0.2-0.9-0.6c-0.1-0.4,0.2-0.8,0.6-0.9l7.4-1.2c0.4-0.1,0.8,0.2,0.9,0.6C436,410.7,435.7,411.1,435.3,411.1z
							 M420.6,413.6l-7.4,1.2c-0.4,0.1-0.8-0.2-0.9-0.6c-0.1-0.4,0.2-0.8,0.6-0.9l7.4-1.2c0.4-0.1,0.8,0.2,0.9,0.6
							C421.2,413.2,421,413.5,420.6,413.6z M405.8,416.1l-7.4,1.2c-0.4,0.1-0.8-0.2-0.9-0.6c-0.1-0.4,0.2-0.8,0.6-0.9l7.4-1.2
							c0.4-0.1,0.8,0.2,0.9,0.6C406.5,415.6,406.2,416,405.8,416.1z"/>
					</g>
					<g>
						<path fill="#D1D3D4" d="M524.6,416.2l-4.9,0.8c-0.4,0.1-0.8-0.2-0.9-0.6c-0.1-0.4,0.2-0.8,0.6-0.9l4.9-0.8
							c0.4-0.1,0.8,0.2,0.9,0.6C525.3,415.7,525.1,416.1,524.6,416.2z M512.4,418.2l-7.4,1.2c-0.4,0.1-0.8-0.2-0.9-0.6
							c-0.1-0.4,0.2-0.8,0.6-0.9l7.4-1.2c0.4-0.1,0.8,0.2,0.9,0.6C513.1,417.8,512.8,418.1,512.4,418.2z M497.6,420.7l-7.4,1.2
							c-0.4,0.1-0.8-0.2-0.9-0.6c-0.1-0.4,0.2-0.8,0.6-0.9l7.4-1.2c0.4-0.1,0.8,0.2,0.9,0.6C498.3,420.2,498,420.6,497.6,420.7z
							 M482.9,423.2l-7.4,1.2c-0.4,0.1-0.8-0.2-0.9-0.6c-0.1-0.4,0.2-0.8,0.6-0.9l7.4-1.2c0.4-0.1,0.8,0.2,0.9,0.6
							C483.6,422.7,483.3,423.1,482.9,423.2z M468.1,425.6l-7.4,1.2c-0.4,0.1-0.8-0.2-0.9-0.6c-0.1-0.4,0.2-0.8,0.6-0.9l7.4-1.2
							c0.4-0.1,0.8,0.2,0.9,0.6C468.8,425.2,468.5,425.6,468.1,425.6z M453.3,428.1l-7.4,1.2c-0.4,0.1-0.8-0.2-0.9-0.6
							c-0.1-0.4,0.2-0.8,0.6-0.9l7.4-1.2c0.4-0.1,0.8,0.2,0.9,0.6C454,427.6,453.7,428,453.3,428.1z M438.6,430.6l-7.4,1.2
							c-0.4,0.1-0.8-0.2-0.9-0.6c-0.1-0.4,0.2-0.8,0.6-0.9l7.4-1.2c0.4-0.1,0.8,0.2,0.9,0.6C439.3,430.1,439,430.5,438.6,430.6z
							 M423.8,433l-7.4,1.2c-0.4,0.1-0.8-0.2-0.9-0.6c-0.1-0.4,0.2-0.8,0.6-0.9l7.4-1.2c0.4-0.1,0.8,0.2,0.9,0.6
							C424.5,432.6,424.2,433,423.8,433z M409,435.5l-7.4,1.2c-0.4,0.1-0.8-0.2-0.9-0.6c-0.1-0.4,0.2-0.8,0.6-0.9l7.4-1.2
							c0.4-0.1,0.8,0.2,0.9,0.6C409.7,435.1,409.5,435.5,409,435.5z"/>
					</g>
					<path opacity="0.3" fill="#7D7EB9" d="M495.8,239.2c0.2,1.4-0.7,2.8-2.2,3.1l-24.5,4.1c-1.4,0.2-2.8-0.7-3.1-2.2l0,0
						c-0.2-1.4,0.7-2.8,2.2-3.1l24.5-4.1C494.2,236.7,495.5,237.7,495.8,239.2L495.8,239.2z"/>
					<path fill="#D1D3D3" d="M496.8,247.6c0.1,0.5-0.2,0.9-0.7,1l-27.4,4.6c-0.5,0.1-0.9-0.2-1-0.7l0,0c-0.1-0.5,0.2-0.9,0.7-1
						l27.4-4.6C496.3,246.8,496.7,247.1,496.8,247.6L496.8,247.6z"/>
					<path fill="#D1D3D3" d="M496.9,253.3l-12.9,2.2l-14.5,2.4l-12.9,2.2c-0.5,0.1-0.8,0.5-0.7,1c0.1,0.5,0.5,0.8,1,0.7l12.9-2.2
						l14.5-2.4l12.9-2.2c0.5-0.1,0.8-0.5,0.7-1C497.8,253.5,497.4,253.2,496.9,253.3z"/>
					<g>
						<g>
							<path opacity="0.3" fill="#7D7EB9" d="M496.9,278.3l-6.5,1.1c-0.7,0.1-1.3-0.3-1.4-1c-0.1-0.7,0.4-1.3,1-1.4l6.5-1.1
								c0.7-0.1,1.3,0.3,1.4,1C498.1,277.6,497.6,278.2,496.9,278.3z"/>
						</g>
						<g>
							<path fill="#D1D3D3" d="M484.5,280.4l-17,2.8c-0.7,0.1-1.3-0.3-1.5-1c-0.1-0.7,0.3-1.3,1-1.4l17-2.9c0.7-0.1,1.3,0.3,1.5,1
								C485.6,279.7,485.2,280.3,484.5,280.4z"/>
						</g>
					</g>
					<g>
						<g opacity="0.3">
							<path fill="#7D7EB9" d="M500,296.6l-6.5,1.1c-0.7,0.1-1.3-0.4-1.4-1c-0.1-0.7,0.4-1.3,1-1.4l6.5-1.1c0.7-0.1,1.3,0.3,1.5,1
								C501.1,295.8,500.7,296.5,500,296.6z"/>
						</g>
						<g>
							<path fill="#D1D3D3" d="M487.5,298.7l-17,2.8c-0.7,0.1-1.3-0.3-1.4-1c-0.1-0.7,0.3-1.3,1-1.5l17-2.8c0.7-0.1,1.3,0.3,1.5,1
								C488.7,297.9,488.2,298.6,487.5,298.7z"/>
						</g>
					</g>
					<g>
						<g>
							<path opacity="0.3" fill="#7D7EB9" d="M503.1,315.1l-6.5,1.1c-0.7,0.1-1.3-0.4-1.4-1c-0.1-0.7,0.4-1.3,1-1.4l6.5-1.1
								c0.7-0.1,1.3,0.3,1.4,1C504.2,314.3,503.8,314.9,503.1,315.1z"/>
						</g>
						<g>
							<path fill="#D1D3D3" d="M490.6,317.1l-17,2.8c-0.7,0.1-1.3-0.3-1.5-1c-0.1-0.7,0.3-1.3,1-1.5l17-2.8c0.7-0.1,1.3,0.3,1.5,1
								C491.8,316.4,491.3,317,490.6,317.1z"/>
						</g>
					</g>
					<g>
						<g>
							<path opacity="0.3" fill="#7D7EB9" d="M514.1,389.3l-6.5,1.1c-0.7,0.1-1.3-0.4-1.4-1c-0.1-0.7,0.4-1.3,1-1.4l6.5-1.1
								c0.7-0.1,1.3,0.3,1.4,1C515.3,388.6,514.8,389.2,514.1,389.3z"/>
						</g>
						<g>
							<path fill="#D1D3D3" d="M501.7,391.4l-17,2.8c-0.7,0.1-1.3-0.3-1.5-1c-0.1-0.7,0.3-1.3,1-1.4l17-2.8c0.7-0.1,1.3,0.3,1.5,1
								C502.8,390.6,502.3,391.3,501.7,391.4z"/>
						</g>
					</g>
					<g>
						<g>
							<path opacity="0.3" fill="#7D7EB9" d="M517.3,408.6l-6.5,1.1c-0.7,0.1-1.3-0.3-1.4-1c-0.1-0.7,0.4-1.3,1-1.5l6.5-1.1
								c0.7-0.1,1.3,0.4,1.4,1C518.5,407.8,518,408.5,517.3,408.6z"/>
						</g>
						<g>
							<path fill="#D1D3D3" d="M504.9,410.7l-17,2.8c-0.7,0.1-1.3-0.3-1.5-1c-0.1-0.7,0.3-1.3,1-1.5l17-2.8c0.7-0.1,1.3,0.3,1.5,1
								C506,409.9,505.6,410.6,504.9,410.7z"/>
						</g>
					</g>
					<g>
						<g>
							<path fill="#D1D3D3" d="M389.3,296.1l-10.1,1.7c-0.6,0.1-1.1-0.3-1.2-0.8c-0.1-0.6,0.3-1.1,0.8-1.2l10.1-1.7
								c0.6-0.1,1.1,0.3,1.2,0.8C390.2,295.5,389.8,296,389.3,296.1z"/>
						</g>
						<g>
							<path fill="#D1D3D3" d="M434.9,288.5l-40.4,6.8c-0.6,0.1-1.1-0.3-1.2-0.8c-0.1-0.6,0.3-1.1,0.8-1.2l40.4-6.8
								c0.6-0.1,1.1,0.3,1.2,0.8C435.9,287.9,435.5,288.4,434.9,288.5z"/>
						</g>
					</g>
					<g>
						<g>
							<path fill="#D1D3D3" d="M392.3,314.4l-10.1,1.7c-0.6,0.1-1.1-0.3-1.2-0.8c-0.1-0.6,0.3-1.1,0.8-1.2l10.1-1.7
								c0.6-0.1,1.1,0.3,1.2,0.8C393.2,313.8,392.9,314.3,392.3,314.4z"/>
						</g>
						<g>
							<path fill="#D1D3D3" d="M438,306.7l-40.4,6.8c-0.6,0.1-1.1-0.3-1.2-0.8c-0.1-0.6,0.3-1.1,0.8-1.2l40.4-6.8
								c0.6-0.1,1.1,0.3,1.2,0.8C438.9,306.1,438.6,306.6,438,306.7z"/>
						</g>
					</g>
					<g>
						<g>
							<path fill="#D1D3D3" d="M395.4,332.9l-10.1,1.7c-0.6,0.1-1.1-0.3-1.2-0.8c-0.1-0.6,0.3-1.1,0.8-1.2l10.1-1.7
								c0.6-0.1,1.1,0.3,1.2,0.8C396.3,332.2,396,332.8,395.4,332.9z"/>
						</g>
						<g>
							<path fill="#D1D3D3" d="M441.1,325.2l-40.4,6.8c-0.6,0.1-1.1-0.3-1.2-0.8c-0.1-0.6,0.3-1.1,0.8-1.2l40.4-6.8
								c0.6-0.1,1.1,0.3,1.2,0.8C442,324.6,441.6,325.1,441.1,325.2z"/>
						</g>
					</g>
					<g>
						<g>
							<path fill="#D1D3D3" d="M407.8,406.9l-10.1,1.7c-0.6,0.1-1.1-0.3-1.2-0.8c-0.1-0.6,0.3-1.1,0.8-1.2l10.1-1.7
								c0.6-0.1,1.1,0.3,1.2,0.8C408.7,406.3,408.4,406.8,407.8,406.9z"/>
						</g>
						<g>
							<path fill="#D1D3D3" d="M453.5,399.2l-40.4,6.8c-0.6,0.1-1.1-0.3-1.2-0.8c-0.1-0.6,0.3-1.1,0.8-1.2l40.4-6.8
								c0.6-0.1,1.1,0.3,1.2,0.8C454.4,398.6,454,399.1,453.5,399.2z"/>
						</g>
					</g>
					<g>
						<g>
							<path fill="#D1D3D3" d="M409.8,426.4l-10.1,1.7c-0.6,0.1-1.1-0.3-1.2-0.8c-0.1-0.6,0.3-1.1,0.8-1.2l10.1-1.7
								c0.6-0.1,1.1,0.3,1.2,0.8C410.8,425.7,410.4,426.3,409.8,426.4z"/>
						</g>
						<g>
							<path fill="#D1D3D3" d="M455.5,418.7l-40.4,6.8c-0.6,0.1-1.1-0.3-1.2-0.8c-0.1-0.6,0.3-1.1,0.8-1.2l40.4-6.8
								c0.6-0.1,1.1,0.3,1.2,0.8C456.5,418.1,456.1,418.6,455.5,418.7z"/>
						</g>
					</g>
				</g>
				<g>
					<path fill="#E6E7E8" d="M446.3,213.3l-11,1.8l-0.7-4.1c-0.2-1.3-1-2.3-1.7-2.2l-15.8,2.7c-0.7,0.1-1.1,1.3-0.9,2.6l0.7,4.1
						l-11,1.8c-1.9,0.3-3.1,2.1-2.8,3.9l1.9,11.5c0.3,1.9,2.1,3.1,3.9,2.8l40.5-6.8c1.9-0.3,3.1-2.1,2.8-3.9l-1.9-11.5
						C449.9,214.2,448.2,212.9,446.3,213.3z"/>
					<g>
						<path fill="#F1F2F2" d="M406.2,235.3l-1.9-11.5c-0.3-1.9,0.9-3.6,2.8-3.9l-1.3,0.2c-1.9,0.3-3.1,2.1-2.8,3.9l1.9,11.5
							c0.3,1.9,2.1,3.1,3.9,2.8l1.3-0.2C408.3,238.4,406.5,237.2,406.2,235.3z"/>
						<path fill="#F1F2F2" d="M417.4,213.9c-0.2-1.3,0.2-2.5,0.9-2.6l-1.3,0.2c-0.7,0.1-1.1,1.3-0.9,2.6l0.7,4.1l1.3-0.2
							L417.4,213.9z"/>
					</g>
					<path fill="#D1D3D4" d="M382.6,242.3c0.3,2.1,2.3,3.4,4.3,3.1l88.7-14.9c2.1-0.3,3.4-2.3,3.1-4.3l-1.1-6.8
						c-0.3-2.1-2.3-3.4-4.3-3.1l-88.7,14.9c-2.1,0.3-3.4,2.3-3.1,4.3L382.6,242.3z"/>
					<g>
						<path fill="#E6E7E8" d="M473.3,216.3l-88.7,14.9c-2.1,0.3-3.4,2.3-3.1,4.3l0.4,2.4c-0.3-2.1,1-4,3.1-4.3l88.7-14.9
							c2.1-0.3,4,1,4.3,3.1l-0.4-2.4C477.3,217.3,475.3,216,473.3,216.3z"/>
					</g>
					
						<rect x="403.2" y="222.5" transform="matrix(0.9863 -0.1652 0.1652 0.9863 -31.0095 73.621)" opacity="0.3" fill="#D7D8D9" width="47.9" height="1.5"/>
				</g>
				<g>
					<g>
						<path opacity="0.3" fill="#7D7EB9" d="M473,359.5l0.4,2.5c2.4-0.4,4.6,1.2,5,3.6c0.2,1.2-0.1,2.3-0.7,3.2l2.1,1.5
							c1-1.4,1.5-3.3,1.2-5.1C480.3,361.3,476.7,358.8,473,359.5z"/>
						<path fill="#E6E7E9" d="M474.8,370.5c-2.4,0.4-4.6-1.2-5-3.6c-0.4-2.4,1.2-4.6,3.6-5l-0.4-2.5c-3.7,0.6-6.3,4.2-5.6,7.9
							c0.6,3.7,4.2,6.3,7.9,5.6c1.9-0.3,3.4-1.4,4.5-2.8l-2.1-1.5C477,369.7,476,370.3,474.8,370.5z"/>
					</g>
					<g>
						<path fill="#BCBEC0" d="M514.4,364.4l-2.1-1.5c-1.4,2-4.1,2.4-6.1,1c-1-0.7-1.6-1.7-1.8-2.8l-2.5,0.4c0.3,1.7,1.2,3.4,2.8,4.5
							C507.9,368.2,512.2,367.5,514.4,364.4z"/>
						<path fill="#E6E7E9" d="M505.3,357.9c1.4-2,4.1-2.4,6.1-1c2,1.4,2.4,4.1,1,6.1l2.1,1.5c2.2-3.1,1.5-7.4-1.6-9.6
							c-3.1-2.2-7.4-1.5-9.6,1.6c-1.1,1.5-1.5,3.4-1.2,5.1l2.5-0.4C504.4,360,504.6,358.9,505.3,357.9z"/>
					</g>
					<g>
						<path fill="#E6E7E9" d="M485.1,364.5l2.5-0.4c-0.4-2.4,1.2-4.6,3.6-5c1.2-0.2,2.3,0.1,3.2,0.7c0.9,0.6,1.6,1.6,1.8,2.8
							c0.4,2.4-1.2,4.6-3.6,5c-1.1,0.2-2.1-0.1-3-0.6l-1.5,2.1c1.4,0.9,3.1,1.3,4.8,1c3.7-0.6,6.3-4.2,5.6-7.9
							c-0.3-1.9-1.4-3.4-2.8-4.5c-1.4-1-3.2-1.5-5.1-1.2C487,357.2,484.5,360.8,485.1,364.5z"/>
						<path fill="#64778F" d="M487.6,364.1l-2.5,0.4c0.3,2,1.5,3.6,3.1,4.6l1.5-2.1C488.6,366.5,487.8,365.4,487.6,364.1z"/>
					</g>
				</g>
				<g>
					<g>
						<g>
							
								<rect x="454.6" y="334.8" transform="matrix(0.9862 -0.1653 0.1653 0.9862 -50.7354 80.2179)" fill="#E6E7E8" width="3.9" height="20.2"/>
							
								<rect x="458.7" y="338.3" transform="matrix(0.9863 -0.1652 0.1652 0.9863 -50.889 80.882)" opacity="0.3" fill="#7D7EB9" width="3.9" height="16"/>
							
								<rect x="462.9" y="341.5" transform="matrix(0.9862 -0.1655 0.1655 0.9862 -51.102 81.6939)" fill="#F1F2F2" width="3.9" height="12.1"/>
							
								<rect x="465.8" y="330.2" transform="matrix(0.9863 -0.1648 0.1648 0.9863 -49.9059 81.7553)" fill="#64778F" width="3.9" height="22.9"/>
							
								<rect x="470.7" y="342.6" transform="matrix(0.9862 -0.1653 0.1653 0.9862 -50.929 82.8915)" fill="#E6E7E8" width="3.9" height="9.7"/>
						</g>
						<g>
							
								<rect x="482.4" y="338.3" transform="matrix(0.9863 -0.165 0.165 0.9863 -50.184 84.6661)" fill="#E6E7E8" width="3.9" height="12.1"/>
							
								<rect x="485.6" y="330.3" transform="matrix(0.9862 -0.1655 0.1655 0.9862 -49.5539 85.3886)" opacity="0.3" fill="#7D7EB9" width="3.9" height="19.5"/>
							
								<rect x="489.7" y="332" transform="matrix(0.9863 -0.1651 0.1651 0.9863 -49.4806 85.8356)" fill="#F1F2F2" width="3.9" height="17.1"/>
							
								<rect x="493.8" y="334.9" transform="matrix(0.9863 -0.1651 0.1651 0.9863 -49.5988 86.5042)" fill="#64778F" width="3.9" height="13.5"/>
							
								<rect x="496.9" y="326" transform="matrix(0.9863 -0.1651 0.1651 0.9863 -48.7805 86.9728)" fill="#E6E7E8" width="3.9" height="21.8"/>
						</g>
					</g>
					<g>
						<g>
							
								<rect x="396.5" y="358.4" transform="matrix(0.9862 -0.1654 0.1654 0.9862 -54.3308 70.9078)" fill="#E6E7E8" width="3.9" height="6.4"/>
							<polygon opacity="0.3" fill="#7D7EB9" points="404.7,363.8 400.9,364.4 399,353.1 402.9,352.5 							"/>
							
								<rect x="403.2" y="345.3" transform="matrix(0.9863 -0.1652 0.1652 0.9863 -52.9981 71.8149)" fill="#F1F2F2" width="3.9" height="18.3"/>
							
								<rect x="408" y="356.5" transform="matrix(0.9863 -0.1651 0.1651 0.9863 -53.7629 72.6241)" fill="#64778F" width="3.9" height="6.4"/>
							
								<rect x="411.2" y="348.3" transform="matrix(0.9863 -0.1652 0.1652 0.9863 -53.0254 73.1462)" fill="#E6E7E8" width="3.9" height="14"/>
						</g>
						<g>
							
								<rect x="424" y="357" transform="matrix(0.9863 -0.1651 0.1651 0.9863 -53.367 75.2536)" fill="#E6E7E8" width="3.9" height="3.2"/>
							
								<rect x="427.2" y="348.7" transform="matrix(0.9863 -0.165 0.165 0.9863 -52.5558 75.6599)" opacity="0.3" fill="#7D7EB9" width="3.9" height="10.9"/>
							
								<rect x="431.4" y="352.6" transform="matrix(0.9862 -0.1654 0.1654 0.9862 -52.8691 76.5603)" fill="#F1F2F2" width="3.9" height="6.4"/>
							
								<rect x="434.8" y="346.9" transform="matrix(0.9862 -0.1653 0.1653 0.9862 -52.2708 77.0214)" fill="#64778F" width="3.9" height="11.4"/>
							
								<rect x="438.2" y="341.3" transform="matrix(0.9863 -0.165 0.165 0.9863 -51.6319 77.3991)" fill="#E6E7E8" width="3.9" height="16.4"/>
						</g>
					</g>
				</g>
				<g>
					<g>
						<path fill="#D1D3D3" d="M442.5,377.2l14.8-2.5c0.3-0.1,0.7,0.1,0.7,0.3c0,0.2-0.2,0.5-0.6,0.6l-14.8,2.5
							c-0.3,0.1-0.7-0.1-0.7-0.3C441.9,377.5,442.1,377.3,442.5,377.2z"/>
					</g>
					<g>
						<path fill="#D1D3D3" d="M410.5,382.6l27.8-4.7c0.3-0.1,0.7,0.1,0.7,0.3c0,0.2-0.2,0.5-0.5,0.6l-27.8,4.7
							c-0.3,0.1-0.7-0.1-0.7-0.3C409.9,382.9,410.2,382.6,410.5,382.6z"/>
					</g>
					<g>
						<path fill="#D1D3D3" d="M401.8,384l5.3-0.9c0.3-0.1,0.7,0.1,0.7,0.3c0,0.3-0.2,0.5-0.6,0.6l-5.3,0.9c-0.3,0.1-0.7-0.1-0.7-0.3
							C401.2,384.4,401.4,384.1,401.8,384z"/>
					</g>
					<g>
						<path fill="#D1D3D3" d="M453,369.4l3.3-0.5c0.3-0.1,0.7,0.1,0.7,0.3c0,0.2-0.2,0.5-0.5,0.6l-3.3,0.5c-0.3,0.1-0.7-0.1-0.7-0.3
							C452.4,369.7,452.6,369.4,453,369.4z"/>
					</g>
					<g>
						<path fill="#D1D3D3" d="M416.2,375.5l32.6-5.5c0.3-0.1,0.7,0.1,0.7,0.3c0,0.3-0.2,0.5-0.6,0.6l-32.6,5.5
							c-0.3,0.1-0.7-0.1-0.7-0.3C415.6,375.8,415.9,375.6,416.2,375.5z"/>
					</g>
					<g>
						<path fill="#D1D3D3" d="M395.1,379.1l17.2-2.9c0.3-0.1,0.7,0.1,0.7,0.3c0,0.2-0.2,0.5-0.6,0.6l-17.2,2.9
							c-0.3,0.1-0.7-0.1-0.7-0.3C394.5,379.4,394.8,379.1,395.1,379.1z"/>
					</g>
					<g>
						<path fill="#D1D3D3" d="M441.3,364.3l8.6-1.4c0.3-0.1,0.7,0.1,0.7,0.3c0,0.3-0.2,0.5-0.6,0.6l-8.6,1.4
							c-0.3,0.1-0.7-0.1-0.7-0.3C440.7,364.6,440.9,364.4,441.3,364.3z"/>
					</g>
					<g>
						<path fill="#D1D3D3" d="M398.6,371.5l39-6.5c0.3-0.1,0.7,0.1,0.7,0.3c0,0.3-0.2,0.5-0.6,0.6l-39,6.5c-0.3,0.1-0.7-0.1-0.7-0.3
							C398,371.8,398.2,371.5,398.6,371.5z"/>
					</g>
				</g>
			</g>
			<g>
				<path fill="#2B303A" d="M147.8,431c-0.2,4.9,4,1.3,6.9,2.7c2.9,1.4,54.1,24.5,54.1,24.5l0.6-5.8
					C209.5,452.4,148,425.3,147.8,431z"/>
				<path fill="#2F343E" d="M166.6,433.5c-1,4.8-4.2,0.3-7.4,1c-3.2,0.7-58.4,11.1-58.4,11.1l0.8-5.8
					C101.6,439.8,167.8,428,166.6,433.5z"/>
				<g>
					<g>
						<g>
							<path fill="#363B46" d="M142.4,430.1l-29.5-3c-6.3-0.6-11.9,3.9-12.6,10.3l-0.6,5.5c-0.6,6.3,4,11.9,10.3,12.6l29.5,3
								c6.3,0.6,11.9-4,12.6-10.3l0.6-5.5C153.3,436.4,148.7,430.7,142.4,430.1z M146.9,446.9c-0.5,4.7-5,8.1-10,7.5l-23.7-2.4
								c-5.1-0.5-8.8-4.7-8.3-9.4l0.4-4.1c0.5-4.7,5-8.1,10-7.5l23.7,2.4c5.1,0.5,8.8,4.7,8.3,9.4L146.9,446.9z"/>
							<path opacity="0.4" fill="#FFFFFF" d="M139,433.4l-23.7-2.4c-5.1-0.5-9.5,2.9-10,7.5l-0.4,4.1c-0.5,4.7,3.2,8.9,8.3,9.4
								l23.7,2.4c5.1,0.5,9.5-2.9,10-7.5l0.4-4.1C147.8,438.2,144.1,433.9,139,433.4z"/>
						</g>
						<g opacity="0.1">
							<path fill="#FFFFFF" d="M118.6,431.3l-8.5,19.8c0.8,0.4,1.6,0.6,2.4,0.8l8.7-20.3L118.6,431.3z"/>
							<path fill="#FFFFFF" d="M121.9,431.7l-8.8,20.4c0,0,0,0,0.1,0l1.4,0.1l8.8-20.4L121.9,431.7z"/>
							<polygon fill="#FFFFFF" points="124.1,431.9 115.4,452.3 119.4,452.7 128.1,432.3 							"/>
						</g>
					</g>
					<g>
						<g>
							<path fill="#363B46" d="M202.5,436.2l-29.5-3c-6.3-0.6-11.9,4-12.6,10.3l-0.6,5.5c-0.6,6.3,3.9,11.9,10.3,12.6l29.5,3
								c6.3,0.6,11.9-4,12.6-10.3l0.6-5.5C213.4,442.5,208.8,436.8,202.5,436.2z M207,453c-0.5,4.7-5,8.1-10,7.5l-23.7-2.4
								c-5.1-0.5-8.8-4.7-8.3-9.4l0.4-4.1c0.5-4.7,5-8.1,10-7.5l23.7,2.4c5.1,0.5,8.8,4.7,8.3,9.4L207,453z"/>
							<path opacity="0.4" fill="#FFFFFF" d="M199.1,439.5l-23.7-2.4c-5.1-0.5-9.5,2.9-10,7.5l-0.4,4.1c-0.5,4.7,3.2,8.9,8.3,9.4
								l23.7,2.4c5.1,0.5,9.5-2.9,10-7.5l0.4-4.1C207.9,444.3,204.2,440.1,199.1,439.5z"/>
						</g>
						<g opacity="0.1">
							<path fill="#FFFFFF" d="M178.7,437.5l-8.5,19.8c0.8,0.4,1.6,0.6,2.4,0.8l8.7-20.3L178.7,437.5z"/>
							<path fill="#FFFFFF" d="M182,437.8l-8.8,20.4c0,0,0,0,0,0l1.4,0.1l8.8-20.4L182,437.8z"/>
							<polygon fill="#FFFFFF" points="184.3,438 175.5,458.4 179.5,458.8 188.2,438.4 							"/>
						</g>
					</g>
					<g>
						<path fill="#363B46" d="M165.2,446.5l-3.7-0.8c0,0,0.4-2.3-0.7-3.8c-0.7-0.9-1.9-1.5-3.5-1.6c-1.7-0.2-3,0.1-4,1
							c-1.5,1.3-1.7,3.6-1.7,3.6l-3.8-0.2c0-0.2,0.3-3.9,3.1-6.3c1.8-1.5,4.1-2.1,6.9-1.8c2.8,0.3,4.9,1.4,6.2,3.2
							C166,442.5,165.3,446.1,165.2,446.5z"/>
					</g>
				</g>
			</g>
			<g>
				<g>
					<path fill="#2C313B" d="M396.8,383.9l-45.1,71.4c-1,1.6-0.5,3.7,1.1,4.7l2.6,1.6c1.6,1,3.7,0.5,4.7-1.1l45.1-71.4L396.8,383.9z
						"/>
				</g>
				<g>
					<path fill="#262A34" d="M353.1,456.2l45.1-71.4l-1.4-0.9l-45.1,71.4c-1,1.6-0.5,3.7,1.1,4.7l1.4,0.9
						C352.6,459.9,352.1,457.8,353.1,456.2z"/>
				</g>
				<g>
					<path fill="#333842" d="M362.6,437.5l-16.1,25.4c-1.1,1.7-0.6,3.9,1.1,5l2.7,1.7c1.7,1.1,3.9,0.6,5-1.1l16.1-25.4L362.6,437.5z
						"/>
				</g>
				<g>
					<path fill="#A1A1A3" d="M354.9,458.2c-0.3,0.5-0.2,1.2,0.3,1.5c0.5,0.3,1.2,0.2,1.5-0.3l19.8-31.4c0.3-0.5,0.2-1.2-0.3-1.5
						c-0.5-0.3-1.2-0.2-1.5,0.3L354.9,458.2z"/>
					<g>
						<path fill="#CBCBCD" d="M355.7,458.7l19.8-31.4c0.2-0.3,0.6-0.5,0.9-0.5c-0.1-0.2-0.2-0.3-0.4-0.4c-0.5-0.3-1.2-0.2-1.5,0.3
							l-19.8,31.4c-0.3,0.5-0.2,1.2,0.3,1.5c0.2,0.1,0.4,0.1,0.5,0.1C355.5,459.5,355.4,459.1,355.7,458.7z"/>
					</g>
				</g>
				<g>
					<polygon fill="#CBCBCD" points="402.7,393 394.3,387.8 395.3,386.2 403.7,391.4 					"/>
					
						<rect x="394.5" y="388.8" transform="matrix(0.8454 0.5341 -0.5341 0.8454 269.4855 -153.2074)" fill="#DDDCDD" width="9.9" height="0.3"/>
					
						<rect x="393.6" y="390.1" transform="matrix(0.8457 0.5337 -0.5337 0.8457 269.8144 -152.4907)" fill="#DDDCDD" width="9.9" height="0.3"/>
				</g>
				<g>
					<polygon fill="#CBCBCD" points="400.7,396.1 392.4,390.8 393.4,389.2 401.7,394.5 					"/>
					
						<rect x="392.5" y="391.8" transform="matrix(0.8457 0.5337 -0.5337 0.8457 270.5633 -151.6358)" fill="#DDDCDD" width="9.9" height="0.3"/>
					
						<rect x="391.7" y="393.2" transform="matrix(0.8455 0.534 -0.534 0.8455 271.3102 -151.0162)" fill="#DDDCDD" width="9.9" height="0.3"/>
				</g>
				<polygon fill="#F1F2F2" points="410,372.1 399.3,378.5 396.7,383.9 400.9,386.5 405.1,389.2 408.9,384.6 				"/>
				<g opacity="0.6">
					<polygon fill="#FFFFFF" points="409.8,374.2 410,372.1 399.3,378.5 396.7,383.9 397.8,384.5 399.9,380.1 					"/>
				</g>
				<path fill="#97999B" d="M405.5,379.4c0,0-0.1,0-0.1,0l0,0c0,0-0.1-0.1-0.1-0.1l4-6.4c0,0,0.1,0,0.1,0l0,0c0,0,0.1,0.1,0.1,0.1
					L405.5,379.4z"/>
				<path fill="#97999B" d="M405.9,379.9c-0.2,0.3-0.6,0.4-1,0.2c-0.3-0.2-0.4-0.6-0.2-1c0.2-0.3,0.6-0.4,1-0.2
					C406,379.1,406.1,379.6,405.9,379.9z"/>
			</g>
		</g>
		<g>
			<g>
				<g>
					<path fill="#333741" d="M-163.7,179.2l70.5,92.2l265.3-98.8l-7-115.8C73.2,91.1-94.6,153.6-163.7,179.2z"/>
				</g>
				<g>
					<path fill="#7D7EB9" d="M-138.4,183.1l50.7,70.2l243.6-90.8l-5.4-87.1C69.8,105.5-77.7,160.6-138.4,183.1z"/>
				</g>
				<g>
					<path fill="#2B2F38" d="M164.7,55.6l-2.4-6.4c-1.4-3.7-5.6-5.5-9.4-4.1l-315.2,117.4c-3.8,1.4-5.8,5.6-4.4,9.2l2.4,6.4
						c0.1,0.4,0.3,0.7,0.5,1.1L165,56.8C165,56.4,164.9,56,164.7,55.6z"/>
				</g>
				<g>
					<path fill="#D1D3D4" d="M221.9,334.7l-246.7,91.9c-4.4,1.6-9.5-1.1-12.5-6.2c-0.5-0.9-1-1.9-1.4-2.9l3.5,9.5
						c0.4,1,0.9,2,1.4,2.9c3,5.1,8.2,7.8,12.5,6.2l246.7-91.9c5.1-1.9,7.2-9.1,4.6-16l-3.5-9.5C229.1,325.7,227,332.8,221.9,334.7z"
						/>
					<path fill="#F1F2F2" d="M-93.2,271.4l3.5,9.5l1.8,4.8l3.5,9.5l0.1,0.2l3.5,9.5l1.8,4.8l3.5,9.5l36.6,98.3c0.4,1,0.9,2,1.4,2.9
						c3,5.1,8.2,7.8,12.5,6.2l246.7-91.9c5.1-1.9,7.2-9.1,4.6-16l-45.6-122.3l-3.5-9.5l-1.8-4.8l-3.5-9.5L-93.2,271.4z"/>
				</g>
				<g>
					<path fill="#4A4F5B" d="M51.7,210.8l-28.9,10.8c-0.7,0.3-1.5-0.1-1.7-0.8c-0.3-0.7,0.1-1.5,0.8-1.7l28.9-10.8
						c0.7-0.3,1.5,0.1,1.7,0.8C52.8,209.8,52.4,210.5,51.7,210.8z"/>
				</g>
				<g>
					<g>
						<path fill="#A7A9AC" d="M125.2,377.2l-47,17.5c-0.6,0.2-1.2-0.1-1.5-0.7c-0.2-0.6,0.1-1.2,0.7-1.5l47-17.5
							c0.6-0.2,1.2,0.1,1.5,0.7C126.1,376.3,125.8,377,125.2,377.2z"/>
					</g>
				</g>
				<g>
					<path fill="#E6E7E8" d="M53.7,379.9c1.1,2.9,4.2,4.3,7.1,3.2l69.9-26c2.9-1.1,4.3-4.2,3.2-7.1l-12.1-32.3
						c-1.1-2.9-4.2-4.3-7.1-3.2l-69.9,26c-2.9,1.1-4.3,4.2-3.2,7.1L53.7,379.9z"/>
				</g>
				
					<rect x="-64.6" y="221.3" transform="matrix(0.9371 -0.3491 0.3491 0.9371 -76.5887 29.1096)" fill="#2E323C" width="214" height="11.5"/>
				
					<rect x="-62.6" y="241.6" transform="matrix(0.9371 -0.3491 0.3491 0.9371 -94.0681 39.0178)" fill="#FBFBFB" width="247.6" height="77.8"/>
				<g>
					<g>
						<polygon fill="#DBDBDB" points="147.6,252.9 147.6,252.9 147.6,252.9 147.6,252.9 147.6,252.9 						"/>
						<polygon fill="#DBDBDB" points="147.6,252.9 147.6,252.9 147.6,252.9 147.6,252.9 147.6,252.9 						"/>
					</g>
					<path fill="#DBDBDB" d="M-35.2,347.7c0.5,1.4,2.1,2.1,3.5,1.6l16.4-6.1c1.4-0.5,2.1-2.1,1.6-3.5l-1.8-4.8
						c-0.5-1.4-2.1-2.1-3.5-1.6l-16.4,6.1c-1.4,0.5-2.1,2.1-1.6,3.5L-35.2,347.7z"/>
					<path fill="#DBDBDB" d="M-9,338c0.5,1.4,2.1,2.1,3.5,1.6l16.5-6.1c1.4-0.5,2.1-2.1,1.6-3.5l-1.8-4.8c-0.5-1.4-2.1-2.1-3.5-1.6
						l-16.5,6.1c-1.4,0.5-2.1,2.1-1.6,3.5L-9,338z"/>
					<path fill="#DBDBDB" d="M123.1,288.7c0.5,1.4,2.1,2.1,3.5,1.6l9.1-3.4c1.4-0.5,2.1-2.1,1.6-3.5l-1.8-4.8
						c-0.5-1.4-2.1-2.1-3.5-1.6l-9.1,3.4c-1.4,0.5-2.1,2.1-1.6,3.5L123.1,288.7z"/>
					<path fill="#DBDBDB" d="M142.8,281.4c0.5,1.4,2.1,2.1,3.5,1.6l9.1-3.4c1.4-0.5,2.1-2.1,1.6-3.5l-1.8-4.8
						c-0.5-1.4-2.1-2.1-3.5-1.6l-9.1,3.4c-1.4,0.5-2.1,2.1-1.6,3.5L142.8,281.4z"/>
					<path fill="#DBDBDB" d="M164,273.5c0.5,1.4,2.1,2.1,3.5,1.6l9.1-3.4c1.4-0.5,2.1-2.1,1.6-3.5l-1.8-4.8
						c-0.5-1.4-2.1-2.1-3.5-1.6l-9.1,3.4c-1.4,0.5-2.1,2.1-1.6,3.5L164,273.5z"/>
					<path fill="#DBDBDB" d="M17.6,328.1c0.5,1.4,2.1,2.1,3.5,1.6l94.8-35.3c1.4-0.5,2.1-2.1,1.6-3.5l-1.8-4.8
						c-0.5-1.4-2.1-2.1-3.5-1.6l-94.8,35.3c-1.4,0.5-2.1,2.1-1.6,3.5L17.6,328.1z"/>
					<path fill="#DBDBDB" d="M-54.9,295.1c0.5,1.4,2.1,2.1,3.5,1.6l14-5.2c1.4-0.5,2.1-2.1,1.6-3.5l-0.9-2.4
						c-0.5-1.4-2.1-2.1-3.5-1.6l-14,5.2c-1.4,0.5-2.1,2.1-1.6,3.5L-54.9,295.1z"/>
					<path fill="#DBDBDB" d="M-31.9,286.5c0.5,1.4,2.1,2.1,3.5,1.6l14-5.2c1.4-0.5,2.1-2.1,1.6-3.5l-0.9-2.4
						c-0.5-1.4-2.1-2.1-3.5-1.6l-14,5.2c-1.4,0.5-2.1,2.1-1.6,3.5L-31.9,286.5z"/>
					<path fill="#DBDBDB" d="M-8.2,277.7c0.5,1.4,2.1,2.1,3.5,1.6l14-5.2c1.4-0.5,2.1-2.1,1.6-3.5l-0.9-2.4
						c-0.5-1.4-2.1-2.1-3.5-1.6l-14,5.2c-1.4,0.5-2.1,2.1-1.6,3.5L-8.2,277.7z"/>
					<path fill="#DBDBDB" d="M14.7,269.2c0.5,1.4,2.1,2.1,3.5,1.6l14-5.2c1.4-0.5,2.1-2.1,1.6-3.5l-0.9-2.4
						c-0.5-1.4-2.1-2.1-3.5-1.6l-14,5.2c-1.4,0.5-2.1,2.1-1.6,3.5L14.7,269.2z"/>
					<path fill="#DBDBDB" d="M38.4,260.4c0.5,1.4,2.1,2.1,3.5,1.6l14-5.2c1.4-0.5,2.1-2.1,1.6-3.5l-0.9-2.4
						c-0.5-1.4-2.1-2.1-3.5-1.6l-14,5.2c-1.4,0.5-2.1,2.1-1.6,3.5L38.4,260.4z"/>
					<path fill="#DBDBDB" d="M61.4,251.8c0.5,1.4,2.1,2.1,3.5,1.6l14-5.2c1.4-0.5,2.1-2.1,1.6-3.5l-0.9-2.4
						c-0.5-1.4-2.1-2.1-3.5-1.6l-14,5.2c-1.4,0.5-2.1,2.1-1.6,3.5L61.4,251.8z"/>
					<path fill="#DBDBDB" d="M85,243c0.5,1.4,2.1,2.1,3.5,1.6l14-5.2c1.4-0.5,2.1-2.1,1.6-3.5l-0.9-2.4c-0.5-1.4-2.1-2.1-3.5-1.6
						l-14,5.2c-1.4,0.5-2.1,2.1-1.6,3.5L85,243z"/>
					<path fill="#DBDBDB" d="M108,234.4c0.5,1.4,2.1,2.1,3.5,1.6l14-5.2c1.4-0.5,2.1-2.1,1.6-3.5l-0.9-2.4c-0.5-1.4-2.1-2.1-3.5-1.6
						l-14,5.2c-1.4,0.5-2.1,2.1-1.6,3.5L108,234.4z"/>
					<path fill="#DBDBDB" d="M131.6,225.7c0.5,1.4,2.1,2.1,3.5,1.6l6.7-2.5c1.4-0.5,2.1-2.1,1.6-3.5l-0.9-2.4
						c-0.5-1.4-2.1-2.1-3.5-1.6l-6.7,2.5c-1.4,0.5-2.1,2.1-1.6,3.5L131.6,225.7z"/>
					<path fill="#DBDBDB" d="M146.8,220c0.5,1.4,2.1,2.1,3.5,1.6l6.7-2.5c1.4-0.5,2.1-2.1,1.6-3.5l-0.9-2.4
						c-0.5-1.4-2.1-2.1-3.5-1.6l-6.7,2.5c-1.4,0.5-2.1,2.1-1.6,3.5L146.8,220z"/>
					<path fill="#DBDBDB" d="M-49.6,309.2c0.5,1.4,2.1,2.1,3.5,1.6l27.4-10.2c1.4-0.5,2.1-2.1,1.6-3.5l-2-5.3
						c-0.5-1.4-2.1-2.1-3.5-1.6L-50,300.4c-1.4,0.5-2.1,2.1-1.6,3.5L-49.6,309.2z"/>
					<path fill="#DBDBDB" d="M-45,321.7c0.5,1.4,2.1,2.1,3.5,1.6l8.3-3.1c1.4-0.5,2.1-2.1,1.6-3.5l-1.4-3.8
						c-0.5-1.4-2.1-2.1-3.5-1.6l-8.3,3.1c-1.4,0.5-2.1,2.1-1.6,3.5L-45,321.7z"/>
					<path fill="#DBDBDB" d="M-40.1,334.8c0.5,1.4,2.1,2.1,3.5,1.6l12.5-4.7c1.4-0.5,2.1-2.1,1.6-3.5l-1.4-3.8
						c-0.5-1.4-2.1-2.1-3.5-1.6l-12.5,4.7c-1.4,0.5-2.1,2.1-1.6,3.5L-40.1,334.8z"/>
					<path fill="#DBDBDB" d="M-12.8,295c0.5,1.4,2.1,2.1,3.5,1.6l12-4.5c1.4-0.5,2.1-2.1,1.6-3.5l-1.8-4.9c-0.5-1.4-2.1-2.1-3.5-1.6
						l-12,4.5c-1.4,0.5-2.1,2.1-1.6,3.5L-12.8,295z"/>
					<path fill="#DBDBDB" d="M9.8,286.6c0.5,1.4,2.1,2.1,3.5,1.6l12-4.5c1.4-0.5,2.1-2.1,1.6-3.5l-1.8-4.9c-0.5-1.4-2.1-2.1-3.5-1.6
						l-12,4.5c-1.4,0.5-2.1,2.1-1.6,3.5L9.8,286.6z"/>
					<path fill="#DBDBDB" d="M32.9,278c0.5,1.4,2.1,2.1,3.5,1.6l12-4.5c1.4-0.5,2.1-2.1,1.6-3.5l-1.8-4.9c-0.5-1.4-2.1-2.1-3.5-1.6
						l-12,4.5c-1.4,0.5-2.1,2.1-1.6,3.5L32.9,278z"/>
					<path fill="#DBDBDB" d="M55.4,269.6c0.5,1.4,2.1,2.1,3.5,1.6l12-4.5c1.4-0.5,2.1-2.1,1.6-3.5l-1.8-4.9
						c-0.5-1.4-2.1-2.1-3.5-1.6l-12,4.5c-1.4,0.5-2.1,2.1-1.6,3.5L55.4,269.6z"/>
					<path fill="#DBDBDB" d="M78.9,260.8c0.5,1.4,2.1,2.1,3.5,1.6l12.1-4.5c1.4-0.5,2.1-2.1,1.6-3.5l-1.8-4.9
						c-0.5-1.4-2.1-2.1-3.5-1.6l-12.1,4.5c-1.4,0.5-2.1,2.1-1.6,3.5L78.9,260.8z"/>
					<path fill="#DBDBDB" d="M101.4,252.4c0.5,1.4,2.1,2.1,3.5,1.6l12-4.5c1.4-0.5,2.1-2.1,1.6-3.5l-1.8-4.9
						c-0.5-1.4-2.1-2.1-3.5-1.6l-12,4.5c-1.4,0.5-2.1,2.1-1.6,3.5L101.4,252.4z"/>
					<path fill="#DBDBDB" d="M123.6,244.2c0.5,1.4,2.1,2.1,3.5,1.6l12.1-4.5c1.4-0.5,2.1-2.1,1.6-3.5l-1.8-4.9
						c-0.5-1.4-2.1-2.1-3.5-1.6l-12.1,4.5c-1.4,0.5-2.1,2.1-1.6,3.5L123.6,244.2z"/>
					<path fill="#DBDBDB" d="M-25.9,314.5c0.5,1.4,2.1,2.1,3.5,1.6l12.1-4.5c1.4-0.5,2.1-2.1,1.6-3.5l-1.8-4.9
						c-0.5-1.4-2.1-2.1-3.5-1.6l-12.1,4.5c-1.4,0.5-2.1,2.1-1.6,3.5L-25.9,314.5z"/>
					<path fill="#DBDBDB" d="M-3.3,306.1c0.5,1.4,2.1,2.1,3.5,1.6l12-4.5c1.4-0.5,2.1-2.1,1.6-3.5l-1.8-4.9
						c-0.5-1.4-2.1-2.1-3.5-1.6l-12,4.5c-1.4,0.5-2.1,2.1-1.6,3.5L-3.3,306.1z"/>
					<path fill="#DBDBDB" d="M19.8,297.5c0.5,1.4,2.1,2.1,3.5,1.6l12-4.5c1.4-0.5,2.1-2.1,1.6-3.5l-1.8-4.9
						c-0.5-1.4-2.1-2.1-3.5-1.6l-12,4.5c-1.4,0.5-2.1,2.1-1.6,3.5L19.8,297.5z"/>
					<path fill="#DBDBDB" d="M42.3,289.1c0.5,1.4,2.1,2.1,3.5,1.6l12-4.5c1.4-0.5,2.1-2.1,1.6-3.5l-1.8-4.9
						c-0.5-1.4-2.1-2.1-3.5-1.6l-12,4.5c-1.4,0.5-2.1,2.1-1.6,3.5L42.3,289.1z"/>
					<path fill="#DBDBDB" d="M65.8,280.4c0.5,1.4,2.1,2.1,3.5,1.6l12-4.5c1.4-0.5,2.1-2.1,1.6-3.5l-1.8-4.9
						c-0.5-1.4-2.1-2.1-3.5-1.6l-12,4.5c-1.4,0.5-2.1,2.1-1.6,3.5L65.8,280.4z"/>
					<path fill="#DBDBDB" d="M88.3,272c0.5,1.4,2.1,2.1,3.5,1.6l12-4.5c1.4-0.5,2.1-2.1,1.6-3.5l-1.8-4.9c-0.5-1.4-2.1-2.1-3.5-1.6
						l-12,4.5c-1.4,0.5-2.1,2.1-1.6,3.5L88.3,272z"/>
					<path fill="#DBDBDB" d="M110.5,263.7c0.5,1.4,2.1,2.1,3.5,1.6l12-4.5c1.4-0.5,2.1-2.1,1.6-3.5l-1.8-4.9
						c-0.5-1.4-2.1-2.1-3.5-1.6l-12,4.5c-1.4,0.5-2.1,2.1-1.6,3.5L110.5,263.7z"/>
					<path fill="#DBDBDB" d="M-18.5,326.8c0.5,1.4,2.1,2.1,3.5,1.6l12.1-4.5c1.4-0.5,2.1-2.1,1.6-3.5l-1.8-4.9
						c-0.5-1.4-2.1-2.1-3.5-1.6l-12.1,4.5c-1.4,0.5-2.1,2.1-1.6,3.5L-18.5,326.8z"/>
					<path fill="#DBDBDB" d="M4,318.4c0.5,1.4,2.1,2.1,3.5,1.6l12-4.5c1.4-0.5,2.1-2.1,1.6-3.5l-1.8-4.9c-0.5-1.4-2.1-2.1-3.5-1.6
						l-12,4.5c-1.4,0.5-2.1,2.1-1.6,3.5L4,318.4z"/>
					<path fill="#DBDBDB" d="M27.1,309.8c0.5,1.4,2.1,2.1,3.5,1.6l12-4.5c1.4-0.5,2.1-2.1,1.6-3.5l-1.8-4.9
						c-0.5-1.4-2.1-2.1-3.5-1.6l-12,4.5c-1.4,0.5-2.1,2.1-1.6,3.5L27.1,309.8z"/>
					<path fill="#DBDBDB" d="M49.7,301.4c0.5,1.4,2.1,2.1,3.5,1.6l12-4.5c1.4-0.5,2.1-2.1,1.6-3.5l-1.8-4.9
						c-0.5-1.4-2.1-2.1-3.5-1.6l-12,4.5c-1.4,0.5-2.1,2.1-1.6,3.5L49.7,301.4z"/>
					<path fill="#DBDBDB" d="M73.1,292.7c0.5,1.4,2.1,2.1,3.5,1.6l12-4.5c1.4-0.5,2.1-2.1,1.6-3.5l-1.8-4.9
						c-0.5-1.4-2.1-2.1-3.5-1.6l-12,4.5c-1.4,0.5-2.1,2.1-1.6,3.5L73.1,292.7z"/>
					<path fill="#DBDBDB" d="M95.7,284.2c0.5,1.4,2.1,2.1,3.5,1.6l12.1-4.5c1.4-0.5,2.1-2.1,1.6-3.5L111,273
						c-0.5-1.4-2.1-2.1-3.5-1.6l-12.1,4.5c-1.4,0.5-2.1,2.1-1.6,3.5L95.7,284.2z"/>
					<path fill="#DBDBDB" d="M117.8,276c0.5,1.4,2.1,2.1,3.5,1.6l12-4.5c1.4-0.5,2.1-2.1,1.6-3.5l-1.8-4.9c-0.5-1.4-2.1-2.1-3.5-1.6
						l-12,4.5c-1.4,0.5-2.1,2.1-1.6,3.5L117.8,276z"/>
					<path fill="#DBDBDB" d="M163.3,228.2c-0.5-1.4-2.1-2.1-3.5-1.6l-12.4,4.6c-1.4,0.5-2.1,2.1-1.6,3.5l3.5,9.4l-12.3,4.6
						c-1.4,0.5-2.1,2.1-1.6,3.5l3,8.1l0.3,0.8l1.5,4.1c0.5,1.4,2.1,2.1,3.5,1.6l27.3-10.2c1.4-0.5,2.1-2.1,1.6-3.5l-1.9-5
						c-0.1-0.2-0.2-0.4-0.4-0.6c0-0.2,0-0.4-0.1-0.7L163.3,228.2z"/>
				</g>
			</g>
			<g opacity="5.000000e-02">
				<path fill="#FFFFFF" d="M92.5,97c-80.5,30-182.2,68-230,85.7l50.7,70.2l14.4-5.4C-49.1,197.1,10.6,142.3,92.5,97z"/>
			</g>
		</g>
	</g>
</g>
</svg>
