<?xml version="1.0" encoding="utf-8"?>
<!-- Generator: Adobe Illustrator 17.1.0, SVG Export Plug-In . SVG Version: 6.00 Build 0)  -->
<!DOCTYPE svg PUBLIC "-//W3C//DTD SVG 1.1//EN" "http://www.w3.org/Graphics/SVG/1.1/DTD/svg11.dtd">
<svg version="1.1" id="Capa_1" xmlns="http://www.w3.org/2000/svg" xmlns:xlink="http://www.w3.org/1999/xlink" x="0px" y="0px"
	 width="559px" height="355.1px" viewBox="0 0 559 355.1" enable-background="new 0 0 559 355.1" xml:space="preserve">
<rect x="-0.5" y="-0.9" fill="#2A2A31" width="560" height="356"/>
<g>
	<defs>
		<rect id="SVGID_1_" x="-7.5" y="-15.9" width="1280" height="473"/>
	</defs>
	<clipPath id="SVGID_2_">
		<use xlink:href="#SVGID_1_"  overflow="visible"/>
	</clipPath>
	<g opacity="0.5" clip-path="url(#SVGID_2_)">
		<g opacity="0.35">
			<g>
				<path fill="#6D6E71" d="M503.5,182.5l2.6,0l-0.4-4l36-2.7l0.2,2.3l3.1,0c0.4,0,0.8,0.1,1.1,0.2l0-0.8c0-1.3-1.1-2.4-2.4-2.4
					l-18.4-0.1l-1-2.6c-0.5-1.2-1.8-2.1-3.1-2.1l-16.7-0.2c-1.3,0-2.4,1.1-2.4,2.4l0.4,10.2C503,182.5,503.2,182.5,503.5,182.5z"/>
				<path fill="#6D6E71" d="M545.1,178.7l-17.7,0.2c-1.3,0-2.8,0.9-3.3,1.9l-1.1,2.3l-19.5,0.1c-1.4,0-2.5,1-2.5,2.2l1.1,21.9
					c0,1.1,1.1,2.1,2.4,2.1h39.6c1.3,0,2.4-0.9,2.4-2.1l1.1-26.3C547.6,179.7,546.5,178.7,545.1,178.7z M529,199.2
					c0,3-1.8,3.7-3.5,3.7v1.4h-1.7v-1.5c-1.4,0-2-0.2-3.1-0.5v-2.2c0.7,0.1,2.4,0.2,4.1,0.2c0.7,0,1.3-0.2,1.3-0.9v-0.5
					c0-0.6-0.2-1-1.1-1h-1.4c-3.2,0-3.4-2.6-3.4-3.6v-1.1c0-2.5,1.6-3.3,3.5-3.4v-1.5h1.7v1.5c1.2,0.1,2.2,0.3,3.1,0.5v2.3
					c-1.1-0.1-3-0.2-3.8-0.2c-1,0-1.5,0.1-1.5,1v0.4c0,0.8,0.3,1.1,1.3,1.1h1.4c2.6,0,3.2,2.1,3.2,3.6V199.2z"/>
				<path fill="#6D6E71" d="M522.6,182.4l0.9-1.9c0.6-1.3,2.3-2.3,3.9-2.3l13.8-0.1l-0.2-1.5l-34.6,2.6l0.3,3.4L522.6,182.4z"/>
			</g>
		</g>
		<g opacity="0.35">
			<g>
				<path fill="#6D6E71" d="M129,210.4c0.7-0.5,0.7-1.2,0-1.7l-18.7-12c-0.7-0.5-1.3-0.2-1.3,0.7v24.4c0,0.8,0.6,1.2,1.3,0.7
					L129,210.4z"/>
				<path fill="#6D6E71" d="M132.8,211.1c-0.7-0.5-1.9-0.5-2.7,0l-18.7,12c-0.7,0.5-0.6,0.9,0.3,0.9h39.5c0.9,0,1-0.4,0.3-0.9
					L132.8,211.1z"/>
				<path fill="#6D6E71" d="M133.9,208.7c-0.7,0.5-0.7,1.2,0,1.7l18.7,12c0.7,0.5,1.3,0.2,1.3-0.7v-24.4c0-0.8-0.6-1.2-1.3-0.7
					L133.9,208.7z"/>
				<g>
					<path fill="#6D6E71" d="M135.4,183.9l-0.5-0.3c-1.9-1.2-5-1.2-6.8,0l-0.5,0.3H135.4z"/>
					<path fill="#6D6E71" d="M116.4,191.1l-2.8,1.8l0,0c-0.5,0.3-1,0.7-1.4,0.9l-0.8,0.5c-0.7,0.5-0.7,1.2,0,1.7l4.9,3.2V191.1z"/>
					<path fill="#6D6E71" d="M151.5,194.2l-0.8-0.5c-0.7-0.5-1.5-0.9-1.6-1.1c-0.1,0-0.2-0.2-0.5-0.3l-2.1-1.3v8.1l4.9-3.2
						C152.2,195.5,152.2,194.7,151.5,194.2z"/>
				</g>
				<path fill="#6D6E71" d="M141.9,185.2h-4.4h-12.1H121c-1.8,0-3.2,1.4-3.2,3.1v1.8v1.6v5.2v3l12.3,7.9c0.7,0.5,1.9,0.5,2.7,0
					l12.3-7.9v-3v-5.2v-1.6v-1.8C145.1,186.6,143.7,185.2,141.9,185.2z M142.4,199.1h-21.9v-1.7h21.9V199.1z M142.4,195.1h-21.9
					v-1.7h21.9V195.1z M142.4,191.1h-21.9v-1.7h21.9V191.1z"/>
			</g>
		</g>
		<g id="globe" opacity="0.35">
			<g>
				<g>
					<path fill="#6D6E71" d="M280.4,180.5c2.3-2.2,4.9-4,7.8-5.2c-0.3-0.7-0.6-1.4-0.8-2.1c-0.4-1.1-0.6-2.2-0.8-3.3
						c-4.4,0.4-8.4,2.4-11.5,5.3L280.4,180.5z"/>
					<path fill="#6D6E71" d="M294.4,182.7l7.6-7.6c-0.4-0.3-0.7-0.7-1.1-1c-3.9-0.3-7.7,0.3-11.2,1.7
						C290.9,178.4,292.5,180.7,294.4,182.7z"/>
					<path fill="#6D6E71" d="M289.3,189.5l7.1,7.1c2.1-2.2,3.8-4.7,5-7.3c-2.6-1.2-4.9-2.9-7-4.9L289.3,189.5z"/>
					<path fill="#6D6E71" d="M295.3,183.6c2,1.9,4.2,3.5,6.6,4.6c1.4-3.6,2-7.4,1.7-11.4c-0.2-0.3-0.5-0.6-0.8-0.9L295.3,183.6z"/>
					<path fill="#6D6E71" d="M281.4,195.8c-2-1.9-4.3-3.5-6.7-4.7c-1.3,3.4-1.8,7.1-1.5,10.8c0.3,0.4,0.6,0.7,1,1.1L281.4,195.8z"/>
					<path fill="#6D6E71" d="M303.5,187c-0.2,0.6-0.4,1.1-0.6,1.7c1.7,0.7,3.5,1.3,5.3,1.6c0-0.3,0-0.6,0-0.8c0-4.1-1.2-7.9-3.4-11
						C304.9,181.4,304.4,184.2,303.5,187z"/>
					<path fill="#6D6E71" d="M296.5,198.2c-2.4,2.3-5.1,4.1-8.1,5.4c0.4,0.8,0.7,1.7,1,2.5c0.3,1,0.6,2,0.8,3
						c4.6-0.4,8.8-2.3,11.9-5.3L296.5,198.2z"/>
					<path fill="#6D6E71" d="M281.2,181.3l7.3,7.3l5.1-5.1c-2-2.1-3.7-4.6-5-7.2C285.9,177.5,283.4,179.2,281.2,181.3z"/>
					<path fill="#6D6E71" d="M289.2,174.8c0.5-0.2,1-0.4,1.6-0.6c2.8-0.9,5.6-1.3,8.5-1.3c-3.1-2-6.8-3.2-10.7-3.2
						c-0.3,0-0.6,0-0.8,0C288,171.5,288.5,173.2,289.2,174.8z"/>
					<path fill="#6D6E71" d="M304.8,190.6c-0.8-0.3-1.6-0.6-2.4-0.9c-1.3,2.8-3,5.4-5.2,7.7l5.6,5.6c2.9-3.1,4.8-7.1,5.3-11.5
						C307,191.3,305.9,191,304.8,190.6z"/>
					<path fill="#6D6E71" d="M273.3,191.7c0.1-0.4,0.3-0.8,0.4-1.1c-1.6-0.7-3.2-1.2-4.9-1.5c0,0.1,0,0.3,0,0.4
						c0,4,1.2,7.6,3.2,10.7C272,197.3,272.4,194.5,273.3,191.7z"/>
					<path fill="#6D6E71" d="M287.3,204c-0.4,0.2-0.8,0.3-1.2,0.4c-2.8,0.9-5.7,1.3-8.6,1.3c3.1,2.1,6.9,3.4,11,3.4
						c0.1,0,0.3,0,0.4,0C288.6,207.4,288,205.7,287.3,204z"/>
					<path fill="#6D6E71" d="M286.8,203c-1.2-2.3-2.7-4.5-4.6-6.4l-7.2,7.2c0.3,0.3,0.6,0.5,0.9,0.8
						C279.7,204.8,283.4,204.3,286.8,203z"/>
					<path fill="#6D6E71" d="M271.9,188.7c0.8,0.2,1.5,0.5,2.3,0.9c1.3-3,3.1-5.8,5.4-8.2l-5.4-5.4c-3,3.2-4.9,7.3-5.3,11.9
						C269.9,188.1,270.9,188.4,271.9,188.7z"/>
					<path fill="#6D6E71" d="M295.6,197.4l-7.1-7.1l-5.5,5.5c1.9,2,3.6,4.3,4.8,6.8C290.7,201.4,293.3,199.6,295.6,197.4z"/>
					<path fill="#6D6E71" d="M275.2,190c2.6,1.2,5,2.9,7.1,4.9l5.5-5.5l-7.3-7.3C278.1,184.5,276.4,187.2,275.2,190z"/>
				</g>
				<polygon fill="#6D6E71" points="298.7,221.4 288.3,221.4 277.8,221.4 277.8,219.4 277.8,217.3 288.3,217.3 298.7,217.3 
					298.7,219.4 				"/>
				<path fill="#6D6E71" d="M291,216.1v-2.8c-0.9,0.1-1.8,0.2-2.7,0.2c-0.9,0-1.8-0.1-2.7-0.2v2.8h-3.4v0.8h3.4h5.4h3.4v-0.8H291z"
					/>
				<path fill="#6D6E71" d="M305.2,173.3l-0.4-0.4l-1.8,1.8l0.4,0.4c7.7,8,7.6,20.9-0.4,28.9c-4,4-9.4,6.1-14.7,6.1
					c-4.9,0-10.3-2.1-14.3-5.6l-0.4-0.4l-1.9,1.9l0.4,0.4c4.4,4,10.6,6.3,16.2,6.3c6,0,12-2.3,16.5-6.8c4.4-4.4,6.9-10.2,6.9-16.4
					C311.7,183.4,309.4,177.7,305.2,173.3z"/>
			</g>
		</g>
		<g opacity="0.35">
			<g>
				<path fill="#6D6E71" d="M413.8,92h7.1c6.8,0,11.9-4.6,11.3-10.2l-1.7-17.5C429.9,58.6,424,54,417.3,54
					c-6.7,0-12.6,4.6-13.2,10.2l-1.7,17.5C401.9,87.4,407,92,413.8,92z"/>
				<path fill="#6D6E71" d="M435,97.3c0,0.9-0.1,1.9-0.3,2.8c-0.3-0.4-0.6-0.8-1-1.2c-3.8-3.7-13-4-16-4c-3,0-12.2,0.3-16,4
					c-0.4,0.4-0.7,0.8-1,1.2c-0.1-0.9-0.3-2-0.3-2.8c-0.1,0-2.1,0.2-2.8-0.1c-0.1,2.2,0.1,8.1,2.9,11.1l0,0c0.3,0.4,0.7,0.8,1.1,1.1
					c0.6,0.8,1.5,1.5,3,2c1.7,0.6,5.3,0.9,8.9,1v1.4h1.2v6.5H413l-8.6,3.3v2.4h-0.2v0.2h0c-0.4,0.2-0.7,0.6-0.7,1.1
					c0,0.7,0.6,1.3,1.3,1.3c0.7,0,1.3-0.6,1.3-1.3c0-0.5-0.3-0.9-0.7-1.1h0v-0.2h-0.2v-0.8l8.3-3.1h3.4v2.9h0.5v1h-0.2v0.2h0.1
					c-0.4,0.2-0.7,0.6-0.7,1.1c0,0.7,0.6,1.3,1.3,1.3c0.7,0,1.3-0.6,1.3-1.3c0-0.5-0.3-0.9-0.7-1.1h0v-0.2h-0.2v-1h0.5v-2.9h3.4
					l8.3,3.1v0.8h-0.2v0.2h0.1c-0.4,0.2-0.7,0.6-0.7,1.1c0,0.7,0.6,1.3,1.3,1.3c0.7,0,1.3-0.6,1.3-1.3c0-0.5-0.3-0.9-0.7-1.1h0v-0.2
					h-0.2v-2.4l0,0l-8.8-3.3v0h-1.6V114h1.2v-1.4c3.6-0.1,7.1-0.4,8.9-1c1.5-0.5,2.5-1.3,3-2c0.4-0.3,0.7-0.7,1.1-1.1l0,0
					c2.8-3,2.9-8.9,2.9-11.1C436.7,97.5,435.1,97.4,435,97.3z"/>
				<path fill="#6D6E71" d="M437.1,92.3h-1.6c-1.3,0-2.3,1-2.3,2.3c0,1.3,1,2.3,2.3,2.3h1.6c1.3,0,2.3-1,2.3-2.3
					C439.3,93.3,438.3,92.3,437.1,92.3z"/>
				<path fill="#6D6E71" d="M400.1,96.9c1.3,0,2.3-1,2.3-2.3c0-1.3-1-2.3-2.3-2.3h-1.7c-1.3,0-2.3,1-2.3,2.3c0,1.3,1,2.3,2.3,2.3
					H400.1z"/>
				<path fill="#6D6E71" d="M413.8,92.7c-0.1,0-0.3,0-0.4,0v1.8c1.7-0.1,3.2-0.2,4.2-0.2h0.3c1,0,2.4,0,4,0.2v-1.8c-0.3,0-0.6,0-1,0
					H413.8z"/>
			</g>
		</g>
		<g opacity="0.35">
			<g>
				<path fill="#6D6E71" d="M109.5-0.6v-2.6c0-1,0.6-1.7,1.1-1.7h11.1c0.5,0,1.1,0.7,1.1,1.7v2.6h2v-2.6c0-2.1-1.4-3.7-3.1-3.7
					h-11.1c-1.7,0-3.1,1.7-3.1,3.7v2.6H109.5z"/>
				<g>
					<g>
						<path fill="#6D6E71" d="M120.9,21.1h-9.5v-1.9H93.9v13.2c0,1.3,1.2,2.5,2.6,2.5h39.2c1.4,0,2.6-1.1,2.6-2.5V19.2h-17.5V21.1z"
							/>
					</g>
					<g>
						<path fill="#6D6E71" d="M136.6,0H95.7c-1.4,0-2.6,1.1-2.6,2.5v13.4c0,1.3,1.2,2.5,2.6,2.5h15.7v-3h9.5v3h15.7
							c1.4,0,2.6-1.1,2.6-2.5V2.5C139.2,1.1,138,0,136.6,0z"/>
					</g>
				</g>
				<rect x="112.1" y="16" fill="#6D6E71" width="8.1" height="4.4"/>
			</g>
		</g>
		<g opacity="0.35">
			<g>
				<path fill="#6D6E71" d="M201.6,86.8h1.4c4.4,0,8,3.6,8,8V98h2.4c0.7,0,1.3,0.1,1.9,0.3v-3.5c0-6.8-5.5-12.3-12.3-12.3h-1.4
					c-6.3,0-11.6,4.8-12.2,11h4.3C194.4,89.7,197.7,86.8,201.6,86.8z"/>
				<path fill="#6D6E71" d="M213.4,98.6h-22.1c-3.4,0-6.1,2.7-6.1,6.1v17.7c0,3.4,2.7,6.1,6.1,6.1h22.1c3.4,0,6.1-2.7,6.1-6.1v-17.7
					C219.5,101.4,216.8,98.6,213.4,98.6z M204.2,121.2v2.9h-3.9v-2.9c-0.7-0.6-1.1-1.4-1.1-2.3c0-1.7,1.4-3,3-3c1.7,0,3,1.4,3,3
					C205.3,119.8,204.9,120.6,204.2,121.2z"/>
			</g>
		</g>
		<g opacity="0.35">
			<g>
				<path fill="#6D6E71" d="M309.8-4.3h-47.3c-1.5,0-2.7,1.2-2.7,2.7v25.1c0,1.5,1.2,2.7,2.7,2.7h47.3c1.5,0,2.7-1.2,2.7-2.7V-1.6
					C312.6-3.1,311.4-4.3,309.8-4.3z M310.8,19.8h-0.8c-2.1,0-3.8,1.7-3.8,3.8v0.8h-39.8v-0.8c0-2.1-1.7-3.8-3.8-3.8h-0.8V2.3h0.8
					c2.1,0,3.8-1.7,3.8-3.8v-0.8h39.8v0.8c0,2.1,1.7,3.8,3.8,3.8h0.8V19.8z"/>
				<path fill="#6D6E71" d="M282.8,8.6c0-2,1.2-2.6,2.7-2.6V4.8h1.3V6c1,0,1.7,0.2,2.4,0.4v1.7c-0.8-0.1-2.3-0.1-3-0.1
					c-0.8,0-1.2,0.1-1.2,0.8v0.3c0,0.6,0.2,0.8,1,0.8h1.1c2,0,2.4,1.7,2.4,2.8v0.6c0,2.3-1.4,2.9-2.7,2.9v1.1h-1.3v-1.1
					c-1.1,0-1.5-0.1-2.4-0.4V14c0.5,0,1.9,0.1,3.2,0.1c0.6,0,1-0.1,1-0.7V13c0-0.5-0.2-0.8-0.8-0.8h-1.1c-2.4,0-2.6-2-2.6-2.8V8.6z"
					/>
				<path fill="#6D6E71" d="M305.3-1.6h-38.2c0,2.6-2.1,4.6-4.6,4.6h0v15.8h0c2.6,0,4.6,2.1,4.6,4.6h38.2c0-2.6,2.1-4.6,4.6-4.6V3.1
					C307.4,3.1,305.3,1,305.3-1.6z M269.7,14c-1.6,0-3-1.3-3-3s1.3-3,3-3s3,1.3,3,3S271.3,14,269.7,14z M286.2,21.5
					c-5.7,0-10.3-4.7-10.3-10.5s4.6-10.5,10.3-10.5c5.7,0,10.3,4.7,10.3,10.5S291.9,21.5,286.2,21.5z M302.8,14c-1.6,0-3-1.3-3-3
					s1.3-3,3-3c1.6,0,3,1.3,3,3S304.4,14,302.8,14z"/>
			</g>
		</g>
		<g opacity="0.35">
			<g>
				<path fill="#6D6E71" d="M43.8,120.8c1,0.9,2,1.6,3.2,2.2c0-0.1,0.1-0.2,0.1-0.3l0,1.4c-0.6,1.2-1.3,2.3-2.3,3.3l2.3,2.2
					c0-0.1,0-0.1,0-0.2v-13.3l0,1.3L43.8,120.8z"/>
				<path fill="#6D6E71" d="M21.2,117.1c0.4-0.4,0.6-0.9,0.6-1.5c0-0.6-0.2-1.1-0.6-1.5c-0.4,0.4-0.6,0.9-0.6,1.5
					C20.6,116.1,20.9,116.7,21.2,117.1z"/>
				<path fill="#6D6E71" d="M22.5,115.5c0,0.7-0.3,1.4-0.8,1.9c0.4,0.2,0.8,0.4,1.2,0.4v0.3l0-0.3c1.3,0,2.3-1,2.3-2.3
					c0-0.6-0.2-1.2-0.7-1.6c-0.4-0.4-1-0.7-1.6-0.7c-0.4,0-0.9,0.1-1.2,0.4C22.2,114.1,22.5,114.8,22.5,115.5z"/>
				<path fill="#6D6E71" d="M19.1,115.5c0,0.7-0.3,1.4-0.8,1.9c0.4,0.2,0.8,0.4,1.2,0.4v0.3l0-0.3c0.4,0,0.9-0.1,1.2-0.4
					c-0.5-0.5-0.7-1.2-0.7-1.9c0-0.7,0.3-1.4,0.8-1.9c-0.4-0.2-0.8-0.4-1.2-0.4c-0.4,0-0.9,0.1-1.2,0.4
					C18.8,114.1,19.1,114.8,19.1,115.5z"/>
				<path fill="#6D6E71" d="M16.2,117.8v0.3V117.8c0.4,0,0.9-0.1,1.2-0.4c-0.5-0.5-0.7-1.2-0.7-1.9c0-0.7,0.3-1.4,0.8-1.9
					c-0.4-0.2-0.8-0.4-1.2-0.4c-1.3,0-2.3,1-2.3,2.3C13.9,116.8,14.9,117.8,16.2,117.8z"/>
				<path fill="#6D6E71" d="M17.9,117.1c0.4-0.4,0.6-0.9,0.6-1.5c0-0.6-0.2-1.1-0.6-1.5c-0.4,0.4-0.6,0.9-0.6,1.5
					C17.3,116.1,17.5,116.7,17.9,117.1z"/>
				<path fill="#6D6E71" d="M46.1,131.6c-0.1,0.1-0.1,0.1-0.2,0.2C45.9,131.7,46,131.6,46.1,131.6z"/>
				<path fill="#6D6E71" d="M46.2,131.4c0.1-0.1,0.1-0.2,0.2-0.2C46.4,131.3,46.3,131.4,46.2,131.4z"/>
				<path fill="#6D6E71" d="M45.6,131.9c-0.1,0-0.1,0.1-0.2,0.1C45.5,132,45.5,131.9,45.6,131.9z"/>
				<path fill="#6D6E71" d="M46.9,130.3c0,0.1-0.1,0.2-0.1,0.3C46.9,130.5,46.9,130.4,46.9,130.3z"/>
				<path fill="#6D6E71" d="M46.7,130.8c-0.1,0.1-0.1,0.2-0.2,0.3C46.6,131,46.7,130.9,46.7,130.8z"/>
				<path fill="#6D6E71" d="M47.1,129.8c0,0.1,0,0.2-0.1,0.3C47,130,47,129.9,47.1,129.8z"/>
				<path fill="#6D6E71" d="M34.3,124c1.2,0.6,2.4,1.4,3.4,2.3l2.6-2.6l-3.5-3.4C35.7,121.3,34.9,122.6,34.3,124z"/>
				<path fill="#6D6E71" d="M31.6,123c0.4,0.1,0.8,0.2,1.2,0.3c0.4,0.1,0.7,0.3,1.1,0.4c0.6-1.4,1.5-2.8,2.5-3.9l-2.4-2.3
					C32.6,119,31.7,120.9,31.6,123z"/>
				<path fill="#6D6E71" d="M39.7,114.6c-2,0.2-3.9,1.1-5.3,2.5l2.4,2.3c1.1-1,2.3-1.9,3.7-2.5c-0.1-0.3-0.3-0.7-0.4-1
					C39.9,115.5,39.8,115.1,39.7,114.6z"/>
				<path fill="#6D6E71" d="M31.5,123.7c0,1.7,0.5,3.3,1.3,4.7c0-1.2,0.2-2.4,0.6-3.6c0.1-0.2,0.1-0.4,0.2-0.5
					C33,124,32.3,123.7,31.5,123.7C31.5,123.6,31.5,123.6,31.5,123.7z"/>
				<path fill="#6D6E71" d="M39.9,130.1c-0.6-1.1-1.3-2.1-2.2-3l-3.2,3.3c0.2,0.2,0.4,0.4,0.6,0.5C36.7,130.9,38.4,130.7,39.9,130.1
					z"/>
				<path fill="#6D6E71" d="M46.8,123.5c-1.2-0.6-2.3-1.4-3.3-2.3l-2.4,2.4l3.4,3.4C45.4,126,46.2,124.8,46.8,123.5z"/>
				<path fill="#6D6E71" d="M37.3,126.7c-1-0.9-2-1.6-3.2-2.2c-0.5,1.5-0.8,3.1-0.7,4.7c0.2,0.3,0.4,0.5,0.7,0.8L37.3,126.7z"/>
				<path fill="#6D6E71" d="M40.2,114.6c0.2,0.7,0.4,1.4,0.7,2.1c0.2-0.1,0.5-0.2,0.7-0.3c1.2-0.4,2.3-0.6,3.5-0.6
					c-1.3-0.8-2.9-1.2-4.6-1.2C40.5,114.6,40.4,114.6,40.2,114.6z"/>
				<path fill="#6D6E71" d="M44,127.4l-3.4-3.4l-2.6,2.6c0.9,1,1.7,2,2.3,3.2C41.7,129.3,42.9,128.5,44,127.4z"/>
				<path fill="#6D6E71" d="M43,120.8c-1-1-1.8-2.2-2.4-3.4c-1.3,0.6-2.5,1.4-3.5,2.4l3.5,3.4L43,120.8z"/>
				<path fill="#6D6E71" d="M46.8,117c-0.2-0.2-0.5-0.4-0.8-0.6c-1.7-0.1-3.4,0.2-4.9,0.8c0.6,1.2,1.3,2.3,2.3,3.2L46.8,117z"/>
				<path fill="#6D6E71" d="M44.4,110H14.5c-1.5,0-2.7,1.2-2.7,2.7v16.7c0,1.5,1.2,2.7,2.7,2.7h29.8c0,0,0,0,0,0l-0.6,0
					c1.2-0.4,2.3-1.1,3.2-2l-2.5-2.5c-1.1,1.1-2.4,2-3.8,2.6c0.2,0.4,0.3,0.8,0.5,1.2c0.1,0.2,0.1,0.4,0.2,0.7l-0.6,0
					c-0.2-0.6-0.4-1.1-0.6-1.6c-0.2,0.1-0.4,0.1-0.6,0.2c-1.2,0.4-2.4,0.6-3.6,0.6c0.5,0.3,1.1,0.6,1.6,0.8l-1.7,0
					c-0.2-0.1-0.4-0.2-0.6-0.4c-0.5-0.3-0.9-0.6-1.3-1l-0.2-0.2l-0.2-0.2c-3.7-3.8-3.7-9.9,0.1-13.7c1.9-1.9,4.4-2.9,6.9-2.9
					c0.8,0,1.7,0.1,2.5,0.3c0,0,0.1,0,0.1,0c0,0,0.1,0,0.1,0c0.9,0.2,1.7,0.6,2.4,1.1c0.5,0.3,0.9,0.6,1.3,0.9v-3.5
					C47.1,111.3,45.9,110,44.4,110z M16.2,112.6c0.6,0,1.2,0.2,1.7,0.6c0.5-0.3,1.1-0.5,1.7-0.5c0.6,0,1.2,0.2,1.7,0.5
					c0.5-0.3,1.1-0.5,1.7-0.5c0.8,0,1.5,0.3,2.1,0.9c0.6,0.6,0.9,1.3,0.9,2.1c0,1.6-1.3,2.9-2.9,2.9c-0.6,0-1.2-0.2-1.7-0.6
					c-0.5,0.3-1.1,0.6-1.7,0.6c-0.6,0-1.2-0.2-1.7-0.6c-0.5,0.3-1.1,0.5-1.7,0.5h0c-1.6,0-2.9-1.3-2.9-2.9
					C13.2,113.9,14.5,112.6,16.2,112.6z M26.8,123l0,2.6l-13.2,0l0-2.6L26.8,123z M21.8,129.8l-8.3,0l0-2.6l8.3,0L21.8,129.8z
					 M27.9,129.8l-5.6,0l0-2.6l5.6,0L27.9,129.8z"/>
				<path fill="#6D6E71" d="M45.1,132.1c-0.1,0-0.1,0-0.2,0.1C45,132.1,45,132.1,45.1,132.1z"/>
			</g>
		</g>
		<g opacity="0.35">
			<g>
				<path fill="#6D6E71" d="M197,253.5c0-0.3-0.1-0.6-0.4-0.6h-0.9v1.1h0.9C196.8,254,197,253.9,197,253.5z"/>
				<path fill="#6D6E71" d="M196.9,251.6c0-0.4-0.2-0.5-0.4-0.5h-0.8v0.9h0.8C196.8,252.1,196.9,251.9,196.9,251.6z"/>
				<path fill="#6D6E71" d="M216.2,246l-2.1,2.2L212,246l-2.1,2.2l-2.1-2.2l-2.1,2.2l-2.1-2.2l-2.1,2.2l-2.1-2.2l-2.1,2.2l-2.1-2.2
					l-2.1,2.2l-2.1-2.2l-2.1,2.2l-2.1-2.2l-2.1,2.2l-1.7-1.8V285l1.7,1.8l2.1-2.2l2.1,2.2l2.1-2.2l2.1,2.2l2.1-2.2l2.1,2.2l2.1-2.2
					l2.1,2.2l2.1-2.2l2.1,2.2l2.1-2.2l2.1,2.2l2.1-2.2l2.1,2.2l2.1-2.2l1.5,1.6v-38.5L216.2,246z M213,252.2l0.4-0.7l0.4,0.7
					l0.8,0.1l-0.6,0.6l0.1,0.8l-0.7-0.4l-0.7,0.4l0.1-0.8l-0.6-0.6L213,252.2z M209.2,252.2l0.4-0.7l0.4,0.7l0.8,0.1l-0.6,0.6
					l0.1,0.8l-0.7-0.4l-0.7,0.4l0.1-0.8l-0.6-0.6L209.2,252.2z M203.5,250.3h1v3.4c0,0.3,0.2,0.3,0.4,0.3h1.5v0.9h-1.9
					c-0.5,0-1-0.2-1-0.9V250.3z M200.1,250.3h1v3.4c0,0.3,0.2,0.3,0.4,0.3h1.5v0.9h-1.9c-0.5,0-1-0.2-1-0.9V250.3z M198.5,250.3h1
					v4.6h-1V250.3z M194.6,250.3h2c1,0,1.3,0.5,1.3,1.3c0,0.4-0.2,0.9-0.7,1c0.4,0.1,0.7,0.5,0.7,1c0,0.9-0.4,1.4-1.4,1.4h-2V250.3z
					 M191.1,252.2l0.4-0.7l0.4,0.7l0.8,0.1l-0.6,0.6l0.1,0.8l-0.7-0.4l-0.7,0.4l0.1-0.8l-0.6-0.6L191.1,252.2z M187.3,252.2l0.4-0.7
					l0.4,0.7l0.8,0.1l-0.6,0.6l0.1,0.8l-0.7-0.4l-0.7,0.4l0.1-0.8l-0.6-0.6L187.3,252.2z M185,257.3h20.7v3.3H185V257.3z M185,263.7
					h20.7v3.3H185V263.7z M185,273.5v-3.3h20.7v3.3H185z M215.3,281.6h-14.7v-5.4h14.7V281.6z M215.3,273.5h-7.2v-3.3h7.2V273.5z
					 M215.3,267h-7.2v-3.3h7.2V267z M215.3,260.6h-7.2v-3.3h7.2V260.6z"/>
			</g>
		</g>
		<g opacity="0.35">
			<g>
				<path fill="#6D6E71" d="M109.5,354.4v-2.6c0-1,0.6-1.7,1.1-1.7h11.1c0.5,0,1.1,0.7,1.1,1.7v2.6h2v-2.6c0-2.1-1.4-3.7-3.1-3.7
					h-11.1c-1.7,0-3.1,1.7-3.1,3.7v2.6H109.5z"/>
				<g>
					<g>
						<path fill="#6D6E71" d="M120.9,376.1h-9.5v-1.9H93.9v13.2c0,1.3,1.2,2.5,2.6,2.5h39.2c1.4,0,2.6-1.1,2.6-2.5v-13.2h-17.5
							V376.1z"/>
					</g>
					<g>
						<path fill="#6D6E71" d="M136.6,355H95.7c-1.4,0-2.6,1.1-2.6,2.5v13.4c0,1.3,1.2,2.5,2.6,2.5h15.7v-3h9.5v3h15.7
							c1.4,0,2.6-1.1,2.6-2.5v-13.4C139.2,356.1,138,355,136.6,355z"/>
					</g>
				</g>
				<rect x="112.1" y="371" fill="#6D6E71" width="8.1" height="4.4"/>
			</g>
		</g>
		<g id="hands_10_" opacity="0.35">
			<g>
				<polygon fill="#6D6E71" points="33.6,251.4 32.7,252.7 28.6,258.5 44.2,268.9 45.8,266.6 46.5,260.4 47,259.6 				"/>
				<path fill="#6D6E71" d="M22.5,264.2c0,0.1-0.1,0.3-0.3,0.3h-0.1c-0.1,0-0.3-0.1-0.3-0.3l0,0c0-0.1,0.1-0.3,0.3-0.3h0.1
					C22.3,263.9,22.5,264,22.5,264.2L22.5,264.2z"/>
				<path fill="#6D6E71" d="M32.7,260c-3.2,1.5-9.3,1.8-9.3,1.8l-0.9,1.2c2.4,4-1.2,6.2-1.8,6.5c-0.6,0.3-1.4-1.2-1.4-1.2
					s-2.6-5-2.3-6.8c0.3-1.9,4.7-6.1,4.7-6.1c1.8-0.8,11.2-2.7,11.2-2.7L32.7,260z"/>
				<g>
					<path fill="#6D6E71" d="M17.4,276.6c-0.7,1-2.1,1.1-3.2,0.4l0,0c-1.1-0.8-1.4-2.2-0.7-3.2l2.2-3.2c0.7-1,2.1-1.1,3.2-0.4l0,0
						c1.1,0.8,1.4,2.2,0.7,3.2L17.4,276.6z"/>
					<path fill="#6D6E71" d="M21.4,279.4c-0.8,1.1-2.3,1.4-3.4,0.6l0,0c-1.1-0.8-1.3-2.3-0.6-3.4l2.6-3.7c0.8-1.1,2.3-1.4,3.4-0.6
						l0,0c1.1,0.8,1.3,2.3,0.6,3.4L21.4,279.4z"/>
					<path fill="#6D6E71" d="M25.5,282.1c-0.7,1-2.2,1.2-3.3,0.4l0,0c-1.1-0.8-1.4-2.2-0.7-3.2l2.3-3.3c0.7-1,2.2-1.2,3.3-0.4l0,0
						c1.1,0.8,1.4,2.2,0.7,3.2L25.5,282.1z"/>
					<path fill="#6D6E71" d="M29.2,284.7c-0.6,0.8-1.9,0.9-2.9,0.2l0,0c-1-0.7-1.4-2-0.8-2.8l1.9-2.7c0.6-0.8,1.9-0.9,2.9-0.2l0,0
						c1,0.7,1.4,2,0.8,2.8L29.2,284.7z"/>
				</g>
				<g>
					<path fill="#6D6E71" d="M43.9,268.6l-14.6-10.1l-2.4-4.2c-0.1-0.1-0.2-0.1-0.3-0.1c-0.3,0-6.1,0.1-6.9,0.1l-1.2-0.7l-0.4,0.6
						l1.3,0.7c0.1,0,0.1,0.1,0.2,0c1.9-0.1,5.7-0.1,6.5-0.1l2.7,4.2c0,0,0.1,0.1,0.1,0.1l14.7,10.1c1.2,0.8,1.5,2.4,0.7,3.5
						c-0.5,0.7-1.3,1.1-2.1,1.1c-0.5,0-1-0.1-1.4-0.4l-0.5-0.4l-5.5-3.8c-0.2-0.1-0.4-0.1-0.5,0.1c-0.1,0.2-0.1,0.4,0.1,0.5l5.5,3.8
						l0.8,0.6c1.1,0.8,1.4,2.4,0.6,3.5c-0.5,0.6-1.2,1-2,1c-0.4,0-0.9-0.1-1.2-0.3l-5.7-3.9c-0.2-0.1-0.4-0.1-0.5,0.1
						c-0.1,0.2-0.1,0.4,0.1,0.5l5.5,3.8c0.4,0.8,0.4,1.8-0.2,2.6c-0.5,0.6-1.2,1-1.9,1c-0.5,0-0.9-0.1-1.3-0.4c0,0,0,0,0,0l-3.7-2.5
						c-0.1,0-0.1,0-0.2,0.1c-0.1,0.1-0.3,0.2-0.4,0.2c0,0-0.1,0-0.1,0.1c0,0,3.1,1.9,3.9,2.7c0.4,0.4,0.1,1.8-0.2,2.3
						c-0.4,0.6-1.1,0.9-1.8,0.9c-0.5,0-1-0.2-1.3-0.4l-2.2-1.8c0,0,0,0-0.1,0c-4.5-2.2-10.9-8.5-14.4-12l0,0
						c-0.2-0.3-1.4-2.8-2.2-4.4c0-0.1-0.1-0.1-0.1-0.1l-1.5-1.1l-0.4,0.6l1.4,1c2.2,4.4,2.2,4.4,2.2,4.4l0.1,0.1
						c3.5,3.6,10,9.9,14.5,12.1l2.2,1.8c0.5,0.4,1.1,0.6,1.8,0.6c0.9,0,1.8-0.4,2.4-1.2c0.5-0.7,0.7-1.5,0.5-2.3
						c0.3,0.1,0.6,0.1,0.9,0.1c1,0,1.9-0.5,2.5-1.3c0.5-0.7,0.7-1.7,0.5-2.6c0.3,0.1,0.6,0.1,0.9,0.1c1,0,1.9-0.5,2.5-1.3
						c0.8-1.1,0.8-2.5,0-3.6c0.1,0,0.2,0,0.4,0c1.1,0,2.1-0.5,2.7-1.4C45.8,271.6,45.4,269.6,43.9,268.6z"/>
				</g>
				<polygon fill="#6D6E71" points="15.8,251.4 7.1,266.5 7.9,267.1 18.2,253.1 				"/>
				<path fill="#6D6E71" d="M10.1,247.5l-10,17.5l5.5,3.2l10-17.5L10.1,247.5z M4.2,265.9c-0.4,0.3-1,0.1-1.2-0.3
					c-0.3-0.4-0.1-1,0.3-1.2c0.4-0.3,1-0.1,1.2,0.3C4.7,265.1,4.6,265.6,4.2,265.9z M5.5,263.2c-0.4,0.3-1,0.1-1.2-0.3
					c-0.3-0.4-0.1-1,0.3-1.2c0.4-0.3,1-0.1,1.2,0.3C6.1,262.4,6,262.9,5.5,263.2z M6.9,260.5c-0.4,0.3-1,0.1-1.2-0.3
					c-0.3-0.4-0.1-1,0.3-1.2c0.4-0.3,1-0.1,1.2,0.3C7.5,259.7,7.3,260.3,6.9,260.5z"/>
				<path fill="#6D6E71" d="M34.1,249.4l-0.8,1.3l15,9.2l2-3.3L34.1,249.4z M48.2,258.2c-0.4,0-0.7-0.4-0.7-0.8
					c0-0.4,0.4-0.7,0.8-0.7c0.4,0,0.7,0.4,0.7,0.8C48.9,257.9,48.6,258.3,48.2,258.2z"/>
				<path fill="#6D6E71" d="M36.6,243l-2.5,5.8l18.5,8.1l2.5-5.8L36.6,243z M51.6,254.1c-0.8,0-1.3-0.7-1.3-1.4
					c0-0.8,0.7-1.3,1.4-1.3c0.8,0,1.3,0.7,1.3,1.4C53,253.6,52.4,254.1,51.6,254.1z"/>
			</g>
		</g>
		<path opacity="0.35" fill="#6D6E71" d="M433.6,258.4l-1.8-0.6c-0.8-1.9-2.1-3.6-3.6-5.1l0-8.1c0-1-0.4-1.6-1.1-1.7
			c-0.4-0.1-3.6,0-8.2,4.2c-2.6-0.8-5.5-1.3-8.5-1.3c-8.1,0-15.2,2.3-19.2,7.3c-0.7-0.2-1.4-0.5-2-0.9c-0.2-0.1-0.3-0.3-0.5-0.5
			c0.5,0.1,1.1,0,1.5-0.3c0.6-0.5,0.5-1.5,0.2-2c-0.5-0.8-1.4-0.7-2.1-0.2c-0.5,0.4-0.8,0.9-0.9,1.4c-0.5-0.3-0.9-0.9-0.9-1.6
			c0-0.2-0.3-0.2-0.3-0.1c-0.4,1,0.3,1.8,1.2,2.3c0,0.2,0,0.4,0.1,0.6c0.4,1.1,1.5,1.8,2.5,2.2c0.1,0,0.3,0.1,0.4,0.2
			c-1.7,2.6-2.7,5.8-2.7,9.6c0,4.7,2.3,9.1,6.1,12.3l-0.9,4.8c-0.4,1.2,1,2.8,3.2,3.5l2,0.7c1.2,0.4,2.2,0.5,3.2,0.2
			c0.4-0.1,2-2.2,3.3-4c1.8,0.4,3.7,0.6,5.6,0.6c1.9,0,3.8-0.2,5.6-0.6c1.3,1.7,3,3.8,3.3,4c1,0.3,2,0.2,3.2-0.2l2-0.7
			c2.1-0.7,3.6-2.3,3.2-3.5l-0.9-4.8c2.1-1.8,3.8-3.9,4.8-6.2l1.8-0.6c1.3-0.4,2.4-2,2.4-3.6V262C436,260.4,434.9,258.8,433.6,258.4
			z M388.7,250.5c0.2-0.4,0.7-0.9,1-0.4c0.5,0.8-0.5,1-1.1,0.9C388.6,250.9,388.6,250.7,388.7,250.5z M404,249c0,0-0.1,0-0.1,0
			c-0.2,0-0.4-0.1-0.4-0.3c-0.1-0.2,0.1-0.5,0.3-0.5c4.3-1.3,9-1.3,13.3,0c0.2,0.1,0.4,0.3,0.3,0.5c-0.1,0.2-0.3,0.4-0.5,0.3
			C412.7,247.8,408.2,247.8,404,249z M425.8,260.1c-0.8,0-1.5-0.7-1.5-1.5c0-0.8,0.7-1.5,1.5-1.5c0.8,0,1.5,0.7,1.5,1.5
			C427.3,259.5,426.6,260.1,425.8,260.1z"/>
		<g opacity="0.35">
			<g>
				<path fill="#6D6E71" d="M309.8,350.7h-47.3c-1.5,0-2.7,1.2-2.7,2.7v25.1c0,1.5,1.2,2.7,2.7,2.7h47.3c1.5,0,2.7-1.2,2.7-2.7
					v-25.1C312.6,351.9,311.4,350.7,309.8,350.7z M310.8,374.8h-0.8c-2.1,0-3.8,1.7-3.8,3.8v0.8h-39.8v-0.8c0-2.1-1.7-3.8-3.8-3.8
					h-0.8v-17.5h0.8c2.1,0,3.8-1.7,3.8-3.8v-0.8h39.8v0.8c0,2.1,1.7,3.8,3.8,3.8h0.8V374.8z"/>
				<path fill="#6D6E71" d="M282.8,363.6c0-2,1.2-2.6,2.7-2.6v-1.2h1.3v1.2c1,0,1.7,0.2,2.4,0.4v1.7c-0.8-0.1-2.3-0.1-3-0.1
					c-0.8,0-1.2,0.1-1.2,0.8v0.3c0,0.6,0.2,0.8,1,0.8h1.1c2,0,2.4,1.7,2.4,2.8v0.6c0,2.3-1.4,2.9-2.7,2.9v1.1h-1.3v-1.1
					c-1.1,0-1.5-0.1-2.4-0.4V369c0.5,0,1.9,0.1,3.2,0.1c0.6,0,1-0.1,1-0.7V368c0-0.5-0.2-0.8-0.8-0.8h-1.1c-2.4,0-2.6-2-2.6-2.8
					V363.6z"/>
				<path fill="#6D6E71" d="M305.3,353.4h-38.2c0,2.6-2.1,4.6-4.6,4.6h0v15.8h0c2.6,0,4.6,2.1,4.6,4.6h38.2c0-2.6,2.1-4.6,4.6-4.6
					v-15.8C307.4,358.1,305.3,356,305.3,353.4z M269.7,369c-1.6,0-3-1.3-3-3s1.3-3,3-3s3,1.3,3,3S271.3,369,269.7,369z M286.2,376.5
					c-5.7,0-10.3-4.7-10.3-10.5c0-5.8,4.6-10.5,10.3-10.5c5.7,0,10.3,4.7,10.3,10.5C296.5,371.8,291.9,376.5,286.2,376.5z
					 M302.8,369c-1.6,0-3-1.3-3-3s1.3-3,3-3c1.6,0,3,1.3,3,3S304.4,369,302.8,369z"/>
			</g>
		</g>
	</g>
</g>
</svg>
