<?xml version="1.0" encoding="utf-8"?>
<!-- Generator: Adobe Illustrator 17.1.0, SVG Export Plug-In . SVG Version: 6.00 Build 0)  -->
<!DOCTYPE svg PUBLIC "-//W3C//DTD SVG 1.1//EN" "http://www.w3.org/Graphics/SVG/1.1/DTD/svg11.dtd">
<svg version="1.1" id="Capa_1" xmlns="http://www.w3.org/2000/svg" xmlns:xlink="http://www.w3.org/1999/xlink" x="0px" y="0px"
	 width="60px" height="60px" viewBox="0 0 60 60" enable-background="new 0 0 60 60" xml:space="preserve">
<g>
	<g opacity="0.72">
		<path opacity="0" fill="#FFFFFF" d="M28.6,5.1C13.8,5.1,2,17.1,1.8,31.9c-0.1,5.4,2,26.9,26.8,26.8c14.8,0,26.8-12,26.8-26.8
			S43.4,5.1,28.6,5.1z"/>
		<path opacity="8.264462e-03" fill="#FEFEFE" d="M28.6,5.1C13.8,5.1,2,17.1,1.8,31.9c-0.1,5.4,2,26.9,26.8,26.8
			c14.8,0,26.8-12,26.8-26.8S43.5,5.1,28.6,5.1z"/>
		<path opacity="1.652892e-02" fill="#FDFDFD" d="M28.6,5C13.8,5,2,17,1.8,31.9c-0.1,5.4,2,26.9,26.8,26.8c14.8,0,26.8-12,26.8-26.8
			S43.5,5,28.6,5z"/>
		<path opacity="2.479339e-02" fill="#FCFCFC" d="M28.7,5C13.8,5,2,17,1.8,31.8c-0.1,5.4,1.9,26.9,26.8,26.8
			c14.8,0,26.8-12,26.8-26.8S43.5,5,28.7,5z"/>
		<path opacity="3.305785e-02" fill="#FBFBFB" d="M28.7,5C13.9,5,2,17,1.8,31.8c-0.1,5.4,1.9,26.9,26.8,26.8
			c14.8,0,26.8-12,26.8-26.8S43.5,5,28.7,5z"/>
		<path opacity="4.132231e-02" fill="#FAFAFA" d="M28.7,4.9c-14.8,0-26.6,12-26.8,26.8c-0.1,5.4,1.9,26.9,26.8,26.8
			c14.8,0,26.8-12,26.8-26.8S43.5,4.9,28.7,4.9z"/>
		<path opacity="4.958678e-02" fill="#F9F9F9" d="M28.7,4.9c-14.8,0-26.7,12-26.8,26.8c-0.1,5.4,1.9,26.9,26.8,26.8
			c14.8,0,26.8-12,26.8-26.8S43.5,4.9,28.7,4.9z"/>
		<path opacity="5.785124e-02" fill="#F8F8F8" d="M28.7,4.9c-14.8,0-26.7,12-26.8,26.8c-0.1,5.4,1.9,26.9,26.8,26.8
			c14.8,0,26.8-12,26.8-26.8S43.6,4.9,28.7,4.9z"/>
		<path opacity="6.611570e-02" fill="#F7F7F7" d="M28.8,4.8c-14.8,0-26.7,12-26.8,26.8C1.8,37,3.8,58.5,28.8,58.5
			c14.8,0,26.8-12,26.8-26.8S43.6,4.8,28.8,4.8z"/>
		<path opacity="7.438017e-02" fill="#F6F6F6" d="M28.8,4.8c-14.8,0-26.7,12-26.8,26.8C1.9,37,3.8,58.5,28.8,58.5
			c14.8,0,26.8-12,26.8-26.8S43.6,4.8,28.8,4.8z"/>
		<path opacity="8.264463e-02" fill="#F5F5F5" d="M28.8,4.8C14,4.8,2.1,16.8,1.9,31.6C1.9,37,3.8,58.5,28.8,58.5
			c14.8,0,26.8-12,26.8-26.8S43.6,4.8,28.8,4.8z"/>
		<path opacity="9.090909e-02" fill="#F3F4F4" d="M28.8,4.7C14,4.7,2.1,16.7,2,31.6c-0.1,5.3,1.8,26.9,26.8,26.8
			c14.8,0,26.8-12,26.8-26.8S43.6,4.7,28.8,4.7z"/>
		<path opacity="9.917355e-02" fill="#F2F3F3" d="M28.8,4.7C14,4.7,2.2,16.7,2,31.5c-0.1,5.3,1.8,26.9,26.8,26.8
			c14.8,0,26.8-12,26.8-26.8S43.7,4.7,28.8,4.7z"/>
		<path opacity="0.1074" fill="#F1F2F2" d="M28.8,4.7C14,4.7,2.2,16.7,2,31.5c-0.1,5.3,1.8,26.9,26.8,26.8c14.8,0,26.8-12,26.8-26.8
			S43.7,4.7,28.8,4.7z"/>
		<path opacity="0.1157" fill="#F0F1F1" d="M28.9,4.6C14,4.6,2.2,16.6,2,31.5c-0.1,5.3,1.7,26.9,26.8,26.8c14.8,0,26.8-12,26.8-26.8
			S43.7,4.6,28.9,4.6z"/>
		<path opacity="0.124" fill="#EFF0F0" d="M28.9,4.6C14,4.6,2.2,16.6,2,31.4C2,36.7,3.8,58.3,28.9,58.3c14.8,0,26.8-12,26.8-26.8
			S43.7,4.6,28.9,4.6z"/>
		<path opacity="0.1322" fill="#EEEEEF" d="M28.9,4.6C14.1,4.6,2.2,16.6,2,31.4C2,36.7,3.8,58.3,28.9,58.2c14.8,0,26.8-12,26.8-26.8
			S43.7,4.6,28.9,4.6z"/>
		<path opacity="0.1405" fill="#EDEDEE" d="M28.9,4.5c-14.8,0-26.7,12-26.8,26.8C2,36.7,3.8,58.2,28.9,58.2
			c14.8,0,26.8-12,26.8-26.8S43.7,4.5,28.9,4.5z"/>
		<path opacity="0.1488" fill="#ECECED" d="M28.9,4.5c-14.8,0-26.7,12-26.8,26.8C2,36.6,3.8,58.2,28.9,58.2
			c14.8,0,26.8-12,26.8-26.8S43.8,4.5,28.9,4.5z"/>
		<path opacity="0.157" fill="#EBEBEC" d="M28.9,4.5c-14.8,0-26.7,12-26.8,26.8C2,36.6,3.8,58.2,28.9,58.1c14.8,0,26.8-12,26.8-26.8
			S43.8,4.5,28.9,4.5z"/>
		<path opacity="0.1653" fill="#EAEAEB" d="M29,4.4c-14.8,0-26.7,12-26.8,26.8C2.1,36.5,3.8,58.1,29,58.1c14.8,0,26.8-12,26.8-26.8
			S43.8,4.4,29,4.4z"/>
		<path opacity="0.1736" fill="#E9E9EA" d="M29,4.4c-14.8,0-26.7,12-26.8,26.8C2.1,36.5,3.8,58.1,29,58.1c14.8,0,26.8-12,26.8-26.8
			S43.8,4.4,29,4.4z"/>
		<path opacity="0.1818" fill="#E8E8E9" d="M29,4.3c-14.8,0-26.7,12-26.8,26.8C2.1,36.4,3.8,58.1,29,58c14.8,0,26.8-12,26.8-26.8
			S43.8,4.3,29,4.3z"/>
		<path opacity="0.1901" fill="#E7E7E8" d="M29,4.3c-14.8,0-26.7,12-26.8,26.8C2.1,36.4,3.8,58,29,58c14.8,0,26.8-12,26.8-26.8
			S43.8,4.3,29,4.3z"/>
		<path opacity="0.1983" fill="#E6E6E7" d="M29,4.3c-14.8,0-26.7,12-26.8,26.8C2.1,36.4,3.8,58,29,58c14.8,0,26.8-12,26.8-26.8
			S43.9,4.3,29,4.3z"/>
		<path opacity="0.2066" fill="#E5E5E6" d="M29.1,4.2c-14.8,0-26.7,12-26.8,26.8C2.1,36.3,3.8,58,29.1,57.9
			c14.8,0,26.8-12,26.8-26.8S43.9,4.2,29.1,4.2z"/>
		<path opacity="0.2149" fill="#E4E4E5" d="M29.1,4.2c-14.8,0-26.7,12-26.8,26.8c-0.1,5.2,1.5,26.9,26.8,26.8
			c14.8,0,26.8-12,26.8-26.8S43.9,4.2,29.1,4.2z"/>
		<path opacity="0.2231" fill="#E3E3E4" d="M29.1,4.2C14.3,4.2,2.4,16.2,2.2,31c-0.1,5.2,1.5,26.9,26.8,26.8
			c14.8,0,26.8-12,26.8-26.8S43.9,4.2,29.1,4.2z"/>
		<path opacity="0.2314" fill="#E2E2E3" d="M29.1,4.1C14.3,4.1,2.4,16.2,2.3,31c-0.1,5.2,1.5,26.9,26.8,26.8
			C43.9,57.8,56,45.8,56,31S43.9,4.1,29.1,4.1z"/>
		<path opacity="0.2397" fill="#E1E1E2" d="M29.1,4.1C14.3,4.1,2.4,16.1,2.3,31c-0.1,5.2,1.5,26.9,26.8,26.8C44,57.8,56,45.8,56,31
			S44,4.1,29.1,4.1z"/>
		<path opacity="0.2479" fill="#E0E0E1" d="M29.1,4.1c-14.8,0-26.7,12-26.8,26.8c-0.1,5.2,1.5,26.9,26.8,26.8
			C44,57.8,56,45.8,56,30.9S44,4.1,29.1,4.1z"/>
		<path opacity="0.2562" fill="#DEDFE0" d="M29.2,4C14.3,4,2.5,16.1,2.3,30.9c-0.1,5.2,1.4,26.9,26.8,26.8C44,57.7,56,45.7,56,30.9
			S44,4,29.2,4z"/>
		<path opacity="0.2645" fill="#DDDEDF" d="M29.2,4C14.4,4,2.5,16,2.3,30.9C2.3,36,3.8,57.7,29.2,57.7C44,57.7,56,45.7,56,30.9
			S44,4,29.2,4z"/>
		<path opacity="0.2727" fill="#DCDDDE" d="M29.2,4C14.4,4,2.5,16,2.3,30.8C2.3,36,3.8,57.7,29.2,57.7C44,57.7,56,45.7,56,30.8
			S44,4,29.2,4z"/>
		<path opacity="0.281" fill="#DBDCDD" d="M29.2,3.9C14.4,3.9,2.5,16,2.4,30.8c-0.1,5.2,1.4,26.9,26.8,26.8
			c14.8,0,26.8-12,26.8-26.8S44,3.9,29.2,3.9z"/>
		<path opacity="0.2893" fill="#DADBDC" d="M29.2,3.9c-14.8,0-26.7,12-26.8,26.8c-0.1,5.1,1.4,26.9,26.8,26.8
			c14.8,0,26.8-12,26.8-26.8S44.1,3.9,29.2,3.9z"/>
		<path opacity="0.2975" fill="#D9DADB" d="M29.2,3.9c-14.8,0-26.7,12-26.8,26.8c-0.1,5.1,1.4,26.9,26.8,26.8
			c14.8,0,26.8-12,26.8-26.8S44.1,3.9,29.2,3.9z"/>
		<path opacity="0.3058" fill="#D8D9DA" d="M29.3,3.8c-14.8,0-26.7,12-26.8,26.8c-0.1,5.1,1.3,26.9,26.8,26.8
			c14.8,0,26.8-12,26.8-26.8S44.1,3.8,29.3,3.8z"/>
		<path opacity="0.314" fill="#D7D8D9" d="M29.3,3.8c-14.8,0-26.7,12-26.8,26.8c-0.1,5.1,1.3,26.9,26.8,26.8
			c14.8,0,26.8-12,26.8-26.8S44.1,3.8,29.3,3.8z"/>
		<path opacity="0.3223" fill="#D6D7D8" d="M29.3,3.8c-14.8,0-26.7,12-26.8,26.8c-0.1,5.1,1.3,26.9,26.8,26.8
			c14.8,0,26.8-12,26.8-26.8S44.1,3.8,29.3,3.8z"/>
		<path opacity="0.3306" fill="#D5D6D7" d="M29.3,3.7c-14.8,0-26.7,12-26.8,26.8c-0.1,5.1,1.3,26.9,26.8,26.8
			c14.8,0,26.8-12,26.8-26.8S44.1,3.7,29.3,3.7z"/>
		<path opacity="0.3388" fill="#D4D5D6" d="M29.3,3.7c-14.8,0-26.7,12-26.8,26.8c-0.1,5.1,1.3,26.9,26.8,26.8
			c14.8,0,26.8-12,26.8-26.8S44.2,3.7,29.3,3.7z"/>
		<path opacity="0.3471" fill="#D3D4D5" d="M29.4,3.7c-14.8,0-26.7,12-26.8,26.8c-0.1,5.1,1.3,26.9,26.8,26.8
			c14.8,0,26.8-12,26.8-26.8S44.2,3.7,29.4,3.7z"/>
		<path opacity="0.3554" fill="#D2D3D4" d="M29.4,3.6c-14.8,0-26.7,12-26.8,26.8c-0.1,5.1,1.2,26.9,26.8,26.8
			c14.8,0,26.8-12,26.8-26.8S44.2,3.6,29.4,3.6z"/>
		<path opacity="0.3636" fill="#D1D2D3" d="M29.4,3.6c-14.8,0-26.7,12-26.8,26.8c0,5.1,1.2,26.9,26.8,26.8c14.8,0,26.8-12,26.8-26.8
			S44.2,3.6,29.4,3.6z"/>
		<path opacity="0.3719" fill="#D0D1D2" d="M29.4,3.6c-14.8,0-26.7,12-26.8,26.8c0,5.1,1.2,26.9,26.8,26.8c14.8,0,26.8-12,26.8-26.8
			S44.2,3.6,29.4,3.6z"/>
		<path opacity="0.3802" fill="#CFCFD1" d="M29.4,3.5c-14.8,0-26.7,12-26.8,26.8c0,5.1,1.2,26.9,26.8,26.8c14.8,0,26.8-12,26.8-26.8
			S44.3,3.5,29.4,3.5z"/>
		<path opacity="0.3884" fill="#CECED0" d="M29.4,3.5c-14.8,0-26.7,12-26.8,26.8c0,5,1.2,26.9,26.8,26.8c14.8,0,26.8-12,26.8-26.8
			S44.3,3.5,29.4,3.5z"/>
		<path opacity="0.3967" fill="#CDCDCF" d="M29.5,3.5c-14.8,0-26.7,12-26.8,26.8c0,5,1.1,26.9,26.8,26.8c14.8,0,26.8-12,26.8-26.8
			S44.3,3.5,29.5,3.5z"/>
		<path opacity="0.405" fill="#CCCCCE" d="M29.5,3.4c-14.8,0-26.7,12-26.8,26.8c0,5,1.1,26.9,26.8,26.8c14.8,0,26.8-12,26.8-26.8
			S44.3,3.4,29.5,3.4z"/>
		<path opacity="0.4132" fill="#CBCBCD" d="M29.5,3.4c-14.8,0-26.7,12-26.8,26.8c0,5,1.1,26.9,26.8,26.8c14.8,0,26.8-12,26.8-26.8
			S44.3,3.4,29.5,3.4z"/>
		<path opacity="0.4215" fill="#C9CACC" d="M29.5,3.4c-14.8,0-26.7,12-26.8,26.8c0,5,1.1,26.9,26.8,26.8c14.8,0,26.8-12,26.8-26.8
			S44.3,3.4,29.5,3.4z"/>
		<path opacity="0.4298" fill="#C8C9CB" d="M29.5,3.3c-14.8,0-26.7,12-26.8,26.8c0,5,1.1,26.9,26.8,26.8c14.8,0,26.8-12,26.8-26.8
			S44.4,3.3,29.5,3.3z"/>
		<path opacity="0.438" fill="#C7C8CA" d="M29.6,3.3c-14.8,0-26.7,12-26.8,26.8c0,5,1.1,26.9,26.8,26.8c14.8,0,26.8-12,26.8-26.8
			S44.4,3.3,29.6,3.3z"/>
		<path opacity="0.4463" fill="#C6C7C9" d="M29.6,3.3c-14.8,0-26.7,12-26.8,26.8c0,5,1,26.9,26.8,26.8c14.8,0,26.8-12,26.8-26.8
			S44.4,3.3,29.6,3.3z"/>
		<path opacity="0.4545" fill="#C5C6C8" d="M29.6,3.2c-14.8,0-26.7,12-26.8,26.8c0,5,1,26.9,26.8,26.8c14.8,0,26.8-12,26.8-26.8
			S44.4,3.2,29.6,3.2z"/>
		<path opacity="0.4628" fill="#C4C5C7" d="M29.6,3.2C14.8,3.2,2.9,15.2,2.8,30c0,5,1,26.9,26.8,26.8c14.8,0,26.8-12,26.8-26.8
			S44.4,3.2,29.6,3.2z"/>
		<path opacity="0.4711" fill="#C3C4C6" d="M29.6,3.2C14.8,3.2,2.9,15.2,2.8,30c0,5,1,26.9,26.8,26.8c14.8,0,26.8-12,26.8-26.8
			S44.4,3.2,29.6,3.2z"/>
		<path opacity="0.4793" fill="#C2C3C5" d="M29.6,3.1C14.8,3.1,2.9,15.2,2.8,30c0,5,1,26.9,26.8,26.8c14.8,0,26.8-12,26.8-26.8
			S44.5,3.1,29.6,3.1z"/>
		<path opacity="0.4876" fill="#C1C2C4" d="M29.7,3.1c-14.8,0-26.7,12-26.8,26.8c0,4.9,1,26.9,26.8,26.8c14.8,0,26.8-12,26.8-26.8
			S44.5,3.1,29.7,3.1z"/>
		<path opacity="0.4959" fill="#C0C1C3" d="M29.7,3.1c-14.8,0-26.7,12-26.8,26.8c0,4.9,0.9,26.9,26.8,26.8c14.8,0,26.8-12,26.8-26.8
			S44.5,3.1,29.7,3.1z"/>
		<path opacity="0.5041" fill="#BFC0C1" d="M29.7,3C14.9,3,3,15.1,2.8,29.9c0,4.9,0.9,26.9,26.8,26.8c14.8,0,26.8-12,26.8-26.8
			S44.5,3,29.7,3z"/>
		<path opacity="0.5124" fill="#BEBFC0" d="M29.7,3C14.9,3,3,15,2.9,29.8c0,4.9,0.9,26.9,26.8,26.8c14.8,0,26.8-12,26.8-26.8
			S44.5,3,29.7,3z"/>
		<path opacity="0.5207" fill="#BDBEBF" d="M29.7,3C14.9,3,3,15,2.9,29.8c0,4.9,0.9,26.9,26.8,26.8c14.8,0,26.8-12,26.8-26.8
			S44.6,3,29.7,3z"/>
		<path opacity="0.5289" fill="#BCBDBE" d="M29.7,2.9C14.9,2.9,3,14.9,2.9,29.8c0,4.9,0.9,26.9,26.8,26.8c14.8,0,26.8-12,26.8-26.8
			S44.6,2.9,29.7,2.9z"/>
		<path opacity="0.5372" fill="#BBBCBD" d="M29.8,2.9C14.9,2.9,3,14.9,2.9,29.7c0,4.9,0.8,26.9,26.8,26.8c14.8,0,26.8-12,26.8-26.8
			S44.6,2.9,29.8,2.9z"/>
		<path opacity="0.5455" fill="#BABBBC" d="M29.8,2.9C15,2.9,3,14.9,2.9,29.7c0,4.9,0.8,26.9,26.8,26.8c14.8,0,26.8-12,26.8-26.8
			S44.6,2.9,29.8,2.9z"/>
		<path opacity="0.5537" fill="#B9BABB" d="M29.8,2.8C15,2.8,3,14.8,2.9,29.7c0,4.9,0.8,26.9,26.8,26.8c14.8,0,26.8-12,26.8-26.8
			S44.6,2.8,29.8,2.8z"/>
		<path opacity="0.562" fill="#B8B9BA" d="M29.8,2.8C15,2.8,3.1,14.8,3,29.6c0,4.9,0.8,26.9,26.8,26.8c14.8,0,26.8-12,26.8-26.8
			S44.6,2.8,29.8,2.8z"/>
		<path opacity="0.5702" fill="#B7B8B9" d="M29.8,2.8C15,2.8,3.1,14.8,3,29.6c0,4.9,0.8,26.9,26.8,26.8c14.8,0,26.8-12,26.8-26.8
			S44.7,2.8,29.8,2.8z"/>
		<path opacity="0.5785" fill="#B6B7B8" d="M29.9,2.7C15,2.7,3.1,14.7,3,29.6c0,4.9,0.8,26.9,26.8,26.8c14.8,0,26.8-12,26.8-26.8
			S44.7,2.7,29.9,2.7z"/>
		<path opacity="0.5868" fill="#B4B6B7" d="M29.9,2.7C15,2.7,3.1,14.7,3,29.5c0,4.8,0.7,26.9,26.8,26.8c14.8,0,26.8-12,26.8-26.8
			S44.7,2.7,29.9,2.7z"/>
		<path opacity="0.595" fill="#B3B5B6" d="M29.9,2.7C15.1,2.7,3.1,14.7,3,29.5c0,4.8,0.7,26.9,26.8,26.8c14.8,0,26.8-12,26.8-26.8
			S44.7,2.7,29.9,2.7z"/>
		<path opacity="0.6033" fill="#B2B4B5" d="M29.9,2.6c-14.8,0-26.8,12-26.8,26.8c0,4.8,0.7,26.9,26.8,26.8c14.8,0,26.8-12,26.8-26.8
			S44.7,2.6,29.9,2.6z"/>
		<path opacity="0.6116" fill="#B1B3B4" d="M29.9,2.6c-14.8,0-26.8,12-26.8,26.8c0,4.8,0.7,26.9,26.8,26.8c14.8,0,26.8-12,26.8-26.8
			S44.8,2.6,29.9,2.6z"/>
		<path opacity="0.6198" fill="#B0B2B3" d="M29.9,2.6c-14.8,0-26.8,12-26.8,26.8c0,4.8,0.7,26.9,26.8,26.8c14.8,0,26.8-12,26.8-26.8
			S44.8,2.6,29.9,2.6z"/>
		<path opacity="0.6281" fill="#AFB0B2" d="M30,2.5c-14.8,0-26.8,12-26.8,26.8c0,4.8,0.7,26.9,26.8,26.8c14.8,0,26.8-12,26.8-26.8
			S44.8,2.5,30,2.5z"/>
		<path opacity="0.6364" fill="#AEAFB1" d="M30,2.5c-14.8,0-26.8,12-26.8,26.8c0,4.8,0.6,26.9,26.8,26.8c14.8,0,26.8-12,26.8-26.8
			S44.8,2.5,30,2.5z"/>
		<path opacity="0.6446" fill="#ADAEB0" d="M30,2.5c-14.8,0-26.8,12-26.8,26.8c0,4.8,0.6,26.9,26.8,26.8c14.8,0,26.8-12,26.8-26.8
			S44.8,2.5,30,2.5z"/>
		<path opacity="0.6529" fill="#ACADAF" d="M30,2.4c-14.8,0-26.8,12-26.8,26.8C3.1,34,3.8,56.1,30,56.1c14.8,0,26.8-12,26.8-26.8
			S44.8,2.4,30,2.4z"/>
		<path opacity="0.6612" fill="#ABACAE" d="M30,2.4c-14.8,0-26.8,12-26.8,26.8C3.2,34,3.8,56.1,30,56.1c14.8,0,26.8-12,26.8-26.8
			S44.9,2.4,30,2.4z"/>
		<path opacity="0.6694" fill="#AAABAD" d="M30,2.4c-14.8,0-26.8,12-26.8,26.8C3.2,34,3.8,56.1,30,56.1c14.8,0,26.8-12,26.8-26.8
			S44.9,2.4,30,2.4z"/>
		<path opacity="0.6777" fill="#A9AAAC" d="M30.1,2.3c-14.8,0-26.8,12-26.8,26.8C3.2,33.9,3.8,56,30.1,56c14.8,0,26.8-12,26.8-26.8
			S44.9,2.3,30.1,2.3z"/>
		<path opacity="0.686" fill="#A8A9AB" d="M30.1,2.3c-14.8,0-26.8,12-26.8,26.8C3.2,33.9,3.8,56,30.1,56c14.8,0,26.8-12,26.8-26.8
			S44.9,2.3,30.1,2.3z"/>
		<path opacity="0.6942" fill="#A7A8AA" d="M30.1,2.3c-14.8,0-26.8,12-26.8,26.8c0,4.7,0.5,26.9,26.8,26.8c14.8,0,26.8-12,26.8-26.8
			S44.9,2.3,30.1,2.3z"/>
		<path opacity="0.7025" fill="#A6A7A9" d="M30.1,2.2c-14.8,0-26.8,12-26.8,26.8c0,4.7,0.5,26.9,26.8,26.8c14.8,0,26.8-12,26.8-26.8
			S44.9,2.2,30.1,2.2z"/>
		<path opacity="0.7107" fill="#A5A6A8" d="M30.1,2.2C15.3,2.2,3.4,14.2,3.3,29c0,4.7,0.5,26.9,26.8,26.8C45,55.9,57,43.9,57,29
			S45,2.2,30.1,2.2z"/>
		<path opacity="0.719" fill="#A4A5A7" d="M30.2,2.2C15.3,2.2,3.4,14.2,3.3,29c0,4.7,0.5,26.9,26.8,26.8C45,55.8,57,43.8,57,29
			S45,2.2,30.2,2.2z"/>
		<path opacity="0.7273" fill="#A3A4A6" d="M30.2,2.1C15.3,2.1,3.4,14.1,3.3,29c0,4.7,0.4,26.9,26.8,26.8C45,55.8,57,43.8,57,29
			S45,2.1,30.2,2.1z"/>
		<path opacity="0.7355" fill="#A2A3A5" d="M30.2,2.1c-14.8,0-26.8,12-26.8,26.8c0,4.7,0.4,26.9,26.8,26.8C45,55.8,57,43.8,57,28.9
			S45,2.1,30.2,2.1z"/>
		<path opacity="0.7438" fill="#A1A2A4" d="M30.2,2C15.4,2,3.4,14.1,3.4,28.9c0,4.7,0.4,26.9,26.8,26.8c14.8,0,26.8-12,26.8-26.8
			S45,2,30.2,2z"/>
		<path opacity="0.7521" fill="#9FA1A3" d="M30.2,2C15.4,2,3.4,14,3.4,28.9c0,4.7,0.4,26.9,26.8,26.8c14.8,0,26.8-12,26.8-26.8
			S45.1,2,30.2,2z"/>
		<path opacity="0.7603" fill="#9EA0A2" d="M30.2,2C15.4,2,3.5,14,3.4,28.8c0,4.7,0.4,26.9,26.8,26.8c14.8,0,26.8-12,26.8-26.8
			S45.1,2,30.2,2z"/>
		<path opacity="0.7686" fill="#9D9FA1" d="M30.3,1.9C15.4,1.9,3.5,14,3.4,28.8c0,4.7,0.4,26.9,26.8,26.8c14.8,0,26.8-12,26.8-26.8
			S45.1,1.9,30.3,1.9z"/>
		<path opacity="0.7769" fill="#9C9EA0" d="M30.3,1.9c-14.8,0-26.8,12-26.8,26.8c0,4.7,0.3,26.9,26.8,26.8c14.8,0,26.8-12,26.8-26.8
			S45.1,1.9,30.3,1.9z"/>
		<path opacity="0.7851" fill="#9B9D9F" d="M30.3,1.9c-14.8,0-26.8,12-26.8,26.8c0,4.6,0.3,26.9,26.8,26.8c14.8,0,26.8-12,26.8-26.8
			S45.1,1.9,30.3,1.9z"/>
		<path opacity="0.7934" fill="#9A9C9E" d="M30.3,1.8c-14.8,0-26.8,12-26.8,26.8c0,4.6,0.3,26.9,26.8,26.8c14.8,0,26.8-12,26.8-26.8
			S45.1,1.8,30.3,1.8z"/>
		<path opacity="0.8017" fill="#999B9D" d="M30.3,1.8c-14.8,0-26.8,12-26.8,26.8c0,4.6,0.3,26.9,26.8,26.8c14.8,0,26.8-12,26.8-26.8
			S45.2,1.8,30.3,1.8z"/>
		<path opacity="0.8099" fill="#989A9C" d="M30.3,1.8c-14.8,0-26.8,12-26.8,26.8c0,4.6,0.3,26.9,26.8,26.8c14.8,0,26.8-12,26.8-26.8
			S45.2,1.8,30.3,1.8z"/>
		<path opacity="0.8182" fill="#97999B" d="M30.4,1.7c-14.8,0-26.8,12-26.8,26.8c0,4.6,0.3,26.9,26.8,26.8c14.8,0,26.8-12,26.8-26.8
			S45.2,1.7,30.4,1.7z"/>
		<path opacity="0.8264" fill="#96989A" d="M30.4,1.7c-14.8,0-26.8,12-26.8,26.8c0,4.6,0.2,26.9,26.8,26.8c14.8,0,26.8-12,26.8-26.8
			S45.2,1.7,30.4,1.7z"/>
		<path opacity="0.8347" fill="#959799" d="M30.4,1.7c-14.8,0-26.8,12-26.8,26.8c0,4.6,0.2,26.9,26.8,26.8c14.8,0,26.8-12,26.8-26.8
			S45.2,1.7,30.4,1.7z"/>
		<path opacity="0.843" fill="#949698" d="M30.4,1.6c-14.8,0-26.8,12-26.8,26.8c0,4.6,0.2,26.9,26.8,26.8c14.8,0,26.8-12,26.8-26.8
			S45.2,1.6,30.4,1.6z"/>
		<path opacity="0.8512" fill="#939597" d="M30.4,1.6c-14.8,0-26.8,12-26.8,26.8c0,4.6,0.2,26.9,26.8,26.8c14.8,0,26.8-12,26.8-26.8
			S45.3,1.6,30.4,1.6z"/>
		<path opacity="0.8595" fill="#929496" d="M30.5,1.6c-14.8,0-26.8,12-26.8,26.8c0,4.6,0.2,26.9,26.8,26.8c14.8,0,26.8-12,26.8-26.8
			S45.3,1.6,30.5,1.6z"/>
		<path opacity="0.8678" fill="#919395" d="M30.5,1.5c-14.8,0-26.8,12-26.8,26.8c0,4.6,0.1,26.9,26.8,26.8c14.8,0,26.8-12,26.8-26.8
			S45.3,1.5,30.5,1.5z"/>
		<path opacity="0.876" fill="#909194" d="M30.5,1.5c-14.8,0-26.8,12-26.8,26.8c0,4.6,0.1,26.9,26.8,26.8c14.8,0,26.8-12,26.8-26.8
			S45.3,1.5,30.5,1.5z"/>
		<path opacity="0.8843" fill="#8F9093" d="M30.5,1.5c-14.8,0-26.8,12-26.8,26.8c0,4.5,0.1,26.9,26.8,26.8c14.8,0,26.8-12,26.8-26.8
			S45.3,1.5,30.5,1.5z"/>
		<path opacity="0.8926" fill="#8E8F92" d="M30.5,1.4c-14.8,0-26.8,12-26.8,26.8c0,4.5,0.1,26.9,26.8,26.8c14.8,0,26.8-12,26.8-26.8
			S45.4,1.4,30.5,1.4z"/>
		<path opacity="0.9008" fill="#8D8E91" d="M30.5,1.4c-14.8,0-26.8,12-26.8,26.8c0,4.5,0.1,26.9,26.8,26.8c14.8,0,26.8-12,26.8-26.8
			S45.4,1.4,30.5,1.4z"/>
		<path opacity="0.9091" fill="#8C8D90" d="M30.6,1.4c-14.8,0-26.8,12-26.8,26.8c0,4.5,0.1,26.9,26.8,26.8c14.8,0,26.8-12,26.8-26.8
			S45.4,1.4,30.6,1.4z"/>
		<path opacity="0.9174" fill="#8A8C8F" d="M30.6,1.3c-14.8,0-26.8,12-26.8,26.8c0,4.5,0,26.9,26.8,26.8c14.8,0,26.8-12,26.8-26.8
			S45.4,1.3,30.6,1.3z"/>
		<path opacity="0.9256" fill="#898B8E" d="M30.6,1.3c-14.8,0-26.8,12-26.8,26.8c0,4.5,0,26.9,26.8,26.8c14.8,0,26.8-12,26.8-26.8
			S45.4,1.3,30.6,1.3z"/>
		<path opacity="0.9339" fill="#888A8D" d="M30.6,1.3c-14.8,0-26.8,12-26.8,26.8c0,4.5,0,26.8,26.8,26.8c14.8,0,26.8-12,26.8-26.8
			S45.4,1.3,30.6,1.3z"/>
		<path opacity="0.9421" fill="#87898C" d="M30.6,1.2c-14.8,0-26.8,12-26.8,26.8c0,4.5,0,26.8,26.8,26.8c14.8,0,26.8-12,26.8-26.8
			S45.5,1.2,30.6,1.2z"/>
		<path opacity="0.9504" fill="#86888B" d="M30.6,1.2c-14.8,0-26.8,12-26.8,26.8c0,4.5,0,26.8,26.8,26.8c14.8,0,26.8-12,26.8-26.8
			S45.5,1.2,30.6,1.2z"/>
		<path opacity="0.9587" fill="#85878A" d="M30.7,1.2C15.8,1.2,3.8,13.2,3.8,28c0,4.5,0,26.8,26.8,26.8c14.8,0,26.8-12,26.8-26.8
			S45.5,1.2,30.7,1.2z"/>
		<path opacity="0.9669" fill="#848689" d="M30.7,1.1C15.9,1.1,3.9,13.2,3.8,28c0,4.5-0.1,26.8,26.8,26.8c14.8,0,26.8-12,26.8-26.8
			S45.5,1.1,30.7,1.1z"/>
		<path opacity="0.9752" fill="#838588" d="M30.7,1.1C15.9,1.1,3.9,13.1,3.9,28c0,4.5-0.1,26.8,26.8,26.8c14.8,0,26.8-12,26.8-26.8
			S45.5,1.1,30.7,1.1z"/>
		<path opacity="0.9835" fill="#828487" d="M30.7,1.1c-14.8,0-26.8,12-26.8,26.8c0,4.4-0.1,26.8,26.8,26.8c14.8,0,26.8-12,26.8-26.8
			S45.5,1.1,30.7,1.1z"/>
		<path opacity="0.9917" fill="#818386" d="M30.7,1C15.9,1,3.9,13.1,3.9,27.9c0,4.4-0.1,26.8,26.8,26.8c14.8,0,26.8-12,26.8-26.8
			S45.6,1,30.7,1z"/>
		<path fill="#808285" d="M30.8,1C15.9,1,3.9,13,3.9,27.8c0,4.4-0.1,26.8,26.8,26.8c14.8,0,26.8-12,26.8-26.8S45.6,1,30.8,1z"/>
	</g>
</g>
<circle fill="#FFFFFF" cx="30.7" cy="27.9" r="26.9"/>
<g>
	<defs>
		<circle id="SVGID_1_" cx="30.7" cy="27.9" r="21.3"/>
	</defs>
	<clipPath id="SVGID_2_">
		<use xlink:href="#SVGID_1_"  overflow="visible"/>
	</clipPath>
	<g clip-path="url(#SVGID_2_)">
		<circle fill="#4E598F" cx="30.7" cy="28" r="22.9"/>
		<path fill="#364270" d="M53.5,26.7L42.7,16c-0.2,0.1-0.6-0.2-0.8-0.1c-4.6,0.7-9.1,0-13.6,1.2c-2.2,0.6-2.3,3.2-3.1,5
			c-1.1,3.1-0.9,6.5-2.3,9.4c-0.9,2-3.1,3.2-3.8,5.5c-0.2,1-0.2,2.2-0.6,3.1l10.8,10.8c0.4,0,0.8,0,1.3,0
			c12.7,0,22.9-10.2,22.9-22.9C53.5,27.6,53.5,27.2,53.5,26.7z"/>
		<g>
			<path fill="#FFFFFF" d="M40.2,14.9H21.1c-1.9,0-3.5,1.5-3.5,3.5v19.2c0,1.9,1.5,3.5,3.5,3.5h9.4v-9.3h-2.4
				c-0.3,0-0.6-0.2-0.6-0.6v-3c0-0.3,0.2-0.6,0.6-0.6h2.4v-2.9c0-3.4,2-5.2,5.1-5.2h2.5c0.3,0,0.6,0.2,0.6,0.6v2.5
				c0,0.3-0.2,0.6-0.6,0.6h-1.5c-1.6,0-1.9,0.8-1.9,1.9v2.5h3.6c0.3,0,0.6,0.3,0.6,0.6l-0.3,3c0,0.3-0.2,0.5-0.6,0.5h-3.2V41h5.6
				c1.9,0,3.5-1.5,3.5-3.5V18.4C43.8,16.4,42.2,14.9,40.2,14.9L40.2,14.9z"/>
			<polygon fill="#FFFFFF" points="30.6,41 30.6,31.7 30.6,31.7 			"/>
		</g>
		<path fill="#D1D1D1" d="M40.2,14.9h-9.7v12.7l0,0v-2.9c0-3.4,2-5.2,5.1-5.2h2.5c0.3,0,0.6,0.2,0.6,0.6v2.5c0,0.3-0.2,0.6-0.6,0.6
			h-1.5c-1.6,0-1.9,0.8-1.9,1.9v2.5h3.6c0.3,0,0.6,0.3,0.6,0.6l-0.3,3c0,0.3-0.2,0.5-0.6,0.5h-3.2V41h5.6c1.9,0,3.5-1.5,3.5-3.5
			V18.4C43.8,16.4,42.2,14.9,40.2,14.9z"/>
	</g>
</g>
</svg>
