<?xml version="1.0" encoding="utf-8"?>
<!-- Generator: Adobe Illustrator 17.1.0, SVG Export Plug-In . SVG Version: 6.00 Build 0)  -->
<!DOCTYPE svg PUBLIC "-//W3C//DTD SVG 1.1//EN" "http://www.w3.org/Graphics/SVG/1.1/DTD/svg11.dtd">
<svg version="1.1" id="Capa_1" xmlns="http://www.w3.org/2000/svg" xmlns:xlink="http://www.w3.org/1999/xlink" x="0px" y="0px"
	 width="60px" height="60px" viewBox="0 0 60 60" enable-background="new 0 0 60 60" xml:space="preserve">
<g>
	<circle fill="#4E598F" cx="30" cy="30.3" r="28.2"/>
	<path fill="#364270" d="M58.1,28.7L44.8,15.5c-0.2,0.1-0.8-0.2-1-0.1c-5.7,0.9-11.2,0-16.7,1.5c-2.7,0.8-2.8,4-3.8,6.1
		c-1.3,3.8-1.1,8-2.8,11.6c-1.1,2.5-3.8,4-4.7,6.8c-0.3,1.2-0.3,2.7-0.7,3.8l13.3,13.3c0.5,0,1,0,1.6,0c15.6,0,28.2-12.6,28.2-28.2
		C58.1,29.8,58.1,29.3,58.1,28.7z"/>
	<g>
		<path fill="#FFFFFF" d="M41.7,14.2H18.2c-2.4,0-4.3,1.9-4.3,4.3v23.6c0,2.4,1.9,4.3,4.3,4.3h11.6l0-11.5h-3
			c-0.4,0-0.7-0.3-0.7-0.7l0-3.7c0-0.4,0.3-0.7,0.7-0.7h3v-3.6c0-4.2,2.5-6.4,6.3-6.4h3.1c0.4,0,0.7,0.3,0.7,0.7v3.1
			c0,0.4-0.3,0.7-0.7,0.7l-1.9,0c-2,0-2.4,1-2.4,2.4v3.1h4.4c0.4,0,0.8,0.4,0.7,0.8l-0.4,3.7c0,0.4-0.3,0.6-0.7,0.6h-4l0,11.5h6.9
			c2.4,0,4.3-1.9,4.3-4.3V18.5C46.1,16.1,44.1,14.2,41.7,14.2L41.7,14.2z"/>
		<polygon fill="#FFFFFF" points="29.8,46.4 29.8,34.9 29.8,34.9 29.8,46.4 		"/>
	</g>
	<path fill="#D1D1D1" d="M41.7,14.2h-12v15.6h0v-3.6c0-4.2,2.5-6.4,6.3-6.4h3.1c0.4,0,0.7,0.3,0.7,0.7v3.1c0,0.4-0.3,0.7-0.7,0.7
		l-1.9,0c-2,0-2.4,1-2.4,2.4v3.1h4.4c0.4,0,0.8,0.4,0.7,0.8l-0.4,3.7c0,0.4-0.3,0.6-0.7,0.6h-4l0,11.5h6.9c2.4,0,4.3-1.9,4.3-4.3
		V18.5C46.1,16.1,44.1,14.2,41.7,14.2z"/>
</g>
</svg>
