<?xml version="1.0" encoding="utf-8"?>
<!-- Generator: Adobe Illustrator 17.1.0, SVG Export Plug-In . SVG Version: 6.00 Build 0)  -->
<!DOCTYPE svg PUBLIC "-//W3C//DTD SVG 1.1//EN" "http://www.w3.org/Graphics/SVG/1.1/DTD/svg11.dtd">
<svg version="1.1" id="Capa_1" xmlns="http://www.w3.org/2000/svg" xmlns:xlink="http://www.w3.org/1999/xlink" x="0px" y="0px"
	 width="246px" height="89px" viewBox="0 0 246 89" enable-background="new 0 0 246 89" xml:space="preserve">
<g>
	<polyline fill="#163F67" points="191.2,40.7 171.3,40.7 170.9,40.7 170.9,41.2 170.9,41.7 170.9,41.9 170.9,42.2 171,42.5 
		171,42.7 171,43 171,43.2 171,43.5 171.1,43.7 171.1,43.9 171.1,44 171.1,44.1 171.1,44.3 171.1,44.4 171.1,44.5 171.2,44.7 
		171.2,44.8 171.2,44.9 171.2,45 171.2,45.2 171.2,45.3 171.2,45.4 171.2,45.6 171.3,45.7 171.3,45.8 171.3,45.9 171.3,46.1 
		171.4,46.2 171.4,46.3 171.4,46.4 171.5,46.6 171.5,46.7 171.5,46.8 171.5,47 171.6,47.1 171.6,47.2 171.6,47.3 171.7,47.4 
		171.7,47.6 171.7,47.7 171.8,47.8 171.8,47.9 171.9,48.1 171.9,48.2 171.9,48.3 172,48.4 172,48.5 172.1,48.7 172.1,48.8 
		172.2,48.9 172.3,49 172.3,49.1 172.3,49.2 172.4,49.4 172.5,49.5 172.5,49.6 172.6,49.7 172.6,49.8 172.7,50 172.7,50 172.8,50.2 
		172.9,50.3 173,50.4 173,50.5 173.1,50.6 173.1,50.7 173.2,50.8 173.3,51 173.4,51.1 173.4,51.2 173.5,51.3 173.6,51.4 173.6,51.5 
		173.7,51.6 173.8,51.7 173.9,51.8 173.9,51.9 174,52 174.1,52.1 174.2,52.2 174.3,52.3 174.4,52.4 174.4,52.5 174.5,52.6 
		174.6,52.7 174.7,52.8 174.8,52.9 174.8,53 174.9,53.1 175,53.2 175.2,53.2 175.2,53.3 175.3,53.4 175.4,53.5 175.5,53.6 
		175.6,53.7 175.7,53.8 175.8,53.9 175.9,53.9 176,54 176.1,54.1 176.2,54.2 176.3,54.2 176.4,54.3 176.5,54.4 176.6,54.4 
		176.7,54.5 176.9,54.6 177,54.7 177.1,54.7 177.2,54.8 177.3,54.9 177.4,54.9 177.5,55 177.7,55.1 177.7,55.1 177.9,55.2 178,55.2 
		178.1,55.3 178.2,55.3 178.3,55.4 178.5,55.4 178.6,55.5 178.7,55.5 178.8,55.6 178.9,55.6 179.1,55.7 179.2,55.7 179.3,55.8 
		179.4,55.8 179.6,55.8 179.7,55.8 179.8,55.9 179.9,55.9 180,55.9 180.2,56 180.3,56 180.4,56 180.6,56.1 180.7,56.1 180.8,56.1 
		181,56.1 181.1,56.1 181.2,56.1 181.3,56.2 181.4,56.2 181.6,56.2 181.7,56.2 181.8,56.2 182,56.2 182.1,56.2 182.2,56.2 
		182.4,56.2 182.5,56.2 182.6,56.2 182.8,56.2 182.9,56.1 183,56.1 183.1,56.1 183.2,56.1 183.4,56.1 183.5,56.1 183.6,56 183.8,56 
		183.9,56 184,56 184.2,55.9 184.3,55.9 184.4,55.9 184.5,55.8 184.7,55.8 184.8,55.8 184.9,55.7 185,55.7 185.1,55.6 185.3,55.6 
		185.4,55.5 185.5,55.5 185.6,55.4 185.8,55.4 185.9,55.4 186,55.3 186.1,55.3 186.2,55.2 186.2,55.2 186.3,55.2 186.3,55.1 
		186.4,55.1 186.5,55.1 186.5,55.1 186.5,55 186.6,55 186.7,55 186.8,54.9 186.9,54.8 187,54.7 187.1,54.7 187.2,54.6 187.3,54.5 
		187.4,54.4 187.5,54.3 187.6,54.3 187.7,54.2 187.8,54.1 187.9,54 188,54 188.1,53.9 188.2,53.8 188.3,53.7 188.4,53.6 188.5,53.6 
		188.6,53.5 188.7,53.4 188.8,53.3 188.9,53.2 189,53.1 189.1,53 189.2,52.9 189.3,52.9 189.4,52.8 189.5,52.5 189.7,52.4 
		189.9,52.2 190.1,52 190.2,51.8 190.4,51.6 190.6,51.4 190.8,51.3 190.9,51.1 191.3,50.7 191.6,50.3 191.6,51.8 191.6,52.3 
		191.3,52.8 191.1,53 190.9,53.2 190.7,53.5 190.6,53.6 190.5,53.7 190.4,53.8 190.3,54 190.2,54 190.1,54.2 190,54.3 189.8,54.4 
		189.8,54.5 189.6,54.6 189.5,54.7 189.5,54.8 189.3,54.9 189.2,55 189.1,55.1 189,55.2 188.9,55.3 188.7,55.4 188.7,55.5 
		188.5,55.6 188.4,55.7 188.3,55.8 188.2,55.9 188,56 187.9,56.1 187.8,56.2 187.6,56.2 187.6,56.3 187.4,56.4 187.3,56.5 
		187.2,56.5 187,56.6 186.9,56.7 186.8,56.8 186.6,56.9 186.5,56.9 186.4,57 186.2,57.1 186.1,57.1 185.9,57.2 185.8,57.3 
		185.7,57.3 185.5,57.4 185.4,57.4 185.2,57.5 185.1,57.6 185,57.6 184.8,57.6 184.7,57.7 184.5,57.7 184.4,57.8 184.2,57.8 
		184.1,57.9 184,57.9 183.8,58 183.6,58 183.5,58 183.3,58 183.2,58.1 183,58.1 182.9,58.1 182.8,58.1 182.6,58.2 182.5,58.2 
		182.3,58.2 182.1,58.2 182,58.2 181.8,58.2 181.7,58.3 181.5,58.3 181.4,58.3 181.2,58.3 181.1,58.3 180.9,58.3 180.8,58.3 
		180.6,58.3 180.5,58.3 180.3,58.3 180.2,58.3 180,58.3 179.9,58.3 179.7,58.3 179.6,58.3 179.4,58.3 179.2,58.3 179.1,58.3 
		178.9,58.2 178.8,58.2 178.6,58.2 178.5,58.2 178.3,58.2 178.2,58.2 178.1,58.2 177.9,58.1 177.7,58.1 177.6,58.1 177.4,58.1 
		177.3,58 177.1,58 177,58 176.8,58 176.7,58 176.6,57.9 176.4,57.9 176.3,57.9 176.1,57.8 175.9,57.8 175.8,57.7 175.6,57.7 
		175.5,57.6 175.4,57.6 175.2,57.6 175.1,57.5 174.9,57.5 174.8,57.4 174.6,57.4 174.5,57.3 174.4,57.3 174.2,57.2 174.1,57.2 
		173.9,57.1 173.8,57 173.7,57 173.5,56.9 173.4,56.9 173.3,56.8 173.1,56.7 173,56.6 172.8,56.6 172.7,56.5 172.6,56.4 172.4,56.4 
		172.3,56.3 172.2,56.2 172,56.1 171.9,56.1 171.8,56 171.7,55.9 171.5,55.8 171.4,55.7 171.3,55.6 171.2,55.5 171.1,55.4 
		170.9,55.4 170.8,55.3 170.7,55.2 170.6,55.1 170.4,55 170.3,54.9 170.2,54.8 170.1,54.7 170,54.6 169.9,54.5 169.7,54.4 
		169.7,54.3 169.5,54.2 169.4,54.1 169.3,54 169.2,53.9 169.1,53.7 169,53.6 168.9,53.5 168.8,53.4 168.7,53.3 168.6,53.2 
		168.5,53.1 168.4,52.9 168.3,52.8 168.2,52.7 168.1,52.6 168,52.5 167.9,52.3 167.9,52.2 167.8,52.1 167.7,52 167.6,51.8 
		167.5,51.7 167.4,51.6 167.3,51.4 167.2,51.3 167.1,51.2 167.1,51.1 167,50.9 166.9,50.8 166.9,50.7 166.8,50.5 166.7,50.4 
		166.7,50.3 166.6,50.1 166.5,50 166.5,49.9 166.4,49.7 166.4,49.6 166.3,49.4 166.2,49.3 166.2,49.2 166.1,49 166.1,48.9 166,48.7 
		166,48.6 166,48.4 165.9,48.3 165.9,48.1 165.8,48 165.8,47.8 165.7,47.7 165.7,47.5 165.7,47.4 165.7,47.3 165.7,47.1 165.6,47 
		165.6,46.8 165.6,46.7 165.6,46.5 165.5,46.3 165.5,46.2 165.5,46 165.5,45.9 165.5,45.7 165.5,45.6 165.4,45.4 165.4,45.3 
		165.4,45.2 165.4,45 165.4,44.8 165.4,44.7 165.4,44.5 165.4,44.4 165.4,44.2 165.4,44.1 165.4,43.9 165.4,43.7 165.4,43.6 
		165.4,43.5 165.4,43.3 165.4,43.2 165.4,43 165.4,42.9 165.4,42.7 165.4,42.6 165.4,42.4 165.4,42.3 165.5,42.1 165.5,41.9 
		165.5,41.8 165.5,41.6 165.6,41.5 165.6,41.4 165.6,41.2 165.7,41.1 165.7,40.9 165.7,40.8 165.7,40.6 165.8,40.4 165.8,40.3 
		165.8,40.2 165.9,40 165.9,39.9 166,39.7 166,39.6 166,39.4 166,39.3 166.1,39.1 166.1,39 166.2,38.9 166.2,38.7 166.3,38.6 
		166.3,38.4 166.4,38.2 166.4,38.1 166.5,38 166.5,37.9 166.6,37.7 166.6,37.5 166.7,37.4 166.8,37.3 166.8,37.1 166.9,37 
		166.9,36.9 167,36.7 167.1,36.6 167.1,36.4 167.2,36.3 167.3,36.2 167.4,36.1 167.5,35.9 167.5,35.8 167.6,35.7 167.7,35.6 
		167.8,35.4 167.9,35.3 167.9,35.2 168,35 168.1,34.9 168.2,34.8 168.3,34.7 168.4,34.6 168.5,34.4 168.6,34.3 168.7,34.2 
		168.8,34.1 168.9,33.9 169,33.9 169.1,33.7 169.2,33.6 169.3,33.5 169.3,33.4 169.5,33.3 169.6,33.1 169.7,33.1 169.8,32.9 
		169.9,32.8 170,32.8 170.1,32.6 170.2,32.5 170.3,32.4 170.4,32.3 170.6,32.2 170.7,32.1 170.8,32 170.9,31.9 171,31.8 171.2,31.7 
		171.3,31.7 171.4,31.6 171.5,31.5 171.6,31.4 171.8,31.3 171.9,31.2 172,31.1 172.2,31 172.3,30.9 172.4,30.9 172.6,30.8 
		172.7,30.7 172.8,30.7 173,30.6 173.1,30.5 173.2,30.5 173.4,30.4 173.5,30.3 173.6,30.2 173.7,30.2 173.9,30.2 174.1,30.1 
		174.2,30 174.3,30 174.4,29.9 174.6,29.9 174.8,29.8 174.9,29.8 175,29.7 175.2,29.7 175.3,29.6 175.5,29.6 175.6,29.5 175.8,29.5 
		175.9,29.5 176.1,29.5 176.2,29.4 176.4,29.4 176.5,29.4 176.6,29.3 176.8,29.3 177,29.3 177.1,29.2 177.3,29.2 177.4,29.2 
		177.6,29.2 177.7,29.1 177.9,29.1 178,29.1 178.2,29.1 178.3,29.1 178.5,29.1 178.6,29.1 178.8,29.1 178.9,29.1 179.1,29.1 
		179.2,29.1 179.4,29.1 179.6,29.1 179.7,29.1 179.9,29.1 180,29.1 180.2,29.1 180.3,29.1 180.5,29.1 180.6,29.1 180.7,29.2 
		180.9,29.2 181,29.2 181.2,29.2 181.4,29.3 181.5,29.3 181.7,29.3 181.8,29.4 182,29.4 182.1,29.4 182.2,29.5 182.4,29.5 
		182.5,29.5 182.7,29.6 182.9,29.6 183,29.7 183.1,29.7 183.3,29.8 183.4,29.8 183.6,29.8 183.7,29.9 183.9,30 184,30 184.1,30.1 
		184.3,30.2 184.4,30.2 184.5,30.3 184.7,30.3 184.8,30.4 185,30.5 185.1,30.6 185.2,30.6 185.4,30.7 185.5,30.8 185.6,30.9 
		185.8,30.9 185.9,31 186,31.1 186.2,31.2 186.2,31.3 186.4,31.3 186.5,31.4 186.6,31.5 186.8,31.6 186.9,31.7 187,31.8 187.1,31.9 
		187.2,32 187.3,32.1 187.5,32.2 187.6,32.3 187.7,32.4 187.8,32.5 187.9,32.6 188,32.7 188.1,32.8 188.2,32.9 188.4,33.1 
		188.4,33.1 188.5,33.3 188.7,33.4 188.7,33.5 188.8,33.6 188.9,33.8 189,33.9 189.1,34 189.2,34.1 189.3,34.2 189.4,34.3 
		189.5,34.5 189.6,34.6 189.6,34.7 189.7,34.9 189.8,35 189.9,35.1 190,35.3 190,35.4 190.1,35.5 190.2,35.7 190.2,35.8 190.3,35.9 
		190.4,36.1 190.4,36.2 190.5,36.4 190.5,36.5 190.6,36.6 190.6,36.8 190.7,36.9 190.8,37.1 190.8,37.2 190.9,37.4 190.9,37.5 
		190.9,37.6 190.9,37.8 191,37.9 191,37.9 191,38 191,38.1 191,38.2 191,38.2 191,38.3 191.1,38.4 191.1,38.5 191.1,38.6 
		191.1,38.6 191.1,38.7 191.1,38.8 191.1,38.9 191.1,38.9 191.1,39 191.2,39.1 191.2,39.2 191.2,39.3 191.2,39.4 191.2,39.6 
		191.2,39.7 191.2,39.9 191.2,40.1 191.2,40.2 191.2,40.4 191.2,40.7 	"/>
	<path fill="#FFFFFF" d="M170.9,38.1c0-4.1,3.3-7.5,7.5-7.5c4.1,0,7.5,3.2,7.5,7.4l0,0.3l0,1l-0.8,0l-14.2,0l0-0.2v-0.7L170.9,38.1z
		"/>
	<polygon fill="#163F67" points="32.7,57.5 32.7,56.3 31.6,56.3 31.5,56.3 31.4,56.3 31.4,56.3 31.3,56.3 31.2,56.3 31.2,56.2 
		31.1,56.2 31.1,56.2 31,56.2 31,56.2 31,56.2 31,56.2 30.9,56.2 30.9,56.2 30.8,56.2 30.8,56.2 30.7,56.2 30.7,56.2 30.7,56.2 
		30.6,56.2 30.6,56.1 30.6,56.1 30.5,56.1 30.5,56.1 30.4,56.1 30.4,56.1 30.3,56.1 30.3,56 30.3,56 30.3,56 30.2,56 30.2,56 
		30.1,56 30.1,55.9 30.1,55.9 30,55.9 30,55.9 29.9,55.8 29.9,55.8 29.9,55.8 29.8,55.8 29.8,55.8 29.8,55.8 29.7,55.8 29.7,55.7 
		29.7,55.7 29.6,55.7 29.6,55.6 29.6,55.6 29.6,55.6 29.5,55.6 29.5,55.5 29.4,55.5 29.4,55.4 29.3,55.4 29.3,55.4 29.3,55.4 
		29.2,55.4 29.2,55.3 29.2,55.3 29.2,55.3 29.2,55.3 29.2,55.2 29.1,55.2 29.1,55.1 29.1,55.1 29,55.1 29,55.1 29,55.1 29,55 
		28.9,55 28.9,54.9 28.9,54.9 28.8,54.8 28.8,54.8 28.8,54.8 28.8,54.7 28.8,54.7 28.8,54.7 28.7,54.7 28.7,54.6 28.7,54.6 
		28.7,54.5 28.6,54.5 28.6,54.4 28.6,54.4 28.6,54.3 28.5,54.3 28.5,54.3 28.5,54.2 28.5,54.2 28.5,54.1 28.5,54.1 28.5,54 28.4,54 
		28.4,54 28.4,54 28.4,53.9 28.4,53.9 28.4,53.8 28.3,53.8 28.3,53.7 28.3,53.7 28.3,53.6 28.3,53.6 28.3,53.6 28.2,53.6 28.2,53.5 
		28.2,53.5 28.2,53.4 28.2,53.4 28.2,53.3 28.2,53.3 28.1,53.2 28.1,53.2 28.1,53.1 28.1,53 28.1,53 28.1,52.9 28.1,52.9 28.1,52.8 
		28.1,52.8 28.1,52.7 28.1,52.6 28,52.6 28,52.5 28,52.5 28,52.4 28,52.3 28,52.3 28,52.2 28,52.1 28,52.1 28,52.1 28,52 28,51.9 
		27.9,51.9 27.9,51.8 27.9,51.8 27.9,51.7 27.9,51.6 27.9,51.6 27.9,51.5 27.9,51.4 27.9,51.4 27.9,51.3 27.9,51.3 27.9,51.1 
		27.9,51.1 27.9,50.9 27.9,50.8 27.8,50.6 27.8,48.5 27.8,22.5 27.8,20 27.9,19.7 27.9,19.6 27.9,19.5 27.9,19.3 27.9,19.2 
		27.9,19.2 27.9,19.1 27.9,19 27.9,19 27.9,18.9 27.9,18.9 27.9,18.8 27.9,18.7 27.9,18.7 27.9,18.6 28,18.5 28,18.5 28,18.5 
		28,18.4 28,18.3 28,18.3 28,18.2 28,18.1 28,18.1 28,18 28,18 28,17.9 28.1,17.8 28.1,17.8 28.1,17.7 28.1,17.7 28.1,17.6 
		28.1,17.5 28.1,17.5 28.1,17.4 28.1,17.4 28.1,17.3 28.1,17.3 28.2,17.2 28.2,17.1 28.2,17.1 28.2,17 28.2,17 28.2,17 28.3,16.9 
		28.3,16.9 28.3,16.8 28.3,16.8 28.3,16.7 28.3,16.7 28.4,16.7 28.4,16.6 28.4,16.6 28.4,16.6 28.4,16.5 28.4,16.5 28.5,16.4 
		28.5,16.4 28.5,16.3 28.5,16.3 28.5,16.3 28.5,16.3 28.5,16.3 28.5,16.2 28.5,16.2 28.6,16.1 28.6,16.1 28.6,16 28.6,16 28.7,16 
		28.7,15.9 28.7,15.9 28.7,15.9 28.7,15.9 28.8,15.8 28.8,15.8 28.8,15.7 28.8,15.7 28.8,15.6 28.9,15.6 28.9,15.6 28.9,15.6 
		28.9,15.5 29,15.5 29,15.5 29,15.4 29,15.4 29,15.4 29.1,15.4 29.1,15.3 29.1,15.3 29.1,15.3 29.2,15.3 29.2,15.2 29.2,15.2 
		29.2,15.2 29.3,15.1 29.3,15.1 29.4,15 29.4,15 29.5,15 29.5,14.9 29.5,14.9 29.5,14.9 29.6,14.9 29.6,14.8 29.6,14.8 29.6,14.8 
		29.6,14.8 29.7,14.8 29.7,14.8 29.7,14.8 29.8,14.7 29.8,14.7 29.9,14.7 29.9,14.7 29.9,14.6 29.9,14.6 30,14.6 30,14.6 30,14.6 
		30.1,14.6 30.1,14.5 30.1,14.5 30.2,14.5 30.2,14.5 30.3,14.5 30.3,14.5 30.3,14.5 30.4,14.4 30.4,14.4 30.5,14.4 30.5,14.4 
		30.6,14.4 30.6,14.4 30.7,14.3 30.7,14.3 30.7,14.3 30.8,14.3 30.8,14.3 30.9,14.3 30.9,14.3 31,14.3 31,14.3 31,14.2 31.1,14.2 
		31.1,14.2 31.2,14.2 31.2,14.2 31.3,14.2 31.4,14.2 31.4,14.2 31.5,14.2 31.6,14.2 32.3,14.2 32.7,14.2 32.7,13 27.8,13 17.5,13 
		16.9,13 16.9,14.2 18.1,14.2 18.2,14.2 18.2,14.2 18.3,14.2 18.4,14.2 18.4,14.2 18.5,14.2 18.5,14.2 18.6,14.2 18.6,14.2 
		18.6,14.2 18.7,14.3 18.7,14.3 18.8,14.3 18.8,14.3 18.9,14.3 18.9,14.3 18.9,14.3 19,14.3 19,14.3 19,14.3 19,14.4 19.1,14.4 
		19.1,14.4 19.2,14.4 19.2,14.4 19.3,14.4 19.3,14.4 19.3,14.5 19.3,14.5 19.4,14.5 19.4,14.5 19.5,14.5 19.5,14.5 19.5,14.5 
		19.6,14.5 19.6,14.5 19.6,14.6 19.7,14.6 19.7,14.6 19.7,14.6 19.7,14.6 19.8,14.7 19.8,14.7 19.9,14.7 19.9,14.7 19.9,14.8 
		20,14.8 20,14.8 20,14.8 20.1,14.8 20.1,14.8 20.1,14.8 20.1,14.9 20.2,14.9 20.2,14.9 20.2,15 20.3,15 20.3,15 20.4,15.1 
		20.4,15.1 20.4,15.2 20.4,15.2 20.5,15.2 20.5,15.2 20.5,15.2 20.5,15.3 20.6,15.3 20.6,15.3 20.6,15.3 20.6,15.4 20.7,15.4 
		20.7,15.5 20.7,15.5 20.8,15.5 20.8,15.6 20.8,15.6 20.8,15.6 20.8,15.7 20.9,15.7 20.9,15.8 20.9,15.8 20.9,15.8 20.9,15.9 
		21,15.9 21,15.9 21,15.9 21,15.9 21,16 21.1,16 21.1,16 21.1,16.1 21.1,16.1 21.1,16.2 21.1,16.2 21.1,16.2 21.1,16.3 21.2,16.3 
		21.2,16.3 21.2,16.3 21.2,16.4 21.2,16.4 21.2,16.5 21.3,16.5 21.3,16.5 21.3,16.6 21.3,16.6 21.3,16.7 21.3,16.7 21.4,16.7 
		21.4,16.7 21.4,16.8 21.4,16.8 21.4,16.9 21.4,16.9 21.4,17 21.5,17 21.5,17 21.5,17 21.5,17.1 21.5,17.1 21.5,17.2 21.5,17.3 
		21.5,17.3 21.5,17.4 21.5,17.4 21.6,17.5 21.6,17.5 21.6,17.6 21.6,17.7 21.6,17.7 21.6,17.8 21.6,17.8 21.6,17.9 21.7,18 21.7,18 
		21.7,18.1 21.7,18.1 21.7,18.2 21.7,18.3 21.7,18.3 21.7,18.4 21.7,18.5 21.7,18.5 21.7,18.5 21.7,18.6 21.8,18.7 21.8,18.7 
		21.8,18.8 21.8,18.9 21.8,18.9 21.8,19 21.8,19 21.8,19.1 21.8,19.2 21.8,19.2 21.8,19.3 21.8,19.5 21.8,19.6 21.8,19.7 21.8,20 
		21.8,21.3 21.8,50.3 21.8,50.8 21.8,50.8 21.8,50.9 21.8,51.1 21.8,51.1 21.8,51.3 21.8,51.3 21.8,51.4 21.8,51.4 21.8,51.5 
		21.8,51.6 21.8,51.6 21.8,51.7 21.8,51.8 21.8,51.8 21.7,51.9 21.7,51.9 21.7,52 21.7,52.1 21.7,52.1 21.7,52.1 21.7,52.2 
		21.7,52.3 21.7,52.3 21.7,52.4 21.7,52.5 21.7,52.5 21.6,52.6 21.6,52.6 21.6,52.7 21.6,52.8 21.6,52.8 21.6,52.9 21.6,52.9 
		21.6,53 21.5,53 21.5,53.1 21.5,53.2 21.5,53.2 21.5,53.3 21.5,53.3 21.5,53.4 21.5,53.4 21.5,53.5 21.5,53.5 21.4,53.6 21.4,53.6 
		21.4,53.6 21.4,53.7 21.4,53.7 21.4,53.8 21.3,53.8 21.3,53.8 21.3,53.9 21.3,53.9 21.3,54 21.3,54 21.2,54 21.2,54.1 21.2,54.1 
		21.2,54.2 21.2,54.2 21.1,54.3 21.1,54.3 21.1,54.3 21.1,54.3 21.1,54.4 21.1,54.4 21.1,54.4 21.1,54.5 21,54.5 21,54.6 21,54.6 
		20.9,54.7 20.9,54.7 20.9,54.7 20.9,54.7 20.9,54.8 20.8,54.8 20.8,54.8 20.8,54.9 20.8,54.9 20.8,54.9 20.8,55 20.7,55 20.7,55.1 
		20.6,55.1 20.6,55.1 20.6,55.2 20.5,55.2 20.5,55.3 20.4,55.3 20.4,55.4 20.4,55.4 20.4,55.4 20.4,55.4 20.3,55.4 20.3,55.5 
		20.2,55.5 20.2,55.6 20.1,55.6 20.1,55.6 20.1,55.7 20,55.7 20,55.7 19.9,55.8 19.9,55.8 19.9,55.8 19.8,55.8 19.8,55.8 19.7,55.8 
		19.7,55.9 19.7,55.9 19.6,55.9 19.6,55.9 19.5,56 19.5,56 19.4,56 19.4,56 19.3,56 19.3,56.1 19.3,56.1 19.2,56.1 19.2,56.1 
		19.2,56.1 19.1,56.1 19.1,56.1 19,56.2 19,56.2 19,56.2 18.9,56.2 18.9,56.2 18.8,56.2 18.8,56.2 18.7,56.2 18.7,56.2 18.6,56.2 
		18.6,56.2 18.6,56.2 18.5,56.2 18.5,56.3 18.4,56.3 18.4,56.3 18.3,56.3 18.2,56.3 18.2,56.3 18.1,56.3 16.9,56.3 16.9,57.5 	"/>
	<polygon fill="#163F67" points="49.1,17.1 49.3,17 49.5,16.9 49.6,16.8 49.7,16.7 49.8,16.7 49.9,16.6 50,16.5 50.1,16.5 
		50.1,16.4 50.2,16.3 50.4,16.3 50.4,16.2 50.5,16.2 50.6,16.1 50.7,16.1 50.7,16 50.8,16 50.8,15.9 50.9,15.9 50.9,15.9 51,15.9 
		51,15.9 51.1,15.8 51.1,15.8 51.1,15.8 51.2,15.7 51.2,15.7 51.3,15.7 51.4,15.6 51.4,15.6 51.5,15.6 51.5,15.6 51.5,15.5 
		51.6,15.5 51.6,15.5 51.7,15.5 51.8,15.4 51.8,15.4 51.9,15.4 51.9,15.3 51.9,15.3 52,15.3 52.1,15.2 52.1,15.2 52.2,15.2 
		52.2,15.2 52.2,15.2 52.3,15.1 52.4,15.1 52.4,15.1 52.5,15.1 52.5,15 52.6,15 52.6,15 52.7,14.9 52.7,14.9 52.8,14.9 52.8,14.9 
		52.9,14.8 53,14.8 53,14.8 53,14.8 53.1,14.8 53.2,14.8 53.2,14.7 53.3,14.7 53.3,14.7 53.4,14.7 53.4,14.7 53.5,14.6 53.5,14.6 
		53.6,14.6 53.7,14.6 53.7,14.6 53.7,14.5 53.8,14.5 53.9,14.5 53.9,14.5 54,14.5 54.1,14.5 54.1,14.5 54.1,14.5 54.2,14.4 
		54.3,14.4 54.3,14.4 54.4,14.4 54.4,14.4 54.5,14.4 54.5,14.3 54.6,14.3 54.7,14.3 54.7,14.3 54.8,14.3 54.8,14.3 54.9,14.3 
		54.9,14.3 55,14.2 55,14.2 55.1,14.2 55.2,14.2 55.2,14.2 55.3,14.2 55.3,14.2 55.4,14.2 55.5,14.2 55.5,14.2 55.5,14.2 55.6,14.2 
		55.7,14.2 55.7,14.2 58.7,14.2 58.7,13 41.8,13 41.8,13.5 41.8,14.2 41.9,14.2 42,14.2 42,14.2 42,14.2 42.1,14.2 42.1,14.2 
		42.2,14.2 42.2,14.2 42.3,14.2 42.3,14.2 42.4,14.2 42.4,14.2 42.4,14.3 42.5,14.3 42.5,14.3 42.6,14.3 42.6,14.3 42.7,14.3 
		42.7,14.3 42.7,14.4 42.8,14.4 42.8,14.4 42.9,14.4 42.9,14.4 43,14.4 43,14.5 43,14.5 43.1,14.5 43.1,14.5 43.1,14.5 43.2,14.5 
		43.2,14.5 43.3,14.6 43.3,14.6 43.4,14.6 43.4,14.6 43.5,14.7 43.5,14.7 43.5,14.7 43.6,14.7 43.6,14.8 43.6,14.8 43.7,14.8 
		43.7,14.8 43.7,14.8 43.8,14.8 43.8,14.9 43.8,14.9 43.8,14.9 43.9,14.9 43.9,15 43.9,15 44,15 44,15.1 44.1,15.1 44.1,15.1 
		44.1,15.1 44.1,15.2 44.2,15.2 44.2,15.2 44.2,15.2 44.2,15.2 44.2,15.3 44.3,15.3 44.3,15.4 44.3,15.4 44.3,15.4 44.3,15.5 
		44.4,15.5 44.4,15.5 44.4,15.6 44.4,15.6 44.5,15.6 44.5,15.6 44.5,15.7 44.5,15.7 44.5,15.8 44.5,15.8 44.6,15.9 44.6,15.9 
		44.6,15.9 44.6,16 44.6,16 44.6,16.1 44.6,16.1 44.6,16.1 44.6,16.2 44.6,16.2 44.6,16.3 44.6,16.3 44.6,16.3 44.6,16.4 44.7,16.4 
		44.7,16.5 44.7,16.5 44.7,16.6 44.7,16.6 44.7,16.7 44.7,16.7 44.7,16.7 44.7,16.8 44.7,16.8 44.7,16.9 44.6,16.9 44.6,16.9 
		44.6,17 44.6,17 44.6,17 44.6,17.1 44.6,17.1 44.6,17.2 44.6,17.2 44.6,17.3 44.6,17.3 44.6,17.4 44.6,17.4 44.6,17.4 44.6,17.4 
		44.6,17.5 44.5,17.5 44.5,17.5 44.5,17.6 44.5,17.6 44.5,17.6 44.5,17.7 44.5,17.7 44.4,17.8 44.4,17.8 44.4,17.8 44.4,17.9 
		44.3,17.9 44.3,17.9 44.3,18 44.3,18 44.3,18.1 44.2,18.1 44.2,18.1 44.2,18.1 44.2,18.2 44.2,18.2 44.2,18.2 44.2,18.3 44.1,18.3 
		44.1,18.3 44.1,18.4 44.1,18.4 44,18.4 44,18.5 44,18.5 44,18.5 43.9,18.5 43.9,18.6 43.9,18.6 43.8,18.7 43.8,18.7 43.8,18.8 
		43.8,18.8 43.7,18.9 43.7,18.9 43.6,18.9 43.6,18.9 43.6,19 43.5,19 43.5,19.1 43.2,19.4 27.8,34.6 27.8,35.6 49.5,57.5 60,57.5 
		60,56.2 59.9,56.2 59.9,56.2 59.8,56.2 59.8,56.2 59.7,56.1 59.6,56.1 59.6,56.1 59.6,56.1 59.5,56.1 59.4,56.1 59.4,56.1 
		59.3,56.1 59.2,56.1 59.2,56.1 59.2,56.1 59.1,56.1 59,56.1 59,56.1 58.9,56.1 58.8,56.1 58.8,56.1 58.8,56 58.7,56 58.6,56 
		58.6,56 58.5,56 58.5,56 58.4,56 58.4,56 58.3,56 58.2,55.9 58.2,55.9 58.1,55.9 58.1,55.9 58,55.9 58,55.9 57.9,55.9 57.9,55.9 
		57.8,55.8 57.7,55.8 57.7,55.8 57.7,55.8 57.6,55.8 57.5,55.8 57.5,55.8 57.4,55.8 57.4,55.8 57.3,55.7 57.3,55.7 57.2,55.7 
		57.1,55.7 57.1,55.7 57,55.6 57,55.6 56.9,55.6 56.9,55.6 56.8,55.6 56.8,55.5 56.7,55.5 56.6,55.5 56.6,55.5 56.6,55.5 56.5,55.4 
		56.5,55.4 56.4,55.4 56.4,55.4 56.3,55.4 56.3,55.4 56.3,55.4 56.3,55.4 56.3,55.3 56.2,55.3 56.2,55.3 56.2,55.3 56.1,55.3 
		56.1,55.3 56.1,55.2 56,55.2 56,55.2 56,55.2 55.9,55.2 55.9,55.2 55.9,55.1 55.9,55.1 55.8,55.1 55.8,55.1 55.7,55.1 55.6,55 
		55.6,55 55.5,54.9 55.5,54.9 55.5,54.9 55.4,54.8 55.4,54.8 55.3,54.8 55.3,54.7 55.2,54.7 55.2,54.7 55.2,54.7 55.1,54.6 
		55.1,54.6 55,54.5 55,54.5 54.9,54.5 54.8,54.4 54.7,54.3 54.6,54.3 54.5,54.2 54.4,54.1 54.4,54 54.3,54 54.2,53.9 54.1,53.8 
		54,53.8 53.9,53.7 53.8,53.6 53.7,53.5 53.5,53.3 33.3,32.8 43.5,22.7 	"/>
	<polyline fill="#163F67" points="151.6,50.6 151.6,37.3 151.6,36.7 151.5,36.6 151.5,36.5 151.5,36.4 151.5,36.4 151.5,36.3 
		151.5,36.3 151.4,36.2 151.4,36.1 151.4,36.1 151.4,36 151.4,35.9 151.4,35.9 151.4,35.8 151.3,35.8 151.3,35.7 151.3,35.7 
		151.3,35.7 151.3,35.7 151.3,35.6 151.2,35.5 151.2,35.4 151.2,35.4 151.1,35.3 151.1,35.3 151,35.2 151,35.1 151,35.1 151,35 
		150.9,35 150.9,34.9 150.9,34.8 150.8,34.8 150.8,34.7 150.7,34.6 150.7,34.6 150.7,34.5 150.6,34.5 150.6,34.4 150.5,34.3 
		150.5,34.3 150.4,34.2 150.4,34.2 150.3,34.1 150.3,34.1 150.3,34 150.2,33.9 150.2,33.9 150.1,33.9 150.1,33.8 150,33.7 150,33.7 
		149.9,33.6 149.9,33.6 149.8,33.5 149.8,33.5 149.7,33.5 149.7,33.4 149.6,33.3 149.6,33.3 149.5,33.2 149.5,33.2 149.4,33.1 
		149.3,33.1 149.3,33.1 149.2,33 149.2,33 149.1,33 149.1,32.9 149,32.9 148.9,32.8 148.8,32.8 148.8,32.8 148.8,32.7 148.7,32.7 
		148.6,32.7 148.5,32.6 148.5,32.6 148.4,32.6 148.4,32.5 148.3,32.5 148.2,32.4 148.2,32.4 148.1,32.4 148.1,32.4 148,32.4 
		147.9,32.3 147.8,32.3 147.7,32.3 147.7,32.3 147.6,32.2 147.6,32.2 147.5,32.2 147.4,32.2 147.4,32.1 147.3,32.1 147.2,32.1 
		147.1,32.1 147.1,32.1 147,32 147,32 146.9,32 146.8,32 146.7,32 146.6,32 146.6,32 146.5,32 146.4,32 146.4,32 146.3,32 
		146.2,31.9 146.2,31.9 146.1,31.9 146,31.9 145.9,31.9 145.9,31.9 145.8,31.9 145.7,31.9 145.6,31.9 145.6,31.9 145.5,31.9 
		145.5,31.9 145.4,31.9 145.3,31.9 145.2,31.9 145.2,31.9 145.1,31.9 145,32 144.9,32 144.9,32 144.8,32 144.7,32 144.7,32 
		144.6,32 144.5,32 144.4,32 144.4,32 144.3,32 144.2,32 144.2,32.1 144.1,32.1 144.1,32.1 144,32.1 143.9,32.1 143.8,32.2 
		143.7,32.2 143.7,32.2 143.6,32.2 143.6,32.3 143.5,32.3 143.4,32.3 143.4,32.3 143.3,32.4 143.2,32.4 143.2,32.4 143.1,32.4 
		143,32.4 143,32.5 142.9,32.5 142.8,32.5 142.8,32.6 142.7,32.6 142.6,32.7 142.6,32.7 142.5,32.7 142.4,32.8 142.4,32.8 
		142.3,32.8 142.3,32.8 142.2,32.9 142.1,32.9 142.1,33 142,33 141.9,33 141.9,33.1 141.8,33.1 141.8,33.1 141.7,33.2 141.6,33.2 
		141.6,33.3 141.5,33.3 141.5,33.4 141.4,33.4 141.4,33.4 141.3,33.5 141.2,33.5 141.2,33.5 141.2,33.6 141.1,33.6 141,33.7 
		141,33.7 140.9,33.8 140.8,33.8 140.8,33.9 140.8,33.9 140.7,33.9 140.6,34 140.6,34.1 140.5,34.1 140.4,34.2 140.4,34.2 
		140.4,34.2 140.3,34.3 140.3,34.3 140.2,34.4 140.1,34.4 140.1,34.5 140.1,34.5 140,34.6 140,34.6 139.9,34.7 139.8,34.7 
		139.8,34.8 139.7,34.8 139.7,34.9 139.7,34.9 139.6,35 139.5,35 139.5,35.1 139.4,35.1 139.4,35.2 139.3,35.2 139.3,35.3 
		139.3,35.3 139.2,35.4 139.1,35.4 139.1,35.5 139,35.6 139,35.6 139,35.7 138.9,35.8 138.8,35.9 138.7,36 138.6,36.1 138.5,36.2 
		138.4,36.3 138.3,36.4 138.2,36.5 138.2,36.7 138.1,36.8 138,36.9 137.9,37 137.8,37.1 137.8,37.1 137.6,37.3 137.6,49.5 
		137.6,50.6 137.6,50.8 137.6,51 137.6,51.1 137.6,51.2 137.6,51.4 137.6,51.5 137.7,51.5 137.7,51.6 137.7,51.7 137.7,51.7 
		137.7,51.8 137.7,51.8 137.7,51.9 137.7,52 137.7,52.1 137.7,52.1 137.7,52.2 137.7,52.2 137.7,52.3 137.7,52.4 137.7,52.5 
		137.7,52.5 137.7,52.5 137.7,52.6 137.7,52.7 137.7,52.8 137.7,52.8 137.8,52.9 137.8,52.9 137.8,53 137.8,53.1 137.8,53.2 
		137.8,53.2 137.8,53.2 137.8,53.3 137.8,53.4 137.8,53.5 137.9,53.5 137.9,53.6 137.9,53.6 137.9,53.6 137.9,53.7 137.9,53.7 
		137.9,53.8 137.9,53.8 137.9,53.9 137.9,53.9 137.9,54 137.9,54 137.9,54 138,54 138,54.1 138,54.1 138,54.2 138,54.2 138,54.3 
		138,54.3 138.1,54.3 138.1,54.4 138.1,54.4 138.1,54.4 138.1,54.5 138.1,54.5 138.2,54.5 138.2,54.6 138.2,54.6 138.2,54.7 
		138.2,54.7 138.2,54.7 138.2,54.8 138.3,54.8 138.3,54.8 138.3,54.9 138.3,54.9 138.3,54.9 138.4,55 138.4,55 138.4,55.1 
		138.5,55.1 138.5,55.1 138.5,55.2 138.6,55.2 138.6,55.3 138.6,55.3 138.6,55.4 138.7,55.4 138.7,55.4 138.7,55.4 138.7,55.4 
		138.8,55.4 138.8,55.5 138.8,55.5 138.8,55.5 138.9,55.5 138.9,55.6 139,55.6 139,55.6 139,55.7 139,55.7 139.1,55.7 139.1,55.7 
		139.2,55.8 139.2,55.8 139.3,55.8 139.3,55.8 139.3,55.8 139.4,55.9 139.4,55.9 139.5,55.9 139.5,55.9 139.5,55.9 139.6,55.9 
		139.6,56 139.6,56 139.7,56 139.7,56 139.7,56 139.8,56 139.8,56.1 139.9,56.1 139.9,56.1 140,56.1 140,56.1 140.1,56.1 
		140.1,56.1 140.1,56.1 140.2,56.2 140.2,56.2 140.3,56.2 140.3,56.2 140.4,56.2 140.4,56.2 140.4,56.2 140.5,56.2 140.5,56.2 
		140.6,56.2 140.6,56.2 140.7,56.2 140.8,56.2 140.8,56.2 140.9,56.2 141,56.2 141,56.2 141.1,56.3 141.2,56.3 141.2,56.3 
		141.3,56.3 141.4,56.3 141.4,56.3 141.5,56.3 141.6,56.3 141.7,56.3 142.2,56.3 142.2,57.5 135.7,57.5 132.3,57.5 128.5,57.5 
		127.7,57.5 127.7,56.3 128.2,56.3 128.3,56.3 128.4,56.3 128.5,56.3 128.5,56.3 128.6,56.3 128.7,56.3 128.7,56.3 128.8,56.3 
		128.9,56.2 128.9,56.2 129,56.2 129.1,56.2 129.1,56.2 129.2,56.2 129.3,56.2 129.3,56.2 129.4,56.2 129.4,56.2 129.4,56.2 
		129.5,56.2 129.5,56.2 129.5,56.2 129.6,56.2 129.6,56.2 129.7,56.2 129.7,56.2 129.8,56.1 129.8,56.1 129.8,56.1 129.9,56.1 
		129.9,56.1 130,56.1 130,56.1 130.1,56.1 130.1,56 130.2,56 130.2,56 130.2,56 130.2,56 130.3,56 130.3,55.9 130.4,55.9 
		130.4,55.9 130.4,55.9 130.5,55.9 130.5,55.9 130.5,55.8 130.6,55.8 130.6,55.8 130.7,55.8 130.7,55.8 130.8,55.7 130.8,55.7 
		130.9,55.7 130.9,55.6 130.9,55.6 131,55.6 131,55.5 131.1,55.5 131.1,55.4 131.2,55.4 131.2,55.4 131.2,55.4 131.2,55.4 
		131.3,55.4 131.3,55.3 131.3,55.3 131.3,55.2 131.3,55.2 131.4,55.2 131.4,55.1 131.4,55.1 131.5,55.1 131.5,55 131.5,55 
		131.6,54.9 131.6,54.9 131.6,54.8 131.6,54.8 131.6,54.8 131.6,54.7 131.7,54.7 131.7,54.7 131.7,54.6 131.7,54.6 131.7,54.5 
		131.8,54.5 131.8,54.5 131.8,54.4 131.8,54.4 131.8,54.3 131.9,54.3 131.9,54.3 131.9,54.2 131.9,54.2 131.9,54.2 131.9,54.1 
		131.9,54.1 131.9,54 132,54 132,54 132,54 132,53.9 132,53.9 132,53.8 132,53.8 132,53.7 132,53.7 132,53.6 132,53.6 132,53.6 
		132,53.5 132,53.5 132.1,53.4 132.1,53.3 132.1,53.2 132.1,53.2 132.1,53.2 132.1,53.1 132.1,53 132.1,52.9 132.1,52.9 132.1,52.8 
		132.2,52.8 132.2,52.7 132.2,52.6 132.2,52.5 132.2,52.5 132.2,52.5 132.2,52.4 132.2,52.3 132.2,52.2 132.2,52.2 132.2,52.1 
		132.2,52.1 132.2,52 132.2,51.9 132.2,51.8 132.2,51.8 132.2,51.7 132.2,51.7 132.2,51.6 132.2,51.5 132.2,51.5 132.2,51.4 
		132.3,51.2 132.3,51.1 132.3,51 132.3,50.8 132.3,50.6 132.3,50.1 132.3,34 132.3,33.5 132.2,33.5 132.2,33.4 132.2,33.4 
		132.2,33.3 132.2,33.3 132.2,33.2 132.2,33.2 132.1,33.1 132.1,33.1 132.1,33.1 132.1,33 132.1,33 132.1,33 132.1,32.9 132,32.9 
		132,32.9 132,32.8 132,32.8 132,32.8 132,32.8 132,32.7 132,32.7 132,32.6 131.9,32.6 131.9,32.6 131.9,32.5 131.9,32.5 
		131.9,32.5 131.8,32.4 131.8,32.4 131.8,32.4 131.8,32.4 131.7,32.3 131.7,32.3 131.7,32.3 131.7,32.2 131.6,32.2 131.6,32.1 
		131.6,32.1 131.6,32.1 131.6,32 131.5,32 131.5,32 131.5,32 131.4,32 131.4,31.9 131.4,31.9 131.4,31.9 131.3,31.9 131.3,31.8 
		131.3,31.8 131.3,31.8 131.3,31.8 131.2,31.7 131.2,31.7 131.2,31.7 131.1,31.7 131.1,31.7 131.1,31.7 131,31.7 131,31.7 131,31.6 
		130.9,31.6 130.9,31.6 130.9,31.6 130.8,31.6 130.8,31.6 130.8,31.5 130.7,31.5 130.7,31.5 130.6,31.5 130.6,31.5 130.6,31.5 
		130.5,31.5 130.5,31.5 130.5,31.4 130.4,31.4 130.4,31.4 130.3,31.4 130.3,31.4 130.2,31.4 130.2,31.4 130.2,31.4 130.1,31.4 
		130.1,31.3 130,31.3 130,31.3 129.9,31.3 129.9,31.3 129.8,31.3 129.8,31.3 129.8,31.3 129.7,31.3 129.7,31.3 129.6,31.3 
		129.6,31.3 129.5,31.3 129.5,31.3 129.4,31.3 129.4,31.3 129.4,31.3 129.3,31.3 129.3,31.3 129.2,31.2 129.2,31.2 129.1,31.2 
		129.1,31.2 129.1,31.2 129,31.2 129,31.2 128.9,31.2 128.9,31.2 128.8,31.2 128.8,31.2 128.7,31.2 128.7,31.2 128.7,31.2 
		128.6,31.2 128.6,31.2 128.5,31.2 128.5,31.2 128.4,31.2 128.4,31.2 128.3,31.2 128.3,31.2 128.3,31.2 128.2,31.2 128.2,31.2 
		128.1,31.2 128,31.2 127.9,31.2 127.7,31.2 127.7,29.8 136.3,29.1 137.6,29.1 137.6,29.5 137.6,33.9 137.6,34.6 137.9,34.3 
		138,34.2 138.2,34 138.3,33.9 138.5,33.7 138.6,33.6 138.7,33.5 138.9,33.3 139,33.2 139.2,33.1 139.3,32.9 139.4,32.8 139.6,32.6 
		139.7,32.6 139.7,32.5 139.8,32.4 139.9,32.4 140,32.3 140.1,32.2 140.1,32.2 140.2,32.1 140.3,32 140.3,32 140.4,31.9 140.5,31.9 
		140.6,31.8 140.6,31.7 140.7,31.7 140.8,31.6 140.9,31.6 140.9,31.5 141,31.4 141.1,31.4 141.2,31.3 141.3,31.3 141.3,31.2 
		141.4,31.1 141.5,31.1 141.6,31 141.7,31 141.8,30.9 141.9,30.9 141.9,30.8 142,30.8 142.1,30.7 142.2,30.7 142.3,30.6 142.3,30.6 
		142.4,30.5 142.5,30.5 142.6,30.4 142.7,30.4 142.8,30.3 142.9,30.3 143,30.2 143,30.2 143.1,30.2 143.2,30.1 143.3,30.1 143.4,30 
		143.5,30 143.6,29.9 143.7,29.9 143.7,29.9 143.9,29.8 144,29.8 144.1,29.8 144.1,29.7 144.2,29.7 144.3,29.7 144.4,29.6 
		144.5,29.6 144.6,29.6 144.7,29.5 144.8,29.5 144.9,29.5 145,29.5 145.1,29.5 145.2,29.4 145.3,29.4 145.4,29.4 145.5,29.4 
		145.5,29.3 145.7,29.3 145.8,29.3 145.9,29.3 145.9,29.2 146,29.2 146.2,29.2 146.3,29.2 146.3,29.2 146.4,29.2 146.5,29.1 
		146.6,29.1 146.7,29.1 146.8,29.1 146.9,29.1 147,29.1 147.1,29.1 147.2,29.1 147.3,29.1 147.4,29.1 147.5,29.1 147.6,29.1 
		147.7,29.1 147.8,29.1 147.9,29.1 148,29.1 148.1,29.1 148.2,29.1 148.3,29.1 148.4,29.1 148.5,29.1 148.6,29.1 148.7,29.1 
		148.8,29.2 148.9,29.2 149,29.2 149.1,29.2 149.2,29.2 149.3,29.2 149.4,29.3 149.5,29.3 149.6,29.3 149.7,29.3 149.8,29.4 
		149.9,29.4 150,29.4 150.1,29.4 150.2,29.5 150.3,29.5 150.3,29.5 150.5,29.5 150.6,29.5 150.7,29.6 150.7,29.6 150.8,29.6 
		150.9,29.7 151,29.7 151.1,29.7 151.2,29.8 151.3,29.8 151.4,29.8 151.5,29.9 151.6,29.9 151.7,30 151.8,30 151.8,30 151.9,30.1 
		152,30.1 152.1,30.2 152.2,30.2 152.3,30.2 152.4,30.3 152.5,30.4 152.5,30.4 152.6,30.5 152.7,30.5 152.8,30.6 152.9,30.6 
		153,30.7 153.1,30.7 153.1,30.8 153.2,30.8 153.3,30.9 153.4,30.9 153.4,31 153.5,31.1 153.6,31.1 153.7,31.2 153.7,31.3 
		153.8,31.3 153.9,31.4 154,31.5 154,31.6 154.1,31.6 154.2,31.7 154.3,31.7 154.3,31.8 154.4,31.9 154.4,32 154.5,32 154.6,32.1 
		154.6,32.2 154.7,32.3 154.7,32.4 154.8,32.4 154.9,32.5 154.9,32.6 155,32.7 155.1,32.8 155.1,32.8 155.1,32.9 155.2,33 
		155.3,33.1 155.3,33.2 155.4,33.3 155.4,33.4 155.4,33.5 155.5,33.5 155.6,33.6 155.6,33.7 155.7,33.8 155.7,33.9 155.8,33.9 
		155.8,34 155.8,34.1 155.9,34.2 155.9,34.3 156,34.4 156,34.5 156.1,34.6 156.1,34.7 156.1,34.8 156.2,34.9 156.2,35 156.2,35 
		156.3,35.1 156.3,35.2 156.3,35.3 156.4,35.4 156.4,35.5 156.5,35.6 156.5,35.7 156.5,35.8 156.5,35.9 156.5,36 156.6,36.1 
		156.6,36.1 156.6,36.3 156.7,36.4 156.7,36.4 156.7,36.5 156.8,36.6 156.8,36.7 156.8,36.8 156.8,36.9 156.9,37 156.9,37.1 
		156.9,37.3 156.9,38.3 156.9,49.2 156.9,50.6 156.9,50.8 156.9,51 156.9,51.1 156.9,51.2 156.9,51.4 156.9,51.5 156.9,51.5 
		157,51.6 157,51.7 157,51.7 157,51.8 157,51.8 157,51.9 157,52 157,52.1 157,52.1 157,52.2 157,52.2 157,52.3 157,52.4 157,52.5 
		157,52.5 157,52.5 157,52.6 157,52.7 157,52.8 157,52.8 157.1,52.9 157.1,52.9 157.1,53 157.1,53.1 157.1,53.2 157.1,53.2 
		157.1,53.2 157.1,53.3 157.1,53.4 157.1,53.5 157.1,53.5 157.2,53.5 157.2,53.6 157.2,53.6 157.2,53.6 157.2,53.7 157.2,53.7 
		157.2,53.7 157.2,53.8 157.2,53.8 157.2,53.9 157.2,53.9 157.3,54 157.3,54 157.3,54 157.3,54.1 157.3,54.1 157.3,54.2 157.3,54.2 
		157.3,54.3 157.3,54.3 157.4,54.3 157.4,54.4 157.4,54.4 157.4,54.4 157.4,54.5 157.4,54.5 157.5,54.5 157.5,54.6 157.5,54.6 
		157.5,54.7 157.5,54.7 157.5,54.7 157.6,54.7 157.6,54.8 157.6,54.8 157.6,54.8 157.6,54.9 157.6,54.9 157.6,54.9 157.6,55 
		157.7,55 157.7,55 157.7,55.1 157.8,55.1 157.8,55.1 157.8,55.2 157.9,55.2 157.9,55.3 158,55.3 158,55.4 158,55.4 158,55.4 
		158,55.4 158,55.4 158.1,55.4 158.1,55.5 158.1,55.5 158.1,55.5 158.2,55.5 158.2,55.6 158.3,55.6 158.3,55.6 158.3,55.7 
		158.4,55.7 158.4,55.7 158.4,55.7 158.4,55.8 158.5,55.8 158.5,55.8 158.6,55.8 158.6,55.8 158.7,55.8 158.7,55.9 158.7,55.9 
		158.8,55.9 158.8,55.9 158.8,55.9 158.9,55.9 158.9,56 158.9,56 159,56 159,56 159.1,56 159.1,56 159.1,56.1 159.2,56.1 
		159.2,56.1 159.3,56.1 159.3,56.1 159.4,56.1 159.4,56.1 159.4,56.1 159.5,56.2 159.5,56.2 159.6,56.2 159.6,56.2 159.7,56.2 
		159.7,56.2 159.8,56.2 159.8,56.2 159.8,56.2 159.9,56.2 159.9,56.2 160,56.2 160.1,56.2 160.2,56.2 160.2,56.2 160.3,56.2 
		160.3,56.2 160.4,56.3 160.5,56.3 160.5,56.3 160.6,56.3 160.6,56.3 160.7,56.3 160.8,56.3 160.9,56.3 161,56.3 161.5,56.3 
		161.5,57.5 156.9,57.5 151.6,57.5 147,57.5 147,56.3 147.5,56.3 147.6,56.3 147.7,56.3 147.8,56.3 147.8,56.3 147.9,56.3 148,56.3 
		148.1,56.3 148.1,56.3 148.2,56.2 148.2,56.2 148.3,56.2 148.4,56.2 148.4,56.2 148.5,56.2 148.5,56.2 148.6,56.2 148.7,56.2 
		148.7,56.2 148.8,56.2 148.8,56.2 148.8,56.2 148.8,56.2 148.9,56.2 148.9,56.2 149,56.2 149,56.2 149.1,56.1 149.1,56.1 
		149.2,56.1 149.2,56.1 149.2,56.1 149.3,56.1 149.3,56.1 149.4,56.1 149.4,56 149.5,56 149.5,56 149.5,56 149.6,56 149.6,56 
		149.6,55.9 149.7,55.9 149.7,55.9 149.8,55.9 149.8,55.9 149.9,55.8 149.9,55.8 149.9,55.8 150,55.8 150,55.8 150.1,55.7 
		150.1,55.7 150.2,55.7 150.2,55.6 150.3,55.6 150.3,55.6 150.3,55.5 150.4,55.5 150.4,55.4 150.5,55.4 150.5,55.4 150.6,55.3 
		150.6,55.3 150.6,55.3 150.6,55.2 150.7,55.2 150.7,55.2 150.7,55.2 150.7,55.1 150.7,55.1 150.8,55.1 150.8,55 150.8,55 
		150.9,54.9 150.9,54.9 150.9,54.8 150.9,54.8 151,54.8 151,54.7 151,54.7 151,54.7 151,54.6 151,54.6 151,54.5 151.1,54.5 
		151.1,54.5 151.1,54.4 151.1,54.4 151.1,54.3 151.1,54.3 151.2,54.3 151.2,54.2 151.2,54.2 151.2,54.2 151.2,54.1 151.2,54.1 
		151.2,54 151.3,54 151.3,54 151.3,53.9 151.3,53.9 151.3,53.8 151.3,53.8 151.3,53.7 151.3,53.7 151.4,53.6 151.4,53.6 151.4,53.6 
		151.4,53.5 151.4,53.5 151.4,53.4 151.4,53.3 151.4,53.2 151.4,53.2 151.4,53.2 151.4,53.1 151.4,53 151.4,52.9 151.4,52.9 
		151.4,52.8 151.5,52.8 151.5,52.7 151.5,52.6 151.5,52.5 151.5,52.5 151.5,52.5 151.5,52.4 151.5,52.3 151.5,52.2 151.5,52.2 
		151.5,52.1 151.5,52.1 151.5,52 151.5,51.9 151.5,51.8 151.5,51.8 151.5,51.7 151.5,51.7 151.5,51.6 151.5,51.5 151.5,51.5 
		151.5,51.4 151.5,51.2 151.6,51.1 151.6,51 151.6,50.8 151.6,50.6 	"/>
	
		<line fill="none" stroke="#163F67" stroke-width="0.2639" stroke-linecap="round" stroke-linejoin="round" stroke-miterlimit="10" x1="142.2" y1="57.5" x2="142.2" y2="57.5"/>
	
		<polyline fill="none" stroke="#163F67" stroke-width="0.2589" stroke-linecap="round" stroke-linejoin="round" stroke-miterlimit="10" points="
		161.5,57.5 157.5,57.5 161.5,57.5 	"/>
	<path fill="#163F67" d="M228.9,56c0-2-1.6-3.6-3.6-3.6s-3.6,1.6-3.6,3.6c0,2,1.6,3.6,3.6,3.6S228.9,57.9,228.9,56"/>
	<g>
		<path fill="#163F67" d="M39.9,72l-0.2-0.6L39.2,70h-1.5h-1.5l-0.5,1.5L35.5,72h-0.6l2.6-6.6h0.6l2.3,6.6H39.9z M37.8,66.1
			L37.8,66.1l-1.5,3.5h1.3H39L37.8,66.1z"/>
		<path fill="#163F67" d="M47.1,66l-0.1,0.5H47c-0.5-0.3-1-0.6-1.6-0.6c-0.8,0-1.3,0.3-1.7,0.8c-0.4,0.5-0.6,1.2-0.6,2.1
			c0,0.9,0.2,1.6,0.6,2.1c0.4,0.5,0.9,0.8,1.6,0.8c0.7,0,1.3-0.3,1.8-0.7h0.1v0.5c-0.6,0.4-1.2,0.6-1.9,0.6c-0.9,0-1.5-0.3-2-0.9
			c-0.5-0.6-0.7-1.4-0.7-2.5c0-1.1,0.3-1.9,0.8-2.5c0.5-0.6,1.2-0.9,2.1-0.9C46,65.5,46.6,65.6,47.1,66z"/>
		<path fill="#163F67" d="M53.9,66l-0.1,0.5h-0.1c-0.5-0.3-1-0.6-1.6-0.6c-0.8,0-1.3,0.3-1.7,0.8s-0.6,1.2-0.6,2.1
			c0,0.9,0.2,1.6,0.6,2.1s0.9,0.8,1.6,0.8c0.7,0,1.3-0.3,1.8-0.7h0.1v0.5c-0.6,0.4-1.2,0.6-1.9,0.6c-0.9,0-1.5-0.3-2-0.9
			c-0.5-0.6-0.7-1.4-0.7-2.5c0-1.1,0.3-1.9,0.8-2.5c0.5-0.6,1.2-0.9,2.1-0.9C52.8,65.5,53.4,65.6,53.9,66z"/>
		<path fill="#163F67" d="M60.9,66.2c0.5,0.6,0.7,1.4,0.7,2.4c0,1.1-0.3,2-0.8,2.6S59.6,72,58.7,72c-0.9,0-1.5-0.3-2-0.9
			c-0.5-0.6-0.7-1.4-0.7-2.5s0.3-1.9,0.8-2.5c0.5-0.6,1.2-0.9,2.1-0.9C59.8,65.5,60.5,65.7,60.9,66.2z M57.1,66.6
			c-0.4,0.5-0.6,1.2-0.6,2.1s0.2,1.7,0.6,2.1c0.3,0.5,0.9,0.8,1.7,0.8c0.8,0,1.4-0.3,1.7-0.8c0.4-0.5,0.6-1.2,0.6-2.2
			c0-0.9-0.2-1.6-0.6-2.1s-0.9-0.7-1.7-0.7C58.1,65.9,57.5,66.1,57.1,66.6z"/>
		<path fill="#163F67" d="M69.1,69.6c0,0.8-0.2,1.4-0.6,1.8c-0.4,0.4-1,0.7-1.8,0.7S65.3,72,65,71.5c-0.3-0.4-0.6-1-0.6-1.8v-4.3
			h0.5v4.1c0,0.7,0.2,1.2,0.4,1.5c0.3,0.3,0.8,0.5,1.4,0.5s1.1-0.2,1.4-0.5c0.3-0.3,0.5-0.9,0.5-1.5v-4.2h0.5v3.3V69.6z"/>
		<path fill="#163F67" d="M77.4,72h-0.5l-3.8-5.6H73V70v2.1h-0.5v-2v-4.6h0.6l3.8,5.6h0.1v-5.6h0.5v4.7L77.4,72L77.4,72z"/>
		<path fill="#163F67" d="M84.5,66h-1.1h-0.8v4.1v2h-0.5v-2v-4.1h-0.8h-1.1V66l0.1-0.4h4.4l0.1,0.1L84.5,66z"/>
		<path fill="#163F67" d="M87.8,72h-0.5v-2v-4.5h0.5v4.5V72z"/>
		<path fill="#163F67" d="M96.3,72h-0.5L92,66.4h-0.1V70v2.1h-0.5v-2v-4.6H92l3.8,5.6h0.1v-5.6h0.5v4.7L96.3,72L96.3,72z"/>
		<path fill="#163F67" d="M104.3,66l-0.1,0.5h-0.1c-0.6-0.3-1.2-0.5-1.8-0.5c-0.9,0-1.5,0.3-1.9,0.8c-0.4,0.5-0.7,1.2-0.7,2.2
			c0,1.9,0.8,2.8,2.3,2.8c0.4,0,1-0.1,1.6-0.3v-0.9v-0.9h0.5v0.9V72c-0.9,0.3-1.5,0.3-2.1,0.3c-0.9,0-1.6-0.3-2.1-0.9
			c-0.5-0.6-0.7-1.4-0.7-2.4c0-1.1,0.3-2,0.9-2.6c0.5-0.6,1.3-0.9,2.3-0.9C103,65.5,103.7,65.6,104.3,66z"/>
		<path fill="#163F67" d="M108.2,72c0,0.3-0.3,0.8-0.9,1.2l-0.2-0.2v-0.1c0.3-0.3,0.6-0.6,0.6-0.9c0-0.2-0.1-0.3-0.3-0.4v-0.1
			c0.1-0.1,0.3-0.2,0.3-0.2C108.1,71.5,108.2,71.7,108.2,72z"/>
		<path fill="#163F67" d="M118.1,66h-1.1h-0.8v4.1v2h-0.5v-2v-4.1h-0.8h-1.1V66l0.1-0.4h4.4l0.1,0.1L118.1,66z"/>
		<path fill="#163F67" d="M124.3,72l-0.2-0.5l-0.5-1.5h-1.5h-1.5l-0.5,1.4l-0.2,0.6h-0.6l2.6-6.6h0.6l2.3,6.6H124.3z M122.2,66.1
			L122.2,66.1l-1.5,3.5h1.3h1.4L122.2,66.1z"/>
		<path fill="#163F67" d="M132,72h-0.7l-0.3-0.4l-1.8-2.6l-1.8,2.6l-0.3,0.4h-0.6l2.3-3.3l-2.2-3.2h0.7l0.3,0.4l1.6,2.3l1.6-2.3
			l0.3-0.4h0.6l-2.1,3.2L132,72z"/>
		<path fill="#163F67" d="M142.2,72l-0.2-0.5l-0.5-1.5H140h-1.5l-0.5,1.4l-0.2,0.6h-0.6l2.6-6.6h0.6l2.3,6.6H142.2z M140.2,66.1
			L140.2,66.1l-1.5,3.5h1.3h1.4L140.2,66.1z"/>
		<path fill="#163F67" d="M150.4,72h-0.5l-3.8-5.6H146V70v2.1h-0.5v-2v-4.6h0.6l3.8,5.6h0.1v-5.6h0.5v4.7L150.4,72L150.4,72z"/>
		<path fill="#163F67" d="M158.3,66.2c0.5,0.5,0.8,1.3,0.8,2.3c0,1.1-0.3,2-0.8,2.6c-0.5,0.6-1.3,0.9-2.3,0.9c-0.5,0-1.2,0-2-0.1v-2
			v-4.5h2.2C157.1,65.5,157.8,65.7,158.3,66.2z M157.9,70.8c0.4-0.5,0.6-1.3,0.6-2.2c0-0.9-0.2-1.6-0.6-2c-0.4-0.4-1-0.7-1.8-0.7
			c-0.4,0-0.9,0-1.7,0.1v4.1v1.5c0.6,0,1.2,0.1,1.6,0.1C156.9,71.6,157.5,71.4,157.9,70.8z"/>
		<path fill="#163F67" d="M168.2,65.7l-0.1,0.5h-0.1c-0.4-0.3-0.9-0.3-1.3-0.3c-0.3,0-0.5,0.1-0.8,0.2c-0.3,0.1-0.3,0.3-0.5,0.4
			c-0.1,0.2-0.2,0.4-0.2,0.6c0,0.2,0.1,0.4,0.2,0.5c0.1,0.1,0.3,0.3,0.4,0.4c0.2,0.1,0.4,0.3,0.8,0.4c0.3,0.2,0.7,0.3,0.9,0.5
			c0.3,0.2,0.4,0.3,0.6,0.5c0.2,0.3,0.3,0.5,0.3,0.8c0,0.3-0.1,0.6-0.3,0.9c-0.2,0.3-0.4,0.5-0.8,0.7s-0.7,0.3-1.1,0.3
			c-0.6,0-1.2-0.2-1.7-0.4l0.1-0.5h0.1c0.3,0.2,0.5,0.3,0.8,0.4c0.3,0.1,0.6,0.2,0.9,0.2c0.3,0,0.6-0.1,0.8-0.2
			c0.3-0.1,0.4-0.3,0.5-0.5c0.1-0.3,0.2-0.4,0.2-0.6c0-0.3-0.1-0.4-0.2-0.6c-0.1-0.2-0.3-0.3-0.4-0.4c-0.2-0.1-0.4-0.3-0.8-0.4
			c-0.3-0.2-0.7-0.3-0.9-0.4c-0.2-0.1-0.4-0.3-0.6-0.5c-0.2-0.2-0.3-0.5-0.3-0.8c0-0.3,0.1-0.6,0.3-0.9c0.2-0.3,0.4-0.5,0.7-0.6
			c0.3-0.2,0.7-0.3,1-0.3C167.4,65.5,167.8,65.6,168.2,65.7z"/>
		<path fill="#163F67" d="M175,72h-3.5v-2v-4.5h3.5v0.1l-0.1,0.4h-1.5H172v2.5h1.3h1.1v0.1l0,0.3H172V70v1.5h1.4h1.6v0.1V72z"/>
		<path fill="#163F67" d="M181.9,72L181.9,72c-0.1,0.1-0.3,0.2-0.4,0.2h-0.1c-0.7-0.9-1.2-1.8-1.7-2.6h-1.3v0.5v2h-0.6v-2v-4.5h1.8
			c0.6,0,1.1,0.2,1.5,0.5s0.5,0.8,0.5,1.4c0,0.5-0.1,0.9-0.3,1.3c-0.3,0.3-0.6,0.6-1,0.8C180.6,70.2,181.2,71,181.9,72z M179.7,69.1
			c0.9-0.3,1.3-0.8,1.3-1.7c0-0.9-0.5-1.4-1.5-1.5h-1.1V69L179.7,69.1z"/>
		<path fill="#163F67" d="M186,72l-2.3-6.6h0.6l0.2,0.6l1.9,5.4h0.1l2-5.4l0.2-0.6h0.6l-2.6,6.6H186z"/>
		<path fill="#163F67" d="M192.3,72h-0.5v-2v-4.5h0.5v4.5V72z"/>
		<path fill="#163F67" d="M199.9,66l-0.1,0.5h-0.1c-0.5-0.3-1-0.6-1.6-0.6c-0.8,0-1.3,0.3-1.7,0.8c-0.4,0.5-0.6,1.2-0.6,2.1
			c0,0.9,0.2,1.6,0.6,2.1c0.4,0.5,0.9,0.8,1.6,0.8c0.7,0,1.3-0.3,1.8-0.7h0.1v0.5c-0.6,0.4-1.2,0.6-1.9,0.6c-0.9,0-1.5-0.3-2-0.9
			c-0.5-0.6-0.7-1.4-0.7-2.5c0-1.1,0.3-1.9,0.8-2.5c0.5-0.6,1.2-0.9,2.1-0.9C198.8,65.5,199.4,65.6,199.9,66z"/>
		<path fill="#163F67" d="M206.1,72h-3.5v-2v-4.5h3.5v0.1l-0.1,0.4h-1.5h-1.4v2.5h1.3h1.1v0.1l-0.1,0.4H203v1.1v1.5h1.4h1.6v0.1
			L206.1,72z"/>
		<path fill="#163F67" d="M211.9,65.7l-0.1,0.5h-0.1c-0.4-0.3-0.9-0.3-1.3-0.3c-0.3,0-0.5,0.1-0.8,0.2c-0.3,0.1-0.3,0.3-0.5,0.4
			c-0.1,0.2-0.2,0.4-0.2,0.6c0,0.2,0.1,0.4,0.2,0.5c0.1,0.1,0.3,0.3,0.4,0.4c0.2,0.1,0.4,0.3,0.8,0.4c0.3,0.2,0.7,0.3,0.9,0.5
			c0.3,0.2,0.4,0.3,0.6,0.5c0.2,0.3,0.3,0.5,0.3,0.8c0,0.3-0.1,0.6-0.3,0.9c-0.2,0.3-0.4,0.5-0.8,0.7c-0.3,0.2-0.7,0.3-1.1,0.3
			c-0.6,0-1.2-0.2-1.7-0.4l0.1-0.5h0.1c0.3,0.2,0.5,0.3,0.8,0.4c0.3,0.1,0.6,0.2,0.9,0.2c0.3,0,0.6-0.1,0.8-0.2
			c0.3-0.1,0.4-0.3,0.5-0.5c0.1-0.3,0.2-0.4,0.2-0.6c0-0.3-0.1-0.4-0.2-0.6s-0.3-0.3-0.4-0.4c-0.2-0.1-0.4-0.3-0.8-0.4
			c-0.3-0.2-0.7-0.3-0.9-0.4c-0.2-0.1-0.4-0.3-0.6-0.5c-0.2-0.2-0.3-0.5-0.3-0.8c0-0.3,0.1-0.6,0.3-0.9c0.2-0.3,0.4-0.5,0.7-0.6
			c0.3-0.2,0.7-0.3,1-0.3C211.1,65.5,211.5,65.6,211.9,65.7z"/>
	</g>
	<polyline fill="#163F67" points="116,50.6 116,37.3 116,36.7 115.9,36.6 115.9,36.5 115.9,36.4 115.9,36.4 115.9,36.3 115.9,36.3 
		115.8,36.2 115.8,36.1 115.8,36.1 115.8,36 115.7,35.9 115.7,35.9 115.7,35.8 115.7,35.8 115.7,35.7 115.7,35.7 115.7,35.7 
		115.6,35.7 115.6,35.6 115.6,35.5 115.6,35.4 115.6,35.4 115.5,35.3 115.5,35.3 115.4,35.2 115.4,35.1 115.4,35.1 115.3,35 
		115.3,35 115.3,34.9 115.3,34.8 115.2,34.8 115.2,34.7 115.1,34.6 115.1,34.6 115,34.5 115,34.5 114.9,34.4 114.9,34.3 114.9,34.3 
		114.8,34.2 114.8,34.2 114.7,34.1 114.7,34.1 114.6,34 114.6,33.9 114.5,33.9 114.5,33.9 114.5,33.8 114.4,33.7 114.4,33.7 
		114.3,33.6 114.2,33.6 114.2,33.5 114.2,33.5 114.1,33.5 114.1,33.4 114,33.3 113.9,33.3 113.9,33.2 113.8,33.2 113.8,33.1 
		113.7,33.1 113.7,33.1 113.6,33 113.5,33 113.5,33 113.5,32.9 113.4,32.9 113.3,32.8 113.2,32.8 113.2,32.8 113.1,32.7 113.1,32.7 
		113,32.7 112.9,32.6 112.9,32.6 112.8,32.6 112.7,32.5 112.7,32.5 112.6,32.4 112.6,32.4 112.5,32.4 112.4,32.4 112.4,32.4 
		112.3,32.3 112.2,32.3 112.1,32.3 112.1,32.3 112,32.2 112,32.2 111.9,32.2 111.8,32.2 111.7,32.1 111.6,32.1 111.6,32.1 
		111.5,32.1 111.5,32.1 111.4,32 111.3,32 111.3,32 111.2,32 111.1,32 111,32 111,32 110.9,32 110.8,32 110.8,32 110.7,32 
		110.6,31.9 110.5,31.9 110.5,31.9 110.4,31.9 110.3,31.9 110.2,31.9 110.2,31.9 110.1,31.9 110,31.9 110,31.9 109.9,31.9 
		109.8,31.9 109.8,31.9 109.7,31.9 109.6,31.9 109.5,31.9 109.4,31.9 109.4,32 109.3,32 109.3,32 109.2,32 109.1,32 109.1,32 
		109,32 108.9,32 108.8,32 108.7,32 108.7,32 108.6,32 108.6,32.1 108.5,32.1 108.4,32.1 108.3,32.1 108.3,32.1 108.2,32.2 
		108.1,32.2 108.1,32.2 108,32.2 108,32.3 107.9,32.3 107.8,32.3 107.7,32.3 107.7,32.4 107.6,32.4 107.6,32.4 107.5,32.4 
		107.4,32.4 107.3,32.5 107.3,32.5 107.2,32.5 107.2,32.6 107.1,32.6 107,32.7 106.9,32.7 106.9,32.7 106.8,32.8 106.8,32.8 
		106.7,32.8 106.6,32.8 106.6,32.9 106.5,32.9 106.5,33 106.4,33 106.3,33 106.3,33.1 106.2,33.1 106.1,33.1 106.1,33.2 106,33.2 
		106,33.3 105.9,33.3 105.8,33.4 105.8,33.4 105.8,33.4 105.7,33.5 105.6,33.5 105.6,33.5 105.5,33.6 105.4,33.6 105.4,33.7 
		105.4,33.7 105.3,33.8 105.2,33.8 105.2,33.9 105.1,33.9 105,33.9 105,34 105,34.1 104.9,34.1 104.8,34.2 104.8,34.2 104.7,34.2 
		104.7,34.3 104.7,34.3 104.6,34.4 104.5,34.4 104.5,34.5 104.4,34.5 104.4,34.6 104.3,34.6 104.3,34.7 104.2,34.7 104.2,34.8 
		104.1,34.8 104.1,34.9 104,34.9 103.9,35 103.9,35 103.9,35.1 103.8,35.1 103.8,35.2 103.7,35.2 103.7,35.3 103.6,35.3 103.6,35.4 
		103.5,35.4 103.5,35.5 103.4,35.6 103.4,35.6 103.3,35.7 103.2,35.8 103.2,35.9 103.1,36 103,36.1 102.9,36.2 102.8,36.3 
		102.7,36.4 102.6,36.5 102.5,36.7 102.5,36.8 102.4,36.9 102.3,37 102.2,37.1 102.2,37.1 102,37.3 102,49.5 102,50.6 102,50.8 
		102,51 102,51.1 102,51.2 102,51.4 102,51.5 102.1,51.5 102.1,51.6 102.1,51.7 102.1,51.7 102.1,51.8 102.1,51.8 102.1,51.9 
		102.1,52 102.1,52.1 102.1,52.1 102.1,52.2 102.1,52.2 102.1,52.3 102.1,52.4 102.1,52.5 102.1,52.5 102.1,52.5 102.1,52.6 
		102.1,52.7 102.1,52.8 102.1,52.8 102.1,52.9 102.1,52.9 102.1,53 102.1,53.1 102.1,53.2 102.2,53.2 102.2,53.2 102.2,53.3 
		102.2,53.4 102.2,53.5 102.2,53.5 102.2,53.6 102.2,53.6 102.2,53.6 102.2,53.7 102.3,53.7 102.3,53.8 102.3,53.8 102.3,53.9 
		102.3,53.9 102.3,54 102.3,54 102.3,54 102.4,54 102.4,54.1 102.4,54.1 102.4,54.2 102.4,54.2 102.4,54.3 102.4,54.3 102.5,54.3 
		102.5,54.4 102.5,54.4 102.5,54.4 102.5,54.5 102.5,54.5 102.5,54.5 102.5,54.6 102.5,54.6 102.6,54.7 102.6,54.7 102.6,54.7 
		102.6,54.8 102.7,54.8 102.7,54.8 102.7,54.9 102.7,54.9 102.7,54.9 102.8,55 102.8,55 102.8,55.1 102.8,55.1 102.9,55.1 
		102.9,55.2 102.9,55.2 103,55.3 103,55.3 103,55.4 103.1,55.4 103.1,55.4 103.1,55.4 103.1,55.4 103.2,55.4 103.2,55.5 103.2,55.5 
		103.2,55.5 103.2,55.5 103.3,55.6 103.3,55.6 103.4,55.6 103.4,55.7 103.4,55.7 103.5,55.7 103.5,55.7 103.6,55.8 103.6,55.8 
		103.6,55.8 103.7,55.8 103.7,55.8 103.8,55.9 103.8,55.9 103.9,55.9 103.9,55.9 103.9,55.9 103.9,55.9 103.9,56 104,56 104,56 
		104.1,56 104.1,56 104.2,56 104.2,56.1 104.3,56.1 104.3,56.1 104.3,56.1 104.4,56.1 104.4,56.1 104.5,56.1 104.5,56.1 104.6,56.2 
		104.6,56.2 104.7,56.2 104.7,56.2 104.7,56.2 104.8,56.2 104.8,56.2 104.9,56.2 104.9,56.2 105,56.2 105,56.2 105.1,56.2 
		105.1,56.2 105.2,56.2 105.3,56.2 105.4,56.2 105.4,56.2 105.5,56.3 105.5,56.3 105.6,56.3 105.7,56.3 105.8,56.3 105.8,56.3 
		105.8,56.3 106,56.3 106.1,56.3 106.6,56.3 106.6,57.5 100.1,57.5 96.6,57.5 92.8,57.5 92.1,57.5 92.1,56.3 92.6,56.3 92.7,56.3 
		92.8,56.3 92.9,56.3 92.9,56.3 93,56.3 93,56.3 93.1,56.3 93.2,56.3 93.3,56.2 93.3,56.2 93.4,56.2 93.4,56.2 93.5,56.2 93.6,56.2 
		93.7,56.2 93.7,56.2 93.7,56.2 93.8,56.2 93.8,56.2 93.9,56.2 93.9,56.2 93.9,56.2 94,56.2 94,56.2 94.1,56.2 94.1,56.2 94.1,56.1 
		94.2,56.1 94.2,56.1 94.3,56.1 94.3,56.1 94.4,56.1 94.4,56.1 94.4,56.1 94.5,56 94.5,56 94.6,56 94.6,56 94.6,56 94.7,56 
		94.7,55.9 94.8,55.9 94.8,55.9 94.8,55.9 94.8,55.9 94.9,55.9 94.9,55.8 95,55.8 95,55.8 95.1,55.8 95.1,55.8 95.2,55.7 95.2,55.7 
		95.2,55.7 95.3,55.6 95.3,55.6 95.4,55.6 95.4,55.5 95.5,55.5 95.5,55.4 95.5,55.4 95.5,55.4 95.6,55.4 95.6,55.4 95.6,55.4 
		95.6,55.3 95.7,55.3 95.7,55.2 95.7,55.2 95.8,55.2 95.8,55.1 95.8,55.1 95.9,55.1 95.9,55 95.9,55 95.9,54.9 95.9,54.9 96,54.8 
		96,54.8 96,54.8 96,54.7 96.1,54.7 96.1,54.7 96.1,54.6 96.1,54.6 96.1,54.5 96.2,54.5 96.2,54.5 96.2,54.4 96.2,54.4 96.2,54.3 
		96.3,54.3 96.3,54.3 96.3,54.2 96.3,54.2 96.3,54.2 96.3,54.1 96.3,54.1 96.3,54 96.3,54 96.3,54 96.3,54 96.3,53.9 96.3,53.9 
		96.4,53.8 96.4,53.8 96.4,53.7 96.4,53.7 96.4,53.6 96.4,53.6 96.4,53.6 96.4,53.5 96.4,53.5 96.5,53.4 96.5,53.3 96.5,53.2 
		96.5,53.2 96.5,53.2 96.5,53.1 96.5,53 96.5,52.9 96.5,52.9 96.5,52.8 96.6,52.8 96.6,52.7 96.6,52.6 96.6,52.5 96.6,52.5 
		96.6,52.5 96.6,52.4 96.6,52.3 96.6,52.2 96.6,52.2 96.6,52.1 96.6,52.1 96.6,52 96.6,51.9 96.6,51.8 96.6,51.8 96.6,51.7 
		96.6,51.7 96.6,51.6 96.6,51.5 96.6,51.5 96.6,51.4 96.6,51.2 96.6,51.1 96.6,51 96.6,50.8 96.6,50.6 96.6,50.1 96.6,34 96.6,33.5 
		96.6,33.5 96.6,33.4 96.6,33.4 96.6,33.3 96.6,33.3 96.6,33.2 96.6,33.2 96.5,33.1 96.5,33.1 96.5,33.1 96.5,33 96.5,33 96.5,33 
		96.5,32.9 96.4,32.9 96.4,32.9 96.4,32.8 96.4,32.8 96.4,32.8 96.4,32.8 96.3,32.7 96.3,32.7 96.3,32.6 96.3,32.6 96.3,32.6 
		96.3,32.5 96.3,32.5 96.3,32.5 96.2,32.4 96.2,32.4 96.2,32.4 96.2,32.4 96.1,32.3 96.1,32.3 96.1,32.3 96.1,32.2 96,32.2 96,32.1 
		96,32.1 95.9,32.1 95.9,32 95.9,32 95.9,32 95.9,32 95.8,32 95.8,31.9 95.8,31.9 95.8,31.9 95.7,31.9 95.7,31.8 95.7,31.8 
		95.7,31.8 95.6,31.8 95.6,31.7 95.5,31.7 95.5,31.7 95.5,31.7 95.5,31.7 95.5,31.7 95.4,31.7 95.4,31.7 95.4,31.6 95.3,31.6 
		95.3,31.6 95.2,31.6 95.2,31.6 95.2,31.6 95.2,31.5 95.1,31.5 95.1,31.5 95,31.5 95,31.5 95,31.5 94.9,31.5 94.9,31.5 94.8,31.4 
		94.8,31.4 94.8,31.4 94.7,31.4 94.7,31.4 94.6,31.4 94.6,31.4 94.5,31.4 94.5,31.4 94.4,31.3 94.4,31.3 94.4,31.3 94.3,31.3 
		94.3,31.3 94.2,31.3 94.2,31.3 94.1,31.3 94.1,31.3 94.1,31.3 94,31.3 94,31.3 93.9,31.3 93.9,31.3 93.8,31.3 93.8,31.3 93.7,31.3 
		93.7,31.3 93.7,31.3 93.6,31.2 93.6,31.2 93.5,31.2 93.5,31.2 93.4,31.2 93.4,31.2 93.3,31.2 93.3,31.2 93.3,31.2 93.2,31.2 
		93.2,31.2 93.1,31.2 93.1,31.2 93,31.2 93,31.2 93,31.2 92.9,31.2 92.9,31.2 92.8,31.2 92.8,31.2 92.7,31.2 92.7,31.2 92.6,31.2 
		92.6,31.2 92.6,31.2 92.5,31.2 92.4,31.2 92.3,31.2 92.1,31.2 92.1,29.8 100.6,29.1 102,29.1 102,29.5 102,33.9 102,34.6 
		102.3,34.3 102.4,34.2 102.5,34 102.7,33.9 102.8,33.7 103,33.6 103.1,33.5 103.2,33.3 103.4,33.2 103.6,33.1 103.7,32.9 
		103.8,32.8 103.9,32.6 104,32.6 104.1,32.5 104.2,32.4 104.3,32.4 104.3,32.3 104.4,32.2 104.5,32.2 104.6,32.1 104.7,32 104.7,32 
		104.8,31.9 104.9,31.9 105,31.8 105,31.7 105.1,31.7 105.2,31.6 105.3,31.6 105.3,31.5 105.4,31.4 105.5,31.4 105.6,31.3 
		105.7,31.3 105.7,31.2 105.8,31.1 105.9,31.1 106,31 106.1,31 106.1,30.9 106.2,30.9 106.3,30.8 106.4,30.8 106.5,30.7 106.5,30.7 
		106.6,30.6 106.7,30.6 106.8,30.5 106.9,30.5 107,30.4 107.1,30.4 107.2,30.3 107.2,30.3 107.3,30.2 107.4,30.2 107.5,30.2 
		107.6,30.1 107.7,30.1 107.8,30 107.9,30 108,29.9 108,29.9 108.1,29.9 108.3,29.8 108.3,29.8 108.4,29.8 108.5,29.7 108.6,29.7 
		108.7,29.7 108.8,29.6 108.9,29.6 109,29.6 109.1,29.5 109.2,29.5 109.3,29.5 109.4,29.5 109.4,29.5 109.6,29.4 109.7,29.4 
		109.8,29.4 109.8,29.4 109.9,29.3 110.1,29.3 110.2,29.3 110.2,29.3 110.3,29.2 110.4,29.2 110.5,29.2 110.6,29.2 110.7,29.2 
		110.8,29.2 110.9,29.1 111,29.1 111.1,29.1 111.2,29.1 111.3,29.1 111.4,29.1 111.5,29.1 111.6,29.1 111.7,29.1 111.8,29.1 
		111.9,29.1 112,29.1 112.1,29.1 112.2,29.1 112.3,29.1 112.4,29.1 112.5,29.1 112.6,29.1 112.7,29.1 112.8,29.1 112.9,29.1 
		113,29.1 113.1,29.1 113.2,29.2 113.3,29.2 113.4,29.2 113.5,29.2 113.6,29.2 113.7,29.2 113.8,29.3 113.9,29.3 114,29.3 
		114.1,29.3 114.2,29.4 114.2,29.4 114.4,29.4 114.5,29.4 114.5,29.5 114.6,29.5 114.7,29.5 114.9,29.5 114.9,29.5 115,29.6 
		115.1,29.6 115.2,29.6 115.3,29.7 115.4,29.7 115.5,29.7 115.6,29.8 115.7,29.8 115.8,29.8 115.9,29.9 116,29.9 116,30 116.1,30 
		116.2,30 116.3,30.1 116.4,30.1 116.5,30.2 116.6,30.2 116.7,30.2 116.7,30.3 116.8,30.4 116.9,30.4 117,30.5 117.1,30.5 
		117.2,30.6 117.3,30.6 117.4,30.7 117.5,30.7 117.5,30.8 117.6,30.8 117.7,30.9 117.8,30.9 117.8,31 117.9,31.1 118,31.1 
		118.1,31.2 118.1,31.3 118.2,31.3 118.3,31.4 118.3,31.5 118.4,31.6 118.5,31.6 118.6,31.7 118.6,31.7 118.7,31.8 118.8,31.9 
		118.8,32 118.9,32 118.9,32.1 119,32.2 119.1,32.3 119.1,32.4 119.2,32.4 119.3,32.5 119.3,32.6 119.3,32.7 119.4,32.8 119.5,32.8 
		119.5,32.9 119.6,33 119.7,33.1 119.7,33.2 119.7,33.3 119.8,33.4 119.8,33.5 119.9,33.5 120,33.6 120,33.7 120,33.8 120.1,33.9 
		120.1,33.9 120.2,34 120.2,34.1 120.3,34.2 120.3,34.3 120.4,34.4 120.4,34.5 120.4,34.6 120.5,34.7 120.5,34.8 120.5,34.9 
		120.6,35 120.6,35 120.7,35.1 120.7,35.2 120.7,35.3 120.8,35.4 120.8,35.5 120.8,35.6 120.8,35.7 120.9,35.8 120.9,35.9 120.9,36 
		121,36.1 121,36.1 121,36.3 121.1,36.4 121.1,36.4 121.1,36.5 121.1,36.6 121.1,36.7 121.2,36.8 121.2,36.9 121.2,37 121.2,37.1 
		121.3,37.3 121.3,38.3 121.3,49.2 121.3,50.6 121.3,50.8 121.3,51 121.3,51.1 121.3,51.2 121.3,51.4 121.3,51.5 121.3,51.5 
		121.4,51.6 121.4,51.7 121.4,51.7 121.4,51.8 121.4,51.8 121.4,51.9 121.4,52 121.4,52.1 121.4,52.1 121.4,52.2 121.4,52.2 
		121.4,52.3 121.4,52.4 121.4,52.5 121.4,52.5 121.4,52.5 121.4,52.6 121.4,52.7 121.4,52.8 121.4,52.8 121.5,52.9 121.5,52.9 
		121.5,53 121.5,53.1 121.5,53.2 121.5,53.2 121.5,53.2 121.5,53.3 121.5,53.4 121.5,53.5 121.5,53.5 121.5,53.5 121.5,53.6 
		121.5,53.6 121.5,53.6 121.5,53.7 121.5,53.7 121.6,53.7 121.6,53.8 121.6,53.8 121.6,53.9 121.6,53.9 121.6,54 121.6,54 121.6,54 
		121.7,54.1 121.7,54.1 121.7,54.2 121.7,54.2 121.7,54.3 121.7,54.3 121.8,54.3 121.8,54.4 121.8,54.4 121.8,54.4 121.8,54.5 
		121.8,54.5 121.9,54.5 121.9,54.6 121.9,54.6 121.9,54.7 121.9,54.7 121.9,54.7 121.9,54.7 121.9,54.8 122,54.8 122,54.8 122,54.9 
		122,54.9 122,54.9 122,55 122.1,55 122.1,55 122.1,55.1 122.2,55.1 122.2,55.1 122.2,55.2 122.2,55.2 122.3,55.3 122.3,55.3 
		122.3,55.4 122.4,55.4 122.4,55.4 122.4,55.4 122.4,55.4 122.5,55.4 122.5,55.5 122.5,55.5 122.5,55.5 122.6,55.5 122.6,55.6 
		122.6,55.6 122.7,55.6 122.7,55.7 122.7,55.7 122.8,55.7 122.8,55.7 122.8,55.8 122.9,55.8 122.9,55.8 123,55.8 123,55.8 123,55.8 
		123.1,55.9 123.1,55.9 123.2,55.9 123.2,55.9 123.2,55.9 123.3,55.9 123.3,56 123.3,56 123.3,56 123.4,56 123.4,56 123.5,56 
		123.5,56.1 123.6,56.1 123.6,56.1 123.7,56.1 123.7,56.1 123.7,56.1 123.8,56.1 123.8,56.1 123.9,56.2 123.9,56.2 124,56.2 
		124,56.2 124.1,56.2 124.1,56.2 124.1,56.2 124.2,56.2 124.2,56.2 124.3,56.2 124.3,56.2 124.4,56.2 124.4,56.2 124.5,56.2 
		124.6,56.2 124.7,56.2 124.7,56.2 124.8,56.3 124.8,56.3 124.9,56.3 125,56.3 125,56.3 125.1,56.3 125.2,56.3 125.3,56.3 
		125.4,56.3 125.9,56.3 125.9,57.5 121.3,57.5 116,57.5 111.4,57.5 111.4,56.3 111.9,56.3 112,56.3 112.1,56.3 112.2,56.3 
		112.2,56.3 112.3,56.3 112.4,56.3 112.4,56.3 112.5,56.3 112.6,56.2 112.6,56.2 112.7,56.2 112.7,56.2 112.8,56.2 112.9,56.2 
		112.9,56.2 113,56.2 113.1,56.2 113.1,56.2 113.1,56.2 113.2,56.2 113.2,56.2 113.2,56.2 113.3,56.2 113.3,56.2 113.4,56.2 
		113.4,56.2 113.5,56.1 113.5,56.1 113.5,56.1 113.6,56.1 113.6,56.1 113.7,56.1 113.7,56.1 113.8,56.1 113.8,56 113.8,56 113.9,56 
		113.9,56 113.9,56 114,56 114,55.9 114.1,55.9 114.1,55.9 114.2,55.9 114.2,55.9 114.2,55.8 114.3,55.8 114.3,55.8 114.4,55.8 
		114.4,55.8 114.5,55.7 114.5,55.7 114.5,55.7 114.6,55.6 114.6,55.6 114.7,55.6 114.7,55.5 114.8,55.5 114.8,55.4 114.9,55.4 
		114.9,55.4 114.9,55.3 114.9,55.3 115,55.3 115,55.2 115,55.2 115,55.2 115.1,55.2 115.1,55.1 115.1,55.1 115.2,55.1 115.2,55 
		115.2,55 115.3,54.9 115.3,54.9 115.3,54.8 115.3,54.8 115.3,54.8 115.3,54.7 115.4,54.7 115.4,54.7 115.4,54.6 115.4,54.6 
		115.4,54.5 115.5,54.5 115.5,54.5 115.5,54.4 115.5,54.4 115.5,54.3 115.5,54.3 115.6,54.3 115.6,54.2 115.6,54.2 115.6,54.2 
		115.6,54.1 115.6,54.1 115.6,54 115.6,54 115.6,54 115.6,53.9 115.6,53.9 115.7,53.8 115.7,53.8 115.7,53.7 115.7,53.7 115.7,53.6 
		115.7,53.6 115.7,53.6 115.7,53.5 115.7,53.5 115.8,53.4 115.8,53.3 115.8,53.2 115.8,53.2 115.8,53.2 115.8,53.1 115.8,53 
		115.8,52.9 115.8,52.9 115.8,52.8 115.9,52.8 115.9,52.7 115.9,52.6 115.9,52.5 115.9,52.5 115.9,52.5 115.9,52.4 115.9,52.3 
		115.9,52.2 115.9,52.2 115.9,52.1 115.9,52.1 115.9,52 115.9,51.9 115.9,51.8 115.9,51.8 115.9,51.7 115.9,51.7 115.9,51.6 
		115.9,51.5 115.9,51.5 115.9,51.4 115.9,51.2 116,51.1 116,51 116,50.8 116,50.6 	"/>
	<polyline fill="#163F67" points="88.3,40.7 68.4,40.7 68,40.7 68,41.2 68,41.7 68,41.9 68,42.2 68.1,42.5 68.1,42.7 68.1,43 
		68.1,43.2 68.1,43.5 68.2,43.7 68.2,43.9 68.2,44 68.2,44.1 68.2,44.3 68.2,44.4 68.2,44.5 68.3,44.7 68.3,44.8 68.3,44.9 68.3,45 
		68.3,45.2 68.4,45.3 68.4,45.4 68.4,45.6 68.4,45.7 68.4,45.8 68.4,45.9 68.4,46.1 68.5,46.2 68.5,46.3 68.5,46.4 68.6,46.6 
		68.6,46.7 68.6,46.8 68.7,47 68.7,47.1 68.7,47.2 68.8,47.3 68.8,47.4 68.8,47.6 68.8,47.7 68.9,47.8 68.9,47.9 69,48.1 69,48.2 
		69.1,48.3 69.1,48.4 69.1,48.5 69.2,48.7 69.2,48.8 69.3,48.9 69.4,49 69.4,49.1 69.5,49.2 69.5,49.4 69.6,49.5 69.6,49.6 
		69.7,49.7 69.8,49.8 69.8,50 69.9,50 69.9,50.2 70,50.3 70.1,50.4 70.1,50.5 70.2,50.6 70.2,50.7 70.3,50.8 70.4,51 70.5,51.1 
		70.5,51.2 70.6,51.3 70.7,51.4 70.7,51.5 70.8,51.6 70.9,51.7 71,51.8 71,51.9 71.1,52 71.2,52.1 71.3,52.2 71.4,52.3 71.5,52.4 
		71.5,52.5 71.6,52.6 71.7,52.7 71.8,52.8 71.9,52.9 72,53 72,53.1 72.1,53.2 72.3,53.2 72.4,53.3 72.4,53.4 72.5,53.5 72.6,53.6 
		72.7,53.7 72.8,53.8 72.9,53.9 73,53.9 73.1,54 73.2,54.1 73.3,54.2 73.5,54.2 73.5,54.3 73.6,54.4 73.8,54.4 73.9,54.5 74,54.6 
		74.1,54.7 74.2,54.7 74.3,54.8 74.4,54.9 74.5,54.9 74.6,55 74.8,55.1 74.9,55.1 75,55.2 75.1,55.2 75.2,55.3 75.3,55.3 75.4,55.4 
		75.6,55.4 75.7,55.5 75.8,55.5 75.9,55.6 76.1,55.6 76.2,55.7 76.3,55.7 76.4,55.8 76.5,55.8 76.7,55.8 76.8,55.8 76.9,55.9 
		77.1,55.9 77.2,55.9 77.3,56 77.4,56 77.5,56 77.7,56.1 77.8,56.1 77.9,56.1 78.1,56.1 78.2,56.1 78.3,56.1 78.4,56.2 78.6,56.2 
		78.7,56.2 78.8,56.2 79,56.2 79.1,56.2 79.2,56.2 79.4,56.2 79.5,56.2 79.6,56.2 79.7,56.2 79.9,56.2 80,56.1 80.1,56.1 80.2,56.1 
		80.4,56.1 80.5,56.1 80.6,56.1 80.8,56 80.9,56 81,56 81.2,56 81.3,55.9 81.4,55.9 81.5,55.9 81.6,55.8 81.8,55.8 81.9,55.8 
		82,55.7 82.1,55.7 82.3,55.6 82.4,55.6 82.5,55.5 82.6,55.5 82.7,55.4 82.9,55.4 83,55.4 83.1,55.3 83.2,55.3 83.3,55.2 83.3,55.2 
		83.4,55.2 83.4,55.1 83.5,55.1 83.6,55.1 83.6,55.1 83.7,55 83.7,55 83.8,55 83.9,54.9 84,54.8 84.1,54.7 84.2,54.7 84.3,54.6 
		84.4,54.5 84.5,54.4 84.6,54.3 84.7,54.3 84.9,54.2 84.9,54.1 85,54 85.2,54 85.2,53.9 85.3,53.8 85.4,53.7 85.5,53.6 85.6,53.6 
		85.7,53.5 85.8,53.4 85.9,53.3 86,53.2 86.1,53.1 86.2,53 86.3,52.9 86.4,52.9 86.5,52.8 86.7,52.5 86.8,52.4 87,52.2 87.2,52 
		87.4,51.8 87.5,51.6 87.7,51.4 87.9,51.3 88.1,51.1 88.4,50.7 88.8,50.3 88.8,51.8 88.8,52.3 88.4,52.8 88.2,53 88,53.2 87.8,53.5 
		87.7,53.6 87.6,53.7 87.5,53.8 87.4,54 87.3,54 87.2,54.2 87.1,54.3 87,54.4 86.9,54.5 86.7,54.6 86.7,54.7 86.6,54.8 86.4,54.9 
		86.3,55 86.2,55.1 86.1,55.2 86,55.3 85.9,55.4 85.8,55.5 85.6,55.6 85.5,55.7 85.4,55.8 85.3,55.9 85.2,56 85,56.1 84.9,56.2 
		84.8,56.2 84.7,56.3 84.5,56.4 84.4,56.5 84.3,56.5 84.1,56.6 84,56.7 83.9,56.8 83.8,56.9 83.6,56.9 83.5,57 83.3,57.1 83.2,57.1 
		83,57.2 82.9,57.3 82.8,57.3 82.7,57.4 82.5,57.4 82.3,57.5 82.2,57.6 82.1,57.6 81.9,57.6 81.8,57.7 81.6,57.7 81.5,57.8 
		81.3,57.8 81.2,57.9 81.1,57.9 80.9,58 80.8,58 80.6,58 80.5,58 80.3,58.1 80.1,58.1 80,58.1 79.9,58.1 79.7,58.2 79.6,58.2 
		79.4,58.2 79.3,58.2 79.1,58.2 79,58.2 78.8,58.3 78.6,58.3 78.5,58.3 78.3,58.3 78.2,58.3 78,58.3 77.9,58.3 77.7,58.3 77.6,58.3 
		77.4,58.3 77.3,58.3 77.1,58.3 77,58.3 76.8,58.3 76.7,58.3 76.5,58.3 76.4,58.3 76.2,58.3 76.1,58.2 75.9,58.2 75.7,58.2 
		75.6,58.2 75.4,58.2 75.3,58.2 75.2,58.2 75,58.1 74.9,58.1 74.7,58.1 74.6,58.1 74.4,58 74.2,58 74.1,58 73.9,58 73.8,58 
		73.7,57.9 73.5,57.9 73.4,57.9 73.2,57.8 73.1,57.8 72.9,57.7 72.8,57.7 72.6,57.6 72.5,57.6 72.4,57.6 72.2,57.5 72,57.5 
		71.9,57.4 71.7,57.4 71.6,57.3 71.5,57.3 71.3,57.2 71.2,57.2 71,57.1 70.9,57 70.8,57 70.6,56.9 70.5,56.9 70.4,56.8 70.2,56.7 
		70.1,56.6 69.9,56.6 69.8,56.5 69.7,56.4 69.5,56.4 69.4,56.3 69.3,56.2 69.1,56.1 69.1,56.1 68.9,56 68.8,55.9 68.7,55.8 
		68.5,55.7 68.4,55.6 68.3,55.5 68.2,55.4 68,55.4 67.9,55.3 67.8,55.2 67.7,55.1 67.6,55 67.4,54.9 67.3,54.8 67.2,54.7 67.1,54.6 
		67,54.5 66.9,54.4 66.8,54.3 66.6,54.2 66.6,54.1 66.4,54 66.3,53.9 66.2,53.7 66.1,53.6 66,53.5 65.9,53.4 65.8,53.3 65.7,53.2 
		65.6,53.1 65.5,52.9 65.4,52.8 65.3,52.7 65.2,52.6 65.1,52.5 65.1,52.3 65,52.2 64.9,52.1 64.8,52 64.7,51.8 64.6,51.7 64.5,51.6 
		64.4,51.4 64.4,51.3 64.3,51.2 64.2,51.1 64.1,50.9 64,50.8 64,50.7 63.9,50.5 63.8,50.4 63.8,50.3 63.7,50.1 63.6,50 63.6,49.9 
		63.5,49.7 63.5,49.6 63.4,49.4 63.3,49.3 63.3,49.2 63.3,49 63.2,48.9 63.2,48.7 63.1,48.6 63.1,48.4 63,48.3 63,48.1 62.9,48 
		62.9,47.8 62.9,47.7 62.9,47.5 62.8,47.4 62.8,47.3 62.8,47.1 62.7,47 62.7,46.8 62.7,46.7 62.7,46.5 62.6,46.3 62.6,46.2 62.6,46 
		62.6,45.9 62.6,45.7 62.6,45.6 62.5,45.4 62.5,45.3 62.5,45.2 62.5,45 62.5,44.8 62.5,44.7 62.5,44.5 62.5,44.4 62.5,44.2 
		62.5,44.1 62.5,43.9 62.5,43.7 62.5,43.6 62.5,43.5 62.5,43.3 62.5,43.2 62.5,43 62.5,42.9 62.5,42.7 62.5,42.6 62.5,42.4 
		62.5,42.3 62.6,42.1 62.6,41.9 62.6,41.8 62.6,41.6 62.7,41.5 62.7,41.4 62.7,41.2 62.8,41.1 62.8,40.9 62.8,40.8 62.9,40.6 
		62.9,40.4 62.9,40.3 62.9,40.2 63,40 63,39.9 63.1,39.7 63.1,39.6 63.2,39.4 63.2,39.3 63.2,39.1 63.3,39 63.3,38.9 63.3,38.7 
		63.4,38.6 63.4,38.4 63.5,38.2 63.5,38.1 63.6,38 63.6,37.9 63.7,37.7 63.7,37.5 63.8,37.4 63.9,37.3 63.9,37.1 64,37 64,36.9 
		64.1,36.7 64.2,36.6 64.3,36.4 64.4,36.3 64.4,36.2 64.5,36.1 64.6,35.9 64.7,35.8 64.7,35.7 64.8,35.6 64.9,35.4 65,35.3 
		65.1,35.2 65.1,35 65.2,34.9 65.3,34.8 65.4,34.7 65.5,34.6 65.6,34.4 65.7,34.3 65.8,34.2 65.9,34.1 66,33.9 66.1,33.9 66.2,33.7 
		66.3,33.6 66.4,33.5 66.5,33.4 66.6,33.3 66.7,33.1 66.8,33.1 66.9,32.9 67,32.8 67.1,32.8 67.2,32.6 67.3,32.5 67.4,32.4 
		67.6,32.3 67.7,32.2 67.8,32.1 67.9,32 68,31.9 68.1,31.8 68.3,31.7 68.4,31.7 68.5,31.6 68.6,31.5 68.8,31.4 68.9,31.3 69,31.2 
		69.1,31.1 69.3,31 69.4,30.9 69.5,30.9 69.7,30.8 69.8,30.7 69.9,30.7 70.1,30.6 70.2,30.5 70.3,30.5 70.5,30.4 70.6,30.3 
		70.7,30.2 70.9,30.2 71,30.2 71.2,30.1 71.3,30 71.4,30 71.6,29.9 71.7,29.9 71.9,29.8 72,29.8 72.1,29.7 72.3,29.7 72.4,29.6 
		72.6,29.6 72.8,29.5 72.9,29.5 73,29.5 73.2,29.5 73.3,29.4 73.5,29.4 73.6,29.4 73.8,29.3 73.9,29.3 74.1,29.3 74.2,29.2 
		74.4,29.2 74.6,29.2 74.7,29.2 74.8,29.1 75,29.1 75.1,29.1 75.3,29.1 75.4,29.1 75.6,29.1 75.7,29.1 75.9,29.1 76.1,29.1 
		76.2,29.1 76.4,29.1 76.5,29.1 76.7,29.1 76.8,29.1 77,29.1 77.1,29.1 77.3,29.1 77.4,29.1 77.6,29.1 77.7,29.1 77.9,29.2 78,29.2 
		78.2,29.2 78.3,29.2 78.5,29.3 78.6,29.3 78.8,29.3 78.9,29.4 79.1,29.4 79.2,29.4 79.4,29.5 79.5,29.5 79.7,29.5 79.8,29.6 
		80,29.6 80.1,29.7 80.2,29.7 80.4,29.8 80.5,29.8 80.7,29.8 80.8,29.9 81,30 81.1,30 81.2,30.1 81.4,30.2 81.5,30.2 81.6,30.3 
		81.8,30.3 81.9,30.4 82.1,30.5 82.2,30.6 82.3,30.6 82.5,30.7 82.6,30.8 82.7,30.9 82.9,30.9 83,31 83.1,31.1 83.3,31.2 83.4,31.3 
		83.5,31.3 83.6,31.4 83.8,31.5 83.9,31.6 84,31.7 84.1,31.8 84.2,31.9 84.3,32 84.5,32.1 84.6,32.2 84.7,32.3 84.8,32.4 84.9,32.5 
		85,32.6 85.1,32.7 85.2,32.8 85.3,32.9 85.5,33.1 85.6,33.1 85.6,33.3 85.8,33.4 85.9,33.5 85.9,33.6 86,33.8 86.1,33.9 86.3,34 
		86.3,34.1 86.4,34.2 86.5,34.3 86.6,34.5 86.7,34.6 86.7,34.7 86.8,34.9 86.9,35 87,35.1 87.1,35.3 87.1,35.4 87.2,35.5 87.3,35.7 
		87.4,35.8 87.4,35.9 87.5,36.1 87.5,36.2 87.6,36.4 87.7,36.5 87.7,36.6 87.8,36.8 87.8,36.9 87.9,37.1 87.9,37.2 88,37.4 88,37.5 
		88,37.6 88.1,37.8 88.1,37.9 88.1,37.9 88.1,38 88.1,38.1 88.1,38.2 88.1,38.2 88.1,38.3 88.2,38.4 88.2,38.5 88.2,38.6 88.2,38.6 
		88.2,38.7 88.2,38.8 88.2,38.9 88.2,38.9 88.2,39 88.3,39.1 88.3,39.2 88.3,39.3 88.3,39.4 88.3,39.6 88.3,39.7 88.3,39.9 
		88.3,40.1 88.3,40.2 88.3,40.4 88.3,40.7 	"/>
	<path fill="#FFFFFF" d="M68,38.1c0-4.1,3.3-7.5,7.5-7.5c4.1,0,7.5,3.2,7.5,7.4l0,0.3l0,1l-0.8,0l-14.2,0l0-0.2v-0.7L68,38.1z"/>
	<path fill="#163F67" d="M195,31.3l0-1.5l9.5-0.9l1.4,0l0.1,5.6l3.6-2.9c0,0,4.2-3.1,5.9-2.8c1.6,0.3,1.2-0.3,5,2.2l-2.4,5.2
		c0,0-4.7-2.8-6.9-2.6S206,37,206,37l0,14.2c0,0,0,2.7,0.9,4s3.6,1.3,3.6,1.3l0,1.6H196l0-1.6c0,0,2.6-0.3,3.6-1.3
		c0.9-0.9,0.9-3.7,0.9-4.1c0-0.3,0-17.5,0-17.5s0-2.3-4.2-2.3C195.6,31.3,195,31.3,195,31.3z"/>
</g>
</svg>
