<?xml version="1.0" encoding="utf-8"?>
<!-- Generator: Adobe Illustrator 17.1.0, SVG Export Plug-In . SVG Version: 6.00 Build 0)  -->
<!DOCTYPE svg PUBLIC "-//W3C//DTD SVG 1.1//EN" "http://www.w3.org/Graphics/SVG/1.1/DTD/svg11.dtd">
<svg version="1.1" id="Capa_1" xmlns="http://www.w3.org/2000/svg" xmlns:xlink="http://www.w3.org/1999/xlink" x="0px" y="0px"
	 width="246px" height="89px" viewBox="0 0 246 89" enable-background="new 0 0 246 89" xml:space="preserve">
<g>
	<path fill="#163F67" d="M191.3,50.7l-0.4,0.4l-0.1,0.2l-0.2,0.1l-0.2,0.2l-0.2,0.2l-0.1,0.2l-0.2,0.2l-0.2,0.2l-0.2,0.1l-0.1,0.3
		l-0.1,0.1h-0.1l-0.1,0.1l-0.1,0.1l-0.1,0.1l-0.1,0.1l-0.1,0.1l-0.1,0.1l-0.1,0.1h-0.1l-0.1,0.1l-0.1,0.1l-0.1,0.1L188,54h-0.1
		l-0.1,0.1l-0.1,0.1l-0.1,0.1h-0.1l-0.1,0.1l-0.1,0.1l-0.1,0.1l-0.1,0.1H187l-0.1,0.1l-0.1,0.1l-0.1,0.1h-0.1h-0.1v0.1h-0.1h-0.1
		v0.1h-0.1l-0.1,0.1H186l-0.1,0.1h-0.1h-0.2l-0.1,0.1h-0.1l-0.1,0.1h-0.2l-0.1,0.1h-0.1l-0.1,0.1h-0.1h-0.2l-0.1,0.1h-0.1h-0.1
		L184,56h-0.1h-0.1h-0.2l-0.1,0.1h-0.1h-0.2h-0.1H183h-0.1l-0.1,0.1h-0.2h-0.1h-0.1h-0.2h-0.1H182h-0.2h-0.1h-0.1h-0.2h-0.1
		l-0.1-0.1h-0.1H181h-0.2h-0.1h-0.1l-0.2-0.1h-0.1h-0.1l-0.2-0.1h-0.1h-0.1l-0.1-0.1h-0.1h-0.2h-0.1l-0.1-0.1h-0.1l-0.2-0.1h-0.1
		l-0.1-0.1h-0.1l-0.1-0.1h-0.2l-0.1-0.1h-0.1l-0.1-0.1h-0.1l-0.2-0.1l-0.2-0.1l-0.1-0.1h-0.1l-0.1-0.1l-0.1-0.1H177l-0.1-0.1
		l-0.2-0.1l-0.1-0.1h-0.1l-0.1-0.1l-0.1-0.1h-0.1l-0.1-0.1L176,54l-0.1-0.1h-0.1l-0.1-0.1l-0.1-0.1l-0.1-0.1l-0.1-0.1l-0.1-0.1
		l-0.1-0.1v-0.1H175l-0.1-0.1l-0.1-0.1v-0.1l-0.1-0.1l-0.1-0.1l-0.1-0.1l-0.1-0.1v-0.1l-0.1-0.1l-0.1-0.1l-0.1-0.1L174,52l-0.1-0.1
		v-0.1l-0.1-0.1l-0.1-0.1l-0.1-0.1v-0.1l-0.1-0.1l-0.1-0.1v-0.1l-0.1-0.1l-0.1-0.2l-0.1-0.1v-0.1l-0.1-0.1v-0.1l-0.1-0.1l-0.1-0.1
		l-0.1-0.2l-0.1-0.2v-0.1l-0.1-0.1v-0.1l-0.1-0.1l-0.1-0.2v-0.1V49l-0.1-0.1l-0.1-0.1v-0.1l-0.1-0.2v-0.1l-0.1-0.1v-0.1v-0.1
		l-0.1-0.2v-0.1l-0.1-0.1v-0.1v-0.2l-0.1-0.1v-0.1v-0.1l-0.1-0.1v-0.2v-0.1v-0.1l-0.1-0.2v-0.1v-0.1l-0.1-0.1v-0.2v-0.1v-0.1
		l-0.1-0.1v-0.2v-0.1v-0.1V45v-0.1v-0.1v-0.1l-0.1-0.2v-0.1v-0.1v-0.2V44v-0.1v-0.2l-0.1-0.2v-0.3V43v-0.3v-0.2l-0.1-0.3v-0.3v-0.2
		v-0.5v-0.5h0.4h19.9v-0.3v-0.2v-0.1v-0.2v-0.2v-0.1v-0.2v-0.1v-0.1v-0.1l-0.1-0.1v-0.1v-0.1v-0.1v-0.1v-0.1v-0.1l-0.1-0.1v-0.1
		v-0.1V38v-0.1l-0.1-0.1v-0.2v-0.1v-0.1l-0.1-0.2v-0.1l-0.1-0.2l-0.1-0.1v-0.2l-0.1-0.1v-0.1l-0.1-0.2v-0.1l-0.1-0.2l-0.1-0.1v-0.1
		l-0.1-0.2l-0.1-0.1v-0.1l-0.1-0.2l-0.1-0.1l-0.1-0.1l-0.1-0.2v-0.1l-0.1-0.1l-0.1-0.2l-0.1-0.1l-0.1-0.1l-0.1-0.1l-0.1-0.1
		l-0.1-0.1l-0.1-0.2l-0.1-0.1v-0.1l-0.2-0.1l-0.1-0.2l-0.2-0.2l-0.1-0.1l-0.1-0.1l-0.1-0.1l-0.1-0.1l-0.1-0.1l-0.1-0.1l-0.1-0.1
		l-0.2-0.1l-0.1-0.1l-0.1-0.1l-0.1-0.1l-0.1-0.1l-0.1-0.1l-0.2-0.1l-0.1-0.1l-0.1-0.1h-0.2v-0.1l-0.2-0.1l-0.1-0.1l-0.1-0.1h-0.2
		l-0.1-0.1l-0.1-0.1l-0.2-0.1h-0.1l-0.1-0.1l-0.2-0.1l-0.1-0.1h-0.2l-0.1-0.1h-0.1l-0.2-0.1L184,30h-0.1l-0.2-0.1l-0.1-0.1h-0.2
		h-0.1l-0.2-0.1H183l-0.1-0.1h-0.2l-0.2-0.1h-0.1h-0.2l-0.1-0.1H182h-0.2l-0.1-0.1h-0.2h-0.1l-0.2-0.1H181h-0.1h-0.2l-0.1-0.1h-0.1
		h-0.2h-0.1H180h-0.1h-0.2h-0.1h-0.2h-0.2h-0.1h-0.2h-0.1h-0.2h-0.1h-0.2h-0.1H178h-0.1h-0.2l-0.1,0.1h-0.2h-0.1h-0.2l-0.1,0.1h-0.2
		h-0.2l-0.1,0.1h-0.1h-0.2l-0.1,0.1h-0.2h-0.1h-0.2l-0.1,0.1h-0.2l-0.1,0.1H175l-0.1,0.1h-0.1l-0.2,0.1h-0.2l-0.1,0.1h-0.1l-0.1,0.1
		l-0.2,0.1h-0.2h-0.1l-0.1,0.1l-0.1,0.1l-0.2,0.1h-0.1l-0.1,0.1l-0.2,0.1h-0.1l-0.1,0.1l-0.2,0.1h-0.1l-0.1,0.1l-0.2,0.1l-0.1,0.1
		l-0.1,0.1l-0.2,0.1l-0.1,0.1l-0.1,0.1l-0.1,0.1h-0.1l-0.2,0.1l-0.1,0.1l-0.1,0.1l-0.1,0.1l-0.1,0.1l-0.2,0.1l-0.1,0.1l-0.1,0.1
		l-0.1,0.1l-0.1,0.2h-0.1l-0.1,0.1l-0.1,0.2h-0.1l-0.1,0.2l-0.2,0.1v0.1l-0.1,0.1l-0.1,0.1l-0.1,0.2h-0.1l-0.1,0.2l-0.1,0.1
		l-0.1,0.1l-0.1,0.1l-0.1,0.2l-0.1,0.1l-0.1,0.1l-0.1,0.1L168,35l-0.1,0.2v0.1l-0.1,0.1l-0.1,0.2l-0.1,0.1l-0.1,0.1v0.1l-0.1,0.2
		l-0.1,0.1l-0.1,0.1l-0.1,0.1v0.2l-0.1,0.1l-0.1,0.2V37l-0.1,0.1v0.2l-0.1,0.1l-0.1,0.1v0.2l-0.1,0.2V38l-0.1,0.1v0.1l-0.1,0.2v0.2
		l-0.1,0.1v0.2l-0.1,0.1v0.1l-0.1,0.2v0.1v0.2v0.1l-0.1,0.2V40l-0.1,0.2v0.1v0.1l-0.1,0.2v0.2v0.1v0.2l-0.1,0.1v0.2v0.1l-0.1,0.1
		v0.2v0.1v0.2l-0.1,0.2v0.1v0.2v0.1v0.2V43v0.2v0.1v0.2v0.1v0.1v0.2v0.2v0.1v0.2v0.1v0.2v0.1V45v0.2v0.1v0.1l0.1,0.2v0.1v0.2V46v0.2
		v0.1l0.1,0.2v0.2v0.1V47l0.1,0.1v0.2v0.1v0.1v0.2l0.1,0.1V48l0.1,0.1v0.2l0.1,0.1v0.2v0.1l0.1,0.2V49l0.1,0.2v0.1l0.1,0.1l0.1,0.2
		v0.1l0.1,0.2V50l0.1,0.1l0.1,0.2v0.1l0.1,0.1l0.1,0.2v0.1l0.1,0.1l0.1,0.2v0.1l0.1,0.1l0.1,0.1l0.1,0.2l0.1,0.1l0.1,0.1l0.1,0.2
		l0.1,0.1l0.1,0.1v0.1l0.1,0.2l0.1,0.1l0.1,0.1l0.1,0.1l0.1,0.1l0.1,0.2l0.1,0.1l0.1,0.1l0.1,0.1l0.1,0.1l0.1,0.1l0.1,0.1l0.1,0.2
		l0.1,0.1l0.1,0.1l0.1,0.1l0.2,0.1v0.1l0.2,0.1l0.1,0.1l0.1,0.1l0.1,0.1l0.1,0.1l0.1,0.1l0.2,0.1l0.1,0.1l0.1,0.1l0.1,0.1h0.2
		l0.1,0.1l0.1,0.1l0.1,0.1l0.1,0.1l0.2,0.1l0.1,0.1l0.1,0.1h0.1l0.2,0.1l0.1,0.1l0.1,0.1h0.2l0.1,0.1l0.1,0.1h0.2l0.1,0.1l0.2,0.1
		l0.1,0.1h0.1l0.2,0.1h0.1l0.1,0.1l0.2,0.1h0.1l0.2,0.1h0.1l0.1,0.1h0.2l0.1,0.1h0.2l0.1,0.1h0.2h0.1l0.1,0.1h0.2l0.1,0.1h0.2
		l0.2,0.1h0.1h0.2l0.1,0.1h0.1h0.2h0.1h0.2l0.1,0.1h0.2h0.1h0.2l0.2,0.1h0.1h0.1h0.2h0.1h0.2h0.1l0.2,0.1h0.1h0.2h0.2h0.1h0.2h0.1
		h0.2h0.1h0.2h0.1h0.2h0.1h0.2h0.1h0.2h0.1h0.2l0.1-0.1h0.2h0.1h0.2h0.2h0.1l0.2-0.1h0.1h0.1h0.2l0.1-0.1h0.2h0.1h0.2l0.2-0.1h0.1
		l0.1-0.1h0.2l0.1-0.1h0.2l0.1-0.1h0.2h0.1l0.1-0.1l0.2-0.1h0.1l0.2-0.1h0.1l0.1-0.1l0.2-0.1h0.1l0.2-0.1l0.1-0.1h0.1l0.2-0.1
		l0.1-0.1l0.1-0.1l0.2-0.1h0.1l0.1-0.1l0.2-0.1v-0.1h0.2l0.1-0.1L188,56l0.2-0.1l0.1-0.1l0.1-0.1l0.1-0.1l0.2-0.1v-0.1l0.2-0.1
		l0.1-0.1l0.1-0.1l0.1-0.1l0.1-0.1l0.2-0.1v-0.1l0.1-0.1l0.2-0.1v-0.1l0.2-0.1l0.1-0.1l0.1-0.2h0.1l0.1-0.2l0.1-0.1l0.1-0.1l0.1-0.1
		l0.2-0.3l0.2-0.2l0.2-0.2l0.3-0.5v-0.5v-1.5L191.3,50.7z M170.9,39.1v-0.7v-0.3c0-4.1,3.3-7.5,7.5-7.5c4.1,0,7.5,3.2,7.5,7.4v0.3v1
		h-0.8h-14.2V39.1z"/>
	<polygon fill="#163F67" points="32.7,57.5 32.7,56.3 31.6,56.3 31.5,56.3 31.4,56.3 31.4,56.3 31.3,56.3 31.2,56.3 31.2,56.2 
		31.1,56.2 31.1,56.2 31,56.2 31,56.2 31,56.2 31,56.2 30.9,56.2 30.9,56.2 30.8,56.2 30.8,56.2 30.7,56.2 30.7,56.2 30.7,56.2 
		30.6,56.2 30.6,56.1 30.6,56.1 30.5,56.1 30.5,56.1 30.4,56.1 30.4,56.1 30.3,56.1 30.3,56 30.3,56 30.3,56 30.2,56 30.2,56 
		30.1,56 30.1,55.9 30.1,55.9 30,55.9 30,55.9 29.9,55.8 29.9,55.8 29.9,55.8 29.8,55.8 29.8,55.8 29.8,55.8 29.7,55.8 29.7,55.7 
		29.7,55.7 29.6,55.7 29.6,55.6 29.6,55.6 29.6,55.6 29.5,55.6 29.5,55.5 29.4,55.5 29.4,55.4 29.3,55.4 29.3,55.4 29.3,55.4 
		29.2,55.4 29.2,55.3 29.2,55.3 29.2,55.3 29.2,55.3 29.2,55.2 29.1,55.2 29.1,55.1 29.1,55.1 29,55.1 29,55.1 29,55.1 29,55 
		28.9,55 28.9,54.9 28.9,54.9 28.8,54.8 28.8,54.8 28.8,54.8 28.8,54.7 28.8,54.7 28.8,54.7 28.7,54.7 28.7,54.6 28.7,54.6 
		28.7,54.5 28.6,54.5 28.6,54.4 28.6,54.4 28.6,54.3 28.5,54.3 28.5,54.3 28.5,54.2 28.5,54.2 28.5,54.1 28.5,54.1 28.5,54 28.4,54 
		28.4,54 28.4,54 28.4,53.9 28.4,53.9 28.4,53.8 28.3,53.8 28.3,53.7 28.3,53.7 28.3,53.6 28.3,53.6 28.3,53.6 28.2,53.6 28.2,53.5 
		28.2,53.5 28.2,53.4 28.2,53.4 28.2,53.3 28.2,53.3 28.1,53.2 28.1,53.2 28.1,53.1 28.1,53 28.1,53 28.1,52.9 28.1,52.9 28.1,52.8 
		28.1,52.8 28.1,52.7 28.1,52.6 28,52.6 28,52.5 28,52.5 28,52.4 28,52.3 28,52.3 28,52.2 28,52.1 28,52.1 28,52.1 28,52 28,51.9 
		27.9,51.9 27.9,51.8 27.9,51.8 27.9,51.7 27.9,51.6 27.9,51.6 27.9,51.5 27.9,51.4 27.9,51.4 27.9,51.3 27.9,51.3 27.9,51.1 
		27.9,51.1 27.9,50.9 27.9,50.8 27.8,50.6 27.8,48.5 27.8,22.5 27.8,20 27.9,19.7 27.9,19.6 27.9,19.5 27.9,19.3 27.9,19.2 
		27.9,19.2 27.9,19.1 27.9,19 27.9,19 27.9,18.9 27.9,18.9 27.9,18.8 27.9,18.7 27.9,18.7 27.9,18.6 28,18.5 28,18.5 28,18.5 
		28,18.4 28,18.3 28,18.3 28,18.2 28,18.1 28,18.1 28,18 28,18 28,17.9 28.1,17.8 28.1,17.8 28.1,17.7 28.1,17.7 28.1,17.6 
		28.1,17.5 28.1,17.5 28.1,17.4 28.1,17.4 28.1,17.3 28.1,17.3 28.2,17.2 28.2,17.1 28.2,17.1 28.2,17 28.2,17 28.2,17 28.3,16.9 
		28.3,16.9 28.3,16.8 28.3,16.8 28.3,16.7 28.3,16.7 28.4,16.7 28.4,16.6 28.4,16.6 28.4,16.6 28.4,16.5 28.4,16.5 28.5,16.4 
		28.5,16.4 28.5,16.3 28.5,16.3 28.5,16.3 28.5,16.3 28.5,16.3 28.5,16.2 28.5,16.2 28.6,16.1 28.6,16.1 28.6,16 28.6,16 28.7,16 
		28.7,15.9 28.7,15.9 28.7,15.9 28.7,15.9 28.8,15.8 28.8,15.8 28.8,15.7 28.8,15.7 28.8,15.6 28.9,15.6 28.9,15.6 28.9,15.6 
		28.9,15.5 29,15.5 29,15.5 29,15.4 29,15.4 29,15.4 29.1,15.4 29.1,15.3 29.1,15.3 29.1,15.3 29.2,15.3 29.2,15.2 29.2,15.2 
		29.2,15.2 29.3,15.1 29.3,15.1 29.4,15 29.4,15 29.5,15 29.5,14.9 29.5,14.9 29.5,14.9 29.6,14.9 29.6,14.8 29.6,14.8 29.6,14.8 
		29.6,14.8 29.7,14.8 29.7,14.8 29.7,14.8 29.8,14.7 29.8,14.7 29.9,14.7 29.9,14.7 29.9,14.6 29.9,14.6 30,14.6 30,14.6 30,14.6 
		30.1,14.6 30.1,14.5 30.1,14.5 30.2,14.5 30.2,14.5 30.3,14.5 30.3,14.5 30.3,14.5 30.4,14.4 30.4,14.4 30.5,14.4 30.5,14.4 
		30.6,14.4 30.6,14.4 30.7,14.3 30.7,14.3 30.7,14.3 30.8,14.3 30.8,14.3 30.9,14.3 30.9,14.3 31,14.3 31,14.3 31,14.2 31.1,14.2 
		31.1,14.2 31.2,14.2 31.2,14.2 31.3,14.2 31.4,14.2 31.4,14.2 31.5,14.2 31.6,14.2 32.3,14.2 32.7,14.2 32.7,13 27.8,13 17.5,13 
		16.9,13 16.9,14.2 18.1,14.2 18.2,14.2 18.2,14.2 18.3,14.2 18.4,14.2 18.4,14.2 18.5,14.2 18.5,14.2 18.6,14.2 18.6,14.2 
		18.6,14.2 18.7,14.3 18.7,14.3 18.8,14.3 18.8,14.3 18.9,14.3 18.9,14.3 18.9,14.3 19,14.3 19,14.3 19,14.3 19,14.4 19.1,14.4 
		19.1,14.4 19.2,14.4 19.2,14.4 19.3,14.4 19.3,14.4 19.3,14.5 19.3,14.5 19.4,14.5 19.4,14.5 19.5,14.5 19.5,14.5 19.5,14.5 
		19.6,14.5 19.6,14.5 19.6,14.6 19.7,14.6 19.7,14.6 19.7,14.6 19.7,14.6 19.8,14.7 19.8,14.7 19.9,14.7 19.9,14.7 19.9,14.8 
		20,14.8 20,14.8 20,14.8 20.1,14.8 20.1,14.8 20.1,14.8 20.1,14.9 20.2,14.9 20.2,14.9 20.2,15 20.3,15 20.3,15 20.4,15.1 
		20.4,15.1 20.4,15.2 20.4,15.2 20.5,15.2 20.5,15.2 20.5,15.2 20.5,15.3 20.6,15.3 20.6,15.3 20.6,15.3 20.6,15.4 20.7,15.4 
		20.7,15.5 20.7,15.5 20.8,15.5 20.8,15.6 20.8,15.6 20.8,15.6 20.8,15.7 20.9,15.7 20.9,15.8 20.9,15.8 20.9,15.8 20.9,15.9 
		21,15.9 21,15.9 21,15.9 21,15.9 21,16 21.1,16 21.1,16 21.1,16.1 21.1,16.1 21.1,16.2 21.1,16.2 21.1,16.2 21.1,16.3 21.2,16.3 
		21.2,16.3 21.2,16.3 21.2,16.4 21.2,16.4 21.2,16.5 21.3,16.5 21.3,16.5 21.3,16.6 21.3,16.6 21.3,16.7 21.3,16.7 21.4,16.7 
		21.4,16.7 21.4,16.8 21.4,16.8 21.4,16.9 21.4,16.9 21.4,17 21.5,17 21.5,17 21.5,17 21.5,17.1 21.5,17.1 21.5,17.2 21.5,17.3 
		21.5,17.3 21.5,17.4 21.5,17.4 21.6,17.5 21.6,17.5 21.6,17.6 21.6,17.7 21.6,17.7 21.6,17.8 21.6,17.8 21.6,17.9 21.7,18 21.7,18 
		21.7,18.1 21.7,18.1 21.7,18.2 21.7,18.3 21.7,18.3 21.7,18.4 21.7,18.5 21.7,18.5 21.7,18.5 21.7,18.6 21.8,18.7 21.8,18.7 
		21.8,18.8 21.8,18.9 21.8,18.9 21.8,19 21.8,19 21.8,19.1 21.8,19.2 21.8,19.2 21.8,19.3 21.8,19.5 21.8,19.6 21.8,19.7 21.8,20 
		21.8,21.3 21.8,50.3 21.8,50.8 21.8,50.8 21.8,50.9 21.8,51.1 21.8,51.1 21.8,51.3 21.8,51.3 21.8,51.4 21.8,51.4 21.8,51.5 
		21.8,51.6 21.8,51.6 21.8,51.7 21.8,51.8 21.8,51.8 21.7,51.9 21.7,51.9 21.7,52 21.7,52.1 21.7,52.1 21.7,52.1 21.7,52.2 
		21.7,52.3 21.7,52.3 21.7,52.4 21.7,52.5 21.7,52.5 21.6,52.6 21.6,52.6 21.6,52.7 21.6,52.8 21.6,52.8 21.6,52.9 21.6,52.9 
		21.6,53 21.5,53 21.5,53.1 21.5,53.2 21.5,53.2 21.5,53.3 21.5,53.3 21.5,53.4 21.5,53.4 21.5,53.5 21.5,53.5 21.4,53.6 21.4,53.6 
		21.4,53.6 21.4,53.7 21.4,53.7 21.4,53.8 21.3,53.8 21.3,53.8 21.3,53.9 21.3,53.9 21.3,54 21.3,54 21.2,54 21.2,54.1 21.2,54.1 
		21.2,54.2 21.2,54.2 21.1,54.3 21.1,54.3 21.1,54.3 21.1,54.3 21.1,54.4 21.1,54.4 21.1,54.4 21.1,54.5 21,54.5 21,54.6 21,54.6 
		20.9,54.7 20.9,54.7 20.9,54.7 20.9,54.7 20.9,54.8 20.8,54.8 20.8,54.8 20.8,54.9 20.8,54.9 20.8,54.9 20.8,55 20.7,55 20.7,55.1 
		20.6,55.1 20.6,55.1 20.6,55.2 20.5,55.2 20.5,55.3 20.4,55.3 20.4,55.4 20.4,55.4 20.4,55.4 20.4,55.4 20.3,55.4 20.3,55.5 
		20.2,55.5 20.2,55.6 20.1,55.6 20.1,55.6 20.1,55.7 20,55.7 20,55.7 19.9,55.8 19.9,55.8 19.9,55.8 19.8,55.8 19.8,55.8 19.7,55.8 
		19.7,55.9 19.7,55.9 19.6,55.9 19.6,55.9 19.5,56 19.5,56 19.4,56 19.4,56 19.3,56 19.3,56.1 19.3,56.1 19.2,56.1 19.2,56.1 
		19.2,56.1 19.1,56.1 19.1,56.1 19,56.2 19,56.2 19,56.2 18.9,56.2 18.9,56.2 18.8,56.2 18.8,56.2 18.7,56.2 18.7,56.2 18.6,56.2 
		18.6,56.2 18.6,56.2 18.5,56.2 18.5,56.3 18.4,56.3 18.4,56.3 18.3,56.3 18.2,56.3 18.2,56.3 18.1,56.3 16.9,56.3 16.9,57.5 	"/>
	<polygon fill="#163F67" points="49.1,17.1 49.3,17 49.5,16.9 49.6,16.8 49.7,16.7 49.8,16.7 49.9,16.6 50,16.5 50.1,16.5 
		50.1,16.4 50.2,16.3 50.4,16.3 50.4,16.2 50.5,16.2 50.6,16.1 50.7,16.1 50.7,16 50.8,16 50.8,15.9 50.9,15.9 50.9,15.9 51,15.9 
		51,15.9 51.1,15.8 51.1,15.8 51.1,15.8 51.2,15.7 51.2,15.7 51.3,15.7 51.4,15.6 51.4,15.6 51.5,15.6 51.5,15.6 51.5,15.5 
		51.6,15.5 51.6,15.5 51.7,15.5 51.8,15.4 51.8,15.4 51.9,15.4 51.9,15.3 51.9,15.3 52,15.3 52.1,15.2 52.1,15.2 52.2,15.2 
		52.2,15.2 52.2,15.2 52.3,15.1 52.4,15.1 52.4,15.1 52.5,15.1 52.5,15 52.6,15 52.6,15 52.7,14.9 52.7,14.9 52.8,14.9 52.8,14.9 
		52.9,14.8 53,14.8 53,14.8 53,14.8 53.1,14.8 53.2,14.8 53.2,14.7 53.3,14.7 53.3,14.7 53.4,14.7 53.4,14.7 53.5,14.6 53.5,14.6 
		53.6,14.6 53.7,14.6 53.7,14.6 53.7,14.5 53.8,14.5 53.9,14.5 53.9,14.5 54,14.5 54.1,14.5 54.1,14.5 54.1,14.5 54.2,14.4 
		54.3,14.4 54.3,14.4 54.4,14.4 54.4,14.4 54.5,14.4 54.5,14.3 54.6,14.3 54.7,14.3 54.7,14.3 54.8,14.3 54.8,14.3 54.9,14.3 
		54.9,14.3 55,14.2 55,14.2 55.1,14.2 55.2,14.2 55.2,14.2 55.3,14.2 55.3,14.2 55.4,14.2 55.5,14.2 55.5,14.2 55.5,14.2 55.6,14.2 
		55.7,14.2 55.7,14.2 58.7,14.2 58.7,13 41.8,13 41.8,13.5 41.8,14.2 41.9,14.2 42,14.2 42,14.2 42,14.2 42.1,14.2 42.1,14.2 
		42.2,14.2 42.2,14.2 42.3,14.2 42.3,14.2 42.4,14.2 42.4,14.2 42.4,14.3 42.5,14.3 42.5,14.3 42.6,14.3 42.6,14.3 42.7,14.3 
		42.7,14.3 42.7,14.4 42.8,14.4 42.8,14.4 42.9,14.4 42.9,14.4 43,14.4 43,14.5 43,14.5 43.1,14.5 43.1,14.5 43.1,14.5 43.2,14.5 
		43.2,14.5 43.3,14.6 43.3,14.6 43.4,14.6 43.4,14.6 43.5,14.7 43.5,14.7 43.5,14.7 43.6,14.7 43.6,14.8 43.6,14.8 43.7,14.8 
		43.7,14.8 43.7,14.8 43.8,14.8 43.8,14.9 43.8,14.9 43.8,14.9 43.9,14.9 43.9,15 43.9,15 44,15 44,15.1 44.1,15.1 44.1,15.1 
		44.1,15.1 44.1,15.2 44.2,15.2 44.2,15.2 44.2,15.2 44.2,15.2 44.2,15.3 44.3,15.3 44.3,15.4 44.3,15.4 44.3,15.4 44.3,15.5 
		44.4,15.5 44.4,15.5 44.4,15.6 44.4,15.6 44.5,15.6 44.5,15.6 44.5,15.7 44.5,15.7 44.5,15.8 44.5,15.8 44.6,15.9 44.6,15.9 
		44.6,15.9 44.6,16 44.6,16 44.6,16.1 44.6,16.1 44.6,16.1 44.6,16.2 44.6,16.2 44.6,16.3 44.6,16.3 44.6,16.3 44.6,16.4 44.7,16.4 
		44.7,16.5 44.7,16.5 44.7,16.6 44.7,16.6 44.7,16.7 44.7,16.7 44.7,16.7 44.7,16.8 44.7,16.8 44.7,16.9 44.6,16.9 44.6,16.9 
		44.6,17 44.6,17 44.6,17 44.6,17.1 44.6,17.1 44.6,17.2 44.6,17.2 44.6,17.3 44.6,17.3 44.6,17.4 44.6,17.4 44.6,17.4 44.6,17.4 
		44.6,17.5 44.5,17.5 44.5,17.5 44.5,17.6 44.5,17.6 44.5,17.6 44.5,17.7 44.5,17.7 44.4,17.8 44.4,17.8 44.4,17.8 44.4,17.9 
		44.3,17.9 44.3,17.9 44.3,18 44.3,18 44.3,18.1 44.2,18.1 44.2,18.1 44.2,18.1 44.2,18.2 44.2,18.2 44.2,18.2 44.2,18.3 44.1,18.3 
		44.1,18.3 44.1,18.4 44.1,18.4 44,18.4 44,18.5 44,18.5 44,18.5 43.9,18.5 43.9,18.6 43.9,18.6 43.8,18.7 43.8,18.7 43.8,18.8 
		43.8,18.8 43.7,18.9 43.7,18.9 43.6,18.9 43.6,18.9 43.6,19 43.5,19 43.5,19.1 43.2,19.4 27.8,34.6 27.8,35.6 49.5,57.5 60,57.5 
		60,56.2 59.9,56.2 59.9,56.2 59.8,56.2 59.8,56.2 59.7,56.1 59.6,56.1 59.6,56.1 59.6,56.1 59.5,56.1 59.4,56.1 59.4,56.1 
		59.3,56.1 59.2,56.1 59.2,56.1 59.2,56.1 59.1,56.1 59,56.1 59,56.1 58.9,56.1 58.8,56.1 58.8,56.1 58.8,56 58.7,56 58.6,56 
		58.6,56 58.5,56 58.5,56 58.4,56 58.4,56 58.3,56 58.2,55.9 58.2,55.9 58.1,55.9 58.1,55.9 58,55.9 58,55.9 57.9,55.9 57.9,55.9 
		57.8,55.8 57.7,55.8 57.7,55.8 57.7,55.8 57.6,55.8 57.5,55.8 57.5,55.8 57.4,55.8 57.4,55.8 57.3,55.7 57.3,55.7 57.2,55.7 
		57.1,55.7 57.1,55.7 57,55.6 57,55.6 56.9,55.6 56.9,55.6 56.8,55.6 56.8,55.5 56.7,55.5 56.6,55.5 56.6,55.5 56.6,55.5 56.5,55.4 
		56.5,55.4 56.4,55.4 56.4,55.4 56.3,55.4 56.3,55.4 56.3,55.4 56.3,55.4 56.3,55.3 56.2,55.3 56.2,55.3 56.2,55.3 56.1,55.3 
		56.1,55.3 56.1,55.2 56,55.2 56,55.2 56,55.2 55.9,55.2 55.9,55.2 55.9,55.1 55.9,55.1 55.8,55.1 55.8,55.1 55.7,55.1 55.6,55 
		55.6,55 55.5,54.9 55.5,54.9 55.5,54.9 55.4,54.8 55.4,54.8 55.3,54.8 55.3,54.7 55.2,54.7 55.2,54.7 55.2,54.7 55.1,54.6 
		55.1,54.6 55,54.5 55,54.5 54.9,54.5 54.8,54.4 54.7,54.3 54.6,54.3 54.5,54.2 54.4,54.1 54.4,54 54.3,54 54.2,53.9 54.1,53.8 
		54,53.8 53.9,53.7 53.8,53.6 53.7,53.5 53.5,53.3 33.3,32.8 43.5,22.7 	"/>
	<polyline fill="#163F67" points="151.6,50.6 151.6,37.3 151.6,36.7 151.5,36.6 151.5,36.5 151.5,36.4 151.5,36.4 151.5,36.3 
		151.5,36.3 151.4,36.2 151.4,36.1 151.4,36.1 151.4,36 151.4,35.9 151.4,35.9 151.4,35.8 151.3,35.8 151.3,35.7 151.3,35.7 
		151.3,35.7 151.3,35.7 151.3,35.6 151.2,35.5 151.2,35.4 151.2,35.4 151.1,35.3 151.1,35.3 151,35.2 151,35.1 151,35.1 151,35 
		150.9,35 150.9,34.9 150.9,34.8 150.8,34.8 150.8,34.7 150.7,34.6 150.7,34.6 150.7,34.5 150.6,34.5 150.6,34.4 150.5,34.3 
		150.5,34.3 150.4,34.2 150.4,34.2 150.3,34.1 150.3,34.1 150.3,34 150.2,33.9 150.2,33.9 150.1,33.9 150.1,33.8 150,33.7 150,33.7 
		149.9,33.6 149.9,33.6 149.8,33.5 149.8,33.5 149.7,33.5 149.7,33.4 149.6,33.3 149.6,33.3 149.5,33.2 149.5,33.2 149.4,33.1 
		149.3,33.1 149.3,33.1 149.2,33 149.2,33 149.1,33 149.1,32.9 149,32.9 148.9,32.8 148.8,32.8 148.8,32.8 148.8,32.7 148.7,32.7 
		148.6,32.7 148.5,32.6 148.5,32.6 148.4,32.6 148.4,32.5 148.3,32.5 148.2,32.4 148.2,32.4 148.1,32.4 148.1,32.4 148,32.4 
		147.9,32.3 147.8,32.3 147.7,32.3 147.7,32.3 147.6,32.2 147.6,32.2 147.5,32.2 147.4,32.2 147.4,32.1 147.3,32.1 147.2,32.1 
		147.1,32.1 147.1,32.1 147,32 147,32 146.9,32 146.8,32 146.7,32 146.6,32 146.6,32 146.5,32 146.4,32 146.4,32 146.3,32 
		146.2,31.9 146.2,31.9 146.1,31.9 146,31.9 145.9,31.9 145.9,31.9 145.8,31.9 145.7,31.9 145.6,31.9 145.6,31.9 145.5,31.9 
		145.5,31.9 145.4,31.9 145.3,31.9 145.2,31.9 145.2,31.9 145.1,31.9 145,32 144.9,32 144.9,32 144.8,32 144.7,32 144.7,32 
		144.6,32 144.5,32 144.4,32 144.4,32 144.3,32 144.2,32 144.2,32.1 144.1,32.1 144.1,32.1 144,32.1 143.9,32.1 143.8,32.2 
		143.7,32.2 143.7,32.2 143.6,32.2 143.6,32.3 143.5,32.3 143.4,32.3 143.4,32.3 143.3,32.4 143.2,32.4 143.2,32.4 143.1,32.4 
		143,32.4 143,32.5 142.9,32.5 142.8,32.5 142.8,32.6 142.7,32.6 142.6,32.7 142.6,32.7 142.5,32.7 142.4,32.8 142.4,32.8 
		142.3,32.8 142.3,32.8 142.2,32.9 142.1,32.9 142.1,33 142,33 141.9,33 141.9,33.1 141.8,33.1 141.8,33.1 141.7,33.2 141.6,33.2 
		141.6,33.3 141.5,33.3 141.5,33.4 141.4,33.4 141.4,33.4 141.3,33.5 141.2,33.5 141.2,33.5 141.2,33.6 141.1,33.6 141,33.7 
		141,33.7 140.9,33.8 140.8,33.8 140.8,33.9 140.8,33.9 140.7,33.9 140.6,34 140.6,34.1 140.5,34.1 140.4,34.2 140.4,34.2 
		140.4,34.2 140.3,34.3 140.3,34.3 140.2,34.4 140.1,34.4 140.1,34.5 140.1,34.5 140,34.6 140,34.6 139.9,34.7 139.8,34.7 
		139.8,34.8 139.7,34.8 139.7,34.9 139.7,34.9 139.6,35 139.5,35 139.5,35.1 139.4,35.1 139.4,35.2 139.3,35.2 139.3,35.3 
		139.3,35.3 139.2,35.4 139.1,35.4 139.1,35.5 139,35.6 139,35.6 139,35.7 138.9,35.8 138.8,35.9 138.7,36 138.6,36.1 138.5,36.2 
		138.4,36.3 138.3,36.4 138.2,36.5 138.2,36.7 138.1,36.8 138,36.9 137.9,37 137.8,37.1 137.8,37.1 137.6,37.3 137.6,49.5 
		137.6,50.6 137.6,50.8 137.6,51 137.6,51.1 137.6,51.2 137.6,51.4 137.6,51.5 137.7,51.5 137.7,51.6 137.7,51.7 137.7,51.7 
		137.7,51.8 137.7,51.8 137.7,51.9 137.7,52 137.7,52.1 137.7,52.1 137.7,52.2 137.7,52.2 137.7,52.3 137.7,52.4 137.7,52.5 
		137.7,52.5 137.7,52.5 137.7,52.6 137.7,52.7 137.7,52.8 137.7,52.8 137.8,52.9 137.8,52.9 137.8,53 137.8,53.1 137.8,53.2 
		137.8,53.2 137.8,53.2 137.8,53.3 137.8,53.4 137.8,53.5 137.9,53.5 137.9,53.6 137.9,53.6 137.9,53.6 137.9,53.7 137.9,53.7 
		137.9,53.8 137.9,53.8 137.9,53.9 137.9,53.9 137.9,54 137.9,54 137.9,54 138,54 138,54.1 138,54.1 138,54.2 138,54.2 138,54.3 
		138,54.3 138.1,54.3 138.1,54.4 138.1,54.4 138.1,54.4 138.1,54.5 138.1,54.5 138.2,54.5 138.2,54.6 138.2,54.6 138.2,54.7 
		138.2,54.7 138.2,54.7 138.2,54.8 138.3,54.8 138.3,54.8 138.3,54.9 138.3,54.9 138.3,54.9 138.4,55 138.4,55 138.4,55.1 
		138.5,55.1 138.5,55.1 138.5,55.2 138.6,55.2 138.6,55.3 138.6,55.3 138.6,55.4 138.7,55.4 138.7,55.4 138.7,55.4 138.7,55.4 
		138.8,55.4 138.8,55.5 138.8,55.5 138.8,55.5 138.9,55.5 138.9,55.6 139,55.6 139,55.6 139,55.7 139,55.7 139.1,55.7 139.1,55.7 
		139.2,55.8 139.2,55.8 139.3,55.8 139.3,55.8 139.3,55.8 139.4,55.9 139.4,55.9 139.5,55.9 139.5,55.9 139.5,55.9 139.6,55.9 
		139.6,56 139.6,56 139.7,56 139.7,56 139.7,56 139.8,56 139.8,56.1 139.9,56.1 139.9,56.1 140,56.1 140,56.1 140.1,56.1 
		140.1,56.1 140.1,56.1 140.2,56.2 140.2,56.2 140.3,56.2 140.3,56.2 140.4,56.2 140.4,56.2 140.4,56.2 140.5,56.2 140.5,56.2 
		140.6,56.2 140.6,56.2 140.7,56.2 140.8,56.2 140.8,56.2 140.9,56.2 141,56.2 141,56.2 141.1,56.3 141.2,56.3 141.2,56.3 
		141.3,56.3 141.4,56.3 141.4,56.3 141.5,56.3 141.6,56.3 141.7,56.3 142.2,56.3 142.2,57.5 135.7,57.5 132.3,57.5 128.5,57.5 
		127.7,57.5 127.7,56.3 128.2,56.3 128.3,56.3 128.4,56.3 128.5,56.3 128.5,56.3 128.6,56.3 128.7,56.3 128.7,56.3 128.8,56.3 
		128.9,56.2 128.9,56.2 129,56.2 129.1,56.2 129.1,56.2 129.2,56.2 129.3,56.2 129.3,56.2 129.4,56.2 129.4,56.2 129.4,56.2 
		129.5,56.2 129.5,56.2 129.5,56.2 129.6,56.2 129.6,56.2 129.7,56.2 129.7,56.2 129.8,56.1 129.8,56.1 129.8,56.1 129.9,56.1 
		129.9,56.1 130,56.1 130,56.1 130.1,56.1 130.1,56 130.2,56 130.2,56 130.2,56 130.2,56 130.3,56 130.3,55.9 130.4,55.9 
		130.4,55.9 130.4,55.9 130.5,55.9 130.5,55.9 130.5,55.8 130.6,55.8 130.6,55.8 130.7,55.8 130.7,55.8 130.8,55.7 130.8,55.7 
		130.9,55.7 130.9,55.6 130.9,55.6 131,55.6 131,55.5 131.1,55.5 131.1,55.4 131.2,55.4 131.2,55.4 131.2,55.4 131.2,55.4 
		131.3,55.4 131.3,55.3 131.3,55.3 131.3,55.2 131.3,55.2 131.4,55.2 131.4,55.1 131.4,55.1 131.5,55.1 131.5,55 131.5,55 
		131.6,54.9 131.6,54.9 131.6,54.8 131.6,54.8 131.6,54.8 131.6,54.7 131.7,54.7 131.7,54.7 131.7,54.6 131.7,54.6 131.7,54.5 
		131.8,54.5 131.8,54.5 131.8,54.4 131.8,54.4 131.8,54.3 131.9,54.3 131.9,54.3 131.9,54.2 131.9,54.2 131.9,54.2 131.9,54.1 
		131.9,54.1 131.9,54 132,54 132,54 132,54 132,53.9 132,53.9 132,53.8 132,53.8 132,53.7 132,53.7 132,53.6 132,53.6 132,53.6 
		132,53.5 132,53.5 132.1,53.4 132.1,53.3 132.1,53.2 132.1,53.2 132.1,53.2 132.1,53.1 132.1,53 132.1,52.9 132.1,52.9 132.1,52.8 
		132.2,52.8 132.2,52.7 132.2,52.6 132.2,52.5 132.2,52.5 132.2,52.5 132.2,52.4 132.2,52.3 132.2,52.2 132.2,52.2 132.2,52.1 
		132.2,52.1 132.2,52 132.2,51.9 132.2,51.8 132.2,51.8 132.2,51.7 132.2,51.7 132.2,51.6 132.2,51.5 132.2,51.5 132.2,51.4 
		132.3,51.2 132.3,51.1 132.3,51 132.3,50.8 132.3,50.6 132.3,50.1 132.3,34 132.3,33.5 132.2,33.5 132.2,33.4 132.2,33.4 
		132.2,33.3 132.2,33.3 132.2,33.2 132.2,33.2 132.1,33.1 132.1,33.1 132.1,33.1 132.1,33 132.1,33 132.1,33 132.1,32.9 132,32.9 
		132,32.9 132,32.8 132,32.8 132,32.8 132,32.8 132,32.7 132,32.7 132,32.6 131.9,32.6 131.9,32.6 131.9,32.5 131.9,32.5 
		131.9,32.5 131.8,32.4 131.8,32.4 131.8,32.4 131.8,32.4 131.7,32.3 131.7,32.3 131.7,32.3 131.7,32.2 131.6,32.2 131.6,32.1 
		131.6,32.1 131.6,32.1 131.6,32 131.5,32 131.5,32 131.5,32 131.4,32 131.4,31.9 131.4,31.9 131.4,31.9 131.3,31.9 131.3,31.8 
		131.3,31.8 131.3,31.8 131.3,31.8 131.2,31.7 131.2,31.7 131.2,31.7 131.1,31.7 131.1,31.7 131.1,31.7 131,31.7 131,31.7 131,31.6 
		130.9,31.6 130.9,31.6 130.9,31.6 130.8,31.6 130.8,31.6 130.8,31.5 130.7,31.5 130.7,31.5 130.6,31.5 130.6,31.5 130.6,31.5 
		130.5,31.5 130.5,31.5 130.5,31.4 130.4,31.4 130.4,31.4 130.3,31.4 130.3,31.4 130.2,31.4 130.2,31.4 130.2,31.4 130.1,31.4 
		130.1,31.3 130,31.3 130,31.3 129.9,31.3 129.9,31.3 129.8,31.3 129.8,31.3 129.8,31.3 129.7,31.3 129.7,31.3 129.6,31.3 
		129.6,31.3 129.5,31.3 129.5,31.3 129.4,31.3 129.4,31.3 129.4,31.3 129.3,31.3 129.3,31.3 129.2,31.2 129.2,31.2 129.1,31.2 
		129.1,31.2 129.1,31.2 129,31.2 129,31.2 128.9,31.2 128.9,31.2 128.8,31.2 128.8,31.2 128.7,31.2 128.7,31.2 128.7,31.2 
		128.6,31.2 128.6,31.2 128.5,31.2 128.5,31.2 128.4,31.2 128.4,31.2 128.3,31.2 128.3,31.2 128.3,31.2 128.2,31.2 128.2,31.2 
		128.1,31.2 128,31.2 127.9,31.2 127.7,31.2 127.7,29.8 136.3,29.1 137.6,29.1 137.6,29.5 137.6,33.9 137.6,34.6 137.9,34.3 
		138,34.2 138.2,34 138.3,33.9 138.5,33.7 138.6,33.6 138.7,33.5 138.9,33.3 139,33.2 139.2,33.1 139.3,32.9 139.4,32.8 139.6,32.6 
		139.7,32.6 139.7,32.5 139.8,32.4 139.9,32.4 140,32.3 140.1,32.2 140.1,32.2 140.2,32.1 140.3,32 140.3,32 140.4,31.9 140.5,31.9 
		140.6,31.8 140.6,31.7 140.7,31.7 140.8,31.6 140.9,31.6 140.9,31.5 141,31.4 141.1,31.4 141.2,31.3 141.3,31.3 141.3,31.2 
		141.4,31.1 141.5,31.1 141.6,31 141.7,31 141.8,30.9 141.9,30.9 141.9,30.8 142,30.8 142.1,30.7 142.2,30.7 142.3,30.6 142.3,30.6 
		142.4,30.5 142.5,30.5 142.6,30.4 142.7,30.4 142.8,30.3 142.9,30.3 143,30.2 143,30.2 143.1,30.2 143.2,30.1 143.3,30.1 143.4,30 
		143.5,30 143.6,29.9 143.7,29.9 143.7,29.9 143.9,29.8 144,29.8 144.1,29.8 144.1,29.7 144.2,29.7 144.3,29.7 144.4,29.6 
		144.5,29.6 144.6,29.6 144.7,29.5 144.8,29.5 144.9,29.5 145,29.5 145.1,29.5 145.2,29.4 145.3,29.4 145.4,29.4 145.5,29.4 
		145.5,29.3 145.7,29.3 145.8,29.3 145.9,29.3 145.9,29.2 146,29.2 146.2,29.2 146.3,29.2 146.3,29.2 146.4,29.2 146.5,29.1 
		146.6,29.1 146.7,29.1 146.8,29.1 146.9,29.1 147,29.1 147.1,29.1 147.2,29.1 147.3,29.1 147.4,29.1 147.5,29.1 147.6,29.1 
		147.7,29.1 147.8,29.1 147.9,29.1 148,29.1 148.1,29.1 148.2,29.1 148.3,29.1 148.4,29.1 148.5,29.1 148.6,29.1 148.7,29.1 
		148.8,29.2 148.9,29.2 149,29.2 149.1,29.2 149.2,29.2 149.3,29.2 149.4,29.3 149.5,29.3 149.6,29.3 149.7,29.3 149.8,29.4 
		149.9,29.4 150,29.4 150.1,29.4 150.2,29.5 150.3,29.5 150.3,29.5 150.5,29.5 150.6,29.5 150.7,29.6 150.7,29.6 150.8,29.6 
		150.9,29.7 151,29.7 151.1,29.7 151.2,29.8 151.3,29.8 151.4,29.8 151.5,29.9 151.6,29.9 151.7,30 151.8,30 151.8,30 151.9,30.1 
		152,30.1 152.1,30.2 152.2,30.2 152.3,30.2 152.4,30.3 152.5,30.4 152.5,30.4 152.6,30.5 152.7,30.5 152.8,30.6 152.9,30.6 
		153,30.7 153.1,30.7 153.1,30.8 153.2,30.8 153.3,30.9 153.4,30.9 153.4,31 153.5,31.1 153.6,31.1 153.7,31.2 153.7,31.3 
		153.8,31.3 153.9,31.4 154,31.5 154,31.6 154.1,31.6 154.2,31.7 154.3,31.7 154.3,31.8 154.4,31.9 154.4,32 154.5,32 154.6,32.1 
		154.6,32.2 154.7,32.3 154.7,32.4 154.8,32.4 154.9,32.5 154.9,32.6 155,32.7 155.1,32.8 155.1,32.8 155.1,32.9 155.2,33 
		155.3,33.1 155.3,33.2 155.4,33.3 155.4,33.4 155.4,33.5 155.5,33.5 155.6,33.6 155.6,33.7 155.7,33.8 155.7,33.9 155.8,33.9 
		155.8,34 155.8,34.1 155.9,34.2 155.9,34.3 156,34.4 156,34.5 156.1,34.6 156.1,34.7 156.1,34.8 156.2,34.9 156.2,35 156.2,35 
		156.3,35.1 156.3,35.2 156.3,35.3 156.4,35.4 156.4,35.5 156.5,35.6 156.5,35.7 156.5,35.8 156.5,35.9 156.5,36 156.6,36.1 
		156.6,36.1 156.6,36.3 156.7,36.4 156.7,36.4 156.7,36.5 156.8,36.6 156.8,36.7 156.8,36.8 156.8,36.9 156.9,37 156.9,37.1 
		156.9,37.3 156.9,38.3 156.9,49.2 156.9,50.6 156.9,50.8 156.9,51 156.9,51.1 156.9,51.2 156.9,51.4 156.9,51.5 156.9,51.5 
		157,51.6 157,51.7 157,51.7 157,51.8 157,51.8 157,51.9 157,52 157,52.1 157,52.1 157,52.2 157,52.2 157,52.3 157,52.4 157,52.5 
		157,52.5 157,52.5 157,52.6 157,52.7 157,52.8 157,52.8 157.1,52.9 157.1,52.9 157.1,53 157.1,53.1 157.1,53.2 157.1,53.2 
		157.1,53.2 157.1,53.3 157.1,53.4 157.1,53.5 157.1,53.5 157.2,53.5 157.2,53.6 157.2,53.6 157.2,53.6 157.2,53.7 157.2,53.7 
		157.2,53.7 157.2,53.8 157.2,53.8 157.2,53.9 157.2,53.9 157.3,54 157.3,54 157.3,54 157.3,54.1 157.3,54.1 157.3,54.2 157.3,54.2 
		157.3,54.3 157.3,54.3 157.4,54.3 157.4,54.4 157.4,54.4 157.4,54.4 157.4,54.5 157.4,54.5 157.5,54.5 157.5,54.6 157.5,54.6 
		157.5,54.7 157.5,54.7 157.5,54.7 157.6,54.7 157.6,54.8 157.6,54.8 157.6,54.8 157.6,54.9 157.6,54.9 157.6,54.9 157.6,55 
		157.7,55 157.7,55 157.7,55.1 157.8,55.1 157.8,55.1 157.8,55.2 157.9,55.2 157.9,55.3 158,55.3 158,55.4 158,55.4 158,55.4 
		158,55.4 158,55.4 158.1,55.4 158.1,55.5 158.1,55.5 158.1,55.5 158.2,55.5 158.2,55.6 158.3,55.6 158.3,55.6 158.3,55.7 
		158.4,55.7 158.4,55.7 158.4,55.7 158.4,55.8 158.5,55.8 158.5,55.8 158.6,55.8 158.6,55.8 158.7,55.8 158.7,55.9 158.7,55.9 
		158.8,55.9 158.8,55.9 158.8,55.9 158.9,55.9 158.9,56 158.9,56 159,56 159,56 159.1,56 159.1,56 159.1,56.1 159.2,56.1 
		159.2,56.1 159.3,56.1 159.3,56.1 159.4,56.1 159.4,56.1 159.4,56.1 159.5,56.2 159.5,56.2 159.6,56.2 159.6,56.2 159.7,56.2 
		159.7,56.2 159.8,56.2 159.8,56.2 159.8,56.2 159.9,56.2 159.9,56.2 160,56.2 160.1,56.2 160.2,56.2 160.2,56.2 160.3,56.2 
		160.3,56.2 160.4,56.3 160.5,56.3 160.5,56.3 160.6,56.3 160.6,56.3 160.7,56.3 160.8,56.3 160.9,56.3 161,56.3 161.5,56.3 
		161.5,57.5 156.9,57.5 151.6,57.5 147,57.5 147,56.3 147.5,56.3 147.6,56.3 147.7,56.3 147.8,56.3 147.8,56.3 147.9,56.3 148,56.3 
		148.1,56.3 148.1,56.3 148.2,56.2 148.2,56.2 148.3,56.2 148.4,56.2 148.4,56.2 148.5,56.2 148.5,56.2 148.6,56.2 148.7,56.2 
		148.7,56.2 148.8,56.2 148.8,56.2 148.8,56.2 148.8,56.2 148.9,56.2 148.9,56.2 149,56.2 149,56.2 149.1,56.1 149.1,56.1 
		149.2,56.1 149.2,56.1 149.2,56.1 149.3,56.1 149.3,56.1 149.4,56.1 149.4,56 149.5,56 149.5,56 149.5,56 149.6,56 149.6,56 
		149.6,55.9 149.7,55.9 149.7,55.9 149.8,55.9 149.8,55.9 149.9,55.8 149.9,55.8 149.9,55.8 150,55.8 150,55.8 150.1,55.7 
		150.1,55.7 150.2,55.7 150.2,55.6 150.3,55.6 150.3,55.6 150.3,55.5 150.4,55.5 150.4,55.4 150.5,55.4 150.5,55.4 150.6,55.3 
		150.6,55.3 150.6,55.3 150.6,55.2 150.7,55.2 150.7,55.2 150.7,55.2 150.7,55.1 150.7,55.1 150.8,55.1 150.8,55 150.8,55 
		150.9,54.9 150.9,54.9 150.9,54.8 150.9,54.8 151,54.8 151,54.7 151,54.7 151,54.7 151,54.6 151,54.6 151,54.5 151.1,54.5 
		151.1,54.5 151.1,54.4 151.1,54.4 151.1,54.3 151.1,54.3 151.2,54.3 151.2,54.2 151.2,54.2 151.2,54.2 151.2,54.1 151.2,54.1 
		151.2,54 151.3,54 151.3,54 151.3,53.9 151.3,53.9 151.3,53.8 151.3,53.8 151.3,53.7 151.3,53.7 151.4,53.6 151.4,53.6 151.4,53.6 
		151.4,53.5 151.4,53.5 151.4,53.4 151.4,53.3 151.4,53.2 151.4,53.2 151.4,53.2 151.4,53.1 151.4,53 151.4,52.9 151.4,52.9 
		151.4,52.8 151.5,52.8 151.5,52.7 151.5,52.6 151.5,52.5 151.5,52.5 151.5,52.5 151.5,52.4 151.5,52.3 151.5,52.2 151.5,52.2 
		151.5,52.1 151.5,52.1 151.5,52 151.5,51.9 151.5,51.8 151.5,51.8 151.5,51.7 151.5,51.7 151.5,51.6 151.5,51.5 151.5,51.5 
		151.5,51.4 151.5,51.2 151.6,51.1 151.6,51 151.6,50.8 151.6,50.6 	"/>
	
		<line fill="none" stroke="#163F67" stroke-width="0.2639" stroke-linecap="round" stroke-linejoin="round" stroke-miterlimit="10" x1="142.2" y1="57.5" x2="142.2" y2="57.5"/>
	
		<polyline fill="none" stroke="#163F67" stroke-width="0.2589" stroke-linecap="round" stroke-linejoin="round" stroke-miterlimit="10" points="
		161.5,57.5 157.5,57.5 161.5,57.5 	"/>
	<path fill="#163F67" d="M228.9,56c0-2-1.6-3.6-3.6-3.6s-3.6,1.6-3.6,3.6s1.6,3.6,3.6,3.6S228.9,57.9,228.9,56"/>
	<g>
		<path fill="#163F67" d="M39.9,72l-0.2-0.6L39.2,70h-1.5h-1.5l-0.5,1.5L35.5,72h-0.6l2.6-6.6h0.6l2.3,6.6H39.9z M37.8,66.1
			L37.8,66.1l-1.5,3.5h1.3H39L37.8,66.1z"/>
		<path fill="#163F67" d="M47.1,66L47,66.5l0,0c-0.5-0.3-1-0.6-1.6-0.6c-0.8,0-1.3,0.3-1.7,0.8s-0.6,1.2-0.6,2.1s0.2,1.6,0.6,2.1
			c0.4,0.5,0.9,0.8,1.6,0.8c0.7,0,1.3-0.3,1.8-0.7h0.1v0.5c-0.6,0.4-1.2,0.6-1.9,0.6c-0.9,0-1.5-0.3-2-0.9s-0.7-1.4-0.7-2.5
			s0.3-1.9,0.8-2.5s1.2-0.9,2.1-0.9C46,65.5,46.6,65.6,47.1,66z"/>
		<path fill="#163F67" d="M53.9,66l-0.1,0.5h-0.1c-0.5-0.3-1-0.6-1.6-0.6c-0.8,0-1.3,0.3-1.7,0.8s-0.6,1.2-0.6,2.1s0.2,1.6,0.6,2.1
			s0.9,0.8,1.6,0.8c0.7,0,1.3-0.3,1.8-0.7h0.1v0.5c-0.6,0.4-1.2,0.6-1.9,0.6c-0.9,0-1.5-0.3-2-0.9s-0.7-1.4-0.7-2.5s0.3-1.9,0.8-2.5
			s1.2-0.9,2.1-0.9C52.8,65.5,53.4,65.6,53.9,66z"/>
		<path fill="#163F67" d="M60.9,66.2c0.5,0.6,0.7,1.4,0.7,2.4c0,1.1-0.3,2-0.8,2.6S59.6,72,58.7,72c-0.9,0-1.5-0.3-2-0.9
			S56,69.7,56,68.6s0.3-1.9,0.8-2.5s1.2-0.9,2.1-0.9C59.8,65.5,60.5,65.7,60.9,66.2z M57.1,66.6c-0.4,0.5-0.6,1.2-0.6,2.1
			s0.2,1.7,0.6,2.1c0.3,0.5,0.9,0.8,1.7,0.8s1.4-0.3,1.7-0.8c0.4-0.5,0.6-1.2,0.6-2.2c0-0.9-0.2-1.6-0.6-2.1s-0.9-0.7-1.7-0.7
			C58.1,65.9,57.5,66.1,57.1,66.6z"/>
		<path fill="#163F67" d="M69.1,69.6c0,0.8-0.2,1.4-0.6,1.8s-1,0.7-1.8,0.7S65.3,72,65,71.5c-0.3-0.4-0.6-1-0.6-1.8v-4.3h0.5v4.1
			c0,0.7,0.2,1.2,0.4,1.5c0.3,0.3,0.8,0.5,1.4,0.5s1.1-0.2,1.4-0.5s0.5-0.9,0.5-1.5v-4.2h0.5v3.3C69.1,68.6,69.1,69.6,69.1,69.6z"/>
		<path fill="#163F67" d="M77.4,72h-0.5l-3.8-5.6H73V70v2.1h-0.5v-2v-4.6h0.6l3.8,5.6H77v-5.6h0.5v4.7L77.4,72L77.4,72z"/>
		<path fill="#163F67" d="M84.5,66h-1.1h-0.8v4.1v2h-0.5v-2V66h-0.8h-1.1l0,0l0.1-0.4h4.4l0.1,0.1L84.5,66z"/>
		<path fill="#163F67" d="M87.8,72h-0.5v-2v-4.5h0.5V70V72z"/>
		<path fill="#163F67" d="M96.3,72h-0.5L92,66.4h-0.1V70v2.1h-0.5v-2v-4.6H92l3.8,5.6h0.1v-5.6h0.5v4.7L96.3,72L96.3,72z"/>
		<path fill="#163F67" d="M104.3,66l-0.1,0.5h-0.1c-0.6-0.3-1.2-0.5-1.8-0.5c-0.9,0-1.5,0.3-1.9,0.8S99.7,68,99.7,69
			c0,1.9,0.8,2.8,2.3,2.8c0.4,0,1-0.1,1.6-0.3v-0.9v-0.9h0.5v0.9V72c-0.9,0.3-1.5,0.3-2.1,0.3c-0.9,0-1.6-0.3-2.1-0.9
			S99.2,70,99.2,69c0-1.1,0.3-2,0.9-2.6c0.5-0.6,1.3-0.9,2.3-0.9C103,65.5,103.7,65.6,104.3,66z"/>
		<path fill="#163F67" d="M108.2,72c0,0.3-0.3,0.8-0.9,1.2l-0.2-0.2v-0.1c0.3-0.3,0.6-0.6,0.6-0.9c0-0.2-0.1-0.3-0.3-0.4v-0.1
			c0.1-0.1,0.3-0.2,0.3-0.2C108.1,71.5,108.2,71.7,108.2,72z"/>
		<path fill="#163F67" d="M118.1,66H117h-0.8v4.1v2h-0.5v-2V66h-0.8h-1.1l0,0l0.1-0.4h4.4l0.1,0.1L118.1,66z"/>
		<path fill="#163F67" d="M124.3,72l-0.2-0.5l-0.5-1.5h-1.5h-1.5l-0.5,1.4l-0.2,0.6h-0.6l2.6-6.6h0.6l2.3,6.6H124.3z M122.2,66.1
			L122.2,66.1l-1.5,3.5h1.3h1.4L122.2,66.1z"/>
		<path fill="#163F67" d="M132,72h-0.7l-0.3-0.4l-1.8-2.6l-1.8,2.6l-0.3,0.4h-0.6l2.3-3.3l-2.2-3.2h0.7l0.3,0.4l1.6,2.3l1.6-2.3
			l0.3-0.4h0.6l-2.1,3.2L132,72z"/>
		<path fill="#163F67" d="M142.2,72l-0.2-0.5l-0.5-1.5H140h-1.5l-0.5,1.4l-0.2,0.6h-0.6l2.6-6.6h0.6l2.3,6.6H142.2z M140.2,66.1
			L140.2,66.1l-1.5,3.5h1.3h1.4L140.2,66.1z"/>
		<path fill="#163F67" d="M150.4,72h-0.5l-3.8-5.6H146V70v2.1h-0.5v-2v-4.6h0.6l3.8,5.6h0.1v-5.6h0.5v4.7L150.4,72L150.4,72z"/>
		<path fill="#163F67" d="M158.3,66.2c0.5,0.5,0.8,1.3,0.8,2.3c0,1.1-0.3,2-0.8,2.6S157,72,156,72c-0.5,0-1.2,0-2-0.1v-2v-4.5h2.2
			C157.1,65.5,157.8,65.7,158.3,66.2z M157.9,70.8c0.4-0.5,0.6-1.3,0.6-2.2c0-0.9-0.2-1.6-0.6-2c-0.4-0.4-1-0.7-1.8-0.7
			c-0.4,0-0.9,0-1.7,0.1v4.1v1.5c0.6,0,1.2,0.1,1.6,0.1C156.9,71.6,157.5,71.4,157.9,70.8z"/>
		<path fill="#163F67" d="M168.2,65.7l-0.1,0.5H168c-0.4-0.3-0.9-0.3-1.3-0.3c-0.3,0-0.5,0.1-0.8,0.2s-0.3,0.3-0.5,0.4
			c-0.1,0.2-0.2,0.4-0.2,0.6s0.1,0.4,0.2,0.5c0.1,0.1,0.3,0.3,0.4,0.4c0.2,0.1,0.4,0.3,0.8,0.4c0.3,0.2,0.7,0.3,0.9,0.5
			c0.3,0.2,0.4,0.3,0.6,0.5c0.2,0.3,0.3,0.5,0.3,0.8s-0.1,0.6-0.3,0.9s-0.4,0.5-0.8,0.7s-0.7,0.3-1.1,0.3c-0.6,0-1.2-0.2-1.7-0.4
			l0.1-0.5h0.1c0.3,0.2,0.5,0.3,0.8,0.4s0.6,0.2,0.9,0.2c0.3,0,0.6-0.1,0.8-0.2c0.3-0.1,0.4-0.3,0.5-0.5c0.1-0.3,0.2-0.4,0.2-0.6
			c0-0.3-0.1-0.4-0.2-0.6c-0.1-0.2-0.3-0.3-0.4-0.4c-0.2-0.1-0.4-0.3-0.8-0.4c-0.3-0.2-0.7-0.3-0.9-0.4s-0.4-0.3-0.6-0.5
			c-0.2-0.2-0.3-0.5-0.3-0.8s0.1-0.6,0.3-0.9s0.4-0.5,0.7-0.6c0.3-0.2,0.7-0.3,1-0.3C167.4,65.5,167.8,65.6,168.2,65.7z"/>
		<path fill="#163F67" d="M175,72h-3.5v-2v-4.5h3.5v0.1l-0.1,0.4h-1.5H172v2.5h1.3h1.1v0.1v0.3H172V70v1.5h1.4h1.6v0.1V72z"/>
		<path fill="#163F67" d="M181.9,72L181.9,72c-0.1,0.1-0.3,0.2-0.4,0.2h-0.1c-0.7-0.9-1.2-1.8-1.7-2.6h-1.3v0.5v2h-0.6v-2v-4.5h1.8
			c0.6,0,1.1,0.2,1.5,0.5s0.5,0.8,0.5,1.4c0,0.5-0.1,0.9-0.3,1.3c-0.3,0.3-0.6,0.6-1,0.8C180.6,70.2,181.2,71,181.9,72z M179.7,69.1
			c0.9-0.3,1.3-0.8,1.3-1.7c0-0.9-0.5-1.4-1.5-1.5h-1.1V69L179.7,69.1z"/>
		<path fill="#163F67" d="M186,72l-2.3-6.6h0.6l0.2,0.6l1.9,5.4h0.1l2-5.4l0.2-0.6h0.6l-2.6,6.6H186z"/>
		<path fill="#163F67" d="M192.3,72h-0.5v-2v-4.5h0.5V70V72z"/>
		<path fill="#163F67" d="M199.9,66l-0.1,0.5h-0.1c-0.5-0.3-1-0.6-1.6-0.6c-0.8,0-1.3,0.3-1.7,0.8s-0.6,1.2-0.6,2.1s0.2,1.6,0.6,2.1
			c0.4,0.5,0.9,0.8,1.6,0.8c0.7,0,1.3-0.3,1.8-0.7h0.1v0.5c-0.6,0.4-1.2,0.6-1.9,0.6c-0.9,0-1.5-0.3-2-0.9s-0.7-1.4-0.7-2.5
			s0.3-1.9,0.8-2.5s1.2-0.9,2.1-0.9C198.8,65.5,199.4,65.6,199.9,66z"/>
		<path fill="#163F67" d="M206.1,72h-3.5v-2v-4.5h3.5v0.1L206,66h-1.5h-1.4v2.5h1.3h1.1v0.1l-0.1,0.4H203v1.1v1.5h1.4h1.6v0.1
			L206.1,72z"/>
		<path fill="#163F67" d="M211.9,65.7l-0.1,0.5h-0.1c-0.4-0.3-0.9-0.3-1.3-0.3c-0.3,0-0.5,0.1-0.8,0.2s-0.3,0.3-0.5,0.4
			c-0.1,0.2-0.2,0.4-0.2,0.6s0.1,0.4,0.2,0.5c0.1,0.1,0.3,0.3,0.4,0.4c0.2,0.1,0.4,0.3,0.8,0.4c0.3,0.2,0.7,0.3,0.9,0.5
			c0.3,0.2,0.4,0.3,0.6,0.5c0.2,0.3,0.3,0.5,0.3,0.8s-0.1,0.6-0.3,0.9s-0.4,0.5-0.8,0.7c-0.3,0.2-0.7,0.3-1.1,0.3
			c-0.6,0-1.2-0.2-1.7-0.4l0.1-0.5h0.1c0.3,0.2,0.5,0.3,0.8,0.4s0.6,0.2,0.9,0.2c0.3,0,0.6-0.1,0.8-0.2c0.3-0.1,0.4-0.3,0.5-0.5
			c0.1-0.3,0.2-0.4,0.2-0.6c0-0.3-0.1-0.4-0.2-0.6s-0.3-0.3-0.4-0.4c-0.2-0.1-0.4-0.3-0.8-0.4c-0.3-0.2-0.7-0.3-0.9-0.4
			s-0.4-0.3-0.6-0.5c-0.2-0.2-0.3-0.5-0.3-0.8s0.1-0.6,0.3-0.9s0.4-0.5,0.7-0.6c0.3-0.2,0.7-0.3,1-0.3
			C211.1,65.5,211.5,65.6,211.9,65.7z"/>
	</g>
	<polyline fill="#163F67" points="116,50.6 116,37.3 116,36.7 115.9,36.6 115.9,36.5 115.9,36.4 115.9,36.4 115.9,36.3 115.9,36.3 
		115.8,36.2 115.8,36.1 115.8,36.1 115.8,36 115.7,35.9 115.7,35.9 115.7,35.8 115.7,35.8 115.7,35.7 115.7,35.7 115.7,35.7 
		115.6,35.7 115.6,35.6 115.6,35.5 115.6,35.4 115.6,35.4 115.5,35.3 115.5,35.3 115.4,35.2 115.4,35.1 115.4,35.1 115.3,35 
		115.3,35 115.3,34.9 115.3,34.8 115.2,34.8 115.2,34.7 115.1,34.6 115.1,34.6 115,34.5 115,34.5 114.9,34.4 114.9,34.3 114.9,34.3 
		114.8,34.2 114.8,34.2 114.7,34.1 114.7,34.1 114.6,34 114.6,33.9 114.5,33.9 114.5,33.9 114.5,33.8 114.4,33.7 114.4,33.7 
		114.3,33.6 114.2,33.6 114.2,33.5 114.2,33.5 114.1,33.5 114.1,33.4 114,33.3 113.9,33.3 113.9,33.2 113.8,33.2 113.8,33.1 
		113.7,33.1 113.7,33.1 113.6,33 113.5,33 113.5,33 113.5,32.9 113.4,32.9 113.3,32.8 113.2,32.8 113.2,32.8 113.1,32.7 113.1,32.7 
		113,32.7 112.9,32.6 112.9,32.6 112.8,32.6 112.7,32.5 112.7,32.5 112.6,32.4 112.6,32.4 112.5,32.4 112.4,32.4 112.4,32.4 
		112.3,32.3 112.2,32.3 112.1,32.3 112.1,32.3 112,32.2 112,32.2 111.9,32.2 111.8,32.2 111.7,32.1 111.6,32.1 111.6,32.1 
		111.5,32.1 111.5,32.1 111.4,32 111.3,32 111.3,32 111.2,32 111.1,32 111,32 111,32 110.9,32 110.8,32 110.8,32 110.7,32 
		110.6,31.9 110.5,31.9 110.5,31.9 110.4,31.9 110.3,31.9 110.2,31.9 110.2,31.9 110.1,31.9 110,31.9 110,31.9 109.9,31.9 
		109.8,31.9 109.8,31.9 109.7,31.9 109.6,31.9 109.5,31.9 109.4,31.9 109.4,32 109.3,32 109.3,32 109.2,32 109.1,32 109.1,32 
		109,32 108.9,32 108.8,32 108.7,32 108.7,32 108.6,32 108.6,32.1 108.5,32.1 108.4,32.1 108.3,32.1 108.3,32.1 108.2,32.2 
		108.1,32.2 108.1,32.2 108,32.2 108,32.3 107.9,32.3 107.8,32.3 107.7,32.3 107.7,32.4 107.6,32.4 107.6,32.4 107.5,32.4 
		107.4,32.4 107.3,32.5 107.3,32.5 107.2,32.5 107.2,32.6 107.1,32.6 107,32.7 106.9,32.7 106.9,32.7 106.8,32.8 106.8,32.8 
		106.7,32.8 106.6,32.8 106.6,32.9 106.5,32.9 106.5,33 106.4,33 106.3,33 106.3,33.1 106.2,33.1 106.1,33.1 106.1,33.2 106,33.2 
		106,33.3 105.9,33.3 105.8,33.4 105.8,33.4 105.8,33.4 105.7,33.5 105.6,33.5 105.6,33.5 105.5,33.6 105.4,33.6 105.4,33.7 
		105.4,33.7 105.3,33.8 105.2,33.8 105.2,33.9 105.1,33.9 105,33.9 105,34 105,34.1 104.9,34.1 104.8,34.2 104.8,34.2 104.7,34.2 
		104.7,34.3 104.7,34.3 104.6,34.4 104.5,34.4 104.5,34.5 104.4,34.5 104.4,34.6 104.3,34.6 104.3,34.7 104.2,34.7 104.2,34.8 
		104.1,34.8 104.1,34.9 104,34.9 103.9,35 103.9,35 103.9,35.1 103.8,35.1 103.8,35.2 103.7,35.2 103.7,35.3 103.6,35.3 103.6,35.4 
		103.5,35.4 103.5,35.5 103.4,35.6 103.4,35.6 103.3,35.7 103.2,35.8 103.2,35.9 103.1,36 103,36.1 102.9,36.2 102.8,36.3 
		102.7,36.4 102.6,36.5 102.5,36.7 102.5,36.8 102.4,36.9 102.3,37 102.2,37.1 102.2,37.1 102,37.3 102,49.5 102,50.6 102,50.8 
		102,51 102,51.1 102,51.2 102,51.4 102,51.5 102.1,51.5 102.1,51.6 102.1,51.7 102.1,51.7 102.1,51.8 102.1,51.8 102.1,51.9 
		102.1,52 102.1,52.1 102.1,52.1 102.1,52.2 102.1,52.2 102.1,52.3 102.1,52.4 102.1,52.5 102.1,52.5 102.1,52.5 102.1,52.6 
		102.1,52.7 102.1,52.8 102.1,52.8 102.1,52.9 102.1,52.9 102.1,53 102.1,53.1 102.1,53.2 102.2,53.2 102.2,53.2 102.2,53.3 
		102.2,53.4 102.2,53.5 102.2,53.5 102.2,53.6 102.2,53.6 102.2,53.6 102.2,53.7 102.3,53.7 102.3,53.8 102.3,53.8 102.3,53.9 
		102.3,53.9 102.3,54 102.3,54 102.3,54 102.4,54 102.4,54.1 102.4,54.1 102.4,54.2 102.4,54.2 102.4,54.3 102.4,54.3 102.5,54.3 
		102.5,54.4 102.5,54.4 102.5,54.4 102.5,54.5 102.5,54.5 102.5,54.5 102.5,54.6 102.5,54.6 102.6,54.7 102.6,54.7 102.6,54.7 
		102.6,54.8 102.7,54.8 102.7,54.8 102.7,54.9 102.7,54.9 102.7,54.9 102.8,55 102.8,55 102.8,55.1 102.8,55.1 102.9,55.1 
		102.9,55.2 102.9,55.2 103,55.3 103,55.3 103,55.4 103.1,55.4 103.1,55.4 103.1,55.4 103.1,55.4 103.2,55.4 103.2,55.5 103.2,55.5 
		103.2,55.5 103.2,55.5 103.3,55.6 103.3,55.6 103.4,55.6 103.4,55.7 103.4,55.7 103.5,55.7 103.5,55.7 103.6,55.8 103.6,55.8 
		103.6,55.8 103.7,55.8 103.7,55.8 103.8,55.9 103.8,55.9 103.9,55.9 103.9,55.9 103.9,55.9 103.9,55.9 103.9,56 104,56 104,56 
		104.1,56 104.1,56 104.2,56 104.2,56.1 104.3,56.1 104.3,56.1 104.3,56.1 104.4,56.1 104.4,56.1 104.5,56.1 104.5,56.1 104.6,56.2 
		104.6,56.2 104.7,56.2 104.7,56.2 104.7,56.2 104.8,56.2 104.8,56.2 104.9,56.2 104.9,56.2 105,56.2 105,56.2 105.1,56.2 
		105.1,56.2 105.2,56.2 105.3,56.2 105.4,56.2 105.4,56.2 105.5,56.3 105.5,56.3 105.6,56.3 105.7,56.3 105.8,56.3 105.8,56.3 
		105.8,56.3 106,56.3 106.1,56.3 106.6,56.3 106.6,57.5 100.1,57.5 96.6,57.5 92.8,57.5 92.1,57.5 92.1,56.3 92.6,56.3 92.7,56.3 
		92.8,56.3 92.9,56.3 92.9,56.3 93,56.3 93,56.3 93.1,56.3 93.2,56.3 93.3,56.2 93.3,56.2 93.4,56.2 93.4,56.2 93.5,56.2 93.6,56.2 
		93.7,56.2 93.7,56.2 93.7,56.2 93.8,56.2 93.8,56.2 93.9,56.2 93.9,56.2 93.9,56.2 94,56.2 94,56.2 94.1,56.2 94.1,56.2 94.1,56.1 
		94.2,56.1 94.2,56.1 94.3,56.1 94.3,56.1 94.4,56.1 94.4,56.1 94.4,56.1 94.5,56 94.5,56 94.6,56 94.6,56 94.6,56 94.7,56 
		94.7,55.9 94.8,55.9 94.8,55.9 94.8,55.9 94.8,55.9 94.9,55.9 94.9,55.8 95,55.8 95,55.8 95.1,55.8 95.1,55.8 95.2,55.7 95.2,55.7 
		95.2,55.7 95.3,55.6 95.3,55.6 95.4,55.6 95.4,55.5 95.5,55.5 95.5,55.4 95.5,55.4 95.5,55.4 95.6,55.4 95.6,55.4 95.6,55.4 
		95.6,55.3 95.7,55.3 95.7,55.2 95.7,55.2 95.8,55.2 95.8,55.1 95.8,55.1 95.9,55.1 95.9,55 95.9,55 95.9,54.9 95.9,54.9 96,54.8 
		96,54.8 96,54.8 96,54.7 96.1,54.7 96.1,54.7 96.1,54.6 96.1,54.6 96.1,54.5 96.2,54.5 96.2,54.5 96.2,54.4 96.2,54.4 96.2,54.3 
		96.3,54.3 96.3,54.3 96.3,54.2 96.3,54.2 96.3,54.2 96.3,54.1 96.3,54.1 96.3,54 96.3,54 96.3,54 96.3,54 96.3,53.9 96.3,53.9 
		96.4,53.8 96.4,53.8 96.4,53.7 96.4,53.7 96.4,53.6 96.4,53.6 96.4,53.6 96.4,53.5 96.4,53.5 96.5,53.4 96.5,53.3 96.5,53.2 
		96.5,53.2 96.5,53.2 96.5,53.1 96.5,53 96.5,52.9 96.5,52.9 96.5,52.8 96.6,52.8 96.6,52.7 96.6,52.6 96.6,52.5 96.6,52.5 
		96.6,52.5 96.6,52.4 96.6,52.3 96.6,52.2 96.6,52.2 96.6,52.1 96.6,52.1 96.6,52 96.6,51.9 96.6,51.8 96.6,51.8 96.6,51.7 
		96.6,51.7 96.6,51.6 96.6,51.5 96.6,51.5 96.6,51.4 96.6,51.2 96.6,51.1 96.6,51 96.6,50.8 96.6,50.6 96.6,50.1 96.6,34 96.6,33.5 
		96.6,33.5 96.6,33.4 96.6,33.4 96.6,33.3 96.6,33.3 96.6,33.2 96.6,33.2 96.5,33.1 96.5,33.1 96.5,33.1 96.5,33 96.5,33 96.5,33 
		96.5,32.9 96.4,32.9 96.4,32.9 96.4,32.8 96.4,32.8 96.4,32.8 96.4,32.8 96.3,32.7 96.3,32.7 96.3,32.6 96.3,32.6 96.3,32.6 
		96.3,32.5 96.3,32.5 96.3,32.5 96.2,32.4 96.2,32.4 96.2,32.4 96.2,32.4 96.1,32.3 96.1,32.3 96.1,32.3 96.1,32.2 96,32.2 96,32.1 
		96,32.1 95.9,32.1 95.9,32 95.9,32 95.9,32 95.9,32 95.8,32 95.8,31.9 95.8,31.9 95.8,31.9 95.7,31.9 95.7,31.8 95.7,31.8 
		95.7,31.8 95.6,31.8 95.6,31.7 95.5,31.7 95.5,31.7 95.5,31.7 95.5,31.7 95.5,31.7 95.4,31.7 95.4,31.7 95.4,31.6 95.3,31.6 
		95.3,31.6 95.2,31.6 95.2,31.6 95.2,31.6 95.2,31.5 95.1,31.5 95.1,31.5 95,31.5 95,31.5 95,31.5 94.9,31.5 94.9,31.5 94.8,31.4 
		94.8,31.4 94.8,31.4 94.7,31.4 94.7,31.4 94.6,31.4 94.6,31.4 94.5,31.4 94.5,31.4 94.4,31.3 94.4,31.3 94.4,31.3 94.3,31.3 
		94.3,31.3 94.2,31.3 94.2,31.3 94.1,31.3 94.1,31.3 94.1,31.3 94,31.3 94,31.3 93.9,31.3 93.9,31.3 93.8,31.3 93.8,31.3 93.7,31.3 
		93.7,31.3 93.7,31.3 93.6,31.2 93.6,31.2 93.5,31.2 93.5,31.2 93.4,31.2 93.4,31.2 93.3,31.2 93.3,31.2 93.3,31.2 93.2,31.2 
		93.2,31.2 93.1,31.2 93.1,31.2 93,31.2 93,31.2 93,31.2 92.9,31.2 92.9,31.2 92.8,31.2 92.8,31.2 92.7,31.2 92.7,31.2 92.6,31.2 
		92.6,31.2 92.6,31.2 92.5,31.2 92.4,31.2 92.3,31.2 92.1,31.2 92.1,29.8 100.6,29.1 102,29.1 102,29.5 102,33.9 102,34.6 
		102.3,34.3 102.4,34.2 102.5,34 102.7,33.9 102.8,33.7 103,33.6 103.1,33.5 103.2,33.3 103.4,33.2 103.6,33.1 103.7,32.9 
		103.8,32.8 103.9,32.6 104,32.6 104.1,32.5 104.2,32.4 104.3,32.4 104.3,32.3 104.4,32.2 104.5,32.2 104.6,32.1 104.7,32 104.7,32 
		104.8,31.9 104.9,31.9 105,31.8 105,31.7 105.1,31.7 105.2,31.6 105.3,31.6 105.3,31.5 105.4,31.4 105.5,31.4 105.6,31.3 
		105.7,31.3 105.7,31.2 105.8,31.1 105.9,31.1 106,31 106.1,31 106.1,30.9 106.2,30.9 106.3,30.8 106.4,30.8 106.5,30.7 106.5,30.7 
		106.6,30.6 106.7,30.6 106.8,30.5 106.9,30.5 107,30.4 107.1,30.4 107.2,30.3 107.2,30.3 107.3,30.2 107.4,30.2 107.5,30.2 
		107.6,30.1 107.7,30.1 107.8,30 107.9,30 108,29.9 108,29.9 108.1,29.9 108.3,29.8 108.3,29.8 108.4,29.8 108.5,29.7 108.6,29.7 
		108.7,29.7 108.8,29.6 108.9,29.6 109,29.6 109.1,29.5 109.2,29.5 109.3,29.5 109.4,29.5 109.4,29.5 109.6,29.4 109.7,29.4 
		109.8,29.4 109.8,29.4 109.9,29.3 110.1,29.3 110.2,29.3 110.2,29.3 110.3,29.2 110.4,29.2 110.5,29.2 110.6,29.2 110.7,29.2 
		110.8,29.2 110.9,29.1 111,29.1 111.1,29.1 111.2,29.1 111.3,29.1 111.4,29.1 111.5,29.1 111.6,29.1 111.7,29.1 111.8,29.1 
		111.9,29.1 112,29.1 112.1,29.1 112.2,29.1 112.3,29.1 112.4,29.1 112.5,29.1 112.6,29.1 112.7,29.1 112.8,29.1 112.9,29.1 
		113,29.1 113.1,29.1 113.2,29.2 113.3,29.2 113.4,29.2 113.5,29.2 113.6,29.2 113.7,29.2 113.8,29.3 113.9,29.3 114,29.3 
		114.1,29.3 114.2,29.4 114.2,29.4 114.4,29.4 114.5,29.4 114.5,29.5 114.6,29.5 114.7,29.5 114.9,29.5 114.9,29.5 115,29.6 
		115.1,29.6 115.2,29.6 115.3,29.7 115.4,29.7 115.5,29.7 115.6,29.8 115.7,29.8 115.8,29.8 115.9,29.9 116,29.9 116,30 116.1,30 
		116.2,30 116.3,30.1 116.4,30.1 116.5,30.2 116.6,30.2 116.7,30.2 116.7,30.3 116.8,30.4 116.9,30.4 117,30.5 117.1,30.5 
		117.2,30.6 117.3,30.6 117.4,30.7 117.5,30.7 117.5,30.8 117.6,30.8 117.7,30.9 117.8,30.9 117.8,31 117.9,31.1 118,31.1 
		118.1,31.2 118.1,31.3 118.2,31.3 118.3,31.4 118.3,31.5 118.4,31.6 118.5,31.6 118.6,31.7 118.6,31.7 118.7,31.8 118.8,31.9 
		118.8,32 118.9,32 118.9,32.1 119,32.2 119.1,32.3 119.1,32.4 119.2,32.4 119.3,32.5 119.3,32.6 119.3,32.7 119.4,32.8 119.5,32.8 
		119.5,32.9 119.6,33 119.7,33.1 119.7,33.2 119.7,33.3 119.8,33.4 119.8,33.5 119.9,33.5 120,33.6 120,33.7 120,33.8 120.1,33.9 
		120.1,33.9 120.2,34 120.2,34.1 120.3,34.2 120.3,34.3 120.4,34.4 120.4,34.5 120.4,34.6 120.5,34.7 120.5,34.8 120.5,34.9 
		120.6,35 120.6,35 120.7,35.1 120.7,35.2 120.7,35.3 120.8,35.4 120.8,35.5 120.8,35.6 120.8,35.7 120.9,35.8 120.9,35.9 120.9,36 
		121,36.1 121,36.1 121,36.3 121.1,36.4 121.1,36.4 121.1,36.5 121.1,36.6 121.1,36.7 121.2,36.8 121.2,36.9 121.2,37 121.2,37.1 
		121.3,37.3 121.3,38.3 121.3,49.2 121.3,50.6 121.3,50.8 121.3,51 121.3,51.1 121.3,51.2 121.3,51.4 121.3,51.5 121.3,51.5 
		121.4,51.6 121.4,51.7 121.4,51.7 121.4,51.8 121.4,51.8 121.4,51.9 121.4,52 121.4,52.1 121.4,52.1 121.4,52.2 121.4,52.2 
		121.4,52.3 121.4,52.4 121.4,52.5 121.4,52.5 121.4,52.5 121.4,52.6 121.4,52.7 121.4,52.8 121.4,52.8 121.5,52.9 121.5,52.9 
		121.5,53 121.5,53.1 121.5,53.2 121.5,53.2 121.5,53.2 121.5,53.3 121.5,53.4 121.5,53.5 121.5,53.5 121.5,53.5 121.5,53.6 
		121.5,53.6 121.5,53.6 121.5,53.7 121.5,53.7 121.6,53.7 121.6,53.8 121.6,53.8 121.6,53.9 121.6,53.9 121.6,54 121.6,54 121.6,54 
		121.7,54.1 121.7,54.1 121.7,54.2 121.7,54.2 121.7,54.3 121.7,54.3 121.8,54.3 121.8,54.4 121.8,54.4 121.8,54.4 121.8,54.5 
		121.8,54.5 121.9,54.5 121.9,54.6 121.9,54.6 121.9,54.7 121.9,54.7 121.9,54.7 121.9,54.7 121.9,54.8 122,54.8 122,54.8 122,54.9 
		122,54.9 122,54.9 122,55 122.1,55 122.1,55 122.1,55.1 122.2,55.1 122.2,55.1 122.2,55.2 122.2,55.2 122.3,55.3 122.3,55.3 
		122.3,55.4 122.4,55.4 122.4,55.4 122.4,55.4 122.4,55.4 122.5,55.4 122.5,55.5 122.5,55.5 122.5,55.5 122.6,55.5 122.6,55.6 
		122.6,55.6 122.7,55.6 122.7,55.7 122.7,55.7 122.8,55.7 122.8,55.7 122.8,55.8 122.9,55.8 122.9,55.8 123,55.8 123,55.8 123,55.8 
		123.1,55.9 123.1,55.9 123.2,55.9 123.2,55.9 123.2,55.9 123.3,55.9 123.3,56 123.3,56 123.3,56 123.4,56 123.4,56 123.5,56 
		123.5,56.1 123.6,56.1 123.6,56.1 123.7,56.1 123.7,56.1 123.7,56.1 123.8,56.1 123.8,56.1 123.9,56.2 123.9,56.2 124,56.2 
		124,56.2 124.1,56.2 124.1,56.2 124.1,56.2 124.2,56.2 124.2,56.2 124.3,56.2 124.3,56.2 124.4,56.2 124.4,56.2 124.5,56.2 
		124.6,56.2 124.7,56.2 124.7,56.2 124.8,56.3 124.8,56.3 124.9,56.3 125,56.3 125,56.3 125.1,56.3 125.2,56.3 125.3,56.3 
		125.4,56.3 125.9,56.3 125.9,57.5 121.3,57.5 116,57.5 111.4,57.5 111.4,56.3 111.9,56.3 112,56.3 112.1,56.3 112.2,56.3 
		112.2,56.3 112.3,56.3 112.4,56.3 112.4,56.3 112.5,56.3 112.6,56.2 112.6,56.2 112.7,56.2 112.7,56.2 112.8,56.2 112.9,56.2 
		112.9,56.2 113,56.2 113.1,56.2 113.1,56.2 113.1,56.2 113.2,56.2 113.2,56.2 113.2,56.2 113.3,56.2 113.3,56.2 113.4,56.2 
		113.4,56.2 113.5,56.1 113.5,56.1 113.5,56.1 113.6,56.1 113.6,56.1 113.7,56.1 113.7,56.1 113.8,56.1 113.8,56 113.8,56 113.9,56 
		113.9,56 113.9,56 114,56 114,55.9 114.1,55.9 114.1,55.9 114.2,55.9 114.2,55.9 114.2,55.8 114.3,55.8 114.3,55.8 114.4,55.8 
		114.4,55.8 114.5,55.7 114.5,55.7 114.5,55.7 114.6,55.6 114.6,55.6 114.7,55.6 114.7,55.5 114.8,55.5 114.8,55.4 114.9,55.4 
		114.9,55.4 114.9,55.3 114.9,55.3 115,55.3 115,55.2 115,55.2 115,55.2 115.1,55.2 115.1,55.1 115.1,55.1 115.2,55.1 115.2,55 
		115.2,55 115.3,54.9 115.3,54.9 115.3,54.8 115.3,54.8 115.3,54.8 115.3,54.7 115.4,54.7 115.4,54.7 115.4,54.6 115.4,54.6 
		115.4,54.5 115.5,54.5 115.5,54.5 115.5,54.4 115.5,54.4 115.5,54.3 115.5,54.3 115.6,54.3 115.6,54.2 115.6,54.2 115.6,54.2 
		115.6,54.1 115.6,54.1 115.6,54 115.6,54 115.6,54 115.6,53.9 115.6,53.9 115.7,53.8 115.7,53.8 115.7,53.7 115.7,53.7 115.7,53.6 
		115.7,53.6 115.7,53.6 115.7,53.5 115.7,53.5 115.8,53.4 115.8,53.3 115.8,53.2 115.8,53.2 115.8,53.2 115.8,53.1 115.8,53 
		115.8,52.9 115.8,52.9 115.8,52.8 115.9,52.8 115.9,52.7 115.9,52.6 115.9,52.5 115.9,52.5 115.9,52.5 115.9,52.4 115.9,52.3 
		115.9,52.2 115.9,52.2 115.9,52.1 115.9,52.1 115.9,52 115.9,51.9 115.9,51.8 115.9,51.8 115.9,51.7 115.9,51.7 115.9,51.6 
		115.9,51.5 115.9,51.5 115.9,51.4 115.9,51.2 116,51.1 116,51 116,50.8 116,50.6 	"/>
	<path fill="#163F67" d="M88.4,50.7l-0.3,0.4l-0.2,0.2l-0.2,0.1l-0.2,0.2l-0.1,0.2L87.2,52L87,52.2l-0.2,0.2l-0.1,0.1l-0.2,0.3
		l-0.1,0.1h-0.1L86.2,53l-0.1,0.1L86,53.2l-0.1,0.1l-0.1,0.1l-0.1,0.1l-0.1,0.1h-0.1l-0.1,0.1l-0.1,0.1l-0.1,0.1V54H85l-0.1,0.1v0.1
		l-0.2,0.1h-0.1l-0.1,0.1l-0.1,0.1l-0.1,0.1l-0.1,0.1h-0.1L84,54.8l-0.1,0.1L83.8,55h-0.1l-0.1,0.1h-0.1h-0.1v0.1h-0.1l-0.1,0.1
		h-0.1L83,55.4h-0.1h-0.2l-0.1,0.1h-0.1l-0.1,0.1h-0.1l-0.2,0.1H82l-0.1,0.1h-0.1h-0.2l-0.1,0.1h-0.1h-0.1L81.2,56H81h-0.1h-0.1
		l-0.2,0.1h-0.1h-0.1h-0.2h-0.1H80l-0.1,0.1h-0.2h-0.1h-0.1h-0.1h-0.2h-0.1H79h-0.2h-0.1h-0.1h-0.2l-0.1-0.1h-0.1h-0.1h-0.2h-0.1
		h-0.1L77.5,56h-0.1h-0.1l-0.1-0.1h-0.1h-0.2l-0.1-0.1h-0.1h-0.2h-0.1l-0.1-0.1h-0.1l-0.1-0.1h-0.2l-0.1-0.1h-0.1l-0.1-0.1h-0.2
		l-0.1-0.1h-0.1l-0.1-0.1H75l-0.1-0.1h-0.1L74.6,55l-0.1-0.1h-0.1l-0.1-0.1l-0.1-0.1h-0.1L74,54.6l-0.1-0.1l-0.1-0.1h-0.2l-0.1-0.1
		v-0.1h-0.2l-0.1-0.1L73.1,54L73,53.9h-0.1l-0.1-0.1l-0.1-0.1l-0.1-0.1l-0.1-0.1l-0.1-0.1v-0.1l-0.1-0.1h-0.2L72,53.1V53l-0.1-0.1
		l-0.1-0.1l-0.1-0.1l-0.1-0.1l-0.1-0.1v-0.1l-0.1-0.1l-0.1-0.1l-0.1-0.1L71.1,52L71,51.9v-0.1l-0.1-0.1l-0.1-0.1l-0.1-0.1v-0.1
		l-0.1-0.1l-0.1-0.1v-0.1L70.4,51l-0.1-0.2l-0.1-0.1v-0.1l-0.1-0.1v-0.1L70,50.3l-0.1-0.1V50h-0.1v-0.2l-0.1-0.1l-0.1-0.1v-0.1
		l-0.1-0.1v-0.2l-0.1-0.1V49l-0.1-0.1l-0.1-0.1v-0.1l-0.1-0.2v-0.1v-0.1L69,48.2v-0.1l-0.1-0.2v-0.1l-0.1-0.1v-0.1v-0.2v-0.1
		l-0.1-0.1v-0.1V47l-0.1-0.2v-0.1v-0.1l-0.1-0.2v-0.1v-0.1l-0.1-0.1v-0.2v-0.1v-0.1v-0.1v-0.2v-0.1l-0.1-0.1V45v-0.1v-0.1v-0.1
		l-0.1-0.2v-0.1v-0.1v-0.2V44v-0.1v-0.2l-0.1-0.2v-0.3V43v-0.3v-0.2L68,42.2v-0.3v-0.2v-0.5v-0.5h0.4h19.9v-0.3v-0.2v-0.1v-0.2v-0.2
		v-0.1v-0.2v-0.1v-0.1v-0.1L88.2,39v-0.1v-0.1v-0.1v-0.1v-0.1v-0.1l-0.1-0.1v-0.1v-0.1V38v-0.1v-0.1L88,37.6v-0.1v-0.1l-0.1-0.2
		v-0.1l-0.1-0.2v-0.1l-0.1-0.2v-0.1l-0.1-0.1l-0.1-0.2v-0.1l-0.1-0.2v-0.1l-0.1-0.1l-0.1-0.2l-0.1-0.1v-0.1L87,35.1L86.9,35
		l-0.1-0.1l-0.1-0.2v-0.1l-0.1-0.1l-0.1-0.2l-0.1-0.1l-0.1-0.1V34l-0.2-0.1L86,33.8l-0.1-0.2v-0.1l-0.1-0.1l-0.2-0.1v-0.2h-0.1
		l-0.2-0.2l-0.1-0.1l-0.1-0.1L85,32.6l-0.1-0.1l-0.1-0.1l-0.1-0.1l-0.1-0.1l-0.1-0.1L84.3,32l-0.1-0.1l-0.1-0.1L84,31.7l-0.1-0.1
		l-0.1-0.1l-0.2-0.1l-0.1-0.1h-0.1l-0.1-0.1l-0.2-0.1L83,31l-0.1-0.1h-0.2l-0.1-0.1l-0.1-0.1l-0.2-0.1h-0.1l-0.1-0.1l-0.2-0.1
		l-0.1-0.1h-0.2l-0.1-0.1h-0.1l-0.2-0.1L81.1,30H81l-0.2-0.1l-0.1-0.1h-0.2h-0.1l-0.2-0.1h-0.1L80,29.6h-0.2l-0.1-0.1h-0.2h-0.1
		l-0.2-0.1h-0.1h-0.2l-0.1-0.1h-0.2h-0.1l-0.2-0.1h-0.1H78h-0.1l-0.2-0.1h-0.1h-0.2h-0.1h-0.2H77h-0.2h-0.1h-0.2h-0.1h-0.2h-0.1
		h-0.2h-0.2h-0.1h-0.2h-0.1h-0.2H75h-0.2l-0.1,0.1h-0.1h-0.2h-0.2l-0.1,0.1h-0.2h-0.1l-0.2,0.1h-0.1h-0.2l-0.1,0.1H73h-0.1h-0.1
		l-0.2,0.1h-0.2l-0.1,0.1h-0.2L72,29.8h-0.1l-0.2,0.1h-0.1L71.4,30h-0.1l-0.1,0.1L71,30.2h-0.1h-0.2l-0.1,0.1l-0.1,0.1l-0.2,0.1
		h-0.1l-0.1,0.1l-0.2,0.1h-0.1l-0.1,0.1l-0.2,0.1h-0.1L69.3,31l-0.2,0.1L69,31.2l-0.1,0.1l-0.1,0.1l-0.2,0.1l-0.1,0.1l-0.1,0.1h-0.1
		l-0.2,0.1L68,31.9L67.9,32l-0.1,0.1l-0.1,0.1l-0.1,0.1l-0.2,0.1l-0.1,0.1l-0.1,0.1l-0.1,0.2H67l-0.1,0.1l-0.1,0.2h-0.1l-0.1,0.2
		l-0.1,0.1l-0.1,0.1l-0.1,0.1l-0.1,0.1l-0.1,0.2H66l-0.1,0.2l-0.1,0.1l-0.1,0.1l-0.1,0.1l-0.1,0.2l-0.1,0.1l-0.1,0.1l-0.1,0.1
		L65.1,35v0.2L65,35.3l-0.1,0.1l-0.1,0.2l-0.1,0.1v0.1l-0.1,0.1l-0.1,0.2l-0.1,0.1v0.1l-0.1,0.1l-0.1,0.2l-0.1,0.1L64,36.9V37
		l-0.1,0.1v0.2l-0.1,0.1l-0.1,0.1v0.2l-0.1,0.2V38l-0.1,0.1v0.1l-0.1,0.2v0.2l-0.1,0.1v0.2V39l-0.1,0.1v0.2v0.1l-0.1,0.2v0.1
		L63,39.9V40l-0.1,0.2v0.1v0.1v0.2l-0.1,0.2v0.1v0.2l-0.1,0.1v0.2v0.1l-0.1,0.1v0.2v0.1v0.2l-0.1,0.2v0.1v0.2v0.1v0.2V43v0.2v0.1
		v0.2v0.1v0.1v0.2v0.2v0.1v0.2v0.1v0.2v0.1V45v0.2v0.1v0.1l0.1,0.2v0.1v0.2V46v0.2v0.1l0.1,0.2v0.2v0.1V47l0.1,0.1v0.2v0.1l0.1,0.1
		v0.2v0.1V48l0.1,0.1v0.2l0.1,0.1v0.2l0.1,0.1v0.2l0.1,0.1v0.2v0.1l0.1,0.1l0.1,0.2v0.1l0.1,0.2V50l0.1,0.1l0.1,0.2v0.1l0.1,0.1
		l0.1,0.2v0.1l0.1,0.1l0.1,0.2l0.1,0.1l0.1,0.1v0.1l0.1,0.2l0.1,0.1l0.1,0.1l0.1,0.2l0.1,0.1l0.1,0.1l0.1,0.1v0.2l0.1,0.1l0.1,0.1
		l0.1,0.1l0.1,0.1l0.1,0.2l0.1,0.1l0.1,0.1l0.1,0.1l0.1,0.1l0.1,0.1l0.1,0.1l0.1,0.2l0.1,0.1l0.2,0.1v0.1l0.2,0.1l0.1,0.1l0.1,0.1
		l0.1,0.1l0.1,0.1l0.1,0.1l0.1,0.1l0.2,0.1l0.1,0.1l0.1,0.1l0.1,0.1l0.1,0.1h0.2l0.1,0.1l0.1,0.1l0.1,0.1l0.2,0.1l0.1,0.1l0.1,0.1
		l0.2,0.1l0.2,0.1l0.1,0.1l0.1,0.1h0.2l0.1,0.1l0.1,0.1h0.2l0.1,0.1l0.2,0.1l0.1,0.1h0.1l0.2,0.1h0.1l0.1,0.1l0.2,0.1h0.1l0.2,0.1
		h0.1l0.1,0.1h0.2l0.1,0.1h0.2l0.2,0.1h0.1h0.1l0.2,0.1h0.1l0.2,0.1h0.1l0.2,0.1h0.1h0.2l0.1,0.1h0.1h0.2h0.1h0.2l0.2,0.1h0.1h0.2
		H75l0.2,0.1h0.1h0.1h0.2h0.1h0.2h0.2l0.1,0.1h0.2h0.1h0.2h0.1H77h0.1h0.2h0.1h0.2h0.1h0.2H78h0.2h0.1h0.2h0.1h0.2l0.2-0.1h0.1h0.2
		h0.1h0.2h0.1l0.2-0.1H80h0.1h0.2l0.2-0.1h0.1h0.2h0.1l0.2-0.1h0.1l0.1-0.1h0.2l0.1-0.1h0.2l0.1-0.1h0.2h0.1l0.1-0.1l0.2-0.1h0.2
		l0.1-0.1h0.1l0.1-0.1l0.2-0.1h0.1l0.2-0.1l0.1-0.1h0.2l0.1-0.1l0.1-0.1l0.1-0.1l0.2-0.1h0.1l0.1-0.1l0.2-0.1l0.1-0.1h0.1l0.1-0.1
		l0.2-0.1l0.1-0.1l0.1-0.1l0.1-0.1l0.1-0.1l0.2-0.1l0.1-0.1l0.1-0.1l0.1-0.1l0.1-0.1l0.1-0.1l0.1-0.1l0.2-0.1l0.1-0.1v-0.1l0.2-0.1
		l0.1-0.1l0.1-0.1l0.1-0.1l0.1-0.2h0.1l0.1-0.2l0.1-0.1l0.1-0.1l0.1-0.1l0.2-0.3l0.2-0.2l0.2-0.2l0.4-0.5v-0.5v-1.5L88.4,50.7z
		 M68,39.1v-0.7v-0.3c0-4.1,3.3-7.5,7.5-7.5c4.1,0,7.5,3.2,7.5,7.4v0.3v1h-0.8H68V39.1z"/>
	<path fill="#163F67" d="M195,31.3v-1.5l9.5-0.9h1.4l0.1,5.6l3.6-2.9c0,0,4.2-3.1,5.9-2.8c1.6,0.3,1.2-0.3,5,2.2l-2.4,5.2
		c0,0-4.7-2.8-6.9-2.6S206,37,206,37v14.2c0,0,0,2.7,0.9,4s3.6,1.3,3.6,1.3v1.6H196v-1.6c0,0,2.6-0.3,3.6-1.3
		c0.9-0.9,0.9-3.7,0.9-4.1c0-0.3,0-17.5,0-17.5s0-2.3-4.2-2.3C195.6,31.3,195,31.3,195,31.3z"/>
</g>
</svg>
