<?xml version="1.0" encoding="utf-8"?>
<!-- Generator: Adobe Illustrator 17.1.0, SVG Export Plug-In . SVG Version: 6.00 Build 0)  -->
<!DOCTYPE svg PUBLIC "-//W3C//DTD SVG 1.1//EN" "http://www.w3.org/Graphics/SVG/1.1/DTD/svg11.dtd">
<svg version="1.1" id="Capa_1" xmlns="http://www.w3.org/2000/svg" xmlns:xlink="http://www.w3.org/1999/xlink" x="0px" y="0px"
	 width="296px" height="300px" viewBox="309 14 296 300" enable-background="new 309 14 296 300" xml:space="preserve">
<g>
	<g>
		<polygon fill="#1A1A1A" points="457,305.5 345.5,265 315.5,163.9 345.5,63.9 457,22.4 562,56.9 598.5,163.9 567,266.5 		"/>
		<polygon fill="#333333" points="359.8,243.3 400.5,209.8 399,170.6 485.5,183.1 510.3,129.2 596.3,157.4 562,56.9 457,22.4 
			345.5,63.9 315.5,163.9 345.5,265 369.8,273.8 		"/>
	</g>
	<g>
		<rect x="534" y="95.8" fill="#B50099" width="1" height="9.7"/>
		<rect x="529.6" y="100.1" fill="#B50099" width="9.7" height="1"/>
	</g>
	<g>
		<path fill="#3D006B" d="M518.6,240.4c-6.4-0.7-11-6.6-10.3-13s6.6-11,13-10.3s11,6.6,10.3,13C531,236.6,525,241.2,518.6,240.4z
			 M521.1,219.2c-5.3-0.6-10.1,3.2-10.7,8.5c-0.6,5.3,3.2,10.1,8.4,10.7c5.3,0.6,10.1-3.2,10.7-8.4
			C530.2,224.6,526.5,219.8,521.1,219.2z"/>
	</g>
	<g>
		<rect x="401.9" y="243.4" fill="#3D006B" width="2.6" height="26.8"/>
		<rect x="389.8" y="255.6" fill="#3D006B" width="26.8" height="2.6"/>
	</g>
	<g>
		<path fill="#E800BA" d="M459.5,49.4c-2.1-0.3-3.7-2.2-3.4-4.3c0.2-2.1,2.2-3.7,4.3-3.4c2.1,0.2,3.7,2.2,3.4,4.3
			C463.7,48.2,461.7,49.7,459.5,49.4z M460.2,43c-1.4-0.2-2.7,0.9-2.9,2.3c-0.2,1.4,0.9,2.7,2.3,2.9c1.4,0.2,2.7-0.9,2.9-2.3
			C462.8,44.5,461.8,43.2,460.2,43z"/>
	</g>
	<g>
		<g>
			<rect x="498.5" y="101.5" fill="#FFFFFF" width="1.4" height="14.8"/>
			<rect x="491.9" y="108.1" fill="#FFFFFF" width="14.7" height="1.4"/>
		</g>
		<g>
			<path fill="#FFFFFF" d="M391,125.1c-3.2,0-5.8-2.6-5.8-5.8c0-3.2,2.6-5.8,5.8-5.8c3.2,0,5.8,2.6,5.8,5.8
				C396.8,122.5,394.2,125.1,391,125.1z M391,115.5c-2.1,0-3.8,1.7-3.8,3.9c0,2.1,1.7,3.8,3.9,3.8c2.1,0,3.8-1.7,3.8-3.9
				C394.8,117.2,393.2,115.5,391,115.5z"/>
		</g>
	</g>
	<g>
		<path fill="#FFFFFF" d="M538,175.9l-0.4,0.4l-0.1,0.2l-0.2,0.1l-0.2,0.2l-0.2,0.2l-0.1,0.2l-0.2,0.2l-0.2,0.2l-0.2,0.1l-0.1,0.3
			l-0.1,0.1h-0.1l-0.1,0.1l-0.1,0.1l-0.1,0.1l-0.1,0.1l-0.1,0.1L535,179l-0.1,0.1h-0.1l-0.1,0.1l-0.1,0.1l-0.1,0.1l-0.1,0.1h-0.1
			l-0.1,0.1l-0.1,0.1l-0.1,0.1h-0.1l-0.1,0.1l-0.1,0.1l-0.1,0.1l-0.1,0.1h-0.1l-0.1,0.1l-0.1,0.1l-0.1,0.1h-0.1h-0.1v0.1h-0.1h-0.1
			v0.1h-0.1l-0.1,0.1h-0.1l-0.1,0.1h-0.1h-0.2l-0.1,0.1h-0.1l-0.1,0.1h-0.2l-0.1,0.1h-0.1l-0.1,0.1h-0.1h-0.2l-0.1,0.1h-0.1h-0.1
			l-0.2,0.1h-0.1h-0.1h-0.2l-0.1,0.1h-0.1H529h-0.1h-0.1h-0.1l-0.1,0.1h-0.2h-0.1h-0.1h-0.2h-0.1h-0.1h-0.2h-0.1h-0.1H527h-0.1
			l-0.1-0.1h-0.1h-0.1h-0.2h-0.1h-0.1l-0.2-0.1h-0.1h-0.1l-0.2-0.1h-0.1h-0.1l-0.1-0.1H525h-0.2h-0.1l-0.1-0.1h-0.1l-0.2-0.1h-0.1
			l-0.1-0.1h-0.1l-0.1-0.1h-0.2l-0.1-0.1h-0.1l-0.1-0.1h-0.1l-0.2-0.1l-0.2-0.1l-0.1-0.1h-0.1l-0.1-0.1l-0.1-0.1h-0.1l-0.1-0.1
			l-0.2-0.1l-0.1-0.1h-0.1l-0.1-0.1l-0.1-0.1h-0.1l-0.1-0.1l-0.1-0.1l-0.1-0.1h-0.1l-0.1-0.1l-0.1-0.1l-0.1-0.1l-0.1-0.1l-0.1-0.1
			l-0.1-0.1v-0.1h-0.2l-0.1-0.1l-0.1-0.1v-0.1l-0.1-0.1l-0.1-0.1l-0.1-0.1l-0.1-0.1v-0.1l-0.1-0.1l-0.1-0.1l-0.1-0.1l-0.1-0.1
			l-0.1-0.1v-0.1l-0.1-0.1l-0.1-0.1l-0.1-0.1v-0.1l-0.1-0.1l-0.1-0.1v-0.1l-0.1-0.1l-0.1-0.2l-0.1-0.1v-0.1l-0.1-0.1v-0.1l-0.1-0.1
			l-0.1-0.1l-0.1-0.2l-0.1-0.2v-0.1l-0.1-0.1v-0.1l-0.1-0.1l-0.1-0.2v-0.1V174l-0.1-0.1l-0.1-0.1v-0.1l-0.1-0.2v-0.1l-0.1-0.1v-0.1
			V173l-0.1-0.2v-0.1l-0.1-0.1v-0.1v-0.2l-0.1-0.1V172v-0.1l-0.1-0.1v-0.2v-0.1v-0.1l-0.1-0.2V171v-0.1l-0.1-0.1v-0.2v-0.1v-0.1
			l-0.1-0.1V170v-0.1v-0.1v-0.2v-0.1v-0.1v-0.1l-0.1-0.2v-0.1v-0.1v-0.2v-0.1v-0.1v-0.2l-0.1-0.2v-0.3v-0.2V167v-0.2l-0.1-0.3v-0.3
			v-0.2v-0.6v-0.6h0.4h22v-0.3v-0.2v-0.1v-0.2v-0.2v-0.1v-0.2v-0.1v-0.1V163l-0.1-0.1v-0.1v-0.1v-0.1v-0.1v-0.1v-0.1l-0.1-0.1V162
			v-0.1v-0.1v-0.1l-0.1-0.1v-0.2v-0.1v-0.1l-0.1-0.2v-0.1l-0.1-0.2l-0.1-0.1v-0.2l-0.1-0.1V160l-0.1-0.2v-0.1l-0.1-0.2l-0.1-0.1
			v-0.1l-0.1-0.2l-0.1-0.1v-0.1l-0.1-0.2l-0.1-0.1l-0.1-0.1l-0.1-0.2V158l-0.1-0.1l-0.1-0.2l-0.1-0.1l-0.1-0.1l-0.1-0.1l-0.1-0.1
			l-0.1-0.1l-0.1-0.2l-0.1-0.1v-0.1l-0.2-0.1l-0.1-0.2l-0.2-0.2l-0.1-0.1l-0.1-0.1l-0.1-0.1l-0.1-0.1l-0.1-0.1l-0.1-0.1l-0.1-0.1
			l-0.2-0.1l-0.1-0.1l-0.1-0.1l-0.1-0.1l-0.1-0.1l-0.1-0.1l-0.2-0.1l-0.1-0.1l-0.1-0.1h-0.2v-0.1l-0.2-0.1L532,154l-0.1-0.1h-0.2
			l-0.1-0.1l-0.1-0.1l-0.2-0.1h-0.1l-0.1-0.1l-0.2-0.1l-0.1-0.1h-0.2l-0.1-0.1h-0.1L530,153l-0.1-0.1h-0.1l-0.2-0.1l-0.1-0.1h-0.2
			h-0.1l-0.2-0.1h-0.1l-0.1-0.1h-0.2l-0.2-0.1h-0.1h-0.2l-0.1-0.1h-0.1h-0.2l-0.1-0.1h-0.2H527l-0.2-0.1h-0.2h-0.1h-0.2l-0.1-0.1
			H526h-0.2h-0.1h-0.2h-0.1h-0.2H525h-0.2h-0.2h-0.1h-0.2h-0.1h-0.2h-0.1h-0.2h-0.1h-0.2h-0.1h-0.2l-0.1,0.1h-0.2h-0.1h-0.2
			l-0.1,0.1h-0.2h-0.2l-0.1,0.1h-0.1h-0.2l-0.1,0.1h-0.2h-0.1h-0.2l-0.1,0.1h-0.2l-0.1,0.1h-0.2l-0.1,0.1h-0.1l-0.2,0.1h-0.2
			l-0.1,0.1H519l-0.1,0.1l-0.2,0.1h-0.2h-0.1l-0.1,0.1l-0.1,0.1l-0.2,0.1h-0.1l-0.1,0.1l-0.2,0.1h-0.1l-0.1,0.1l-0.2,0.1h-0.1
			l-0.1,0.1l-0.2,0.1l-0.1,0.1l-0.1,0.1l-0.2,0.1l-0.1,0.1l-0.1,0.1l-0.1,0.1h-0.1l-0.2,0.1l-0.1,0.1l-0.1,0.1l-0.1,0.1l-0.1,0.1
			l-0.2,0.1l-0.1,0.1l-0.1,0.1l-0.1,0.1l-0.1,0.2h-0.1l-0.1,0.1l-0.1,0.2h-0.1l-0.1,0.2l-0.2,0.1v0.1l-0.1,0.1l-0.1,0.1l-0.1,0.2
			h-0.1l-0.1,0.2l-0.1,0.1l-0.1,0.1l-0.1,0.1l-0.1,0.2l-0.1,0.1l-0.1,0.1l-0.1,0.1l-0.1,0.1l-0.1,0.2v0.1l-0.1,0.1l-0.1,0.2
			l-0.1,0.1l-0.1,0.1v0.1l-0.1,0.2l-0.1,0.1l-0.1,0.1l-0.1,0.1v0.2l-0.1,0.1l-0.1,0.2v0.1l-0.1,0.1v0.2l-0.1,0.1l-0.1,0.1v0.2
			l-0.1,0.2v0.1l-0.1,0.1v0.1l-0.1,0.2v0.2l-0.1,0.1v0.2l-0.1,0.1v0.1l-0.1,0.2v0.1v0.2v0.1l-0.1,0.2v0.1l-0.1,0.2v0.1v0.1l-0.1,0.2
			v0.2v0.1v0.2l-0.1,0.1v0.2v0.1l-0.1,0.1v0.2v0.1v0.2l-0.1,0.2v0.1v0.2v0.1v0.2v0.1v0.2v0.1v0.2v0.1v0.1v0.2v0.2v0.1v0.2v0.1v0.2
			v0.1v0.2v0.2v0.1v0.1l0.1,0.2v0.1v0.2v0.1v0.2v0.1l0.1,0.2v0.2v0.1v0.2l0.1,0.1v0.2v0.1v0.1v0.2l0.1,0.1v0.2l0.1,0.1v0.2l0.1,0.1
			v0.2v0.1l0.1,0.2v0.1l0.1,0.2v0.1l0.1,0.1l0.1,0.2v0.1l0.1,0.2v0.1l0.1,0.1l0.1,0.2v0.1l0.1,0.1l0.1,0.2v0.1l0.1,0.1l0.1,0.2v0.1
			l0.1,0.1l0.1,0.1l0.1,0.2l0.1,0.1l0.1,0.1l0.1,0.2l0.1,0.1l0.1,0.1v0.1l0.1,0.2l0.1,0.1l0.1,0.1l0.1,0.1l0.1,0.1l0.1,0.2l0.1,0.1
			l0.1,0.1l0.1,0.1l0.1,0.1l0.1,0.1l0.1,0.1l0.1,0.2l0.1,0.1l0.1,0.1l0.1,0.1l0.2,0.1v0.1l0.2,0.1l0.1,0.1l0.1,0.1l0.1,0.1l0.1,0.1
			l0.1,0.1l0.2,0.1l0.1,0.1l0.1,0.1l0.1,0.1h0.2l0.1,0.1l0.1,0.1l0.1,0.1l0.1,0.1l0.2,0.1l0.1,0.1l0.1,0.1h0.1l0.2,0.1l0.1,0.1
			l0.1,0.1h0.2l0.1,0.1l0.1,0.1h0.2l0.1,0.1l0.2,0.1l0.1,0.1h0.1l0.2,0.1h0.1l0.1,0.1l0.2,0.1h0.1l0.2,0.1h0.1l0.1,0.1h0.2l0.1,0.1
			h0.2l0.1,0.1h0.2h0.1l0.1,0.1h0.2l0.1,0.1h0.2l0.2,0.1h0.1h0.2l0.1,0.1h0.1h0.2h0.1h0.2l0.1,0.1h0.2h0.1h0.2l0.2,0.1h0.1h0.1h0.2
			h0.1h0.2h0.1l0.2,0.1h0.1h0.2h0.2h0.1h0.2h0.1h0.2h0.1h0.2h0.1h0.2h0.1h0.2h0.1h0.2h0.1h0.2l0.1-0.1h0.2h0.1h0.2h0.2h0.1l0.2-0.1
			h0.1h0.1h0.2l0.1-0.1h0.2h0.1h0.2l0.2-0.1h0.1l0.1-0.1h0.2l0.1-0.1h0.2l0.1-0.1h0.2h0.1l0.1-0.1l0.2-0.1h0.1l0.2-0.1h0.1l0.1-0.1
			l0.2-0.1h0.1l0.2-0.1l0.1-0.1h0.1l0.2-0.1l0.1-0.1l0.1-0.1l0.2-0.1h0.1l0.1-0.1l0.2-0.1v-0.1h0.2l0.1-0.1l0.1-0.1l0.2-0.1l0.1-0.1
			l0.1-0.1l0.1-0.1l0.2-0.1v-0.1l0.2-0.1l0.1-0.1l0.1-0.1l0.1-0.1l0.1-0.1l0.2-0.1v-0.1l0.1-0.1l0.2-0.1V180l0.2-0.1l0.1-0.1
			l0.1-0.2h0.1l0.1-0.2l0.1-0.1l0.1-0.1l0.1-0.1l0.2-0.3l0.2-0.2l0.2-0.2l0.3-0.6v-0.6v-1.7L538,175.9z M515.4,163v-0.8v-0.3
			c0-4.5,3.7-8.3,8.3-8.3c4.5,0,8.3,3.5,8.3,8.2v0.3v1.1h-0.9h-15.7V163z"/>
		<polygon fill="#FFFFFF" points="362.2,183.4 362.2,182.1 361,182.1 360.9,182.1 360.8,182.1 360.8,182.1 360.7,182.1 360.6,182.1 
			360.6,181.9 360.5,181.9 360.5,181.9 360.4,181.9 360.4,181.9 360.4,181.9 360.4,181.9 360.2,181.9 360.2,181.9 360.1,181.9 
			360.1,181.9 360,181.9 360,181.9 360,181.9 359.9,181.9 359.9,181.8 359.9,181.8 359.8,181.8 359.8,181.8 359.7,181.8 
			359.7,181.8 359.6,181.8 359.6,181.7 359.6,181.7 359.6,181.7 359.5,181.7 359.5,181.7 359.4,181.7 359.4,181.6 359.4,181.6 
			359.3,181.6 359.3,181.6 359.1,181.5 359.1,181.5 359.1,181.5 359,181.5 359,181.5 359,181.5 358.9,181.5 358.9,181.4 
			358.9,181.4 358.8,181.4 358.8,181.3 358.8,181.3 358.8,181.3 358.7,181.3 358.7,181.2 358.6,181.2 358.6,181.1 358.5,181.1 
			358.5,181.1 358.5,181.1 358.4,181.1 358.4,181 358.4,181 358.4,181 358.4,181 358.4,180.8 358.3,180.8 358.3,180.7 358.3,180.7 
			358.1,180.7 358.1,180.7 358.1,180.7 358.1,180.6 358,180.6 358,180.5 358,180.5 357.9,180.4 357.9,180.4 357.9,180.4 
			357.9,180.3 357.9,180.3 357.9,180.3 357.8,180.3 357.8,180.2 357.8,180.2 357.8,180.1 357.7,180.1 357.7,180 357.7,180 
			357.7,179.8 357.6,179.8 357.6,179.8 357.6,179.7 357.6,179.7 357.6,179.6 357.6,179.6 357.6,179.5 357.5,179.5 357.5,179.5 
			357.5,179.5 357.5,179.4 357.5,179.4 357.5,179.3 357.4,179.3 357.4,179.2 357.4,179.2 357.4,179.1 357.4,179.1 357.4,179.1 
			357.3,179.1 357.3,179 357.3,179 357.3,178.8 357.3,178.8 357.3,178.7 357.3,178.7 357.1,178.6 357.1,178.6 357.1,178.5 
			357.1,178.4 357.1,178.4 357.1,178.3 357.1,178.3 357.1,178.2 357.1,178.2 357.1,178.1 357.1,178 357,178 357,177.9 357,177.9 
			357,177.7 357,177.6 357,177.6 357,177.5 357,177.4 357,177.4 357,177.4 357,177.3 357,177.2 356.9,177.2 356.9,177.1 
			356.9,177.1 356.9,177 356.9,176.9 356.9,176.9 356.9,176.7 356.9,176.6 356.9,176.6 356.9,176.5 356.9,176.5 356.9,176.3 
			356.9,176.3 356.9,176.1 356.9,176 356.8,175.7 356.8,173.4 356.8,144.6 356.8,141.8 356.9,141.5 356.9,141.4 356.9,141.3 
			356.9,141.1 356.9,141 356.9,141 356.9,140.8 356.9,140.7 356.9,140.7 356.9,140.6 356.9,140.6 356.9,140.5 356.9,140.4 
			356.9,140.4 356.9,140.3 357,140.2 357,140.2 357,140.2 357,140.1 357,140 357,140 357,139.9 357,139.7 357,139.7 357,139.6 
			357,139.6 357,139.5 357.1,139.4 357.1,139.4 357.1,139.3 357.1,139.3 357.1,139.2 357.1,139.1 357.1,139.1 357.1,139 357.1,139 
			357.1,138.9 357.1,138.9 357.3,138.7 357.3,138.6 357.3,138.6 357.3,138.5 357.3,138.5 357.3,138.5 357.4,138.4 357.4,138.4 
			357.4,138.3 357.4,138.3 357.4,138.2 357.4,138.2 357.5,138.2 357.5,138.1 357.5,138.1 357.5,138.1 357.5,138 357.5,138 
			357.6,137.9 357.6,137.9 357.6,137.7 357.6,137.7 357.6,137.7 357.6,137.7 357.6,137.7 357.6,137.6 357.6,137.6 357.7,137.5 
			357.7,137.5 357.7,137.4 357.7,137.4 357.8,137.4 357.8,137.3 357.8,137.3 357.8,137.3 357.8,137.3 357.9,137.2 357.9,137.2 
			357.9,137.1 357.9,137.1 357.9,137 358,137 358,137 358,137 358,136.9 358.1,136.9 358.1,136.9 358.1,136.7 358.1,136.7 
			358.1,136.7 358.3,136.7 358.3,136.6 358.3,136.6 358.3,136.6 358.4,136.6 358.4,136.5 358.4,136.5 358.4,136.5 358.5,136.4 
			358.5,136.4 358.6,136.3 358.6,136.3 358.7,136.3 358.7,136.2 358.7,136.2 358.7,136.2 358.8,136.2 358.8,136.1 358.8,136.1 
			358.8,136.1 358.8,136.1 358.9,136.1 358.9,136.1 358.9,136.1 359,136 359,136 359.1,136 359.1,136 359.1,135.9 359.1,135.9 
			359.3,135.9 359.3,135.9 359.3,135.9 359.4,135.9 359.4,135.8 359.4,135.8 359.5,135.8 359.5,135.8 359.6,135.8 359.6,135.8 
			359.6,135.8 359.7,135.6 359.7,135.6 359.8,135.6 359.8,135.6 359.9,135.6 359.9,135.6 360,135.5 360,135.5 360,135.5 
			360.1,135.5 360.1,135.5 360.2,135.5 360.2,135.5 360.4,135.5 360.4,135.5 360.4,135.4 360.5,135.4 360.5,135.4 360.6,135.4 
			360.6,135.4 360.7,135.4 360.8,135.4 360.8,135.4 360.9,135.4 361,135.4 361.8,135.4 362.2,135.4 362.2,134.1 356.8,134.1 
			345.4,134.1 344.7,134.1 344.7,135.4 346.1,135.4 346.2,135.4 346.2,135.4 346.3,135.4 346.4,135.4 346.4,135.4 346.5,135.4 
			346.5,135.4 346.6,135.4 346.6,135.4 346.6,135.4 346.7,135.5 346.7,135.5 346.8,135.5 346.8,135.5 347,135.5 347,135.5 
			347,135.5 347.1,135.5 347.1,135.5 347.1,135.5 347.1,135.6 347.2,135.6 347.2,135.6 347.3,135.6 347.3,135.6 347.4,135.6 
			347.4,135.6 347.4,135.8 347.4,135.8 347.5,135.8 347.5,135.8 347.6,135.8 347.6,135.8 347.6,135.8 347.7,135.8 347.7,135.8 
			347.7,135.9 347.8,135.9 347.8,135.9 347.8,135.9 347.8,135.9 348,136 348,136 348.1,136 348.1,136 348.1,136.1 348.2,136.1 
			348.2,136.1 348.2,136.1 348.3,136.1 348.3,136.1 348.3,136.1 348.3,136.2 348.4,136.2 348.4,136.2 348.4,136.3 348.5,136.3 
			348.5,136.3 348.6,136.4 348.6,136.4 348.6,136.5 348.6,136.5 348.7,136.5 348.7,136.5 348.7,136.5 348.7,136.6 348.8,136.6 
			348.8,136.6 348.8,136.6 348.8,136.7 348.9,136.7 348.9,136.9 348.9,136.9 349.1,136.9 349.1,137 349.1,137 349.1,137 
			349.1,137.1 349.2,137.1 349.2,137.2 349.2,137.2 349.2,137.2 349.2,137.3 349.3,137.3 349.3,137.3 349.3,137.3 349.3,137.3 
			349.3,137.4 349.4,137.4 349.4,137.4 349.4,137.5 349.4,137.5 349.4,137.6 349.4,137.6 349.4,137.6 349.4,137.7 349.5,137.7 
			349.5,137.7 349.5,137.7 349.5,137.9 349.5,137.9 349.5,138 349.6,138 349.6,138 349.6,138.1 349.6,138.1 349.6,138.2 
			349.6,138.2 349.7,138.2 349.7,138.2 349.7,138.3 349.7,138.3 349.7,138.4 349.7,138.4 349.7,138.5 349.8,138.5 349.8,138.5 
			349.8,138.5 349.8,138.6 349.8,138.6 349.8,138.7 349.8,138.9 349.8,138.9 349.8,139 349.8,139 349.9,139.1 349.9,139.1 
			349.9,139.2 349.9,139.3 349.9,139.3 349.9,139.4 349.9,139.4 349.9,139.5 350.1,139.6 350.1,139.6 350.1,139.7 350.1,139.7 
			350.1,139.9 350.1,140 350.1,140 350.1,140.1 350.1,140.2 350.1,140.2 350.1,140.2 350.1,140.3 350.2,140.4 350.2,140.4 
			350.2,140.5 350.2,140.6 350.2,140.6 350.2,140.7 350.2,140.7 350.2,140.8 350.2,141 350.2,141 350.2,141.1 350.2,141.3 
			350.2,141.4 350.2,141.5 350.2,141.8 350.2,143.3 350.2,175.4 350.2,176 350.2,176 350.2,176.1 350.2,176.3 350.2,176.3 
			350.2,176.5 350.2,176.5 350.2,176.6 350.2,176.6 350.2,176.7 350.2,176.9 350.2,176.9 350.2,177 350.2,177.1 350.2,177.1 
			350.1,177.2 350.1,177.2 350.1,177.3 350.1,177.4 350.1,177.4 350.1,177.4 350.1,177.5 350.1,177.6 350.1,177.6 350.1,177.7 
			350.1,177.9 350.1,177.9 349.9,178 349.9,178 349.9,178.1 349.9,178.2 349.9,178.2 349.9,178.3 349.9,178.3 349.9,178.4 
			349.8,178.4 349.8,178.5 349.8,178.6 349.8,178.6 349.8,178.7 349.8,178.7 349.8,178.8 349.8,178.8 349.8,179 349.8,179 
			349.7,179.1 349.7,179.1 349.7,179.1 349.7,179.2 349.7,179.2 349.7,179.3 349.6,179.3 349.6,179.3 349.6,179.4 349.6,179.4 
			349.6,179.5 349.6,179.5 349.5,179.5 349.5,179.6 349.5,179.6 349.5,179.7 349.5,179.7 349.4,179.8 349.4,179.8 349.4,179.8 
			349.4,179.8 349.4,180 349.4,180 349.4,180 349.4,180.1 349.3,180.1 349.3,180.2 349.3,180.2 349.2,180.3 349.2,180.3 
			349.2,180.3 349.2,180.3 349.2,180.4 349.1,180.4 349.1,180.4 349.1,180.5 349.1,180.5 349.1,180.5 349.1,180.6 348.9,180.6 
			348.9,180.7 348.8,180.7 348.8,180.7 348.8,180.8 348.7,180.8 348.7,181 348.6,181 348.6,181.1 348.6,181.1 348.6,181.1 
			348.6,181.1 348.5,181.1 348.5,181.2 348.4,181.2 348.4,181.3 348.3,181.3 348.3,181.3 348.3,181.4 348.2,181.4 348.2,181.4 
			348.1,181.5 348.1,181.5 348.1,181.5 348,181.5 348,181.5 347.8,181.5 347.8,181.6 347.8,181.6 347.7,181.6 347.7,181.6 
			347.6,181.7 347.6,181.7 347.5,181.7 347.5,181.7 347.4,181.7 347.4,181.8 347.4,181.8 347.3,181.8 347.3,181.8 347.3,181.8 
			347.2,181.8 347.2,181.8 347.1,181.9 347.1,181.9 347.1,181.9 347,181.9 347,181.9 346.8,181.9 346.8,181.9 346.7,181.9 
			346.7,181.9 346.6,181.9 346.6,181.9 346.6,181.9 346.5,181.9 346.5,182.1 346.4,182.1 346.4,182.1 346.3,182.1 346.2,182.1 
			346.2,182.1 346.1,182.1 344.7,182.1 344.7,183.4 		"/>
		<polygon fill="#FFFFFF" points="380.4,138.6 380.6,138.5 380.9,138.4 381,138.3 381.1,138.2 381.2,138.2 381.3,138.1 381.4,138 
			381.5,138 381.5,137.9 381.6,137.7 381.9,137.7 381.9,137.6 382,137.6 382.1,137.5 382.2,137.5 382.2,137.4 382.3,137.4 
			382.3,137.3 382.4,137.3 382.4,137.3 382.5,137.3 382.5,137.3 382.6,137.2 382.6,137.2 382.6,137.2 382.7,137.1 382.7,137.1 
			382.8,137.1 383,137 383,137 383.1,137 383.1,137 383.1,136.9 383.2,136.9 383.2,136.9 383.3,136.9 383.4,136.7 383.4,136.7 
			383.5,136.7 383.5,136.6 383.5,136.6 383.6,136.6 383.7,136.5 383.7,136.5 383.8,136.5 383.8,136.5 383.8,136.5 384,136.4 
			384.1,136.4 384.1,136.4 384.2,136.4 384.2,136.3 384.3,136.3 384.3,136.3 384.4,136.2 384.4,136.2 384.5,136.2 384.5,136.2 
			384.6,136.1 384.7,136.1 384.7,136.1 384.7,136.1 384.8,136.1 385,136.1 385,136 385.1,136 385.1,136 385.2,136 385.2,136 
			385.3,135.9 385.3,135.9 385.4,135.9 385.5,135.9 385.5,135.9 385.5,135.8 385.6,135.8 385.7,135.8 385.7,135.8 385.8,135.8 
			386,135.8 386,135.8 386,135.8 386.1,135.6 386.2,135.6 386.2,135.6 386.3,135.6 386.3,135.6 386.4,135.6 386.4,135.5 
			386.5,135.5 386.6,135.5 386.6,135.5 386.7,135.5 386.7,135.5 386.8,135.5 386.8,135.5 386.9,135.4 386.9,135.4 387.1,135.4 
			387.2,135.4 387.2,135.4 387.3,135.4 387.3,135.4 387.4,135.4 387.5,135.4 387.5,135.4 387.5,135.4 387.6,135.4 387.7,135.4 
			387.7,135.4 391,135.4 391,134.1 372.3,134.1 372.3,134.6 372.3,135.4 372.4,135.4 372.5,135.4 372.5,135.4 372.5,135.4 
			372.7,135.4 372.7,135.4 372.8,135.4 372.8,135.4 372.9,135.4 372.9,135.4 373,135.4 373,135.4 373,135.5 373.1,135.5 
			373.1,135.5 373.2,135.5 373.2,135.5 373.3,135.5 373.3,135.5 373.3,135.6 373.4,135.6 373.4,135.6 373.5,135.6 373.5,135.6 
			373.7,135.6 373.7,135.8 373.7,135.8 373.8,135.8 373.8,135.8 373.8,135.8 373.9,135.8 373.9,135.8 374,135.9 374,135.9 
			374.1,135.9 374.1,135.9 374.2,136 374.2,136 374.2,136 374.3,136 374.3,136.1 374.3,136.1 374.4,136.1 374.4,136.1 374.4,136.1 
			374.5,136.1 374.5,136.2 374.5,136.2 374.5,136.2 374.7,136.2 374.7,136.3 374.7,136.3 374.8,136.3 374.8,136.4 374.9,136.4 
			374.9,136.4 374.9,136.4 374.9,136.5 375,136.5 375,136.5 375,136.5 375,136.5 375,136.6 375.1,136.6 375.1,136.7 375.1,136.7 
			375.1,136.7 375.1,136.9 375.2,136.9 375.2,136.9 375.2,137 375.2,137 375.3,137 375.3,137 375.3,137.1 375.3,137.1 375.3,137.2 
			375.3,137.2 375.4,137.3 375.4,137.3 375.4,137.3 375.4,137.4 375.4,137.4 375.4,137.5 375.4,137.5 375.4,137.5 375.4,137.6 
			375.4,137.6 375.4,137.7 375.4,137.7 375.4,137.7 375.4,137.9 375.5,137.9 375.5,138 375.5,138 375.5,138.1 375.5,138.1 
			375.5,138.2 375.5,138.2 375.5,138.2 375.5,138.3 375.5,138.3 375.5,138.4 375.4,138.4 375.4,138.4 375.4,138.5 375.4,138.5 
			375.4,138.5 375.4,138.6 375.4,138.6 375.4,138.7 375.4,138.7 375.4,138.9 375.4,138.9 375.4,139 375.4,139 375.4,139 375.4,139 
			375.4,139.1 375.3,139.1 375.3,139.1 375.3,139.2 375.3,139.2 375.3,139.2 375.3,139.3 375.3,139.3 375.2,139.4 375.2,139.4 
			375.2,139.4 375.2,139.5 375.1,139.5 375.1,139.5 375.1,139.6 375.1,139.6 375.1,139.7 375,139.7 375,139.7 375,139.7 375,139.9 
			375,139.9 375,139.9 375,140 374.9,140 374.9,140 374.9,140.1 374.9,140.1 374.8,140.1 374.8,140.2 374.8,140.2 374.8,140.2 
			374.7,140.2 374.7,140.3 374.7,140.3 374.5,140.4 374.5,140.4 374.5,140.5 374.5,140.5 374.4,140.6 374.4,140.6 374.3,140.6 
			374.3,140.6 374.3,140.7 374.2,140.7 374.2,140.8 373.9,141.2 356.8,158 356.8,159.1 380.9,183.4 392.5,183.4 392.5,181.9 
			392.4,181.9 392.4,181.9 392.3,181.9 392.3,181.9 392.2,181.8 392,181.8 392,181.8 392,181.8 391.9,181.8 391.8,181.8 
			391.8,181.8 391.7,181.8 391.6,181.8 391.6,181.8 391.6,181.8 391.5,181.8 391.4,181.8 391.4,181.8 391.3,181.8 391.2,181.8 
			391.2,181.8 391.2,181.7 391,181.7 390.9,181.7 390.9,181.7 390.8,181.7 390.8,181.7 390.7,181.7 390.7,181.7 390.6,181.7 
			390.5,181.6 390.5,181.6 390.4,181.6 390.4,181.6 390.3,181.6 390.3,181.6 390.2,181.6 390.2,181.6 390.1,181.5 389.9,181.5 
			389.9,181.5 389.9,181.5 389.8,181.5 389.7,181.5 389.7,181.5 389.6,181.5 389.6,181.5 389.5,181.4 389.5,181.4 389.4,181.4 
			389.3,181.4 389.3,181.4 389.2,181.3 389.2,181.3 389.1,181.3 389.1,181.3 388.9,181.3 388.9,181.2 388.8,181.2 388.7,181.2 
			388.7,181.2 388.7,181.2 388.6,181.1 388.6,181.1 388.5,181.1 388.5,181.1 388.4,181.1 388.4,181.1 388.4,181.1 388.4,181.1 
			388.4,181 388.3,181 388.3,181 388.3,181 388.2,181 388.2,181 388.2,180.8 388.1,180.8 388.1,180.8 388.1,180.8 387.9,180.8 
			387.9,180.8 387.9,180.7 387.9,180.7 387.8,180.7 387.8,180.7 387.7,180.7 387.6,180.6 387.6,180.6 387.5,180.5 387.5,180.5 
			387.5,180.5 387.4,180.4 387.4,180.4 387.3,180.4 387.3,180.3 387.2,180.3 387.2,180.3 387.2,180.3 387.1,180.2 387.1,180.2 
			386.9,180.1 386.9,180.1 386.8,180.1 386.7,180 386.6,179.8 386.5,179.8 386.4,179.7 386.3,179.6 386.3,179.5 386.2,179.5 
			386.1,179.4 386,179.3 385.8,179.3 385.7,179.2 385.6,179.1 385.5,179 385.3,178.7 362.9,156 374.2,144.8 		"/>
		<polyline fill="#FFFFFF" points="494,175.7 494,161 494,160.3 493.9,160.2 493.9,160.1 493.9,160 493.9,160 493.9,159.9 
			493.9,159.9 493.7,159.8 493.7,159.7 493.7,159.7 493.7,159.6 493.7,159.5 493.7,159.5 493.7,159.3 493.6,159.3 493.6,159.2 
			493.6,159.2 493.6,159.2 493.6,159.2 493.6,159.1 493.5,159 493.5,158.9 493.5,158.9 493.4,158.8 493.4,158.8 493.3,158.7 
			493.3,158.6 493.3,158.6 493.3,158.5 493.2,158.5 493.2,158.4 493.2,158.2 493.1,158.2 493.1,158.1 493,158 493,158 493,157.9 
			492.9,157.9 492.9,157.8 492.8,157.7 492.8,157.7 492.6,157.6 492.6,157.6 492.5,157.5 492.5,157.5 492.5,157.4 492.4,157.2 
			492.4,157.2 492.3,157.2 492.3,157.1 492.2,157 492.2,157 492.1,156.9 492.1,156.9 492,156.8 492,156.8 491.9,156.8 491.9,156.7 
			491.8,156.6 491.8,156.6 491.6,156.5 491.6,156.5 491.5,156.4 491.4,156.4 491.4,156.4 491.3,156.2 491.3,156.2 491.2,156.2 
			491.2,156.1 491.1,156.1 491,156 490.9,156 490.9,156 490.9,155.9 490.8,155.9 490.6,155.9 490.5,155.8 490.5,155.8 490.4,155.8 
			490.4,155.7 490.3,155.7 490.2,155.6 490.2,155.6 490.1,155.6 490.1,155.6 490,155.6 489.9,155.5 489.8,155.5 489.6,155.5 
			489.6,155.5 489.5,155.4 489.5,155.4 489.4,155.4 489.3,155.4 489.3,155.2 489.2,155.2 489.1,155.2 489,155.2 489,155.2 
			488.9,155.1 488.9,155.1 488.8,155.1 488.7,155.1 488.5,155.1 488.4,155.1 488.4,155.1 488.3,155.1 488.2,155.1 488.2,155.1 
			488.1,155.1 488,155 488,155 487.9,155 487.8,155 487.7,155 487.7,155 487.5,155 487.4,155 487.3,155 487.3,155 487.2,155 
			487.2,155 487.1,155 487,155 486.9,155 486.9,155 486.8,155 486.7,155.1 486.5,155.1 486.5,155.1 486.4,155.1 486.3,155.1 
			486.3,155.1 486.2,155.1 486.1,155.1 486,155.1 486,155.1 485.9,155.1 485.8,155.1 485.8,155.2 485.7,155.2 485.7,155.2 
			485.5,155.2 485.4,155.2 485.3,155.4 485.2,155.4 485.2,155.4 485.1,155.4 485.1,155.5 485,155.5 484.9,155.5 484.9,155.5 
			484.8,155.6 484.7,155.6 484.7,155.6 484.6,155.6 484.4,155.6 484.4,155.7 484.3,155.7 484.2,155.7 484.2,155.8 484.1,155.8 
			484,155.9 484,155.9 483.9,155.9 483.8,156 483.8,156 483.7,156 483.7,156 483.6,156.1 483.4,156.1 483.4,156.2 483.3,156.2 
			483.2,156.2 483.2,156.4 483.1,156.4 483.1,156.4 483,156.5 482.9,156.5 482.9,156.6 482.8,156.6 482.8,156.7 482.7,156.7 
			482.7,156.7 482.6,156.8 482.4,156.8 482.4,156.8 482.4,156.9 482.3,156.9 482.2,157 482.2,157 482.1,157.1 482,157.1 482,157.2 
			482,157.2 481.9,157.2 481.8,157.4 481.8,157.5 481.7,157.5 481.6,157.6 481.6,157.6 481.6,157.6 481.4,157.7 481.4,157.7 
			481.3,157.8 481.2,157.8 481.2,157.9 481.2,157.9 481.1,158 481.1,158 481,158.1 480.9,158.1 480.9,158.2 480.8,158.2 
			480.8,158.4 480.8,158.4 480.7,158.5 480.6,158.5 480.6,158.6 480.5,158.6 480.5,158.7 480.3,158.7 480.3,158.8 480.3,158.8 
			480.2,158.9 480.1,158.9 480.1,159 480,159.1 480,159.1 480,159.2 479.9,159.3 479.8,159.5 479.7,159.6 479.6,159.7 479.5,159.8 
			479.3,159.9 479.2,160 479.1,160.1 479.1,160.3 479,160.5 478.9,160.6 478.8,160.7 478.7,160.8 478.7,160.8 478.5,161 
			478.5,174.5 478.5,175.7 478.5,176 478.5,176.2 478.5,176.3 478.5,176.4 478.5,176.6 478.5,176.7 478.6,176.7 478.6,176.9 
			478.6,177 478.6,177 478.6,177.1 478.6,177.1 478.6,177.2 478.6,177.3 478.6,177.4 478.6,177.4 478.6,177.5 478.6,177.5 
			478.6,177.6 478.6,177.7 478.6,177.9 478.6,177.9 478.6,177.9 478.6,178 478.6,178.1 478.6,178.2 478.6,178.2 478.7,178.3 
			478.7,178.3 478.7,178.4 478.7,178.5 478.7,178.6 478.7,178.6 478.7,178.6 478.7,178.7 478.7,178.8 478.7,179 478.8,179 
			478.8,179.1 478.8,179.1 478.8,179.1 478.8,179.2 478.8,179.2 478.8,179.3 478.8,179.3 478.8,179.4 478.8,179.4 478.8,179.5 
			478.8,179.5 478.8,179.5 478.9,179.5 478.9,179.6 478.9,179.6 478.9,179.7 478.9,179.7 478.9,179.8 478.9,179.8 479,179.8 
			479,180 479,180 479,180 479,180.1 479,180.1 479.1,180.1 479.1,180.2 479.1,180.2 479.1,180.3 479.1,180.3 479.1,180.3 
			479.1,180.4 479.2,180.4 479.2,180.4 479.2,180.5 479.2,180.5 479.2,180.5 479.3,180.6 479.3,180.6 479.3,180.7 479.5,180.7 
			479.5,180.7 479.5,180.8 479.6,180.8 479.6,181 479.6,181 479.6,181.1 479.7,181.1 479.7,181.1 479.7,181.1 479.7,181.1 
			479.8,181.1 479.8,181.2 479.8,181.2 479.8,181.2 479.9,181.2 479.9,181.3 480,181.3 480,181.3 480,181.4 480,181.4 480.1,181.4 
			480.1,181.4 480.2,181.5 480.2,181.5 480.3,181.5 480.3,181.5 480.3,181.5 480.5,181.6 480.5,181.6 480.6,181.6 480.6,181.6 
			480.6,181.6 480.7,181.6 480.7,181.7 480.7,181.7 480.8,181.7 480.8,181.7 480.8,181.7 480.9,181.7 480.9,181.8 481,181.8 
			481,181.8 481.1,181.8 481.1,181.8 481.2,181.8 481.2,181.8 481.2,181.8 481.3,181.9 481.3,181.9 481.4,181.9 481.4,181.9 
			481.6,181.9 481.6,181.9 481.6,181.9 481.7,181.9 481.7,181.9 481.8,181.9 481.8,181.9 481.9,181.9 482,181.9 482,181.9 
			482.1,181.9 482.2,181.9 482.2,181.9 482.3,182.1 482.4,182.1 482.4,182.1 482.6,182.1 482.7,182.1 482.7,182.1 482.8,182.1 
			482.9,182.1 483,182.1 483.6,182.1 483.6,183.4 476.4,183.4 472.6,183.4 468.4,183.4 467.5,183.4 467.5,182.1 468,182.1 
			468.2,182.1 468.3,182.1 468.4,182.1 468.4,182.1 468.5,182.1 468.6,182.1 468.6,182.1 468.7,182.1 468.8,181.9 468.8,181.9 
			468.9,181.9 469,181.9 469,181.9 469.2,181.9 469.3,181.9 469.3,181.9 469.4,181.9 469.4,181.9 469.4,181.9 469.5,181.9 
			469.5,181.9 469.5,181.9 469.6,181.9 469.6,181.9 469.7,181.9 469.7,181.9 469.8,181.8 469.8,181.8 469.8,181.8 469.9,181.8 
			469.9,181.8 470,181.8 470,181.8 470.1,181.8 470.1,181.7 470.3,181.7 470.3,181.7 470.3,181.7 470.3,181.7 470.4,181.7 
			470.4,181.6 470.5,181.6 470.5,181.6 470.5,181.6 470.6,181.6 470.6,181.6 470.6,181.5 470.7,181.5 470.7,181.5 470.8,181.5 
			470.8,181.5 470.9,181.4 470.9,181.4 471,181.4 471,181.3 471,181.3 471.1,181.3 471.1,181.2 471.3,181.2 471.3,181.1 
			471.4,181.1 471.4,181.1 471.4,181.1 471.4,181.1 471.5,181.1 471.5,181 471.5,181 471.5,180.8 471.5,180.8 471.6,180.8 
			471.6,180.7 471.6,180.7 471.7,180.7 471.7,180.6 471.7,180.6 471.8,180.5 471.8,180.5 471.8,180.4 471.8,180.4 471.8,180.4 
			471.8,180.3 471.9,180.3 471.9,180.3 471.9,180.2 471.9,180.2 471.9,180.1 472,180.1 472,180.1 472,180 472,180 472,179.8 
			472.1,179.8 472.1,179.8 472.1,179.7 472.1,179.7 472.1,179.7 472.1,179.6 472.1,179.6 472.1,179.5 472.3,179.5 472.3,179.5 
			472.3,179.5 472.3,179.4 472.3,179.4 472.3,179.3 472.3,179.3 472.3,179.2 472.3,179.2 472.3,179.1 472.3,179.1 472.3,179.1 
			472.3,179 472.3,179 472.4,178.8 472.4,178.7 472.4,178.6 472.4,178.6 472.4,178.6 472.4,178.5 472.4,178.4 472.4,178.3 
			472.4,178.3 472.4,178.2 472.5,178.2 472.5,178.1 472.5,178 472.5,177.9 472.5,177.9 472.5,177.9 472.5,177.7 472.5,177.6 
			472.5,177.5 472.5,177.5 472.5,177.4 472.5,177.4 472.5,177.3 472.5,177.2 472.5,177.1 472.5,177.1 472.5,177 472.5,177 
			472.5,176.9 472.5,176.7 472.5,176.7 472.5,176.6 472.6,176.4 472.6,176.3 472.6,176.2 472.6,176 472.6,175.7 472.6,175.2 
			472.6,157.4 472.6,156.8 472.5,156.8 472.5,156.7 472.5,156.7 472.5,156.6 472.5,156.6 472.5,156.5 472.5,156.5 472.4,156.4 
			472.4,156.4 472.4,156.4 472.4,156.2 472.4,156.2 472.4,156.2 472.4,156.1 472.3,156.1 472.3,156.1 472.3,156 472.3,156 
			472.3,156 472.3,156 472.3,155.9 472.3,155.9 472.3,155.8 472.1,155.8 472.1,155.8 472.1,155.7 472.1,155.7 472.1,155.7 
			472,155.6 472,155.6 472,155.6 472,155.6 471.9,155.5 471.9,155.5 471.9,155.5 471.9,155.4 471.8,155.4 471.8,155.2 471.8,155.2 
			471.8,155.2 471.8,155.1 471.7,155.1 471.7,155.1 471.7,155.1 471.6,155.1 471.6,155 471.6,155 471.6,155 471.5,155 471.5,154.9 
			471.5,154.9 471.5,154.9 471.5,154.9 471.4,154.8 471.4,154.8 471.4,154.8 471.3,154.8 471.3,154.8 471.3,154.8 471.1,154.8 
			471.1,154.8 471.1,154.7 471,154.7 471,154.7 471,154.7 470.9,154.7 470.9,154.7 470.9,154.6 470.8,154.6 470.8,154.6 
			470.7,154.6 470.7,154.6 470.7,154.6 470.6,154.6 470.6,154.6 470.6,154.5 470.5,154.5 470.5,154.5 470.4,154.5 470.4,154.5 
			470.3,154.5 470.3,154.5 470.3,154.5 470.1,154.5 470.1,154.4 470,154.4 470,154.4 469.9,154.4 469.9,154.4 469.8,154.4 
			469.8,154.4 469.8,154.4 469.7,154.4 469.7,154.4 469.6,154.4 469.6,154.4 469.5,154.4 469.5,154.4 469.4,154.4 469.4,154.4 
			469.4,154.4 469.3,154.4 469.3,154.4 469.2,154.3 469.2,154.3 469,154.3 469,154.3 469,154.3 468.9,154.3 468.9,154.3 
			468.8,154.3 468.8,154.3 468.7,154.3 468.7,154.3 468.6,154.3 468.6,154.3 468.6,154.3 468.5,154.3 468.5,154.3 468.4,154.3 
			468.4,154.3 468.3,154.3 468.3,154.3 468.2,154.3 468.2,154.3 468.2,154.3 468,154.3 468,154.3 467.9,154.3 467.8,154.3 
			467.7,154.3 467.5,154.3 467.5,152.7 477,151.9 478.5,151.9 478.5,152.4 478.5,157.2 478.5,158 478.8,157.7 478.9,157.6 
			479.1,157.4 479.2,157.2 479.5,157 479.6,156.9 479.7,156.8 479.9,156.6 480,156.5 480.2,156.4 480.3,156.1 480.5,156 
			480.7,155.8 480.8,155.8 480.8,155.7 480.9,155.6 481,155.6 481.1,155.5 481.2,155.4 481.2,155.4 481.3,155.2 481.4,155.1 
			481.4,155.1 481.6,155 481.7,155 481.8,154.9 481.8,154.8 481.9,154.8 482,154.7 482.1,154.7 482.1,154.6 482.2,154.5 
			482.3,154.5 482.4,154.4 482.6,154.4 482.6,154.3 482.7,154.1 482.8,154.1 482.9,154 483,154 483.1,153.9 483.2,153.9 
			483.2,153.8 483.3,153.8 483.4,153.7 483.6,153.7 483.7,153.6 483.7,153.6 483.8,153.5 483.9,153.5 484,153.4 484.1,153.4 
			484.2,153.3 484.3,153.3 484.4,153.1 484.4,153.1 484.6,153.1 484.7,153 484.8,153 484.9,152.9 485,152.9 485.1,152.8 
			485.2,152.8 485.2,152.8 485.4,152.7 485.5,152.7 485.7,152.7 485.7,152.6 485.8,152.6 485.9,152.6 486,152.5 486.1,152.5 
			486.2,152.5 486.3,152.4 486.4,152.4 486.5,152.4 486.7,152.4 486.8,152.4 486.9,152.3 487,152.3 487.1,152.3 487.2,152.3 
			487.2,152.1 487.4,152.1 487.5,152.1 487.7,152.1 487.7,152 487.8,152 488,152 488.1,152 488.1,152 488.2,152 488.3,151.9 
			488.4,151.9 488.5,151.9 488.7,151.9 488.8,151.9 488.9,151.9 489,151.9 489.1,151.9 489.2,151.9 489.3,151.9 489.4,151.9 
			489.5,151.9 489.6,151.9 489.8,151.9 489.9,151.9 490,151.9 490.1,151.9 490.2,151.9 490.3,151.9 490.4,151.9 490.5,151.9 
			490.6,151.9 490.8,151.9 490.9,152 491,152 491.1,152 491.2,152 491.3,152 491.4,152 491.5,152.1 491.6,152.1 491.8,152.1 
			491.9,152.1 492,152.3 492.1,152.3 492.2,152.3 492.3,152.3 492.4,152.4 492.5,152.4 492.5,152.4 492.8,152.4 492.9,152.4 
			493,152.5 493,152.5 493.1,152.5 493.2,152.6 493.3,152.6 493.4,152.6 493.5,152.7 493.6,152.7 493.7,152.7 493.9,152.8 
			494,152.8 494.1,152.9 494.2,152.9 494.2,152.9 494.3,153 494.4,153 494.5,153.1 494.6,153.1 494.7,153.1 494.9,153.3 495,153.4 
			495,153.4 495.1,153.5 495.2,153.5 495.3,153.6 495.4,153.6 495.5,153.7 495.6,153.7 495.6,153.8 495.7,153.8 495.9,153.9 
			496,153.9 496,154 496.1,154.1 496.2,154.1 496.3,154.3 496.3,154.4 496.4,154.4 496.5,154.5 496.6,154.6 496.6,154.7 
			496.7,154.7 496.8,154.8 497,154.8 497,154.9 497.1,155 497.1,155.1 497.2,155.1 497.3,155.2 497.3,155.4 497.4,155.5 
			497.4,155.6 497.5,155.6 497.6,155.7 497.6,155.8 497.7,155.9 497.8,156 497.8,156 497.8,156.1 498,156.2 498.1,156.4 
			498.1,156.5 498.2,156.6 498.2,156.7 498.2,156.8 498.3,156.8 498.4,156.9 498.4,157 498.5,157.1 498.5,157.2 498.6,157.2 
			498.6,157.4 498.6,157.5 498.7,157.6 498.7,157.7 498.8,157.8 498.8,157.9 499,158 499,158.1 499,158.2 499.1,158.4 499.1,158.5 
			499.1,158.5 499.2,158.6 499.2,158.7 499.2,158.8 499.3,158.9 499.3,159 499.4,159.1 499.4,159.2 499.4,159.3 499.4,159.5 
			499.4,159.6 499.5,159.7 499.5,159.7 499.5,159.9 499.6,160 499.6,160 499.6,160.1 499.7,160.2 499.7,160.3 499.7,160.5 
			499.7,160.6 499.8,160.7 499.8,160.8 499.8,161 499.8,162.1 499.8,174.2 499.8,175.7 499.8,176 499.8,176.2 499.8,176.3 
			499.8,176.4 499.8,176.6 499.8,176.7 499.8,176.7 500,176.9 500,177 500,177 500,177.1 500,177.1 500,177.2 500,177.3 500,177.4 
			500,177.4 500,177.5 500,177.5 500,177.6 500,177.7 500,177.9 500,177.9 500,177.9 500,178 500,178.1 500,178.2 500,178.2 
			500.1,178.3 500.1,178.3 500.1,178.4 500.1,178.5 500.1,178.6 500.1,178.6 500.1,178.6 500.1,178.7 500.1,178.8 500.1,179 
			500.1,179 500.2,179 500.2,179.1 500.2,179.1 500.2,179.1 500.2,179.2 500.2,179.2 500.2,179.2 500.2,179.3 500.2,179.3 
			500.2,179.4 500.2,179.4 500.3,179.5 500.3,179.5 500.3,179.5 500.3,179.6 500.3,179.6 500.3,179.7 500.3,179.7 500.3,179.8 
			500.3,179.8 500.4,179.8 500.4,180 500.4,180 500.4,180 500.4,180.1 500.4,180.1 500.5,180.1 500.5,180.2 500.5,180.2 
			500.5,180.3 500.5,180.3 500.5,180.3 500.6,180.3 500.6,180.4 500.6,180.4 500.6,180.4 500.6,180.5 500.6,180.5 500.6,180.5 
			500.6,180.6 500.7,180.6 500.7,180.6 500.7,180.7 500.8,180.7 500.8,180.7 500.8,180.8 500.9,180.8 500.9,181 501.1,181 
			501.1,181.1 501.1,181.1 501.1,181.1 501.1,181.1 501.1,181.1 501.2,181.1 501.2,181.2 501.2,181.2 501.2,181.2 501.3,181.2 
			501.3,181.3 501.4,181.3 501.4,181.3 501.4,181.4 501.5,181.4 501.5,181.4 501.5,181.4 501.5,181.5 501.6,181.5 501.6,181.5 
			501.7,181.5 501.7,181.5 501.8,181.5 501.8,181.6 501.8,181.6 501.9,181.6 501.9,181.6 501.9,181.6 502.1,181.6 502.1,181.7 
			502.1,181.7 502.2,181.7 502.2,181.7 502.3,181.7 502.3,181.7 502.3,181.8 502.4,181.8 502.4,181.8 502.5,181.8 502.5,181.8 
			502.6,181.8 502.6,181.8 502.6,181.8 502.7,181.9 502.7,181.9 502.8,181.9 502.8,181.9 502.9,181.9 502.9,181.9 503.1,181.9 
			503.1,181.9 503.1,181.9 503.2,181.9 503.2,181.9 503.3,181.9 503.4,181.9 503.5,181.9 503.5,181.9 503.6,181.9 503.6,181.9 
			503.7,182.1 503.8,182.1 503.8,182.1 503.9,182.1 503.9,182.1 504.1,182.1 504.2,182.1 504.3,182.1 504.4,182.1 504.9,182.1 
			504.9,183.4 499.8,183.4 494,183.4 488.9,183.4 488.9,182.1 489.4,182.1 489.5,182.1 489.6,182.1 489.8,182.1 489.8,182.1 
			489.9,182.1 490,182.1 490.1,182.1 490.1,182.1 490.2,181.9 490.2,181.9 490.3,181.9 490.4,181.9 490.4,181.9 490.5,181.9 
			490.5,181.9 490.6,181.9 490.8,181.9 490.8,181.9 490.9,181.9 490.9,181.9 490.9,181.9 490.9,181.9 491,181.9 491,181.9 
			491.1,181.9 491.1,181.9 491.2,181.8 491.2,181.8 491.3,181.8 491.3,181.8 491.3,181.8 491.4,181.8 491.4,181.8 491.5,181.8 
			491.5,181.7 491.6,181.7 491.6,181.7 491.6,181.7 491.8,181.7 491.8,181.7 491.8,181.6 491.9,181.6 491.9,181.6 492,181.6 
			492,181.6 492.1,181.5 492.1,181.5 492.1,181.5 492.2,181.5 492.2,181.5 492.3,181.4 492.3,181.4 492.4,181.4 492.4,181.3 
			492.5,181.3 492.5,181.3 492.5,181.2 492.6,181.2 492.6,181.1 492.8,181.1 492.8,181.1 492.9,181 492.9,181 492.9,181 
			492.9,180.8 493,180.8 493,180.8 493,180.8 493,180.7 493,180.7 493.1,180.7 493.1,180.6 493.1,180.6 493.2,180.5 493.2,180.5 
			493.2,180.4 493.2,180.4 493.3,180.4 493.3,180.3 493.3,180.3 493.3,180.3 493.3,180.2 493.3,180.2 493.3,180.1 493.4,180.1 
			493.4,180.1 493.4,180 493.4,180 493.4,179.8 493.4,179.8 493.5,179.8 493.5,179.7 493.5,179.7 493.5,179.7 493.5,179.6 
			493.5,179.6 493.5,179.5 493.6,179.5 493.6,179.5 493.6,179.4 493.6,179.4 493.6,179.3 493.6,179.3 493.6,179.2 493.6,179.2 
			493.7,179.1 493.7,179.1 493.7,179.1 493.7,179 493.7,179 493.7,178.8 493.7,178.7 493.7,178.6 493.7,178.6 493.7,178.6 
			493.7,178.5 493.7,178.4 493.7,178.3 493.7,178.3 493.7,178.2 493.9,178.2 493.9,178.1 493.9,178 493.9,177.9 493.9,177.9 
			493.9,177.9 493.9,177.7 493.9,177.6 493.9,177.5 493.9,177.5 493.9,177.4 493.9,177.4 493.9,177.3 493.9,177.2 493.9,177.1 
			493.9,177.1 493.9,177 493.9,177 493.9,176.9 493.9,176.7 493.9,176.7 493.9,176.6 493.9,176.4 494,176.3 494,176.2 494,176 
			494,175.7 		"/>
		<line fill="#FFFFFF" x1="483.6" y1="183.4" x2="483.6" y2="183.4"/>
		<polyline fill="#FFFFFF" points="504.9,183.4 500.5,183.4 504.9,183.4 		"/>
		<path fill="#FFFFFF" d="M579.6,181.7c0-2.2-1.8-4-4-4s-4,1.8-4,4s1.8,4,4,4S579.6,183.8,579.6,181.7"/>
		<g>
			<path fill="#FFFFFF" d="M370.2,199.5l-0.2-0.7l-0.6-1.6h-1.7h-1.7l-0.6,1.7l-0.2,0.6h-0.7l2.9-7.3h0.7l2.5,7.3H370.2z
				 M367.9,192.9L367.9,192.9l-1.7,3.9h1.4h1.6L367.9,192.9z"/>
			<path fill="#FFFFFF" d="M378.2,192.8l-0.1,0.6l0,0c-0.6-0.3-1.1-0.7-1.8-0.7c-0.9,0-1.4,0.3-1.9,0.9s-0.7,1.3-0.7,2.3
				c0,1,0.2,1.8,0.7,2.3c0.4,0.6,1,0.9,1.8,0.9c0.8,0,1.4-0.3,2-0.8h0.1v0.6c-0.7,0.4-1.3,0.7-2.1,0.7c-1,0-1.7-0.3-2.2-1
				c-0.6-0.7-0.8-1.6-0.8-2.8s0.3-2.1,0.9-2.8c0.6-0.7,1.3-1,2.3-1C377,192.3,377.6,192.4,378.2,192.8z"/>
			<path fill="#FFFFFF" d="M385.7,192.8l-0.1,0.6h-0.1c-0.6-0.3-1.1-0.7-1.8-0.7c-0.9,0-1.4,0.3-1.9,0.9c-0.4,0.6-0.7,1.3-0.7,2.3
				c0,1,0.2,1.8,0.7,2.3c0.4,0.6,1,0.9,1.8,0.9s1.4-0.3,2-0.8h0.1v0.6c-0.7,0.4-1.3,0.7-2.1,0.7c-1,0-1.7-0.3-2.2-1
				c-0.6-0.7-0.8-1.6-0.8-2.8s0.3-2.1,0.9-2.8c0.6-0.7,1.3-1,2.3-1C384.5,192.3,385.2,192.4,385.7,192.8z"/>
			<path fill="#FFFFFF" d="M393.5,193c0.6,0.7,0.8,1.6,0.8,2.7c0,1.2-0.3,2.2-0.9,2.9c-0.6,0.7-1.3,0.9-2.3,0.9c-1,0-1.7-0.3-2.2-1
				c-0.6-0.7-0.8-1.6-0.8-2.8s0.3-2.1,0.9-2.8c0.6-0.7,1.3-1,2.3-1C392.3,192.3,393,192.5,393.5,193z M389.3,193.5
				c-0.4,0.6-0.7,1.3-0.7,2.3c0,1,0.2,1.9,0.7,2.3c0.3,0.6,1,0.9,1.9,0.9c0.9,0,1.6-0.3,1.9-0.9c0.4-0.6,0.7-1.3,0.7-2.4
				c0-1-0.2-1.8-0.7-2.3c-0.4-0.6-1-0.8-1.9-0.8C390.4,192.7,389.7,192.9,389.3,193.5z"/>
			<path fill="#FFFFFF" d="M402.6,196.8c0,0.9-0.2,1.6-0.7,2c-0.4,0.4-1.1,0.8-2,0.8c-0.9,0-1.6-0.1-1.9-0.7c-0.3-0.4-0.7-1.1-0.7-2
				v-4.8h0.6v4.5c0,0.8,0.2,1.3,0.4,1.7c0.3,0.3,0.9,0.6,1.6,0.6c0.7,0,1.2-0.2,1.6-0.6s0.6-1,0.6-1.7V192h0.6v3.7
				C402.6,195.7,402.6,196.8,402.6,196.8z"/>
			<path fill="#FFFFFF" d="M411.8,199.5h-0.6l-4.2-6.2h-0.1v4v2.3h-0.6v-2.2v-5.1h0.7l4.2,6.2h0.1v-6.2h0.6v5.2L411.8,199.5
				L411.8,199.5z"/>
			<path fill="#FFFFFF" d="M419.6,192.8h-1.2h-0.9v4.5v2.2H417v-2.2v-4.5h-0.9h-1.2l0,0l0.1-0.4h4.9l0.1,0.1L419.6,192.8z"/>
			<path fill="#FFFFFF" d="M423.3,199.5h-0.6v-2.2v-5h0.6v5V199.5z"/>
			<path fill="#FFFFFF" d="M432.7,199.5h-0.6l-4.2-6.2h-0.1v4v2.3h-0.6v-2.2v-5.1h0.7l4.2,6.2h0.1v-6.2h0.6v5.2L432.7,199.5
				L432.7,199.5z"/>
			<path fill="#FFFFFF" d="M441.6,192.8l-0.1,0.6h-0.1c-0.7-0.3-1.3-0.6-2-0.6c-1,0-1.7,0.3-2.1,0.9s-0.8,1.3-0.8,2.4
				c0,2.1,0.9,3.1,2.5,3.1c0.4,0,1.1-0.1,1.8-0.3v-1v-1h0.6v1v1.6c-1,0.3-1.7,0.3-2.3,0.3c-1,0-1.8-0.3-2.3-1
				c-0.6-0.7-0.8-1.6-0.8-2.7c0-1.2,0.3-2.2,1-2.9c0.6-0.7,1.4-1,2.5-1C440.1,192.3,440.9,192.4,441.6,192.8z"/>
			<path fill="#FFFFFF" d="M445.9,199.5c0,0.3-0.3,0.9-1,1.3l-0.2-0.2v-0.1c0.3-0.3,0.7-0.7,0.7-1c0-0.2-0.1-0.3-0.3-0.4v-0.1
				c0.1-0.1,0.3-0.2,0.3-0.2C445.8,198.9,445.9,199.1,445.9,199.5z"/>
			<path fill="#FFFFFF" d="M456.9,192.8h-1.2h-0.9v4.5v2.2h-0.6v-2.2v-4.5h-0.9h-1.2l0,0l0.1-0.4h4.9l0.1,0.1L456.9,192.8z"/>
			<path fill="#FFFFFF" d="M463.7,199.5l-0.2-0.6l-0.6-1.7h-1.7h-1.7l-0.6,1.6l-0.2,0.7h-0.7l2.9-7.3h0.7l2.5,7.3H463.7z
				 M461.4,192.9L461.4,192.9l-1.7,3.9h1.4h1.6L461.4,192.9z"/>
			<path fill="#FFFFFF" d="M472.3,199.5h-0.8l-0.3-0.4l-2-2.9l-2,2.9l-0.3,0.4h-0.7l2.5-3.7l-2.4-3.5h0.8l0.3,0.4l1.8,2.5l1.8-2.5
				l0.3-0.4h0.7l-2.3,3.5L472.3,199.5z"/>
			<path fill="#FFFFFF" d="M483.6,199.5l-0.2-0.6l-0.6-1.7h-1.7h-1.7l-0.6,1.6l-0.2,0.7H478l2.9-7.3h0.7l2.5,7.3H483.6z
				 M481.3,192.9L481.3,192.9l-1.7,3.9h1.4h1.6L481.3,192.9z"/>
			<path fill="#FFFFFF" d="M492.6,199.5h-0.6l-4.2-6.2h-0.1v4v2.3h-0.6v-2.2v-5.1h0.7l4.2,6.2h0.1v-6.2h0.6v5.2L492.6,199.5
				L492.6,199.5z"/>
			<path fill="#FFFFFF" d="M501.4,193c0.6,0.6,0.9,1.4,0.9,2.5c0,1.2-0.3,2.2-0.9,2.9c-0.6,0.7-1.4,1-2.5,1c-0.6,0-1.3,0-2.2-0.1
				v-2.2v-5h2.4C500.1,192.3,500.8,192.5,501.4,193z M500.9,198.1c0.4-0.6,0.7-1.4,0.7-2.4s-0.2-1.8-0.7-2.2c-0.4-0.4-1.1-0.8-2-0.8
				c-0.4,0-1,0-1.9,0.1v4.5v1.7c0.7,0,1.3,0.1,1.8,0.1C499.8,199,500.5,198.8,500.9,198.1z"/>
			<path fill="#FFFFFF" d="M512.4,192.5l-0.1,0.6h-0.1c-0.4-0.3-1-0.3-1.4-0.3c-0.3,0-0.6,0.1-0.9,0.2c-0.3,0.1-0.3,0.3-0.6,0.4
				c-0.1,0.2-0.2,0.4-0.2,0.7s0.1,0.4,0.2,0.6c0.1,0.1,0.3,0.3,0.4,0.4c0.2,0.1,0.4,0.3,0.9,0.4c0.3,0.2,0.8,0.3,1,0.6
				c0.3,0.2,0.4,0.3,0.7,0.6c0.2,0.3,0.3,0.6,0.3,0.9s-0.1,0.7-0.3,1s-0.4,0.6-0.9,0.8c-0.4,0.2-0.8,0.3-1.2,0.3
				c-0.7,0-1.3-0.2-1.9-0.4l0.1-0.6h0.1c0.3,0.2,0.6,0.3,0.9,0.4c0.3,0.1,0.7,0.2,1,0.2c0.3,0,0.7-0.1,0.9-0.2
				c0.3-0.1,0.4-0.3,0.6-0.6c0.1-0.3,0.2-0.4,0.2-0.7c0-0.3-0.1-0.4-0.2-0.7c-0.1-0.2-0.3-0.3-0.4-0.4c-0.2-0.1-0.4-0.3-0.9-0.4
				c-0.3-0.2-0.8-0.3-1-0.4c-0.2-0.1-0.4-0.3-0.7-0.6c-0.2-0.2-0.3-0.6-0.3-0.9s0.1-0.7,0.3-1c0.2-0.3,0.4-0.6,0.8-0.7
				c0.3-0.2,0.8-0.3,1.1-0.3C511.5,192.3,511.9,192.4,512.4,192.5z"/>
			<path fill="#FFFFFF" d="M519.9,199.5H516v-2.2v-5h3.9v0.1l-0.1,0.4h-1.7h-1.6v2.8h1.4h1.2v0.1v0.3h-2.7v1.2v1.7h1.6h1.8v0.1
				V199.5z"/>
			<path fill="#FFFFFF" d="M527.5,199.5L527.5,199.5c-0.1,0.1-0.3,0.2-0.4,0.2H527c-0.8-1-1.3-2-1.9-2.9h-1.4v0.6v2.2H523v-2.2v-5h2
				c0.7,0,1.2,0.2,1.7,0.6c0.4,0.3,0.6,0.9,0.6,1.6c0,0.6-0.1,1-0.3,1.4c-0.3,0.3-0.7,0.7-1.1,0.9
				C526.1,197.5,526.8,198.3,527.5,199.5z M525.1,196.2c1-0.3,1.4-0.9,1.4-1.9s-0.6-1.6-1.7-1.7h-1.2v3.4L525.1,196.2z"/>
			<path fill="#FFFFFF" d="M532.1,199.5l-2.5-7.3h0.7l0.2,0.7l2.1,6h0.1l2.2-6l0.2-0.7h0.7l-2.9,7.3H532.1z"/>
			<path fill="#FFFFFF" d="M539.1,199.5h-0.6v-2.2v-5h0.6v5V199.5z"/>
			<path fill="#FFFFFF" d="M547.5,192.8l-0.1,0.6h-0.1c-0.6-0.3-1.1-0.7-1.8-0.7c-0.9,0-1.4,0.3-1.9,0.9c-0.4,0.6-0.7,1.3-0.7,2.3
				c0,1,0.2,1.8,0.7,2.3c0.4,0.6,1,0.9,1.8,0.9s1.4-0.3,2-0.8h0.1v0.6c-0.7,0.4-1.3,0.7-2.1,0.7c-1,0-1.7-0.3-2.2-1
				c-0.6-0.7-0.8-1.6-0.8-2.8s0.3-2.1,0.9-2.8c0.6-0.7,1.3-1,2.3-1C546.3,192.3,546.9,192.4,547.5,192.8z"/>
			<path fill="#FFFFFF" d="M554.3,199.5h-3.9v-2.2v-5h3.9v0.1l-0.1,0.4h-1.7H551v2.8h1.4h1.2v0.1l-0.1,0.4h-2.7v1.2v1.7h1.6h1.8v0.1
				L554.3,199.5z"/>
			<path fill="#FFFFFF" d="M560.8,192.5l-0.1,0.6h-0.1c-0.4-0.3-1-0.3-1.4-0.3c-0.3,0-0.6,0.1-0.9,0.2c-0.3,0.1-0.3,0.3-0.6,0.4
				c-0.1,0.2-0.2,0.4-0.2,0.7s0.1,0.4,0.2,0.6c0.1,0.1,0.3,0.3,0.4,0.4c0.2,0.1,0.4,0.3,0.9,0.4c0.3,0.2,0.8,0.3,1,0.6
				c0.3,0.2,0.4,0.3,0.7,0.6c0.2,0.3,0.3,0.6,0.3,0.9s-0.1,0.7-0.3,1s-0.4,0.6-0.9,0.8c-0.3,0.2-0.8,0.3-1.2,0.3
				c-0.7,0-1.3-0.2-1.9-0.4l0.1-0.6h0.1c0.3,0.2,0.6,0.3,0.9,0.4c0.3,0.1,0.7,0.2,1,0.2s0.7-0.1,0.9-0.2c0.3-0.1,0.4-0.3,0.6-0.6
				c0.1-0.3,0.2-0.4,0.2-0.7c0-0.3-0.1-0.4-0.2-0.7s-0.3-0.3-0.4-0.4c-0.2-0.1-0.4-0.3-0.9-0.4c-0.3-0.2-0.8-0.3-1-0.4
				c-0.2-0.1-0.4-0.3-0.7-0.6c-0.2-0.2-0.3-0.6-0.3-0.9s0.1-0.7,0.3-1s0.4-0.6,0.8-0.7c0.3-0.2,0.8-0.3,1.1-0.3
				C559.9,192.3,560.3,192.4,560.8,192.5z"/>
		</g>
		<polyline fill="#FFFFFF" points="454.5,175.7 454.5,161 454.5,160.3 454.4,160.2 454.4,160.1 454.4,160 454.4,160 454.4,159.9 
			454.4,159.9 454.3,159.8 454.3,159.7 454.3,159.7 454.3,159.6 454.2,159.5 454.2,159.5 454.2,159.3 454.2,159.3 454.2,159.2 
			454.2,159.2 454.2,159.2 454.1,159.2 454.1,159.1 454.1,159 454.1,158.9 454.1,158.9 454,158.8 454,158.8 453.9,158.7 
			453.9,158.6 453.9,158.6 453.8,158.5 453.8,158.5 453.8,158.4 453.8,158.2 453.6,158.2 453.6,158.1 453.5,158 453.5,158 
			453.4,157.9 453.4,157.9 453.3,157.8 453.3,157.7 453.3,157.7 453.2,157.6 453.2,157.6 453.1,157.5 453.1,157.5 453,157.4 
			453,157.2 452.9,157.2 452.9,157.2 452.9,157.1 452.8,157 452.8,157 452.6,156.9 452.5,156.9 452.5,156.8 452.5,156.8 
			452.4,156.8 452.4,156.7 452.3,156.6 452.2,156.6 452.2,156.5 452.1,156.5 452.1,156.4 452,156.4 452,156.4 451.9,156.2 
			451.8,156.2 451.8,156.2 451.8,156.1 451.6,156.1 451.5,156 451.4,156 451.4,156 451.3,155.9 451.3,155.9 451.2,155.9 
			451.1,155.8 451.1,155.8 451,155.8 450.9,155.7 450.9,155.7 450.8,155.6 450.8,155.6 450.7,155.6 450.5,155.6 450.5,155.6 
			450.4,155.5 450.3,155.5 450.2,155.5 450.2,155.5 450.1,155.4 450.1,155.4 450,155.4 449.9,155.4 449.8,155.2 449.7,155.2 
			449.7,155.2 449.5,155.2 449.5,155.2 449.4,155.1 449.3,155.1 449.3,155.1 449.2,155.1 449.1,155.1 449,155.1 449,155.1 
			448.9,155.1 448.8,155.1 448.8,155.1 448.7,155.1 448.5,155 448.4,155 448.4,155 448.3,155 448.2,155 448.1,155 448.1,155 
			448,155 447.9,155 447.9,155 447.8,155 447.7,155 447.7,155 447.5,155 447.4,155 447.3,155 447.2,155 447.2,155.1 447.1,155.1 
			447.1,155.1 447,155.1 446.9,155.1 446.9,155.1 446.8,155.1 446.7,155.1 446.6,155.1 446.4,155.1 446.4,155.1 446.3,155.1 
			446.3,155.2 446.2,155.2 446.1,155.2 446,155.2 446,155.2 445.9,155.4 445.8,155.4 445.8,155.4 445.7,155.4 445.7,155.5 
			445.6,155.5 445.4,155.5 445.3,155.5 445.3,155.6 445.2,155.6 445.2,155.6 445.1,155.6 445,155.6 444.9,155.7 444.9,155.7 
			444.8,155.7 444.8,155.8 444.7,155.8 444.6,155.9 444.4,155.9 444.4,155.9 444.3,156 444.3,156 444.2,156 444.1,156 444.1,156.1 
			444,156.1 444,156.2 443.9,156.2 443.8,156.2 443.8,156.4 443.7,156.4 443.6,156.4 443.6,156.5 443.4,156.5 443.4,156.6 
			443.3,156.6 443.2,156.7 443.2,156.7 443.2,156.7 443.1,156.8 443,156.8 443,156.8 442.9,156.9 442.8,156.9 442.8,157 442.8,157 
			442.7,157.1 442.6,157.1 442.6,157.2 442.5,157.2 442.3,157.2 442.3,157.4 442.3,157.5 442.2,157.5 442.1,157.6 442.1,157.6 
			442,157.6 442,157.7 442,157.7 441.9,157.8 441.8,157.8 441.8,157.9 441.7,157.9 441.7,158 441.6,158 441.6,158.1 441.5,158.1 
			441.5,158.2 441.3,158.2 441.3,158.4 441.2,158.4 441.1,158.5 441.1,158.5 441.1,158.6 441,158.6 441,158.7 440.9,158.7 
			440.9,158.8 440.8,158.8 440.8,158.9 440.7,158.9 440.7,159 440.6,159.1 440.6,159.1 440.5,159.2 440.3,159.3 440.3,159.5 
			440.2,159.6 440.1,159.7 440,159.8 439.9,159.9 439.8,160 439.7,160.1 439.6,160.3 439.6,160.5 439.5,160.6 439.4,160.7 
			439.2,160.8 439.2,160.8 439,161 439,174.5 439,175.7 439,176 439,176.2 439,176.3 439,176.4 439,176.6 439,176.7 439.1,176.7 
			439.1,176.9 439.1,177 439.1,177 439.1,177.1 439.1,177.1 439.1,177.2 439.1,177.3 439.1,177.4 439.1,177.4 439.1,177.5 
			439.1,177.5 439.1,177.6 439.1,177.7 439.1,177.9 439.1,177.9 439.1,177.9 439.1,178 439.1,178.1 439.1,178.2 439.1,178.2 
			439.1,178.3 439.1,178.3 439.1,178.4 439.1,178.5 439.1,178.6 439.2,178.6 439.2,178.6 439.2,178.7 439.2,178.8 439.2,179 
			439.2,179 439.2,179.1 439.2,179.1 439.2,179.1 439.2,179.2 439.4,179.2 439.4,179.3 439.4,179.3 439.4,179.4 439.4,179.4 
			439.4,179.5 439.4,179.5 439.4,179.5 439.5,179.5 439.5,179.6 439.5,179.6 439.5,179.7 439.5,179.7 439.5,179.8 439.5,179.8 
			439.6,179.8 439.6,180 439.6,180 439.6,180 439.6,180.1 439.6,180.1 439.6,180.1 439.6,180.2 439.6,180.2 439.7,180.3 
			439.7,180.3 439.7,180.3 439.7,180.4 439.8,180.4 439.8,180.4 439.8,180.5 439.8,180.5 439.8,180.5 439.9,180.6 439.9,180.6 
			439.9,180.7 439.9,180.7 440,180.7 440,180.8 440,180.8 440.1,181 440.1,181 440.1,181.1 440.2,181.1 440.2,181.1 440.2,181.1 
			440.2,181.1 440.3,181.1 440.3,181.2 440.3,181.2 440.3,181.2 440.3,181.2 440.5,181.3 440.5,181.3 440.6,181.3 440.6,181.4 
			440.6,181.4 440.7,181.4 440.7,181.4 440.8,181.5 440.8,181.5 440.8,181.5 440.9,181.5 440.9,181.5 441,181.6 441,181.6 
			441.1,181.6 441.1,181.6 441.1,181.6 441.1,181.6 441.1,181.7 441.2,181.7 441.2,181.7 441.3,181.7 441.3,181.7 441.5,181.7 
			441.5,181.8 441.6,181.8 441.6,181.8 441.6,181.8 441.7,181.8 441.7,181.8 441.8,181.8 441.8,181.8 441.9,181.9 441.9,181.9 
			442,181.9 442,181.9 442,181.9 442.1,181.9 442.1,181.9 442.2,181.9 442.2,181.9 442.3,181.9 442.3,181.9 442.5,181.9 
			442.5,181.9 442.6,181.9 442.7,181.9 442.8,181.9 442.8,181.9 442.9,182.1 442.9,182.1 443,182.1 443.1,182.1 443.2,182.1 
			443.2,182.1 443.2,182.1 443.4,182.1 443.6,182.1 444.1,182.1 444.1,183.4 436.9,183.4 433,183.4 428.8,183.4 428.1,183.4 
			428.1,182.1 428.6,182.1 428.7,182.1 428.8,182.1 428.9,182.1 428.9,182.1 429,182.1 429,182.1 429.2,182.1 429.3,182.1 
			429.4,181.9 429.4,181.9 429.5,181.9 429.5,181.9 429.6,181.9 429.7,181.9 429.8,181.9 429.8,181.9 429.8,181.9 429.9,181.9 
			429.9,181.9 430,181.9 430,181.9 430,181.9 430.2,181.9 430.2,181.9 430.3,181.9 430.3,181.9 430.3,181.8 430.4,181.8 
			430.4,181.8 430.5,181.8 430.5,181.8 430.6,181.8 430.6,181.8 430.6,181.8 430.7,181.7 430.7,181.7 430.8,181.7 430.8,181.7 
			430.8,181.7 430.9,181.7 430.9,181.6 431,181.6 431,181.6 431,181.6 431,181.6 431.2,181.6 431.2,181.5 431.3,181.5 431.3,181.5 
			431.4,181.5 431.4,181.5 431.5,181.4 431.5,181.4 431.5,181.4 431.6,181.3 431.6,181.3 431.7,181.3 431.7,181.2 431.8,181.2 
			431.8,181.1 431.8,181.1 431.8,181.1 431.9,181.1 431.9,181.1 431.9,181.1 431.9,181 432,181 432,180.8 432,180.8 432.1,180.8 
			432.1,180.7 432.1,180.7 432.3,180.7 432.3,180.6 432.3,180.6 432.3,180.5 432.3,180.5 432.4,180.4 432.4,180.4 432.4,180.4 
			432.4,180.3 432.5,180.3 432.5,180.3 432.5,180.2 432.5,180.2 432.5,180.1 432.6,180.1 432.6,180.1 432.6,180 432.6,180 
			432.6,179.8 432.7,179.8 432.7,179.8 432.7,179.7 432.7,179.7 432.7,179.7 432.7,179.6 432.7,179.6 432.7,179.5 432.7,179.5 
			432.7,179.5 432.7,179.5 432.7,179.4 432.7,179.4 432.8,179.3 432.8,179.3 432.8,179.2 432.8,179.2 432.8,179.1 432.8,179.1 
			432.8,179.1 432.8,179 432.8,179 432.9,178.8 432.9,178.7 432.9,178.6 432.9,178.6 432.9,178.6 432.9,178.5 432.9,178.4 
			432.9,178.3 432.9,178.3 432.9,178.2 433,178.2 433,178.1 433,178 433,177.9 433,177.9 433,177.9 433,177.7 433,177.6 433,177.5 
			433,177.5 433,177.4 433,177.4 433,177.3 433,177.2 433,177.1 433,177.1 433,177 433,177 433,176.9 433,176.7 433,176.7 
			433,176.6 433,176.4 433,176.3 433,176.2 433,176 433,175.7 433,175.2 433,157.4 433,156.8 433,156.8 433,156.7 433,156.7 
			433,156.6 433,156.6 433,156.5 433,156.5 432.9,156.4 432.9,156.4 432.9,156.4 432.9,156.2 432.9,156.2 432.9,156.2 432.9,156.1 
			432.8,156.1 432.8,156.1 432.8,156 432.8,156 432.8,156 432.8,156 432.7,155.9 432.7,155.9 432.7,155.8 432.7,155.8 432.7,155.8 
			432.7,155.7 432.7,155.7 432.7,155.7 432.6,155.6 432.6,155.6 432.6,155.6 432.6,155.6 432.5,155.5 432.5,155.5 432.5,155.5 
			432.5,155.4 432.4,155.4 432.4,155.2 432.4,155.2 432.3,155.2 432.3,155.1 432.3,155.1 432.3,155.1 432.3,155.1 432.1,155.1 
			432.1,155 432.1,155 432.1,155 432,155 432,154.9 432,154.9 432,154.9 431.9,154.9 431.9,154.8 431.8,154.8 431.8,154.8 
			431.8,154.8 431.8,154.8 431.8,154.8 431.7,154.8 431.7,154.8 431.7,154.7 431.6,154.7 431.6,154.7 431.5,154.7 431.5,154.7 
			431.5,154.7 431.5,154.6 431.4,154.6 431.4,154.6 431.3,154.6 431.3,154.6 431.3,154.6 431.2,154.6 431.2,154.6 431,154.5 
			431,154.5 431,154.5 430.9,154.5 430.9,154.5 430.8,154.5 430.8,154.5 430.7,154.5 430.7,154.5 430.6,154.4 430.6,154.4 
			430.6,154.4 430.5,154.4 430.5,154.4 430.4,154.4 430.4,154.4 430.3,154.4 430.3,154.4 430.3,154.4 430.2,154.4 430.2,154.4 
			430,154.4 430,154.4 429.9,154.4 429.9,154.4 429.8,154.4 429.8,154.4 429.8,154.4 429.7,154.3 429.7,154.3 429.6,154.3 
			429.6,154.3 429.5,154.3 429.5,154.3 429.4,154.3 429.4,154.3 429.4,154.3 429.3,154.3 429.3,154.3 429.2,154.3 429.2,154.3 
			429,154.3 429,154.3 429,154.3 428.9,154.3 428.9,154.3 428.8,154.3 428.8,154.3 428.7,154.3 428.7,154.3 428.6,154.3 
			428.6,154.3 428.6,154.3 428.5,154.3 428.4,154.3 428.3,154.3 428.1,154.3 428.1,152.7 437.5,151.9 439,151.9 439,152.4 
			439,157.2 439,158 439.4,157.7 439.5,157.6 439.6,157.4 439.8,157.2 439.9,157 440.1,156.9 440.2,156.8 440.3,156.6 440.6,156.5 
			440.8,156.4 440.9,156.1 441,156 441.1,155.8 441.2,155.8 441.3,155.7 441.5,155.6 441.6,155.6 441.6,155.5 441.7,155.4 
			441.8,155.4 441.9,155.2 442,155.1 442,155.1 442.1,155 442.2,155 442.3,154.9 442.3,154.8 442.5,154.8 442.6,154.7 442.7,154.7 
			442.7,154.6 442.8,154.5 442.9,154.5 443,154.4 443.1,154.4 443.1,154.3 443.2,154.1 443.3,154.1 443.4,154 443.6,154 
			443.6,153.9 443.7,153.9 443.8,153.8 443.9,153.8 444,153.7 444,153.7 444.1,153.6 444.2,153.6 444.3,153.5 444.4,153.5 
			444.6,153.4 444.7,153.4 444.8,153.3 444.8,153.3 444.9,153.1 445,153.1 445.1,153.1 445.2,153 445.3,153 445.4,152.9 
			445.6,152.9 445.7,152.8 445.7,152.8 445.8,152.8 446,152.7 446,152.7 446.1,152.7 446.2,152.6 446.3,152.6 446.4,152.6 
			446.6,152.5 446.7,152.5 446.8,152.5 446.9,152.4 447,152.4 447.1,152.4 447.2,152.4 447.2,152.4 447.4,152.3 447.5,152.3 
			447.7,152.3 447.7,152.3 447.8,152.1 448,152.1 448.1,152.1 448.1,152.1 448.2,152 448.3,152 448.4,152 448.5,152 448.7,152 
			448.8,152 448.9,151.9 449,151.9 449.1,151.9 449.2,151.9 449.3,151.9 449.4,151.9 449.5,151.9 449.7,151.9 449.8,151.9 
			449.9,151.9 450,151.9 450.1,151.9 450.2,151.9 450.3,151.9 450.4,151.9 450.5,151.9 450.7,151.9 450.8,151.9 450.9,151.9 
			451,151.9 451.1,151.9 451.2,151.9 451.3,151.9 451.4,152 451.5,152 451.6,152 451.8,152 451.9,152 452,152 452.1,152.1 
			452.2,152.1 452.3,152.1 452.4,152.1 452.5,152.3 452.5,152.3 452.8,152.3 452.9,152.3 452.9,152.4 453,152.4 453.1,152.4 
			453.3,152.4 453.3,152.4 453.4,152.5 453.5,152.5 453.6,152.5 453.8,152.6 453.9,152.6 454,152.6 454.1,152.7 454.2,152.7 
			454.3,152.7 454.4,152.8 454.5,152.8 454.5,152.9 454.6,152.9 454.8,152.9 454.9,153 455,153 455.1,153.1 455.2,153.1 
			455.3,153.1 455.3,153.3 455.4,153.4 455.5,153.4 455.6,153.5 455.7,153.5 455.9,153.6 456,153.6 456.1,153.7 456.2,153.7 
			456.2,153.8 456.3,153.8 456.4,153.9 456.5,153.9 456.5,154 456.6,154.1 456.7,154.1 456.9,154.3 456.9,154.4 457,154.4 
			457.1,154.5 457.1,154.6 457.2,154.7 457.3,154.7 457.4,154.8 457.4,154.8 457.5,154.9 457.6,155 457.6,155.1 457.7,155.1 
			457.7,155.2 457.9,155.4 458,155.5 458,155.6 458.1,155.6 458.2,155.7 458.2,155.8 458.2,155.9 458.3,156 458.4,156 458.4,156.1 
			458.5,156.2 458.6,156.4 458.6,156.5 458.6,156.6 458.7,156.7 458.7,156.8 458.8,156.8 459,156.9 459,157 459,157.1 459.1,157.2 
			459.1,157.2 459.2,157.4 459.2,157.5 459.3,157.6 459.3,157.7 459.4,157.8 459.4,157.9 459.4,158 459.5,158.1 459.5,158.2 
			459.5,158.4 459.6,158.5 459.6,158.5 459.7,158.6 459.7,158.7 459.7,158.8 459.8,158.9 459.8,159 459.8,159.1 459.8,159.2 
			460,159.3 460,159.5 460,159.6 460.1,159.7 460.1,159.7 460.1,159.9 460.2,160 460.2,160 460.2,160.1 460.2,160.2 460.2,160.3 
			460.3,160.5 460.3,160.6 460.3,160.7 460.3,160.8 460.4,161 460.4,162.1 460.4,174.2 460.4,175.7 460.4,176 460.4,176.2 
			460.4,176.3 460.4,176.4 460.4,176.6 460.4,176.7 460.4,176.7 460.5,176.9 460.5,177 460.5,177 460.5,177.1 460.5,177.1 
			460.5,177.2 460.5,177.3 460.5,177.4 460.5,177.4 460.5,177.5 460.5,177.5 460.5,177.6 460.5,177.7 460.5,177.9 460.5,177.9 
			460.5,177.9 460.5,178 460.5,178.1 460.5,178.2 460.5,178.2 460.6,178.3 460.6,178.3 460.6,178.4 460.6,178.5 460.6,178.6 
			460.6,178.6 460.6,178.6 460.6,178.7 460.6,178.8 460.6,179 460.6,179 460.6,179 460.6,179.1 460.6,179.1 460.6,179.1 
			460.6,179.2 460.6,179.2 460.7,179.2 460.7,179.3 460.7,179.3 460.7,179.4 460.7,179.4 460.7,179.5 460.7,179.5 460.7,179.5 
			460.8,179.6 460.8,179.6 460.8,179.7 460.8,179.7 460.8,179.8 460.8,179.8 461,179.8 461,180 461,180 461,180 461,180.1 
			461,180.1 461.1,180.1 461.1,180.2 461.1,180.2 461.1,180.3 461.1,180.3 461.1,180.3 461.1,180.3 461.1,180.4 461.2,180.4 
			461.2,180.4 461.2,180.5 461.2,180.5 461.2,180.5 461.2,180.6 461.3,180.6 461.3,180.6 461.3,180.7 461.4,180.7 461.4,180.7 
			461.4,180.8 461.4,180.8 461.5,181 461.5,181 461.5,181.1 461.6,181.1 461.6,181.1 461.6,181.1 461.6,181.1 461.7,181.1 
			461.7,181.2 461.7,181.2 461.7,181.2 461.8,181.2 461.8,181.3 461.8,181.3 462,181.3 462,181.4 462,181.4 462.1,181.4 
			462.1,181.4 462.1,181.5 462.2,181.5 462.2,181.5 462.3,181.5 462.3,181.5 462.3,181.5 462.4,181.6 462.4,181.6 462.5,181.6 
			462.5,181.6 462.5,181.6 462.6,181.6 462.6,181.7 462.6,181.7 462.6,181.7 462.7,181.7 462.7,181.7 462.8,181.7 462.8,181.8 
			462.9,181.8 462.9,181.8 463.1,181.8 463.1,181.8 463.1,181.8 463.2,181.8 463.2,181.8 463.3,181.9 463.3,181.9 463.4,181.9 
			463.4,181.9 463.5,181.9 463.5,181.9 463.5,181.9 463.6,181.9 463.6,181.9 463.7,181.9 463.7,181.9 463.8,181.9 463.8,181.9 
			463.9,181.9 464.1,181.9 464.2,181.9 464.2,181.9 464.3,182.1 464.3,182.1 464.4,182.1 464.5,182.1 464.5,182.1 464.6,182.1 
			464.7,182.1 464.8,182.1 464.9,182.1 465.5,182.1 465.5,183.4 460.4,183.4 454.5,183.4 449.4,183.4 449.4,182.1 450,182.1 
			450.1,182.1 450.2,182.1 450.3,182.1 450.3,182.1 450.4,182.1 450.5,182.1 450.5,182.1 450.7,182.1 450.8,181.9 450.8,181.9 
			450.9,181.9 450.9,181.9 451,181.9 451.1,181.9 451.1,181.9 451.2,181.9 451.3,181.9 451.3,181.9 451.3,181.9 451.4,181.9 
			451.4,181.9 451.4,181.9 451.5,181.9 451.5,181.9 451.6,181.9 451.6,181.9 451.8,181.8 451.8,181.8 451.8,181.8 451.9,181.8 
			451.9,181.8 452,181.8 452,181.8 452.1,181.8 452.1,181.7 452.1,181.7 452.2,181.7 452.2,181.7 452.2,181.7 452.3,181.7 
			452.3,181.6 452.4,181.6 452.4,181.6 452.5,181.6 452.5,181.6 452.5,181.5 452.6,181.5 452.6,181.5 452.8,181.5 452.8,181.5 
			452.9,181.4 452.9,181.4 452.9,181.4 453,181.3 453,181.3 453.1,181.3 453.1,181.2 453.2,181.2 453.2,181.1 453.3,181.1 
			453.3,181.1 453.3,181 453.3,181 453.4,181 453.4,180.8 453.4,180.8 453.4,180.8 453.5,180.8 453.5,180.7 453.5,180.7 
			453.6,180.7 453.6,180.6 453.6,180.6 453.8,180.5 453.8,180.5 453.8,180.4 453.8,180.4 453.8,180.4 453.8,180.3 453.9,180.3 
			453.9,180.3 453.9,180.2 453.9,180.2 453.9,180.1 454,180.1 454,180.1 454,180 454,180 454,179.8 454,179.8 454.1,179.8 
			454.1,179.7 454.1,179.7 454.1,179.7 454.1,179.6 454.1,179.6 454.1,179.5 454.1,179.5 454.1,179.5 454.1,179.4 454.1,179.4 
			454.2,179.3 454.2,179.3 454.2,179.2 454.2,179.2 454.2,179.1 454.2,179.1 454.2,179.1 454.2,179 454.2,179 454.3,178.8 
			454.3,178.7 454.3,178.6 454.3,178.6 454.3,178.6 454.3,178.5 454.3,178.4 454.3,178.3 454.3,178.3 454.3,178.2 454.4,178.2 
			454.4,178.1 454.4,178 454.4,177.9 454.4,177.9 454.4,177.9 454.4,177.7 454.4,177.6 454.4,177.5 454.4,177.5 454.4,177.4 
			454.4,177.4 454.4,177.3 454.4,177.2 454.4,177.1 454.4,177.1 454.4,177 454.4,177 454.4,176.9 454.4,176.7 454.4,176.7 
			454.4,176.6 454.4,176.4 454.5,176.3 454.5,176.2 454.5,176 454.5,175.7 		"/>
		<path fill="#FFFFFF" d="M424,175.9l-0.3,0.4l-0.2,0.2l-0.2,0.1l-0.2,0.2l-0.1,0.2l-0.2,0.2l-0.2,0.2l-0.2,0.2l-0.1,0.1l-0.2,0.3
			l-0.1,0.1h-0.1l-0.1,0.1l-0.1,0.1l-0.1,0.1l-0.1,0.1l-0.1,0.1L421,179l-0.1,0.1h-0.1l-0.1,0.1l-0.1,0.1l-0.1,0.1v0.1h-0.2
			l-0.1,0.1v0.1l-0.2,0.1h-0.1l-0.1,0.1l-0.1,0.1l-0.1,0.1l-0.1,0.1h-0.1l-0.1,0.1l-0.1,0.1l-0.1,0.1h-0.1l-0.1,0.1h-0.1h-0.1v0.1
			h-0.1l-0.1,0.1h-0.1l-0.1,0.1h-0.1h-0.2l-0.1,0.1h-0.1l-0.1,0.1h-0.1l-0.2,0.1h-0.1l-0.1,0.1h-0.1h-0.2l-0.1,0.1h-0.1h-0.1
			l-0.1,0.1h-0.2h-0.1h-0.1l-0.2,0.1h-0.1h-0.1h-0.2h-0.1h-0.1l-0.1,0.1h-0.2h-0.1h-0.1H414h-0.2h-0.1h-0.1h-0.2h-0.1h-0.1h-0.2
			l-0.1-0.1h-0.1h-0.1h-0.2h-0.1h-0.1l-0.2-0.1h-0.1h-0.1l-0.1-0.1h-0.1h-0.2l-0.1-0.1H411h-0.2h-0.1l-0.1-0.1h-0.1l-0.1-0.1h-0.2
			l-0.1-0.1h-0.1l-0.1-0.1h-0.2l-0.1-0.1h-0.1l-0.1-0.1h-0.1l-0.1-0.1h-0.1l-0.2-0.1l-0.1-0.1h-0.1l-0.1-0.1l-0.1-0.1h-0.1l-0.1-0.1
			l-0.1-0.1l-0.1-0.1h-0.2l-0.1-0.1v-0.1h-0.2l-0.1-0.1l-0.1-0.1l-0.1-0.1h-0.1l-0.1-0.1l-0.1-0.1l-0.1-0.1l-0.1-0.1l-0.1-0.1v-0.1
			l-0.1-0.1h-0.2l-0.1-0.1v-0.1l-0.1-0.1l-0.1-0.1l-0.1-0.1l-0.1-0.1l-0.1-0.1v-0.1l-0.1-0.1l-0.1-0.1l-0.1-0.1l-0.1-0.1l-0.1-0.1
			v-0.1l-0.1-0.1l-0.1-0.1l-0.1-0.1v-0.1l-0.1-0.1l-0.1-0.1v-0.1l-0.1-0.1l-0.1-0.2l-0.1-0.1v-0.1l-0.1-0.1v-0.1l-0.1-0.1l-0.1-0.1
			v-0.2h-0.1v-0.2l-0.1-0.1l-0.1-0.1v-0.1l-0.1-0.1v-0.2l-0.1-0.1V174l-0.1-0.1l-0.1-0.1v-0.1l-0.1-0.2v-0.1v-0.1l-0.1-0.1V173
			l-0.1-0.2v-0.1l-0.1-0.1v-0.1v-0.2v-0.1l-0.1-0.1v-0.1v-0.1l-0.1-0.2v-0.1v-0.1l-0.1-0.2V171v-0.1l-0.1-0.1v-0.2v-0.1v-0.1v-0.1
			V170v-0.1l-0.1-0.1v-0.2v-0.1v-0.1v-0.1l-0.1-0.2v-0.1v-0.1v-0.2v-0.1v-0.1v-0.2l-0.1-0.2v-0.3v-0.2V167v-0.2l-0.1-0.3v-0.3v-0.2
			v-0.6v-0.6h0.4h22v-0.3v-0.2v-0.1v-0.2v-0.2v-0.1v-0.2v-0.1v-0.1V163l-0.1-0.1v-0.1v-0.1v-0.1v-0.1v-0.1v-0.1l-0.1-0.1V162v-0.1
			v-0.1v-0.1v-0.1l-0.1-0.2v-0.1v-0.1l-0.1-0.2v-0.1l-0.1-0.2v-0.1l-0.1-0.2v-0.1l-0.1-0.1l-0.1-0.2v-0.1l-0.1-0.2v-0.1l-0.1-0.1
			l-0.1-0.2l-0.1-0.1v-0.1l-0.1-0.2l-0.1-0.1l-0.1-0.1l-0.1-0.2V158l-0.1-0.1l-0.1-0.2l-0.1-0.1l-0.1-0.1v-0.1l-0.2-0.1l-0.1-0.1
			l-0.1-0.2v-0.1l-0.1-0.1l-0.2-0.1v-0.2h-0.1l-0.2-0.2l-0.1-0.1l-0.1-0.1l-0.1-0.1l-0.1-0.1l-0.1-0.1l-0.1-0.1l-0.1-0.1l-0.1-0.1
			l-0.2-0.1l-0.1-0.1l-0.1-0.1l-0.1-0.1l-0.1-0.1l-0.1-0.1l-0.2-0.1l-0.1-0.1h-0.1l-0.1-0.1l-0.2-0.1L418,154l-0.1-0.1h-0.2
			l-0.1-0.1l-0.1-0.1l-0.2-0.1h-0.1l-0.1-0.1l-0.2-0.1l-0.1-0.1h-0.2l-0.1-0.1h-0.1L416,153l-0.1-0.1h-0.1l-0.2-0.1l-0.1-0.1h-0.2
			h-0.1l-0.2-0.1h-0.1l-0.1-0.1h-0.2l-0.1-0.1h-0.2H414l-0.2-0.1h-0.1h-0.2l-0.1-0.1h-0.2H413l-0.2-0.1h-0.1h-0.2h-0.1l-0.2-0.1H412
			h-0.2h-0.1h-0.2h-0.1h-0.2H411h-0.2h-0.1h-0.2h-0.1h-0.2h-0.2h-0.1h-0.2h-0.1h-0.2h-0.1h-0.2l-0.1,0.1h-0.1h-0.2h-0.2l-0.1,0.1
			h-0.2h-0.1l-0.2,0.1h-0.1h-0.2l-0.1,0.1h-0.2h-0.1h-0.1l-0.2,0.1h-0.2l-0.1,0.1h-0.2l-0.1,0.1h-0.1l-0.2,0.1h-0.1l-0.2,0.1H405
			l-0.1,0.1l-0.2,0.1h-0.1h-0.2l-0.1,0.1l-0.1,0.1l-0.2,0.1h-0.1l-0.1,0.1l-0.2,0.1h-0.1l-0.1,0.1l-0.2,0.1h-0.1l-0.1,0.1l-0.2,0.1
			l-0.1,0.1l-0.1,0.1l-0.1,0.1l-0.2,0.1l-0.1,0.1l-0.1,0.1h-0.1l-0.2,0.1l-0.1,0.1l-0.1,0.1l-0.1,0.1l-0.1,0.1l-0.1,0.1l-0.2,0.1
			l-0.1,0.1l-0.1,0.1l-0.1,0.2h-0.1l-0.1,0.1l-0.1,0.2h-0.1l-0.1,0.2l-0.1,0.1l-0.1,0.1l-0.1,0.1l-0.1,0.1l-0.1,0.2h-0.1l-0.1,0.2
			l-0.1,0.1l-0.1,0.1l-0.1,0.1l-0.1,0.2l-0.1,0.1l-0.1,0.1l-0.1,0.1l-0.1,0.1v0.2l-0.1,0.1l-0.1,0.1l-0.1,0.2l-0.1,0.1v0.1l-0.1,0.1
			l-0.1,0.2l-0.1,0.1v0.1l-0.1,0.1l-0.1,0.2l-0.1,0.1l-0.1,0.2v0.1l-0.1,0.1v0.2l-0.1,0.1l-0.1,0.1v0.2l-0.1,0.2v0.1l-0.1,0.1v0.1
			l-0.1,0.2v0.2l-0.1,0.1v0.2v0.1L396,163v0.2v0.1l-0.1,0.2v0.1l-0.1,0.2v0.1l-0.1,0.2v0.1v0.1v0.2l-0.1,0.2v0.1v0.2l-0.1,0.1v0.2
			v0.1l-0.1,0.1v0.2v0.1v0.2l-0.1,0.2v0.1v0.2v0.1v0.2v0.1v0.2v0.1v0.2v0.1v0.1v0.2v0.2v0.1v0.2v0.1v0.2v0.1v0.2v0.2v0.1v0.1
			l0.1,0.2v0.1v0.2v0.1v0.2v0.1l0.1,0.2v0.2v0.1v0.2l0.1,0.1v0.2v0.1l0.1,0.1v0.2v0.1v0.2l0.1,0.1v0.2l0.1,0.1v0.2l0.1,0.1v0.2
			l0.1,0.1v0.2v0.1l0.1,0.1l0.1,0.2v0.1l0.1,0.2v0.1l0.1,0.1l0.1,0.2v0.1l0.1,0.1l0.1,0.2v0.1l0.1,0.1l0.1,0.2l0.1,0.1l0.1,0.1v0.1
			l0.1,0.2l0.1,0.1l0.1,0.1l0.1,0.2l0.1,0.1l0.1,0.1l0.1,0.1v0.2l0.1,0.1l0.1,0.1l0.1,0.1l0.1,0.1l0.1,0.2l0.1,0.1l0.1,0.1l0.1,0.1
			l0.1,0.1l0.1,0.1l0.1,0.1l0.1,0.2l0.1,0.1l0.2,0.1v0.1l0.2,0.1l0.1,0.1l0.1,0.1l0.1,0.1l0.1,0.1l0.1,0.1l0.1,0.1l0.2,0.1l0.1,0.1
			l0.1,0.1l0.1,0.1l0.1,0.1h0.2l0.1,0.1l0.1,0.1l0.1,0.1l0.2,0.1l0.1,0.1l0.1,0.1l0.2,0.1l0.2,0.1l0.1,0.1l0.1,0.1h0.2l0.1,0.1
			l0.1,0.1h0.2l0.1,0.1l0.2,0.1l0.1,0.1h0.1l0.2,0.1h0.1l0.1,0.1l0.2,0.1h0.1l0.2,0.1h0.1l0.1,0.1h0.2l0.1,0.1h0.2l0.2,0.1h0.1h0.1
			l0.2,0.1h0.1l0.2,0.1h0.1l0.2,0.1h0.1h0.2l0.1,0.1h0.1h0.2h0.1h0.2l0.2,0.1h0.1h0.2h0.1l0.2,0.1h0.1h0.1h0.2h0.1h0.2h0.2l0.1,0.1
			h0.2h0.1h0.2h0.1h0.2h0.1h0.2h0.1h0.2h0.1h0.2h0.1h0.2h0.1h0.2h0.1h0.2l0.2-0.1h0.1h0.2h0.1h0.2h0.1l0.2-0.1h0.1h0.1h0.2l0.2-0.1
			h0.1h0.2h0.1l0.2-0.1h0.1l0.1-0.1h0.2l0.1-0.1h0.2l0.1-0.1h0.2h0.1l0.1-0.1l0.2-0.1h0.2l0.1-0.1h0.1l0.1-0.1l0.2-0.1h0.1l0.2-0.1
			l0.1-0.1h0.2l0.1-0.1l0.1-0.1l0.1-0.1l0.2-0.1h0.1l0.1-0.1l0.2-0.1l0.1-0.1h0.1l0.1-0.1l0.2-0.1l0.1-0.1l0.1-0.1l0.1-0.1l0.1-0.1
			l0.2-0.1l0.1-0.1l0.1-0.1l0.1-0.1l0.1-0.1l0.1-0.1l0.1-0.1l0.2-0.1l0.1-0.1v-0.1l0.2-0.1l0.1-0.1l0.1-0.1l0.1-0.1l0.1-0.2h0.1
			l0.1-0.2l0.1-0.1l0.1-0.1l0.1-0.1l0.2-0.3l0.2-0.2l0.2-0.2l0.4-0.6v-0.6v-1.7L424,175.9z M401.4,163v-0.8v-0.3
			c0-4.5,3.7-8.3,8.3-8.3c4.5,0,8.3,3.5,8.3,8.2v0.3v1.1h-0.9h-15.7V163z"/>
		<path fill="#FFFFFF" d="M542.1,154.4v-1.7l10.5-1h1.6l0.1,6.2l4-3.2c0,0,4.7-3.4,6.5-3.1c1.8,0.3,1.3-0.3,5.5,2.4l-2.7,5.8
			c0,0-5.2-3.1-7.6-2.9c-2.4,0.2-5.8,3.8-5.8,3.8v15.7c0,0,0,3,1,4.4c1,1.4,4,1.4,4,1.4v1.8h-16.1v-1.8c0,0,2.9-0.3,4-1.4
			c1-1,1-4.1,1-4.5c0-0.3,0-19.4,0-19.4s0-2.5-4.7-2.5C542.7,154.4,542.1,154.4,542.1,154.4z"/>
	</g>
</g>
</svg>
