<?xml version="1.0" encoding="utf-8"?>
<!-- Generator: Adobe Illustrator 17.1.0, SVG Export Plug-In . SVG Version: 6.00 Build 0)  -->
<!DOCTYPE svg PUBLIC "-//W3C//DTD SVG 1.1//EN" "http://www.w3.org/Graphics/SVG/1.1/DTD/svg11.dtd">
<svg version="1.1" id="Capa_1" xmlns="http://www.w3.org/2000/svg" xmlns:xlink="http://www.w3.org/1999/xlink" x="0px" y="0px"
	 width="568px" height="571.5px" viewBox="0 0 568 571.5" enable-background="new 0 0 568 571.5" xml:space="preserve">
<g opacity="0.2">
	<g>
		
			<line fill="none" stroke="#000000" stroke-width="5" stroke-linecap="round" stroke-linejoin="round" stroke-miterlimit="10" x1="197.8" y1="113.5" x2="182.6" y2="99.2"/>
		
			<line fill="none" stroke="#000000" stroke-width="5" stroke-linecap="round" stroke-linejoin="round" stroke-miterlimit="10" x1="183" y1="114" x2="197.3" y2="98.7"/>
	</g>
	<g>
		
			<line fill="none" stroke="#000000" stroke-width="5" stroke-linecap="round" stroke-linejoin="round" stroke-miterlimit="10" x1="215.3" y1="332.9" x2="200.1" y2="318.6"/>
		
			<line fill="none" stroke="#000000" stroke-width="5" stroke-linecap="round" stroke-linejoin="round" stroke-miterlimit="10" x1="200.6" y1="333.4" x2="214.9" y2="318.2"/>
	</g>
	<g>
		
			<line fill="none" stroke="#000000" stroke-width="5" stroke-linecap="round" stroke-linejoin="round" stroke-miterlimit="10" x1="29.7" y1="455.5" x2="14.5" y2="441.2"/>
		
			<line fill="none" stroke="#000000" stroke-width="5" stroke-linecap="round" stroke-linejoin="round" stroke-miterlimit="10" x1="15" y1="456" x2="29.3" y2="440.8"/>
	</g>
	<g>
		
			<line fill="none" stroke="#000000" stroke-width="5" stroke-linecap="round" stroke-linejoin="round" stroke-miterlimit="10" x1="23.1" y1="92.6" x2="7.8" y2="78.3"/>
		
			<line fill="none" stroke="#000000" stroke-width="5" stroke-linecap="round" stroke-linejoin="round" stroke-miterlimit="10" x1="8.3" y1="93.1" x2="22.6" y2="77.8"/>
	</g>
	<g>
		
			<line fill="none" stroke="#000000" stroke-width="5" stroke-linecap="round" stroke-linejoin="round" stroke-miterlimit="10" x1="565.5" y1="113.1" x2="550.3" y2="98.8"/>
		
			<line fill="none" stroke="#000000" stroke-width="5" stroke-linecap="round" stroke-linejoin="round" stroke-miterlimit="10" x1="550.7" y1="113.6" x2="565" y2="98.3"/>
	</g>
	<g>
		
			<line fill="none" stroke="#000000" stroke-width="5" stroke-linecap="round" stroke-linejoin="round" stroke-miterlimit="10" x1="385.6" y1="190.9" x2="370.3" y2="176.6"/>
		
			<line fill="none" stroke="#000000" stroke-width="5" stroke-linecap="round" stroke-linejoin="round" stroke-miterlimit="10" x1="370.8" y1="191.4" x2="385.1" y2="176.1"/>
	</g>
	<g>
		
			<line fill="none" stroke="#000000" stroke-width="5" stroke-linecap="round" stroke-linejoin="round" stroke-miterlimit="10" x1="459.9" y1="360.7" x2="444.7" y2="346.4"/>
		
			<line fill="none" stroke="#000000" stroke-width="5" stroke-linecap="round" stroke-linejoin="round" stroke-miterlimit="10" x1="445.2" y1="361.2" x2="459.5" y2="346"/>
	</g>
	<g>
		
			<line fill="none" stroke="#000000" stroke-width="5" stroke-linecap="round" stroke-linejoin="round" stroke-miterlimit="10" x1="448.1" y1="499.1" x2="432.8" y2="484.8"/>
		
			<line fill="none" stroke="#000000" stroke-width="5" stroke-linecap="round" stroke-linejoin="round" stroke-miterlimit="10" x1="433.3" y1="499.5" x2="447.6" y2="484.3"/>
	</g>
	
		<polygon fill="none" stroke="#000000" stroke-width="5" stroke-linecap="round" stroke-linejoin="round" stroke-miterlimit="10" points="
		311.2,136.4 300.7,118.2 290.2,136.4 279.7,154.6 300.7,154.6 321.7,154.5 	"/>
	
		<polygon fill="none" stroke="#000000" stroke-width="5" stroke-linecap="round" stroke-linejoin="round" stroke-miterlimit="10" points="
		276.4,358.4 265.9,340.2 255.5,358.4 245,376.6 266,376.6 286.9,376.5 	"/>
	
		<polygon fill="none" stroke="#000000" stroke-width="5" stroke-linecap="round" stroke-linejoin="round" stroke-miterlimit="10" points="
		396.8,426.6 386.3,408.4 375.8,426.6 365.3,444.7 386.3,444.7 407.3,444.7 	"/>
	
		<polygon fill="none" stroke="#000000" stroke-width="5" stroke-linecap="round" stroke-linejoin="round" stroke-miterlimit="10" points="
		466,287.1 471.4,266.9 451.2,272.3 430.9,277.8 445.7,292.6 460.6,307.4 	"/>
	
		<polygon fill="none" stroke="#000000" stroke-width="5" stroke-linecap="round" stroke-linejoin="round" stroke-miterlimit="10" points="
		121.1,51.8 126.5,31.6 106.2,37 86,42.5 100.8,57.3 115.7,72.1 	"/>
	
		<polygon fill="none" stroke="#000000" stroke-width="5" stroke-linecap="round" stroke-linejoin="round" stroke-miterlimit="10" points="
		106.7,489.8 112.1,469.5 91.9,474.9 71.6,480.4 86.5,495.2 101.3,510 	"/>
	
		<polygon fill="none" stroke="#000000" stroke-width="5" stroke-linecap="round" stroke-linejoin="round" stroke-miterlimit="10" points="
		487.2,74.5 505.4,64 487.2,53.5 469.1,43 469.1,64 469.1,85 	"/>
	
		<polygon fill="none" stroke="#000000" stroke-width="5" stroke-linecap="round" stroke-linejoin="round" stroke-miterlimit="10" points="
		106.2,284 124.4,273.5 106.2,263.1 88.1,252.6 88.1,273.6 88.1,294.5 	"/>
	
		<circle fill="none" stroke="#000000" stroke-width="5" stroke-linecap="round" stroke-linejoin="round" stroke-miterlimit="10" cx="330.7" cy="249.7" r="15.9"/>
	
		<circle fill="none" stroke="#000000" stroke-width="5" stroke-linecap="round" stroke-linejoin="round" stroke-miterlimit="10" cx="250.3" cy="72.1" r="15.9"/>
	
		<circle fill="none" stroke="#000000" stroke-width="5" stroke-linecap="round" stroke-linejoin="round" stroke-miterlimit="10" cx="260.4" cy="541.8" r="15.9"/>
	<path fill="none" stroke="#000000" stroke-width="5" stroke-linecap="round" stroke-linejoin="round" stroke-miterlimit="10" d="
		M318.9,518c0-8.8,7.1-15.9,15.9-15.9c8.8,0,15.9,7.1,15.9,15.9"/>
	<path fill="none" stroke="#000000" stroke-width="5" stroke-linecap="round" stroke-linejoin="round" stroke-miterlimit="10" d="
		M191.9,273.6c0-8.8,7.1-15.9,15.9-15.9s15.9,7.1,15.9,15.9"/>
	<path fill="none" stroke="#000000" stroke-width="5" stroke-linecap="round" stroke-linejoin="round" stroke-miterlimit="10" d="
		M24.5,144.4c0-8.8,7.1-15.9,15.8-15.9c8.7,0,15.8,7.1,15.8,15.9"/>
	<path fill="none" stroke="#000000" stroke-width="5" stroke-linecap="round" stroke-linejoin="round" stroke-miterlimit="10" d="
		M425.6,170.4c-8.8,0-15.9-7.1-15.9-15.8c0-8.7,7.1-15.8,15.9-15.8"/>
	<path fill="none" stroke="#000000" stroke-width="5" stroke-linecap="round" stroke-linejoin="round" stroke-miterlimit="10" d="
		M42.4,541.7c-8.8,0-15.9-7.1-15.9-15.8c0-8.7,7.1-15.8,15.9-15.8"/>
	<path fill="none" stroke="#000000" stroke-width="5" stroke-linecap="round" stroke-linejoin="round" stroke-miterlimit="10" d="
		M213.2,35.6c-8.8,0-15.9-7.1-15.9-15.8c0-8.7,7.1-15.8,15.9-15.8"/>
	
		<circle fill="none" stroke="#000000" stroke-width="5" stroke-linecap="round" stroke-linejoin="round" stroke-miterlimit="10" cx="34.5" cy="374.3" r="15.9"/>
	
		<circle fill="none" stroke="#000000" stroke-width="5" stroke-linecap="round" stroke-linejoin="round" stroke-miterlimit="10" cx="525.2" cy="392.5" r="15.9"/>
	
		<rect x="497.1" y="138.7" fill="none" stroke="#000000" stroke-width="5" stroke-linecap="round" stroke-linejoin="round" stroke-miterlimit="10" width="31.7" height="31.7"/>
	
		<rect x="139.2" y="154.6" fill="none" stroke="#000000" stroke-width="5" stroke-linecap="round" stroke-linejoin="round" stroke-miterlimit="10" width="31.7" height="31.7"/>
	
		<rect x="137.6" y="356.7" fill="none" stroke="#000000" stroke-width="5" stroke-linecap="round" stroke-linejoin="round" stroke-miterlimit="10" width="31.7" height="31.7"/>
	
		<rect x="497.1" y="510" fill="none" stroke="#000000" stroke-width="5" stroke-linecap="round" stroke-linejoin="round" stroke-miterlimit="10" width="31.7" height="31.7"/>
	
		<rect x="365.8" y="3.9" fill="none" stroke="#000000" stroke-width="5" stroke-linecap="round" stroke-linejoin="round" stroke-miterlimit="10" width="31.7" height="31.7"/>
	<g>
		<path fill="none" stroke="#000000" stroke-width="5" stroke-linecap="round" stroke-linejoin="round" stroke-miterlimit="10" d="
			M320.3,325.8c-6.9,0-5.7-12.3-14.5-12.3"/>
		<path fill="none" stroke="#000000" stroke-width="5" stroke-linecap="round" stroke-linejoin="round" stroke-miterlimit="10" d="
			M349.4,325.8c-6.9,0-5.7-12.3-14.5-12.3"/>
		<path fill="none" stroke="#000000" stroke-width="5" stroke-linecap="round" stroke-linejoin="round" stroke-miterlimit="10" d="
			M320.3,325.8c6.9,0,5.7-12.3,14.5-12.3"/>
		<path fill="none" stroke="#000000" stroke-width="5" stroke-linecap="round" stroke-linejoin="round" stroke-miterlimit="10" d="
			M363.9,313.5"/>
		<path fill="none" stroke="#000000" stroke-width="5" stroke-linecap="round" stroke-linejoin="round" stroke-miterlimit="10" d="
			M349.4,325.8c6.9,0,5.7-12.3,14.5-12.3"/>
	</g>
	<g>
		<path fill="none" stroke="#000000" stroke-width="5" stroke-linecap="round" stroke-linejoin="round" stroke-miterlimit="10" d="
			M403.1,554c-6.9,0-5.7-12.3-14.5-12.3"/>
		<path fill="none" stroke="#000000" stroke-width="5" stroke-linecap="round" stroke-linejoin="round" stroke-miterlimit="10" d="
			M432.2,554c-6.9,0-5.7-12.3-14.5-12.3"/>
		<path fill="none" stroke="#000000" stroke-width="5" stroke-linecap="round" stroke-linejoin="round" stroke-miterlimit="10" d="
			M403.1,554c6.9,0,5.7-12.3,14.5-12.3"/>
		<path fill="none" stroke="#000000" stroke-width="5" stroke-linecap="round" stroke-linejoin="round" stroke-miterlimit="10" d="
			M446.7,541.8"/>
		<path fill="none" stroke="#000000" stroke-width="5" stroke-linecap="round" stroke-linejoin="round" stroke-miterlimit="10" d="
			M432.2,554c6.9,0,5.7-12.3,14.5-12.3"/>
	</g>
	<g>
		<path fill="none" stroke="#000000" stroke-width="5" stroke-linecap="round" stroke-linejoin="round" stroke-miterlimit="10" d="
			M442.8,225c-6.9,0-5.7-12.3-14.5-12.3"/>
		<path fill="none" stroke="#000000" stroke-width="5" stroke-linecap="round" stroke-linejoin="round" stroke-miterlimit="10" d="
			M471.8,225c-6.9,0-5.7-12.3-14.5-12.3"/>
		<path fill="none" stroke="#000000" stroke-width="5" stroke-linecap="round" stroke-linejoin="round" stroke-miterlimit="10" d="
			M442.8,225c6.9,0,5.7-12.3,14.5-12.3"/>
		<path fill="none" stroke="#000000" stroke-width="5" stroke-linecap="round" stroke-linejoin="round" stroke-miterlimit="10" d="
			M486.4,212.7"/>
		<path fill="none" stroke="#000000" stroke-width="5" stroke-linecap="round" stroke-linejoin="round" stroke-miterlimit="10" d="
			M471.8,225c6.9,0,5.7-12.3,14.5-12.3"/>
	</g>
	<g>
		<path fill="none" stroke="#000000" stroke-width="5" stroke-linecap="round" stroke-linejoin="round" stroke-miterlimit="10" d="
			M38.5,210.2c-6.9,0-5.7-12.3-14.5-12.3"/>
		<path fill="none" stroke="#000000" stroke-width="5" stroke-linecap="round" stroke-linejoin="round" stroke-miterlimit="10" d="
			M67.5,210.2c-6.9,0-5.7-12.3-14.5-12.3"/>
		<path fill="none" stroke="#000000" stroke-width="5" stroke-linecap="round" stroke-linejoin="round" stroke-miterlimit="10" d="
			M38.5,210.2c6.9,0,5.7-12.3,14.5-12.3"/>
		<path fill="none" stroke="#000000" stroke-width="5" stroke-linecap="round" stroke-linejoin="round" stroke-miterlimit="10" d="
			M82.1,197.9"/>
		<path fill="none" stroke="#000000" stroke-width="5" stroke-linecap="round" stroke-linejoin="round" stroke-miterlimit="10" d="
			M67.5,210.2c6.9,0,5.7-12.3,14.5-12.3"/>
	</g>
	<g>
		<path fill="none" stroke="#000000" stroke-width="5" stroke-linecap="round" stroke-linejoin="round" stroke-miterlimit="10" d="
			M322.7,46.1c0,6.9-12.3,5.7-12.3,14.5"/>
		<path fill="none" stroke="#000000" stroke-width="5" stroke-linecap="round" stroke-linejoin="round" stroke-miterlimit="10" d="
			M322.7,17c0,6.9-12.3,5.7-12.3,14.5"/>
		<path fill="none" stroke="#000000" stroke-width="5" stroke-linecap="round" stroke-linejoin="round" stroke-miterlimit="10" d="
			M322.7,46.1c0-6.9-12.3-5.7-12.3-14.5"/>
		<path fill="none" stroke="#000000" stroke-width="5" stroke-linecap="round" stroke-linejoin="round" stroke-miterlimit="10" d="
			M310.4,2.5"/>
		<path fill="none" stroke="#000000" stroke-width="5" stroke-linecap="round" stroke-linejoin="round" stroke-miterlimit="10" d="
			M322.7,17c0-6.9-12.3-5.7-12.3-14.5"/>
	</g>
	<g>
		<path fill="none" stroke="#000000" stroke-width="5" stroke-linecap="round" stroke-linejoin="round" stroke-miterlimit="10" d="
			M233.6,198.2c0,6.9-12.3,5.7-12.3,14.5"/>
		<path fill="none" stroke="#000000" stroke-width="5" stroke-linecap="round" stroke-linejoin="round" stroke-miterlimit="10" d="
			M233.6,169.1c0,6.9-12.3,5.7-12.3,14.5"/>
		<path fill="none" stroke="#000000" stroke-width="5" stroke-linecap="round" stroke-linejoin="round" stroke-miterlimit="10" d="
			M233.6,198.2c0-6.9-12.3-5.7-12.3-14.5"/>
		<path fill="none" stroke="#000000" stroke-width="5" stroke-linecap="round" stroke-linejoin="round" stroke-miterlimit="10" d="
			M221.3,154.6"/>
		<path fill="none" stroke="#000000" stroke-width="5" stroke-linecap="round" stroke-linejoin="round" stroke-miterlimit="10" d="
			M233.6,169.1c0-6.9-12.3-5.7-12.3-14.5"/>
	</g>
	<g>
		<path fill="none" stroke="#000000" stroke-width="5" stroke-linecap="round" stroke-linejoin="round" stroke-miterlimit="10" d="
			M475.2,441.1c0,6.9-12.3,5.7-12.3,14.5"/>
		<path fill="none" stroke="#000000" stroke-width="5" stroke-linecap="round" stroke-linejoin="round" stroke-miterlimit="10" d="
			M475.2,412c0,6.9-12.3,5.7-12.3,14.5"/>
		<path fill="none" stroke="#000000" stroke-width="5" stroke-linecap="round" stroke-linejoin="round" stroke-miterlimit="10" d="
			M475.2,441.1c0-6.9-12.3-5.7-12.3-14.5"/>
		<path fill="none" stroke="#000000" stroke-width="5" stroke-linecap="round" stroke-linejoin="round" stroke-miterlimit="10" d="
			M462.9,397.5"/>
		<path fill="none" stroke="#000000" stroke-width="5" stroke-linecap="round" stroke-linejoin="round" stroke-miterlimit="10" d="
			M475.2,412c0-6.9-12.3-5.7-12.3-14.5"/>
	</g>
	<g>
		<path fill="none" stroke="#000000" stroke-width="5" stroke-linecap="round" stroke-linejoin="round" stroke-miterlimit="10" d="
			M175.4,464c0,6.9-12.3,5.7-12.3,14.5"/>
		<path fill="none" stroke="#000000" stroke-width="5" stroke-linecap="round" stroke-linejoin="round" stroke-miterlimit="10" d="
			M175.4,434.9c0,6.9-12.3,5.7-12.3,14.5"/>
		<path fill="none" stroke="#000000" stroke-width="5" stroke-linecap="round" stroke-linejoin="round" stroke-miterlimit="10" d="
			M175.4,464c0-6.9-12.3-5.7-12.3-14.5"/>
		<path fill="none" stroke="#000000" stroke-width="5" stroke-linecap="round" stroke-linejoin="round" stroke-miterlimit="10" d="
			M163.1,420.4"/>
		<path fill="none" stroke="#000000" stroke-width="5" stroke-linecap="round" stroke-linejoin="round" stroke-miterlimit="10" d="
			M175.4,434.9c0-6.9-12.3-5.7-12.3-14.5"/>
	</g>
	
		<line fill="none" stroke="#000000" stroke-width="5" stroke-linecap="round" stroke-linejoin="round" stroke-miterlimit="10" x1="355.1" y1="358.4" x2="391" y2="358.4"/>
	
		<line fill="none" stroke="#000000" stroke-width="5" stroke-linecap="round" stroke-linejoin="round" stroke-miterlimit="10" x1="2.5" y1="254.8" x2="38.4" y2="254.8"/>
	
		<line fill="none" stroke="#000000" stroke-width="5" stroke-linecap="round" stroke-linejoin="round" stroke-miterlimit="10" x1="357.8" y1="88" x2="393.7" y2="88"/>
	
		<line fill="none" stroke="#000000" stroke-width="5" stroke-linecap="round" stroke-linejoin="round" stroke-miterlimit="10" x1="499.2" y1="7.1" x2="535.1" y2="7.1"/>
	
		<line fill="none" stroke="#000000" stroke-width="5" stroke-linecap="round" stroke-linejoin="round" stroke-miterlimit="10" x1="145.5" y1="541.7" x2="181.4" y2="541.7"/>
	
		<line fill="none" stroke="#000000" stroke-width="5" stroke-linecap="round" stroke-linejoin="round" stroke-miterlimit="10" x1="237.6" y1="472.4" x2="263" y2="447"/>
	
		<line fill="none" stroke="#000000" stroke-width="5" stroke-linecap="round" stroke-linejoin="round" stroke-miterlimit="10" x1="27.6" y1="32.4" x2="53" y2="7.1"/>
	
		<line fill="none" stroke="#000000" stroke-width="5" stroke-linecap="round" stroke-linejoin="round" stroke-miterlimit="10" x1="517.1" y1="292.4" x2="542.5" y2="267.1"/>
	<g opacity="0.3">
		<polygon fill="none" stroke="#000000" stroke-miterlimit="10" points="334,149.7 323.5,131.6 313,149.8 302.5,167.9 323.5,167.9 
			344.5,167.9 		"/>
		<polygon fill="none" stroke="#000000" stroke-miterlimit="10" points="299.3,371.7 288.7,353.6 278.3,371.8 267.8,389.9 
			288.8,389.9 309.8,389.9 		"/>
		<polygon fill="none" stroke="#000000" stroke-miterlimit="10" points="419.6,439.9 409.1,421.8 398.6,439.9 388.1,458.1 
			409.1,458.1 430.1,458.1 		"/>
		<polygon fill="none" stroke="#000000" stroke-miterlimit="10" points="488.8,300.5 494.2,280.2 474,285.7 453.7,291.1 
			468.6,305.9 483.4,320.8 		"/>
		<polygon fill="none" stroke="#000000" stroke-miterlimit="10" points="143.9,65.2 149.3,44.9 129.1,50.4 108.8,55.8 123.6,70.6 
			138.5,85.5 		"/>
		<polygon fill="none" stroke="#000000" stroke-miterlimit="10" points="129.5,503.1 134.9,482.8 114.7,488.3 94.4,493.7 
			109.3,508.5 124.1,523.4 		"/>
		<polygon fill="none" stroke="#000000" stroke-miterlimit="10" points="510.1,87.8 528.2,77.3 510.1,66.9 491.9,56.4 491.9,77.4 
			491.9,98.3 		"/>
		<polygon fill="none" stroke="#000000" stroke-miterlimit="10" points="129.1,297.4 147.2,286.9 129,276.4 110.9,265.9 
			110.9,286.9 110.9,307.9 		"/>
		<circle fill="none" stroke="#000000" stroke-miterlimit="10" cx="353.5" cy="263" r="15.9"/>
		<circle fill="none" stroke="#000000" stroke-miterlimit="10" cx="273.1" cy="85.5" r="15.9"/>
		<circle fill="none" stroke="#000000" stroke-miterlimit="10" cx="283.3" cy="555.1" r="15.9"/>
		<path fill="none" stroke="#000000" stroke-miterlimit="10" d="M341.7,531.3c0-8.8,7.1-15.9,15.9-15.9c8.8,0,15.9,7.1,15.9,15.9"/>
		<path fill="none" stroke="#000000" stroke-miterlimit="10" d="M214.7,286.9c0-8.8,7.1-15.9,15.9-15.9s15.9,7.1,15.9,15.9"/>
		<path fill="none" stroke="#000000" stroke-miterlimit="10" d="M47.3,157.7c0-8.8,7.1-15.9,15.8-15.9c8.7,0,15.8,7.1,15.8,15.9"/>
		<path fill="none" stroke="#000000" stroke-miterlimit="10" d="M448.4,183.8c-8.8,0-15.9-7.1-15.9-15.8c0-8.7,7.1-15.8,15.9-15.8"
			/>
		<path fill="none" stroke="#000000" stroke-miterlimit="10" d="M65.2,555c-8.8,0-15.9-7.1-15.9-15.8c0-8.7,7.1-15.8,15.9-15.8"/>
		<path fill="none" stroke="#000000" stroke-miterlimit="10" d="M236,49c-8.8,0-15.9-7.1-15.9-15.8s7.1-15.8,15.9-15.8"/>
		<circle fill="none" stroke="#000000" stroke-miterlimit="10" cx="57.3" cy="387.7" r="15.9"/>
		<circle fill="none" stroke="#000000" stroke-miterlimit="10" cx="548" cy="405.8" r="15.9"/>
		<rect x="519.9" y="152.1" fill="none" stroke="#000000" stroke-miterlimit="10" width="31.7" height="31.7"/>
		<rect x="162" y="167.9" fill="none" stroke="#000000" stroke-miterlimit="10" width="31.7" height="31.7"/>
		<rect x="160.4" y="370" fill="none" stroke="#000000" stroke-miterlimit="10" width="31.7" height="31.7"/>
		<rect x="519.9" y="523.4" fill="none" stroke="#000000" stroke-miterlimit="10" width="31.7" height="31.7"/>
		<rect x="388.6" y="17.3" fill="none" stroke="#000000" stroke-miterlimit="10" width="31.7" height="31.7"/>
		<g>
			<path fill="none" stroke="#000000" stroke-miterlimit="10" d="M343.1,339.1c-6.9,0-5.7-12.3-14.5-12.3"/>
			<path fill="none" stroke="#000000" stroke-miterlimit="10" d="M372.2,339.1c-6.9,0-5.7-12.3-14.5-12.3"/>
			<path fill="none" stroke="#000000" stroke-miterlimit="10" d="M343.1,339.1c6.9,0,5.7-12.3,14.5-12.3"/>
			<path fill="none" stroke="#000000" stroke-miterlimit="10" d="M386.7,326.9"/>
			<path fill="none" stroke="#000000" stroke-miterlimit="10" d="M372.2,339.1c6.9,0,5.7-12.3,14.5-12.3"/>
		</g>
		<g>
			<path fill="none" stroke="#000000" stroke-miterlimit="10" d="M425.9,567.4c-6.9,0-5.7-12.3-14.5-12.3"/>
			<path fill="none" stroke="#000000" stroke-miterlimit="10" d="M455,567.4c-6.9,0-5.7-12.3-14.5-12.3"/>
			<path fill="none" stroke="#000000" stroke-miterlimit="10" d="M425.9,567.4c6.9,0,5.7-12.3,14.5-12.3"/>
			<path fill="none" stroke="#000000" stroke-miterlimit="10" d="M469.5,555.1"/>
			<path fill="none" stroke="#000000" stroke-miterlimit="10" d="M455,567.4c6.9,0,5.7-12.3,14.5-12.3"/>
		</g>
		<g>
			<path fill="none" stroke="#000000" stroke-miterlimit="10" d="M465.6,238.3c-6.9,0-5.7-12.3-14.5-12.3"/>
			<path fill="none" stroke="#000000" stroke-miterlimit="10" d="M494.6,238.3c-6.9,0-5.7-12.3-14.5-12.3"/>
			<path fill="none" stroke="#000000" stroke-miterlimit="10" d="M465.6,238.3c6.9,0,5.7-12.3,14.5-12.3"/>
			<path fill="none" stroke="#000000" stroke-miterlimit="10" d="M509.2,226.1"/>
			<path fill="none" stroke="#000000" stroke-miterlimit="10" d="M494.6,238.3c6.9,0,5.7-12.3,14.5-12.3"/>
		</g>
		<g>
			<path fill="none" stroke="#000000" stroke-miterlimit="10" d="M61.3,223.5c-6.9,0-5.7-12.3-14.5-12.3"/>
			<path fill="none" stroke="#000000" stroke-miterlimit="10" d="M90.4,223.5c-6.9,0-5.7-12.3-14.5-12.3"/>
			<path fill="none" stroke="#000000" stroke-miterlimit="10" d="M61.3,223.5c6.9,0,5.7-12.3,14.5-12.3"/>
			<path fill="none" stroke="#000000" stroke-miterlimit="10" d="M104.9,211.3"/>
			<path fill="none" stroke="#000000" stroke-miterlimit="10" d="M90.4,223.5c6.9,0,5.7-12.3,14.5-12.3"/>
		</g>
		<g>
			<path fill="none" stroke="#000000" stroke-miterlimit="10" d="M345.5,59.5c0,6.9-12.3,5.7-12.3,14.5"/>
			<path fill="none" stroke="#000000" stroke-miterlimit="10" d="M345.5,30.4c0,6.9-12.3,5.7-12.3,14.5"/>
			<path fill="none" stroke="#000000" stroke-miterlimit="10" d="M345.5,59.5c0-6.9-12.3-5.7-12.3-14.5"/>
			<path fill="none" stroke="#000000" stroke-miterlimit="10" d="M333.3,15.9"/>
			<path fill="none" stroke="#000000" stroke-miterlimit="10" d="M345.5,30.4c0-6.9-12.3-5.7-12.3-14.5"/>
		</g>
		<g>
			<path fill="none" stroke="#000000" stroke-miterlimit="10" d="M256.4,211.5c0,6.9-12.3,5.7-12.3,14.5"/>
			<path fill="none" stroke="#000000" stroke-miterlimit="10" d="M256.4,182.5c0,6.9-12.3,5.7-12.3,14.5"/>
			<path fill="none" stroke="#000000" stroke-miterlimit="10" d="M256.4,211.5c0-6.9-12.3-5.7-12.3-14.5"/>
			<path fill="none" stroke="#000000" stroke-miterlimit="10" d="M244.1,167.9"/>
			<path fill="none" stroke="#000000" stroke-miterlimit="10" d="M256.4,182.5c0-6.9-12.3-5.7-12.3-14.5"/>
		</g>
		<g>
			<path fill="none" stroke="#000000" stroke-miterlimit="10" d="M498,454.5c0,6.9-12.3,5.7-12.3,14.5"/>
			<path fill="none" stroke="#000000" stroke-miterlimit="10" d="M498,425.4c0,6.9-12.3,5.7-12.3,14.5"/>
			<path fill="none" stroke="#000000" stroke-miterlimit="10" d="M498,454.5c0-6.9-12.3-5.7-12.3-14.5"/>
			<path fill="none" stroke="#000000" stroke-miterlimit="10" d="M485.8,410.9"/>
			<path fill="none" stroke="#000000" stroke-miterlimit="10" d="M498,425.4c0-6.9-12.3-5.7-12.3-14.5"/>
		</g>
		<g>
			<path fill="none" stroke="#000000" stroke-miterlimit="10" d="M198.2,477.4c0,6.9-12.3,5.7-12.3,14.5"/>
			<path fill="none" stroke="#000000" stroke-miterlimit="10" d="M198.2,448.3c0,6.9-12.3,5.7-12.3,14.5"/>
			<path fill="none" stroke="#000000" stroke-miterlimit="10" d="M185.9,433.8"/>
			<path fill="none" stroke="#000000" stroke-miterlimit="10" d="M198.2,448.3c0-6.9-12.3-5.7-12.3-14.5"/>
		</g>
		<line fill="none" stroke="#000000" stroke-miterlimit="10" x1="377.9" y1="371.8" x2="413.8" y2="371.8"/>
		<line fill="none" stroke="#000000" stroke-miterlimit="10" x1="25.3" y1="268.1" x2="61.2" y2="268.1"/>
		<line fill="none" stroke="#000000" stroke-miterlimit="10" x1="380.6" y1="101.4" x2="416.5" y2="101.4"/>
		<line fill="none" stroke="#000000" stroke-miterlimit="10" x1="522" y1="20.4" x2="557.9" y2="20.4"/>
		<line fill="none" stroke="#000000" stroke-miterlimit="10" x1="168.3" y1="555" x2="204.2" y2="555"/>
		<line fill="none" stroke="#000000" stroke-miterlimit="10" x1="260.4" y1="485.7" x2="285.8" y2="460.4"/>
		<line fill="none" stroke="#000000" stroke-miterlimit="10" x1="50.5" y1="45.8" x2="75.8" y2="20.4"/>
		<line fill="none" stroke="#000000" stroke-miterlimit="10" x1="539.9" y1="305.8" x2="565.3" y2="280.4"/>
	</g>
	<path fill="none" stroke="#000000" stroke-width="5" stroke-linecap="round" stroke-linejoin="round" stroke-miterlimit="10" d="
		M329.1,443.3c-2.9,1.8-6.8,1-8.6-2c-1.8-2.9-1-6.8,2-8.6c2.9-1.8,6.8-1,8.6,2C332.9,437.6,332,441.5,329.1,443.3z"/>
	<path fill="none" stroke="#000000" stroke-width="5" stroke-linecap="round" stroke-linejoin="round" stroke-miterlimit="10" d="
		M279.7,270.9c-2.9,1.8-6.8,1-8.6-2c-1.8-2.9-1-6.8,2-8.6c2.9-1.8,6.8-1,8.6,2C283.5,265.2,282.6,269.1,279.7,270.9z"/>
	<path fill="none" stroke="#000000" stroke-width="5" stroke-linecap="round" stroke-linejoin="round" stroke-miterlimit="10" d="
		M53.8,323.9c-2.9,1.8-6.8,1-8.6-2c-1.8-2.9-1-6.8,2-8.6c2.9-1.8,6.8-1,8.6,2C57.6,318.2,56.7,322.1,53.8,323.9z"/>
	<path fill="none" stroke="#000000" stroke-width="5" stroke-linecap="round" stroke-linejoin="round" stroke-miterlimit="10" d="
		M118,126.6c-2.9,1.8-6.8,1-8.6-2c-1.8-2.9-1-6.8,2-8.6c2.9-1.8,6.8-1,8.6,2C121.8,120.9,120.9,124.8,118,126.6z"/>
	<path fill="none" stroke="#000000" stroke-width="5" stroke-linecap="round" stroke-linejoin="round" stroke-miterlimit="10" d="
		M462.8,123.5c-2.9,1.8-6.8,1-8.6-2c-1.8-2.9-1-6.8,2-8.6c2.9-1.8,6.8-1,8.6,2C466.6,117.8,465.7,121.7,462.8,123.5z"/>
	<path fill="none" stroke="#000000" stroke-width="5" stroke-linecap="round" stroke-linejoin="round" stroke-miterlimit="10" d="
		M551.3,346.8c-2.9,1.8-6.8,1-8.6-2c-1.8-2.9-1-6.8,2-8.6c2.9-1.8,6.8-1,8.6,2C555.2,341.1,554.3,345,551.3,346.8z"/>
</g>
</svg>
