<?xml version="1.0" encoding="utf-8"?>
<!-- Generator: Adobe Illustrator 17.1.0, SVG Export Plug-In . SVG Version: 6.00 Build 0)  -->
<!DOCTYPE svg PUBLIC "-//W3C//DTD SVG 1.1//EN" "http://www.w3.org/Graphics/SVG/1.1/DTD/svg11.dtd">
<svg version="1.1" xmlns="http://www.w3.org/2000/svg" xmlns:xlink="http://www.w3.org/1999/xlink" x="0px" y="0px" width="240.9px"
	 height="124.4px" viewBox="0 0 240.9 124.4" enable-background="new 0 0 240.9 124.4" xml:space="preserve">
<g id="íconos_BKG">
</g>
<g id="landing">
	<g>
		<path fill="#F5F5FC" d="M77.8,100.2c1.2,11.1-6.9,21.1-18,22.3L42,124.3c-11.1,1.2-21.1-6.9-22.3-18l-8.7-82
			C9.8,13.2,17.9,3.2,29,2l17.8-1.9c11.1-1.2,21.1,6.9,22.3,18L77.8,100.2z"/>
		<path fill="#F5F5FC" d="M240.8,66.2c1.2,11.1-6.9,21.1-18,22.3L205,90.3c-11.1,1.2-21.1-6.9-22.3-18l-8.7-46
			c-1.2-11.1,6.9-21.1,18-22.3l17.8-1.9c11.1-1.2,21.1,6.9,22.3,18L240.8,66.2z"/>
		<path fill="#FFFFFF" stroke="#898990" stroke-miterlimit="10" d="M116.3,99c0,6.4-5.2,11.6-11.6,11.6H22.9
			c-6.4,0-11.6-5.2-11.6-11.6V40.2c0-6.4,5.2-11.6,11.6-11.6h81.8c6.4,0,11.6,5.2,11.6,11.6V99z"/>
		
			<circle fill="#FFFFFF" stroke="#D2D2D9" stroke-width="2.0307" stroke-linecap="round" stroke-linejoin="round" stroke-miterlimit="10" cx="48.4" cy="117.6" r="2.2"/>
		<g>
			
				<line fill="#FFFFFF" stroke="#D2D2D9" stroke-width="2.0307" stroke-linecap="round" stroke-linejoin="round" stroke-miterlimit="10" x1="1" y1="44.1" x2="5" y2="48.1"/>
			
				<line fill="#FFFFFF" stroke="#D2D2D9" stroke-width="2.0307" stroke-linecap="round" stroke-linejoin="round" stroke-miterlimit="10" x1="1" y1="48" x2="5" y2="44.1"/>
		</g>
		<g>
			
				<line fill="#FFFFFF" stroke="#D2D2D9" stroke-width="2.0307" stroke-linecap="round" stroke-linejoin="round" stroke-miterlimit="10" x1="59" y1="16.1" x2="63" y2="20.1"/>
			
				<line fill="#FFFFFF" stroke="#D2D2D9" stroke-width="2.0307" stroke-linecap="round" stroke-linejoin="round" stroke-miterlimit="10" x1="59" y1="20" x2="63" y2="16.1"/>
		</g>
		<path fill="#C0C0C7" stroke="#898990" stroke-miterlimit="10" d="M31.5,28.6c-0.2-5.5-4.6-9.9-10-9.9c-5.6,0-10.1,4.6-10.1,10.3
			c0,0.5,0,1,0.1,1.5v67c0.7-5,4.9-8.8,10-8.8c5,0,9.1,3.7,10,8.5L31.5,28.6L31.5,28.6z"/>
		<path fill="#B9B9C0" d="M73,40.4c0,1-0.8,1.8-1.8,1.8H53.8c-1,0-1.8-0.8-1.8-1.8v-0.5c0-1,0.8-1.8,1.8-1.8h17.5
			c1,0,1.8,0.8,1.8,1.8V40.4z"/>
		<path fill="#B9B9C0" d="M73,53.4c0,1-0.8,1.8-1.8,1.8H53.8c-1,0-1.8-0.8-1.8-1.8v-0.5c0-1,0.8-1.8,1.8-1.8h17.5
			c1,0,1.8,0.8,1.8,1.8V53.4z"/>
		<path fill="#B9B9C0" d="M73,67.4c0,1-0.8,1.8-1.8,1.8H53.8c-1,0-1.8-0.8-1.8-1.8v-0.5c0-1,0.8-1.8,1.8-1.8h17.5
			c1,0,1.8,0.8,1.8,1.8V67.4z"/>
		<path fill="#B9B9C0" d="M73,92.4c0,1-0.8,1.8-1.8,1.8H53.8c-1,0-1.8-0.8-1.8-1.8v-0.5c0-1,0.8-1.8,1.8-1.8h17.5
			c1,0,1.8,0.8,1.8,1.8V92.4z"/>
		<path fill="#B9B9C0" d="M67,80c0,1.2-1,2.1-2.1,2.1H41.2c-1.2,0-2.1-1-2.1-2.1v-3.7c0-1.2,1-2.1,2.1-2.1h23.7c1.2,0,2.1,1,2.1,2.1
			V80z"/>
		<path fill="#C0C0C7" stroke="#898990" stroke-miterlimit="10" d="M124.5,31.5c0,1.2-1,2.1-2.1,2.1H80.7c-1.2,0-2.1-1-2.1-2.1V11.8
			c0-1.2,1-2.1,2.1-2.1h41.7c1.2,0,2.1,1,2.1,2.1V31.5z"/>
		<path fill="#C0C0C7" stroke="#898990" stroke-miterlimit="10" d="M175.5,31.5c0,1.2-1,2.1-2.1,2.1h-41.7c-1.2,0-2.1-1-2.1-2.1
			V11.8c0-1.2,1-2.1,2.1-2.1h41.7c1.2,0,2.1,1,2.1,2.1V31.5z"/>
		
			<path fill="#FFFFFF" stroke="#7A7A81" stroke-width="3" stroke-linecap="round" stroke-linejoin="round" stroke-miterlimit="10" d="
			M220.4,8.6h-37.7c-1.2,0-2.1,1-2.1,2.1v8.9H76.7c-1.2,0-2.1,1-2.1,2.1v94.7c0,1.2,1,2.1,2.1,2.1h143.7c1.2,0,2.1-1,2.1-2.1v-91
			v-3.7v-11C222.5,9.6,221.6,8.6,220.4,8.6z"/>
		<rect x="126" y="45.1" fill="#ECECF3" width="52" height="53"/>
		<rect x="185" y="29.1" fill="#ECECF3" width="30" height="80"/>
		
			<circle fill="#FFFFFF" stroke="#D2D2D9" stroke-width="2.0307" stroke-linecap="round" stroke-linejoin="round" stroke-miterlimit="10" cx="235.4" cy="47.6" r="2.2"/>
		<g>
			
				<line fill="#FFFFFF" stroke="#D2D2D9" stroke-width="2.0307" stroke-linecap="round" stroke-linejoin="round" stroke-miterlimit="10" x1="228" y1="103.1" x2="232" y2="107.1"/>
			
				<line fill="#FFFFFF" stroke="#D2D2D9" stroke-width="2.0307" stroke-linecap="round" stroke-linejoin="round" stroke-miterlimit="10" x1="228" y1="107" x2="232" y2="103.1"/>
		</g>
		<circle fill="#C0C0C7" cx="94.8" cy="37" r="7.1"/>
		<rect x="109" y="34.1" fill="#C0C0C7" width="70" height="7"/>
		<rect x="126" y="103.1" fill="#85858C" width="26" height="6"/>
		<path fill="#85858C" d="M204.5,16.1h-18c-0.8,0-1.5-0.7-1.5-1.5v0c0-0.8,0.7-1.5,1.5-1.5h18c0.8,0,1.5,0.7,1.5,1.5v0
			C206,15.4,205.4,16.1,204.5,16.1z"/>
		<path fill="#85858C" d="M212.3,16.1h-1.6c-0.8,0-1.5-0.7-1.5-1.5v0c0-0.8,0.7-1.5,1.5-1.5h1.6c0.8,0,1.5,0.7,1.5,1.5l-0.2,0
			C213.7,15.4,213.2,16.1,212.3,16.1z"/>
		<rect x="131" y="49.1" fill="#C0C0C7" width="44" height="1"/>
		<rect x="131" y="52.1" fill="#C0C0C7" width="44" height="1"/>
		<rect x="131" y="55.1" fill="#C0C0C7" width="44" height="1"/>
		<rect x="131" y="58.1" fill="#C0C0C7" width="44" height="1"/>
		<rect x="189" y="35.1" fill="#C0C0C7" width="22" height="1"/>
		<rect x="189" y="38.1" fill="#C0C0C7" width="22" height="1"/>
		<rect x="189" y="41.1" fill="#C0C0C7" width="22" height="1"/>
		<rect x="189" y="44.1" fill="#C0C0C7" width="22" height="1"/>
		<rect x="189" y="51.1" fill="#C0C0C7" width="22" height="1"/>
		<rect x="189" y="54.1" fill="#C0C0C7" width="22" height="1"/>
		<rect x="189" y="57.1" fill="#C0C0C7" width="22" height="1"/>
		<rect x="189" y="60.1" fill="#C0C0C7" width="22" height="1"/>
		<rect x="189" y="95.1" fill="#C0C0C7" width="22" height="1"/>
		<rect x="189" y="98.1" fill="#C0C0C7" width="22" height="1"/>
		<rect x="189" y="101.1" fill="#C0C0C7" width="22" height="1"/>
		<rect x="189" y="104.1" fill="#C0C0C7" width="22" height="1"/>
		<g>
			<path fill="#ECECF3" d="M91,108.8c-16.7,0-30.3-13.6-30.3-30.3S74.3,48.2,91,48.2s30.3,13.6,30.3,30.3S107.8,108.8,91,108.8z"/>
			<path fill="#7A7A81" d="M91,49.7c15.9,0,28.8,12.9,28.8,28.8c0,15.9-12.9,28.8-28.8,28.8S62.2,94.4,62.2,78.5
				C62.2,62.6,75.1,49.7,91,49.7 M91,46.7c-17.5,0-31.8,14.3-31.8,31.8c0,17.5,14.3,31.8,31.8,31.8s31.8-14.3,31.8-31.8
				C122.9,61,108.6,46.7,91,46.7L91,46.7z"/>
		</g>
		<path fill="#BEBEC5" d="M92.8,78.6c0,1-0.8,1.8-1.8,1.8l0,0c-1,0-1.8-0.8-1.8-1.8v-25c0-1,0.8-1.8,1.8-1.8l0,0
			c1,0,1.8,0.8,1.8,1.8V78.6z"/>
		<path fill="#BEBEC5" d="M90.3,76.9c0.9-0.3,1.9,0.2,2.2,1.1l0,0c0.3,0.9-0.2,1.9-1.1,2.2l-18,6.2c-0.9,0.3-1.9-0.2-2.2-1.1l0,0
			c-0.3-0.9,0.2-1.9,1.1-2.2L90.3,76.9z"/>
		<path fill="#EFEFF6" d="M46,43c0,1.2-1,2.1-2.1,2.1h-3.7c-1.2,0-2.1-1-2.1-2.1v-4.7c0-1.2,1-2.1,2.1-2.1h3.7c1.2,0,2.1,1,2.1,2.1
			V43z"/>
		<path fill="#EFEFF6" d="M46,56c0,1.2-1,2.1-2.1,2.1h-3.7c-1.2,0-2.1-1-2.1-2.1v-4.7c0-1.2,1-2.1,2.1-2.1h3.7c1.2,0,2.1,1,2.1,2.1
			V56z"/>
		<path fill="#EFEFF6" d="M46,69c0,1.2-1,2.1-2.1,2.1h-3.7c-1.2,0-2.1-1-2.1-2.1v-4.7c0-1.2,1-2.1,2.1-2.1h3.7c1.2,0,2.1,1,2.1,2.1
			V69z"/>
		<path fill="#EFEFF6" d="M46,95c0,1.2-1,2.1-2.1,2.1h-3.7c-1.2,0-2.1-1-2.1-2.1v-4.7c0-1.2,1-2.1,2.1-2.1h3.7c1.2,0,2.1,1,2.1,2.1
			V95z"/>
		<polyline fill="none" stroke="#6A6A71" stroke-width="2" stroke-miterlimit="10" points="40.2,38.7 43.5,42.3 48.8,36.9 		"/>
		<polyline fill="none" stroke="#6A6A71" stroke-width="2" stroke-miterlimit="10" points="40.2,51.7 43.5,55.3 48.8,49.9 		"/>
		<polyline fill="none" stroke="#6A6A71" stroke-width="2" stroke-miterlimit="10" points="40.2,64.7 43.5,68.3 48.8,62.9 		"/>
		<polyline fill="none" stroke="#6A6A71" stroke-width="2" stroke-miterlimit="10" points="40.2,90.7 43.5,94.3 48.8,88.9 		"/>
	</g>
</g>
<g id="banners">
</g>
<g id="Grid" display="none">
	<rect x="-17" y="-3040.9" display="inline" opacity="0.16" fill="#FFAA00" width="76" height="3261"/>
	<rect x="71" y="-3040.9" display="inline" opacity="0.16" fill="#FFAA00" width="75" height="3261"/>
	<rect x="157" y="-3040.9" display="inline" opacity="0.16" fill="#FFAA00" width="75" height="3261"/>
</g>
</svg>
