<?xml version="1.0" encoding="utf-8"?>
<!-- Generator: Adobe Illustrator 17.1.0, SVG Export Plug-In . SVG Version: 6.00 Build 0)  -->
<!DOCTYPE svg PUBLIC "-//W3C//DTD SVG 1.1//EN" "http://www.w3.org/Graphics/SVG/1.1/DTD/svg11.dtd">
<svg version="1.1" xmlns="http://www.w3.org/2000/svg" xmlns:xlink="http://www.w3.org/1999/xlink" x="0px" y="0px" width="250.5px"
	 height="139.8px" viewBox="0 0 250.5 139.8" enable-background="new 0 0 250.5 139.8" xml:space="preserve">
<g id="íconos_BKG">
</g>
<g id="landing">
	<g>
		<path fill="#F5F5FC" d="M172.5,109.4c-4.9,10.1-17,14.2-27.1,9.3l-29-12.3c-10.1-4.9-14.2-17-9.3-27.1l31.3-67.6
			c4.9-10.1,17-14.2,27.1-9.3l29,12.3c10.1,4.9,14.2,17,9.3,27.1L172.5,109.4z"/>
		
			<polygon fill="#FFFFFF" stroke="#6C6C73" stroke-width="0.9459" stroke-linecap="round" stroke-linejoin="round" stroke-miterlimit="10" points="
			134.6,121.6 161.9,113.4 149.9,22.2 129.1,27.4 116.6,49.9 		"/>
		
			<polygon fill="#ECECF3" stroke="#6C6C73" stroke-width="0.9459" stroke-linecap="round" stroke-linejoin="round" stroke-miterlimit="10" points="
			129.1,27.4 133.1,45.4 116.6,49.9 		"/>
		<path fill="#F5F5FC" d="M82.5,115.9c-4.9,10.1-17,14.2-27.1,9.3l-29-12.3c-10.1-4.9-14.2-17-9.3-27.1l31.3-67.6
			C53.2,8.2,65.4,4,75.4,8.9l29,12.3c10.1,4.9,14.2,17,9.3,27.1L82.5,115.9z"/>
		<g>
			<path fill="#ECECF3" d="M31.8,106.9c-16.7,0-30.3-13.6-30.3-30.3s13.6-30.3,30.3-30.3s30.3,13.6,30.3,30.3S48.5,106.9,31.8,106.9
				z"/>
			<path fill="#7A7A81" d="M31.8,47.8c15.9,0,28.8,12.9,28.8,28.8s-12.9,28.8-28.8,28.8C15.9,105.4,3,92.5,3,76.6
				S15.9,47.8,31.8,47.8 M31.8,44.8C14.3,44.8,0,59.1,0,76.6c0,17.5,14.3,31.8,31.8,31.8s31.8-14.3,31.8-31.8
				C63.6,59.1,49.3,44.8,31.8,44.8L31.8,44.8z"/>
		</g>
		<g>
			<path fill="#ECECF3" d="M78.5,62.1c-16.7,0-30.3-13.6-30.3-30.3S61.8,1.5,78.5,1.5s30.3,13.6,30.3,30.3S95.2,62.1,78.5,62.1z"/>
			<path fill="#7A7A81" d="M78.5,3c15.9,0,28.8,12.9,28.8,28.8c0,15.9-12.9,28.8-28.8,28.8c-15.9,0-28.8-12.9-28.8-28.8
				C49.7,15.9,62.6,3,78.5,3 M78.5,0C61,0,46.7,14.3,46.7,31.8c0,17.5,14.3,31.8,31.8,31.8s31.8-14.3,31.8-31.8
				C110.3,14.3,96,0,78.5,0L78.5,0z"/>
		</g>
		<g>
			<path fill="#ECECF3" d="M110.1,119.4c-16.7,0-30.3-13.6-30.3-30.3s13.6-30.3,30.3-30.3s30.3,13.6,30.3,30.3
				S126.8,119.4,110.1,119.4z"/>
			<path fill="#7A7A81" d="M110.1,60.3c15.9,0,28.8,12.9,28.8,28.8s-12.9,28.8-28.8,28.8S81.3,105,81.3,89.1S94.2,60.3,110.1,60.3
				 M110.1,57.3c-17.5,0-31.8,14.3-31.8,31.8c0,17.5,14.3,31.8,31.8,31.8s31.8-14.3,31.8-31.8C141.9,71.5,127.7,57.3,110.1,57.3
				L110.1,57.3z"/>
		</g>
		<path fill="#F5F5FC" d="M213.5,128.4c-4.9,10.1-17,14.2-27.1,9.3l-29-12.3c-10.1-4.9-14.2-17-9.3-27.1l31.3-67.6
			c4.9-10.1,17-14.2,27.1-9.3l29,12.3c10.1,4.9,14.2,17,9.3,27.1L213.5,128.4z"/>
		
			<circle fill="#FFFFFF" stroke="#D2D2D9" stroke-width="2.0307" stroke-linecap="round" stroke-linejoin="round" stroke-miterlimit="10" cx="128.3" cy="14.9" r="2.2"/>
		
			<circle fill="#FFFFFF" stroke="#D2D2D9" stroke-width="2.0307" stroke-linecap="round" stroke-linejoin="round" stroke-miterlimit="10" cx="247.3" cy="111.9" r="2.2"/>
		<g>
			
				<line fill="#FFFFFF" stroke="#D2D2D9" stroke-width="2.0307" stroke-linecap="round" stroke-linejoin="round" stroke-miterlimit="10" x1="21.9" y1="17.4" x2="25.9" y2="21.4"/>
			
				<line fill="#FFFFFF" stroke="#D2D2D9" stroke-width="2.0307" stroke-linecap="round" stroke-linejoin="round" stroke-miterlimit="10" x1="21.9" y1="21.3" x2="25.9" y2="17.4"/>
		</g>
		<g>
			
				<line fill="#FFFFFF" stroke="#D2D2D9" stroke-width="2.0307" stroke-linecap="round" stroke-linejoin="round" stroke-miterlimit="10" x1="243.9" y1="15.4" x2="247.9" y2="19.4"/>
			
				<line fill="#FFFFFF" stroke="#D2D2D9" stroke-width="2.0307" stroke-linecap="round" stroke-linejoin="round" stroke-miterlimit="10" x1="243.9" y1="19.3" x2="247.9" y2="15.4"/>
		</g>
		<g>
			<path fill="#4E92DF" stroke="#FFFFFF" stroke-width="4.356" stroke-miterlimit="10" d="M133.1,86.5l0.9-0.1
				c2.7-0.2,5.1,1.9,5.3,4.6l0.1,2l1.5-0.1c0.4,0,0.8,0,1.2,0.1l-0.1-2.2c-0.3-4.2-3.9-7.4-8.1-7.1l-0.9,0.1c-3.9,0.2-7,3.4-7.1,7.3
				l2.7-0.2C128.7,88.6,130.6,86.6,133.1,86.5z"/>
			<path fill="#4E92DF" stroke="#FFFFFF" stroke-width="4.356" stroke-miterlimit="10" d="M140.6,89.8l-13.7,0.9
				c-2.1,0.1-3.7,1.9-3.6,4.1l0.7,11c0.1,2.1,1.9,3.7,4.1,3.6l13.7-0.9c2.1-0.1,3.7-1.9,3.6-4.1l-0.7-11
				C144.5,91.3,142.7,89.7,140.6,89.8z M135.8,104.2l0.1,1.8l-2.4,0.2l-0.1-1.8c-0.4-0.3-0.7-0.8-0.8-1.4c-0.1-1,0.7-1.9,1.8-2
				c1-0.1,1.9,0.7,2,1.8C136.5,103.3,136.2,103.8,135.8,104.2z"/>
		</g>
		<rect x="26.4" y="82.9" fill="#FFFFFF" stroke="#6C6C73" stroke-miterlimit="10" width="9" height="12"/>
		<path fill="#FFFFFF" stroke="#6C6C73" stroke-miterlimit="10" d="M23.4,79.3c0,0,6.9,15.1,15.7,0.5l-0.3-12.5l-10.1-0.5l-5.4,3.3
			V79.3z"/>
		<path fill="#85858C" stroke="#6C6C73" stroke-width="0.9459" stroke-miterlimit="10" d="M38.5,69.6c0,0,3.4-0.8,2.3-2.7
			c-1-1.9-5.1-2.7-6.9-2.5c-1.8,0.2-4.1,1.1-5.2-0.4c-1.1-1.5-3-3.9-4.3-2.3c-1.3,1.6-3,4.7-2.3,6.6c0.7,2,0.4,3.1,3,2.1
			C27.7,69.6,32,67.8,38.5,69.6z"/>
		<path fill="#85858C" stroke="#6C6C73" stroke-miterlimit="10" d="M31.2,91.9c-2.8,0.6-4.4-2.3-4.8-2.6C26,89,10.6,95.7,10.6,95.7
			l-0.1,0.4c5.3,5.7,12.8,9.3,21.2,9.3c7,0,13.5-2.5,18.5-6.7l0-0.3c0,0-11.8-8.3-13.1-9S34,91.4,31.2,91.9z"/>
		
			<polyline fill="none" stroke="#6C6C73" stroke-width="0.9459" stroke-linecap="round" stroke-linejoin="round" stroke-miterlimit="10" points="
			27.1,74.6 29.8,74.5 28.5,74.5 28.4,73.2 		"/>
		
			<polyline fill="none" stroke="#6C6C73" stroke-width="0.9459" stroke-linecap="round" stroke-linejoin="round" stroke-miterlimit="10" points="
			34.1,74.6 36.8,74.5 35.5,74.5 35.4,73.2 		"/>
		
			<path fill="none" stroke="#6C6C73" stroke-width="0.9459" stroke-linecap="round" stroke-linejoin="round" stroke-miterlimit="10" d="
			M30.1,77.6c0,0,1.8,1.8,1.8,0c0-1.8,0.1-2.4,0.1-2.4"/>
		
			<path fill="none" stroke="#6C6C73" stroke-width="0.9459" stroke-linecap="round" stroke-linejoin="round" stroke-miterlimit="10" d="
			M29.5,80.3c0,0,2.9,1.8,4.2-0.6"/>
		<rect x="105.4" y="95.9" fill="#FFFFFF" stroke="#6C6C73" stroke-miterlimit="10" width="9" height="10"/>
		<path fill="#85858C" stroke="#6C6C73" stroke-miterlimit="10" d="M110.9,119.6c7.3,0,14-2.7,19.1-7.2l-1.2-3.6l-14-8.5
			c0,0-1.1,3-4.8,2.9c-3.7-0.1-5-2.9-5-2.9l-16.4,6.5l0.1,2.1C93.9,115.5,101.9,119.6,110.9,119.6z"/>
		<path fill="#85858C" stroke="#6C6C73" stroke-width="0.9459" stroke-miterlimit="10" d="M109.6,97.6l7.8,0.2c0,0,2.4-0.5,2.5-2.9
			c0.1-2.4-0.2-14-0.2-14s0.6-4.2-3.6-4.2c-4.2,0-10.3-0.4-11.6-0.3s-3.8,9.2-4,10.8c-0.2,1.7-1.2,8.2-0.8,9.3
			C100,97.7,109.6,97.6,109.6,97.6z"/>
		<path fill="#FFFFFF" stroke="#6C6C73" stroke-miterlimit="10" d="M102.2,94c0,0,8.2,12.8,15.6-0.8l0.2-11c0,0-0.9-1.8-2.5-1.8
			S105,80.5,105,80.5s-2.2-0.2-2.3,1.5S102.2,94,102.2,94z"/>
		<path fill="#85858C" stroke="#6C6C73" stroke-width="0.9459" stroke-miterlimit="10" d="M99.7,96.6c0,0,6.1-11.6,6.4-14.5
			c0.3-2.9-1.6-6.2-2.6-6.5c-1-0.3-3.2-0.5-3.7,1.2S98.3,95.8,99.7,96.6z"/>
		
			<path fill="none" stroke="#6C6C73" stroke-width="0.9459" stroke-linecap="round" stroke-linejoin="round" stroke-miterlimit="10" d="
			M108.6,93.7c0,0,2.4,1.9,4.1-0.1"/>
		
			<path fill="none" stroke="#6C6C73" stroke-width="0.9459" stroke-linecap="round" stroke-linejoin="round" stroke-miterlimit="10" d="
			M109.9,90.8c0,0,1.6,0.6,1.4-0.8c-0.2-1.4-0.2-2.2-0.2-2.2"/>
		
			<path fill="none" stroke="#6C6C73" stroke-width="0.9459" stroke-linecap="round" stroke-linejoin="round" stroke-miterlimit="10" d="
			M105.9,87.2c0,0,1.6,0.3,2.5,0.1"/>
		
			<path fill="none" stroke="#6C6C73" stroke-width="0.9459" stroke-linecap="round" stroke-linejoin="round" stroke-miterlimit="10" d="
			M112.9,87.2c0,0,1.6,0.3,2.5,0.1"/>
		<rect x="67.4" y="23.9" fill="#85858C" stroke="#6C6C73" stroke-miterlimit="10" width="20" height="24"/>
		<path fill="#C0C0C7" stroke="#6C6C73" stroke-miterlimit="10" d="M56.7,49.9c5.3,6.6,13.4,10.9,22.5,10.9c8.2,0,15.6-3.4,20.9-9
			L78.6,41.1L56.7,49.9z"/>
		<polygon fill="#FFFFFF" stroke="#6C6C73" stroke-miterlimit="10" points="73.1,42.3 77.4,51.3 81.9,42.8 81.9,35.5 73.3,34.6 		
			"/>
		<path fill="#FFFFFF" stroke="#6C6C73" stroke-miterlimit="10" d="M69.4,35.2c0,0,2.2,6.5,8.9,5.8c6.7-0.7,8.1-6.1,8.1-6.1
			l0.1-10.2l-11-4.2l-6,3.1V35.2z"/>
		<path fill="#85858C" stroke="#6C6C73" stroke-miterlimit="10" d="M67.4,23.5c0,0,1.3,7,3.5,5.2s1.9-4.4,3.2-3.8
			c1.2,0.7,0.8,2.8,2.2,2.8c1.4-0.1,9.4-0.2,9.9-0.3s2.8-4.2,0.8-5.9s-5-3.7-7.5-3.7S69.1,17.1,67.4,23.5z"/>
		
			<path fill="none" stroke="#6C6C73" stroke-width="0.9459" stroke-linecap="round" stroke-linejoin="round" stroke-miterlimit="10" d="
			M75.6,36.7c0,0,2.4,1.9,4.1-0.1"/>
		
			<path fill="none" stroke="#6C6C73" stroke-width="0.9459" stroke-linecap="round" stroke-linejoin="round" stroke-miterlimit="10" d="
			M76.9,33.8c0,0,1.6,0.6,1.4-0.8c-0.2-1.4-0.2-2.2-0.2-2.2"/>
		
			<path fill="none" stroke="#6C6C73" stroke-width="0.9459" stroke-linecap="round" stroke-linejoin="round" stroke-miterlimit="10" d="
			M72.9,30.2c0,0,1.6,0.3,2.5,0.1"/>
		
			<path fill="none" stroke="#6C6C73" stroke-width="0.9459" stroke-linecap="round" stroke-linejoin="round" stroke-miterlimit="10" d="
			M79.9,30.2c0,0,1.6,0.3,2.5,0.1"/>
		
			<path fill="#F2F2F9" stroke="#727279" stroke-width="3" stroke-linecap="round" stroke-linejoin="round" stroke-miterlimit="10" d="
			M238.4,124.7c0,1.2-1,2.1-2.1,2.1h-83.7c-1.2,0-2.1-1-2.1-2.1V15c0-1.2,1-2.1,2.1-2.1h83.7c1.2,0,2.1,1,2.1,2.1V124.7z"/>
		<path fill="#FFFFFF" stroke="#727279" stroke-linecap="round" stroke-linejoin="round" stroke-miterlimit="10" d="M232.4,118.7
			c0,1.2-1,2.1-2.1,2.1h-71.7c-1.2,0-2.1-1-2.1-2.1V22c0-1.2,1-2.1,2.1-2.1h71.7c1.2,0,2.1,1,2.1,2.1V118.7z"/>
		<path fill="#EFEFF6" stroke="#B0B0B7" stroke-miterlimit="10" d="M173.4,100.9c0,1.7-1.3,3-3,3h-5c-1.7,0-3-1.3-3-3v-6
			c0-1.7,1.3-3,3-3h5c1.7,0,3,1.3,3,3V100.9z"/>
		<polyline fill="none" stroke="#6A6A71" stroke-width="2" stroke-miterlimit="10" points="165.7,95.7 169.9,100.2 176.5,93.3 		"/>
		<path fill="#EFEFF6" stroke="#B0B0B7" stroke-miterlimit="10" d="M173.4,70.9c0,1.7-1.3,3-3,3h-5c-1.7,0-3-1.3-3-3v-6
			c0-1.7,1.3-3,3-3h5c1.7,0,3,1.3,3,3V70.9z"/>
		<polyline fill="none" stroke="#6A6A71" stroke-width="2" stroke-miterlimit="10" points="165.7,65.7 169.9,70.2 176.5,63.3 		"/>
		<path fill="#EFEFF6" stroke="#B0B0B7" stroke-miterlimit="10" d="M173.4,39.9c0,1.7-1.3,3-3,3h-5c-1.7,0-3-1.3-3-3v-6
			c0-1.7,1.3-3,3-3h5c1.7,0,3,1.3,3,3V39.9z"/>
		<polyline fill="none" stroke="#6A6A71" stroke-width="2" stroke-miterlimit="10" points="165.7,34.7 169.9,39.2 176.5,32.3 		"/>
		<rect x="162.9" y="107.4" fill="#C0C0C7" width="64" height="8"/>
		<rect x="162.9" y="77.4" fill="#C0C0C7" width="64" height="8"/>
		<rect x="162.9" y="46.4" fill="#C0C0C7" width="64" height="8"/>
		<rect x="179.9" y="99.4" fill="#C0C0C7" width="20" height="4"/>
		<rect x="179.9" y="92.4" fill="#C0C0C7" width="33" height="4"/>
		<rect x="179.9" y="69.4" fill="#C0C0C7" width="47" height="4"/>
		<rect x="179.9" y="62.4" fill="#C0C0C7" width="22" height="4"/>
		<rect x="179.9" y="39.4" fill="#C0C0C7" width="47" height="4"/>
		<rect x="179.9" y="32.4" fill="#C0C0C7" width="38" height="4"/>
		<path fill="#C0C0C7" stroke="#6A6A71" stroke-width="2" stroke-miterlimit="10" d="M221.9,18.5c0,3.2-2.6,5.9-5.9,5.9h-45.3
			c-3.2,0-5.9-2.6-5.9-5.9v-6.3c0-3.2,2.6-5.9,5.9-5.9h45.3c3.2,0,5.9,2.6,5.9,5.9V18.5z"/>
		<path fill="#C0C0C7" stroke="#6A6A71" stroke-width="2" stroke-miterlimit="10" d="M210.9,10.2c0,1.2-1,2.1-2.1,2.1h-30.7
			c-1.2,0-2.1-1-2.1-2.1V4.5c0-1.2,1-2.1,2.1-2.1h30.7c1.2,0,2.1,1,2.1,2.1V10.2z"/>
		<g>
			<path fill="#4E92DF" stroke="#FFFFFF" stroke-width="4.356" stroke-miterlimit="10" d="M52.3,77.4l0.9-0.1
				c2.7-0.2,5.1,1.9,5.3,4.6l0.1,2l1.5-0.1c0.4,0,0.8,0,1.2,0.1l-0.1-2.2c-0.3-4.2-3.9-7.4-8.1-7.1l-0.9,0.1c-3.9,0.2-7,3.4-7.1,7.3
				l2.7-0.2C48,79.5,49.9,77.5,52.3,77.4z"/>
			<path fill="#4E92DF" stroke="#FFFFFF" stroke-width="4.356" stroke-miterlimit="10" d="M59.9,80.7l-13.7,0.9
				c-2.1,0.1-3.7,1.9-3.6,4.1l0.7,11c0.1,2.1,1.9,3.7,4.1,3.6l13.7-0.9c2.1-0.1,3.7-1.9,3.6-4.1l-0.7-11
				C63.8,82.2,62,80.6,59.9,80.7z M55.1,95.1l0.1,1.8l-2.4,0.2l-0.1-1.8c-0.4-0.3-0.7-0.8-0.8-1.4c-0.1-1,0.7-1.9,1.8-2
				c1-0.1,1.9,0.7,2,1.8C55.7,94.2,55.5,94.7,55.1,95.1z"/>
			<g>
				<path fill="#85858C" d="M52.3,77.4l0.9-0.1c2.7-0.2,5.1,1.9,5.3,4.6l0.1,2l1.5-0.1c0.4,0,0.8,0,1.2,0.1l-0.1-2.2
					c-0.3-4.2-3.9-7.4-8.1-7.1l-0.9,0.1c-3.9,0.2-7,3.4-7.1,7.3l2.7-0.2C48,79.5,49.9,77.5,52.3,77.4z"/>
				<path fill="#85858C" d="M59.9,80.7l-13.7,0.9c-2.1,0.1-3.7,1.9-3.6,4.1l0.7,11c0.1,2.1,1.9,3.7,4.1,3.6l13.7-0.9
					c2.1-0.1,3.7-1.9,3.6-4.1l-0.7-11C63.8,82.2,62,80.6,59.9,80.7z M55.1,95.1l0.1,1.8l-2.4,0.2l-0.1-1.8c-0.4-0.3-0.7-0.8-0.8-1.4
					c-0.1-1,0.7-1.9,1.8-2c1-0.1,1.9,0.7,2,1.8C55.7,94.2,55.5,94.7,55.1,95.1z"/>
			</g>
		</g>
		<g>
			<path fill="#4E92DF" stroke="#FFFFFF" stroke-width="4.356" stroke-miterlimit="10" d="M132.9,86.9l0.9-0.1
				c2.7-0.2,5.1,1.9,5.3,4.6l0.1,2l1.5-0.1c0.4,0,0.8,0,1.2,0.1l-0.1-2.2c-0.3-4.2-3.9-7.4-8.1-7.1l-0.9,0.1c-3.9,0.2-7,3.4-7.1,7.3
				l2.7-0.2C128.5,88.9,130.5,87,132.9,86.9z"/>
			<path fill="#4E92DF" stroke="#FFFFFF" stroke-width="4.356" stroke-miterlimit="10" d="M140.5,90.2l-13.7,0.9
				c-2.1,0.1-3.7,1.9-3.6,4.1l0.7,11c0.1,2.1,1.9,3.7,4.1,3.6l13.7-0.9c2.1-0.1,3.7-1.9,3.6-4.1l-0.7-11
				C144.4,91.7,142.6,90.1,140.5,90.2z M135.7,104.6l0.1,1.8l-2.4,0.2l-0.1-1.8c-0.4-0.3-0.7-0.8-0.8-1.4c-0.1-1,0.7-1.9,1.8-2
				c1-0.1,1.9,0.7,2,1.8C136.3,103.7,136.1,104.2,135.7,104.6z"/>
			<g>
				<path fill="#85858C" d="M132.9,86.9l0.9-0.1c2.7-0.2,5.1,1.9,5.3,4.6l0.1,2l1.5-0.1c0.4,0,0.8,0,1.2,0.1l-0.1-2.2
					c-0.3-4.2-3.9-7.4-8.1-7.1l-0.9,0.1c-3.9,0.2-7,3.4-7.1,7.3l2.7-0.2C128.5,88.9,130.5,87,132.9,86.9z"/>
				<path fill="#85858C" d="M140.5,90.2l-13.7,0.9c-2.1,0.1-3.7,1.9-3.6,4.1l0.7,11c0.1,2.1,1.9,3.7,4.1,3.6l13.7-0.9
					c2.1-0.1,3.7-1.9,3.6-4.1l-0.7-11C144.4,91.7,142.6,90.1,140.5,90.2z M135.7,104.6l0.1,1.8l-2.4,0.2l-0.1-1.8
					c-0.4-0.3-0.7-0.8-0.8-1.4c-0.1-1,0.7-1.9,1.8-2c1-0.1,1.9,0.7,2,1.8C136.3,103.7,136.1,104.2,135.7,104.6z"/>
			</g>
		</g>
		<g>
			<path fill="#4E92DF" stroke="#FFFFFF" stroke-width="4.356" stroke-miterlimit="10" d="M104.5,31.1l0.9-0.1
				c2.7-0.2,5.1,1.9,5.3,4.6l0.1,2l1.5-0.1c0.4,0,0.8,0,1.2,0.1l-0.1-2.2c-0.3-4.2-3.9-7.4-8.1-7.1l-0.9,0.1c-3.9,0.2-7,3.4-7.1,7.3
				l2.7-0.2C100.1,33.2,102.1,31.3,104.5,31.1z"/>
			<path fill="#4E92DF" stroke="#FFFFFF" stroke-width="4.356" stroke-miterlimit="10" d="M112.1,34.5l-13.7,0.9
				c-2.1,0.1-3.7,1.9-3.6,4.1l0.7,11c0.1,2.1,1.9,3.7,4.1,3.6l13.7-0.9c2.1-0.1,3.7-1.9,3.6-4.1l-0.7-11
				C116,35.9,114.2,34.3,112.1,34.5z M107.3,48.9l0.1,1.8l-2.4,0.2l-0.1-1.8c-0.4-0.3-0.7-0.8-0.8-1.4c-0.1-1,0.7-1.9,1.8-2
				c1-0.1,1.9,0.7,2,1.8C107.9,47.9,107.7,48.5,107.3,48.9z"/>
			<g>
				<path fill="#85858C" d="M104.5,31.1l0.9-0.1c2.7-0.2,5.1,1.9,5.3,4.6l0.1,2l1.5-0.1c0.4,0,0.8,0,1.2,0.1l-0.1-2.2
					c-0.3-4.2-3.9-7.4-8.1-7.1l-0.9,0.1c-3.9,0.2-7,3.4-7.1,7.3l2.7-0.2C100.1,33.2,102.1,31.3,104.5,31.1z"/>
				<path fill="#85858C" d="M112.1,34.5l-13.7,0.9c-2.1,0.1-3.7,1.9-3.6,4.1l0.7,11c0.1,2.1,1.9,3.7,4.1,3.6l13.7-0.9
					c2.1-0.1,3.7-1.9,3.6-4.1l-0.7-11C116,35.9,114.2,34.3,112.1,34.5z M107.3,48.9l0.1,1.8l-2.4,0.2l-0.1-1.8
					c-0.4-0.3-0.7-0.8-0.8-1.4c-0.1-1,0.7-1.9,1.8-2c1-0.1,1.9,0.7,2,1.8C107.9,47.9,107.7,48.5,107.3,48.9z"/>
			</g>
		</g>
	</g>
</g>
<g id="banners">
</g>
<g id="Grid" display="none">
	<rect x="-15.1" y="-3053.6" display="inline" opacity="0.16" fill="#FFAA00" width="74" height="3261"/>
	<rect x="70.9" y="-3053.6" display="inline" opacity="0.16" fill="#FFAA00" width="76" height="3261"/>
	<rect x="157.9" y="-3053.6" display="inline" opacity="0.16" fill="#FFAA00" width="74" height="3261"/>
	<rect x="243.9" y="-3053.6" display="inline" opacity="0.16" fill="#FFAA00" width="76" height="3261"/>
</g>
</svg>
