<?xml version="1.0" encoding="utf-8"?>
<!-- Generator: Adobe Illustrator 17.1.0, SVG Export Plug-In . SVG Version: 6.00 Build 0)  -->
<!DOCTYPE svg PUBLIC "-//W3C//DTD SVG 1.1//EN" "http://www.w3.org/Graphics/SVG/1.1/DTD/svg11.dtd">
<svg version="1.1" id="Capa_1" xmlns="http://www.w3.org/2000/svg" xmlns:xlink="http://www.w3.org/1999/xlink" x="0px" y="0px"
	 width="60px" height="60px" viewBox="0 0 60 60" enable-background="new 0 0 60 60" xml:space="preserve">
<g>
	<circle fill="#65A2D9" cx="29.9" cy="30.2" r="28.2"/>
	<path fill="#3A7CA5" d="M45,17.3c-2.9,2.6-5.9,4.8-8.3,7.9c-5.9,7.1-13.1,17.1-22.8,15.6l17.5,17.4C46.2,57.6,58,45.4,58.1,30.4
		L45,17.3z"/>
	<path fill="#FFFFFF" d="M45.5,19.9c-0.7,0.3-1.5,0.6-2.2,0.8c0.8-0.8,1.5-1.8,1.8-2.9c0.1-0.3-0.2-0.6-0.5-0.4
		c-1.1,0.6-2.2,1.1-3.4,1.4c-0.1,0-0.1,0-0.2,0c-0.2,0-0.4-0.1-0.6-0.2c-1.3-1.1-2.9-1.7-4.6-1.7c-0.7,0-1.5,0.1-2.2,0.3
		c-2.3,0.7-4,2.6-4.5,4.9c-0.2,0.9-0.3,1.7-0.2,2.6c0,0.1,0,0.2-0.1,0.2c0,0.1-0.1,0.1-0.2,0.1c0,0,0,0,0,0
		c-4.9-0.5-9.4-2.8-12.5-6.7c-0.2-0.2-0.5-0.2-0.6,0c-0.6,1.1-0.9,2.3-0.9,3.5c0,1.9,0.8,3.7,2.1,5C16,26.5,15.5,26.3,15,26
		c-0.2-0.1-0.5,0-0.5,0.3c0,2.8,1.6,5.3,4.1,6.4c0,0-0.1,0-0.1,0c-0.4,0-0.8,0-1.2-0.1c-0.3-0.1-0.5,0.2-0.4,0.5
		c0.8,2.5,2.9,4.3,5.5,4.7c-2.1,1.4-4.6,2.2-7.2,2.2l-0.8,0c-0.2,0-0.5,0.2-0.5,0.4c-0.1,0.2,0.1,0.5,0.3,0.6
		c2.9,1.7,6.2,2.6,9.6,2.6c2.9,0,5.7-0.6,8.2-1.7c2.3-1.1,4.3-2.6,6-4.5c1.6-1.8,2.8-3.9,3.7-6.2c0.8-2.2,1.2-4.5,1.2-6.7v-0.1
		c0-0.4,0.2-0.7,0.4-0.9c1.1-0.9,2-1.9,2.8-3C46.2,20.1,45.9,19.7,45.5,19.9L45.5,19.9z"/>
	<path fill="#D1D1D1" d="M45.5,19.9c-0.7,0.3-1.5,0.6-2.2,0.8c0.8-0.8,1.5-1.8,1.8-2.9c0.1-0.3-0.2-0.6-0.5-0.4
		c-1.1,0.6-2.2,1.1-3.4,1.4c-0.1,0-0.1,0-0.2,0c-0.2,0-0.4-0.1-0.6-0.2c-1.3-1.1-2.9-1.7-4.6-1.7c-0.7,0-1.5,0.1-2.2,0.3
		c-1.6,0.5-2.9,1.5-3.7,2.9v22.6c0.7-0.2,1.4-0.5,2-0.8c2.3-1.1,4.3-2.6,6-4.5c1.6-1.8,2.8-3.9,3.7-6.2c0.8-2.2,1.2-4.5,1.2-6.7
		v-0.1c0-0.4,0.2-0.7,0.4-0.9c1.1-0.9,2-1.9,2.8-3C46.2,20.1,45.9,19.7,45.5,19.9z"/>
</g>
</svg>
