<?xml version="1.0" encoding="utf-8"?>
<!-- Generator: Adobe Illustrator 17.1.0, SVG Export Plug-In . SVG Version: 6.00 Build 0)  -->
<!DOCTYPE svg PUBLIC "-//W3C//DTD SVG 1.1//EN" "http://www.w3.org/Graphics/SVG/1.1/DTD/svg11.dtd">
<svg version="1.1" id="Capa_1" xmlns="http://www.w3.org/2000/svg" xmlns:xlink="http://www.w3.org/1999/xlink" x="0px" y="0px"
	 width="60px" height="60px" viewBox="0 0 60 60" enable-background="new 0 0 60 60" xml:space="preserve">
<g>
	<linearGradient id="SVGID_1_" gradientUnits="userSpaceOnUse" x1="1.7" y1="30.2" x2="58.1" y2="30.2">
		<stop  offset="0" style="stop-color:#4BC25A"/>
		<stop  offset="1" style="stop-color:#368C41"/>
	</linearGradient>
	<circle fill="url(#SVGID_1_)" cx="29.9" cy="30.2" r="28.2"/>
	<path opacity="0.29" d="M43.6,14.4C40.7,17,42,26.2,39.6,29.3c-5.9,7.1-15.5,15.8-25.2,14.3l17,14.6C46.2,57.6,58,45.4,58.1,30.4
		L43.6,14.4z"/>
</g>
<path fill="#FFFFFF" d="M14.1,42.9c-0.5-1.1-0.7-2.2-0.7-3.3c0-0.2,0-0.4,0.1-0.5c0.1-0.2,0.5-0.5,1.2-1c0.8-0.5,1.7-1,2.9-1.6
	l1.7-0.9c0.1-0.1,0.3-0.2,0.6-0.4c0.3-0.2,0.6-0.4,0.8-0.5c0.2-0.1,0.5-0.2,0.7-0.2c0.4,0,0.9,0.4,1.5,1.1c0.6,0.7,1.2,1.4,1.8,2.1
	c0.6,0.7,1.1,1.1,1.4,1.1c0.2,0,0.3,0,0.5-0.1c0.2-0.1,0.4-0.1,0.5-0.2c0.1-0.1,0.3-0.2,0.5-0.3c0.2-0.1,0.4-0.2,0.5-0.3
	c2.1-1.2,4-2.6,5.5-4.1c1.5-1.5,2.9-3.4,4.1-5.5c0-0.1,0.1-0.2,0.3-0.5c0.1-0.2,0.2-0.4,0.3-0.6c0.1-0.1,0.1-0.3,0.2-0.5
	c0.1-0.2,0.1-0.4,0.1-0.5c0-0.3-0.2-0.6-0.7-1.1c-0.4-0.4-0.9-0.9-1.5-1.2c-0.5-0.4-1-0.8-1.5-1.3c-0.4-0.5-0.7-0.9-0.7-1.2
	c0-0.2,0.1-0.4,0.2-0.7c0.1-0.2,0.3-0.5,0.5-0.8c0.2-0.3,0.4-0.5,0.4-0.6c0.1-0.1,0.2-0.4,0.5-0.9c0.3-0.5,0.5-1,0.8-1.5
	c0.3-0.5,0.6-1,0.9-1.5c0.3-0.5,0.6-1,0.8-1.3c0.2-0.3,0.4-0.5,0.5-0.6c0.1,0,0.3-0.1,0.5-0.1c1,0,2.1,0.2,3.3,0.7
	c1,0.5,1.9,1.5,2.6,3.1c0.7,1.6,1.1,3,1.1,4.2c0,0.3,0,0.7-0.1,1.1c-0.1,0.4-0.1,0.7-0.2,1c-0.1,0.3-0.2,0.6-0.3,1.1
	c-0.1,0.4-0.2,0.8-0.3,1c-0.1,0.2-0.2,0.5-0.4,1.1c-0.2,0.5-0.3,0.8-0.4,1c-1.3,3.5-3.6,7-7,10.4c-3.4,3.4-6.8,5.7-10.4,7
	c-0.1,0-0.5,0.2-1,0.4c-0.5,0.2-0.9,0.3-1.1,0.4c-0.2,0.1-0.5,0.2-1,0.3c-0.4,0.1-0.8,0.2-1.1,0.3c-0.3,0.1-0.6,0.1-1,0.2
	c-0.4,0.1-0.8,0.1-1.1,0.1c-1.2,0-2.6-0.4-4.2-1.1C15.6,44.7,14.6,43.9,14.1,42.9L14.1,42.9z"/>
<path fill="#D1D1D1" d="M45.5,17.2c-0.7-1.6-1.6-2.6-2.6-3.1c-1.1-0.5-2.2-0.7-3.3-0.7c-0.2,0-0.4,0-0.5,0.1c-0.1,0-0.3,0.2-0.5,0.6
	c-0.2,0.3-0.5,0.8-0.8,1.3c-0.3,0.5-0.6,1-0.9,1.5c-0.3,0.5-0.5,1-0.8,1.5c-0.3,0.5-0.4,0.8-0.5,0.9c-0.1,0.1-0.2,0.3-0.4,0.6
	c-0.2,0.3-0.4,0.6-0.5,0.8c-0.1,0.2-0.2,0.5-0.2,0.7c0,0.3,0.2,0.7,0.7,1.2c0.4,0.5,0.9,0.9,1.5,1.3c0.5,0.4,1,0.8,1.5,1.2
	c0.4,0.4,0.7,0.8,0.7,1.1c0,0.2,0,0.3-0.1,0.5s-0.1,0.4-0.2,0.5c-0.1,0.1-0.2,0.3-0.3,0.6c-0.1,0.2-0.2,0.4-0.3,0.5
	c-1.2,2.1-2.6,4-4.1,5.5c-1.2,1.2-2.5,2.2-4,3.2v7c2.8-1.4,5.5-3.4,8.2-6.1c3.4-3.4,5.7-6.8,7-10.4c0-0.1,0.2-0.5,0.4-1
	c0.2-0.5,0.3-0.9,0.4-1.1c0.1-0.2,0.2-0.5,0.3-1c0.1-0.4,0.2-0.8,0.3-1.1c0.1-0.3,0.1-0.6,0.2-1c0.1-0.4,0.1-0.8,0.1-1.1
	C46.6,20.2,46.2,18.8,45.5,17.2z"/>
</svg>
